<?xml version="1.0" encoding="utf-8"?>
<!-- Generator: Adobe Illustrator 24.1.0, SVG Export Plug-In . SVG Version: 6.00 Build 0)  -->
<svg version="1.1" id="Layer_1" xmlns="http://www.w3.org/2000/svg" xmlns:xlink="http://www.w3.org/1999/xlink" x="0px" y="0px"
	 viewBox="0 0 96 96" style="enable-background:new 0 0 96 96;" xml:space="preserve">
<style type="text/css">
	.st0{display:none;}
	.st1{display:inline;fill:#282828;}
	.st2{display:inline;fill:#FBBD15;}
	.st3{fill:#F7D873;}
</style>
<ellipse cx="48.2" cy="47.8" rx="48.2" ry="47.8"/>
<g id="Layer_1_1_" class="st0">
	<path class="st1" d="M25.2,45.5c-1.2,0-2.3-0.3-3.2-0.9c-1-0.6-1.7-1.4-2.3-2.4c-0.5-1-0.8-2.2-0.8-3.5s0.3-2.5,0.8-3.5
		s1.3-1.8,2.2-2.4c0.9-0.6,2-0.9,3.3-0.9c0.9,0,1.8,0.2,2.5,0.6c0.7,0.4,1.4,0.9,1.8,1.6s0.7,1.4,0.7,2.3V41c0,0.8-0.3,1.6-0.7,2.3
		c-0.5,0.7-1.1,1.2-1.8,1.6C27,45.3,26.2,45.5,25.2,45.5z M25.8,42.2c0.7,0,1.2-0.1,1.7-0.4c0.5-0.3,0.9-0.7,1.2-1.2
		c0.3-0.5,0.4-1.1,0.4-1.8c0-0.7-0.1-1.3-0.4-1.8s-0.7-0.9-1.2-1.2c-0.5-0.3-1.1-0.4-1.7-0.4c-0.7,0-1.2,0.2-1.7,0.5
		s-0.9,0.7-1.2,1.2c-0.3,0.5-0.4,1.1-0.4,1.8c0,0.7,0.1,1.3,0.4,1.8c0.3,0.5,0.7,0.9,1.2,1.2C24.6,42,25.2,42.2,25.8,42.2z
		 M32.5,45.2H29v-3.5l0.6-3.2L29,35.4v-9.7h3.5V45.2z"/>
	<path class="st1" d="M41.8,45.5c-1.4,0-2.6-0.3-3.6-0.9c-1.1-0.6-1.9-1.4-2.5-2.4c-0.6-1-0.9-2.2-0.9-3.5s0.3-2.5,0.9-3.5
		c0.6-1,1.4-1.8,2.5-2.4c1-0.6,2.2-0.9,3.5-0.9c1.3,0,2.4,0.3,3.3,0.9c1,0.6,1.7,1.3,2.3,2.3c0.5,1,0.8,2.1,0.8,3.3
		c0,0.2,0,0.5,0,0.7c0,0.2-0.1,0.5-0.1,0.8H37v-2.6h9.3l-1.4,1.1c0-0.8-0.2-1.4-0.4-1.9s-0.6-0.9-1.1-1.2s-1-0.4-1.7-0.4
		c-0.7,0-1.3,0.2-1.8,0.5c-0.5,0.3-0.9,0.8-1.2,1.3c-0.3,0.6-0.4,1.2-0.4,2c0,0.8,0.1,1.5,0.4,2.1c0.3,0.6,0.7,1,1.3,1.4
		c0.6,0.3,1.2,0.5,1.9,0.5s1.3-0.1,1.8-0.3c0.5-0.2,1-0.6,1.4-1l2.1,2.1c-0.6,0.7-1.4,1.3-2.3,1.7C43.9,45.3,42.9,45.5,41.8,45.5z"
		/>
	<path class="st1" d="M54.7,45.5c-0.7,0-1.5-0.1-2.2-0.3s-1.4-0.5-2-0.8c-0.5-0.4-1-0.8-1.5-1.3l2.1-2.1c0.4,0.5,1,0.9,1.6,1.1
		c0.6,0.3,1.3,0.4,2,0.4c0.6,0,1-0.1,1.3-0.2c0.3-0.2,0.4-0.4,0.4-0.7c0-0.4-0.2-0.6-0.5-0.8c-0.3-0.2-0.7-0.4-1.2-0.5
		c-0.5-0.1-1-0.3-1.6-0.5c-0.5-0.2-1.1-0.4-1.6-0.7c-0.5-0.3-0.9-0.7-1.2-1.2s-0.5-1.1-0.5-1.9s0.2-1.5,0.6-2.2
		c0.4-0.6,1-1.1,1.7-1.4c0.8-0.3,1.6-0.5,2.7-0.5c1.1,0,2.1,0.2,2.9,0.6c0.9,0.4,1.6,0.9,2.2,1.7l-2.1,2.1c-0.4-0.5-0.8-0.8-1.3-1.1
		c-0.5-0.2-1-0.3-1.6-0.3c-0.5,0-0.9,0.1-1.2,0.2c-0.3,0.2-0.4,0.4-0.4,0.7c0,0.3,0.2,0.6,0.5,0.8s0.7,0.3,1.2,0.5
		c0.5,0.1,1,0.3,1.6,0.5c0.5,0.2,1.1,0.4,1.6,0.7c0.5,0.3,0.9,0.7,1.2,1.2s0.5,1.2,0.5,1.9c0,1.3-0.5,2.3-1.4,3
		C57.5,45.1,56.3,45.5,54.7,45.5z"/>
	<path class="st1" d="M19.7,69.3V49.8h3.5v9.7l-0.6,3.1l0.6,3.2v3.5H19.7z M27,69.5c-0.9,0-1.8-0.2-2.5-0.6
		c-0.8-0.4-1.4-0.9-1.8-1.6C22.2,66.6,22,65.9,22,65v-4.6c0-0.8,0.3-1.6,0.7-2.3c0.4-0.7,1.1-1.2,1.8-1.6c0.8-0.4,1.6-0.6,2.5-0.6
		c1.2,0,2.3,0.3,3.2,0.9c1,0.6,1.7,1.4,2.3,2.4c0.5,1,0.8,2.2,0.8,3.5s-0.3,2.4-0.8,3.5c-0.5,1-1.3,1.8-2.3,2.4
		C29.3,69.2,28.2,69.5,27,69.5z M26.4,66.3c0.6,0,1.2-0.1,1.7-0.4c0.5-0.3,0.9-0.7,1.2-1.2s0.4-1.1,0.4-1.8s-0.1-1.3-0.4-1.8
		s-0.7-0.9-1.2-1.2s-1.1-0.4-1.7-0.4s-1.2,0.1-1.7,0.4c-0.5,0.3-0.9,0.7-1.2,1.2s-0.4,1.1-0.4,1.8s0.1,1.3,0.4,1.8s0.7,0.9,1.2,1.2
		C25.1,66.1,25.7,66.3,26.4,66.3z"/>
	<path class="st1" d="M35.6,69.3v-13h3.5v13H35.6z M39.1,62.1l-1.4-0.9c0.2-1.6,0.6-2.9,1.4-3.8c0.8-0.9,1.9-1.4,3.3-1.4
		c0.6,0,1.2,0.1,1.7,0.3s1,0.5,1.4,1l-2.2,2.5c-0.2-0.2-0.4-0.4-0.7-0.5c-0.3-0.1-0.6-0.2-1-0.2c-0.8,0-1.4,0.2-1.8,0.7
		C39.4,60.4,39.1,61.1,39.1,62.1z"/>
	<path class="st1" d="M52.6,69.5c-1.3,0-2.5-0.3-3.6-0.9s-1.9-1.4-2.5-2.5c-0.6-1-0.9-2.2-0.9-3.5s0.3-2.4,0.9-3.4s1.4-1.8,2.5-2.4
		c1.1-0.6,2.2-0.9,3.5-0.9s2.5,0.3,3.6,0.9c1.1,0.6,1.9,1.4,2.5,2.4s0.9,2.2,0.9,3.4c0,1.3-0.3,2.4-0.9,3.5c-0.6,1-1.4,1.9-2.5,2.5
		C55.1,69.2,53.9,69.5,52.6,69.5z M52.6,66.3c0.7,0,1.3-0.1,1.8-0.4c0.5-0.3,0.9-0.7,1.2-1.2s0.4-1.1,0.4-1.8s-0.1-1.3-0.4-1.8
		c-0.3-0.5-0.7-0.9-1.2-1.2s-1.1-0.4-1.8-0.4c-0.6,0-1.2,0.1-1.7,0.4c-0.5,0.3-0.9,0.7-1.2,1.2s-0.4,1.1-0.4,1.8s0.1,1.3,0.4,1.8
		c0.3,0.5,0.7,0.9,1.2,1.2C51.4,66.1,51.9,66.3,52.6,66.3z"/>
	<path class="st1" d="M66.3,69.6c-0.7,0-1.5-0.1-2.2-0.3c-0.7-0.2-1.4-0.5-2-0.8c-0.6-0.4-1.1-0.8-1.5-1.3l2.1-2.1
		c0.4,0.5,1,0.9,1.6,1.1c0.6,0.3,1.3,0.4,2,0.4c0.6,0,1-0.1,1.3-0.2c0.3-0.2,0.4-0.4,0.4-0.7c0-0.4-0.2-0.6-0.5-0.8
		c-0.3-0.2-0.7-0.4-1.2-0.5s-1-0.3-1.6-0.5c-0.5-0.2-1.1-0.4-1.6-0.7s-0.9-0.7-1.2-1.2s-0.5-1.1-0.5-1.9c0-0.8,0.2-1.5,0.6-2.2
		c0.4-0.6,1-1.1,1.7-1.4c0.8-0.3,1.6-0.5,2.7-0.5c1.1,0,2.1,0.2,2.9,0.6c0.9,0.4,1.6,0.9,2.2,1.7l-2.1,2.1c-0.4-0.5-0.8-0.8-1.3-1.1
		c-0.5-0.2-1-0.3-1.6-0.3c-0.5,0-0.9,0.1-1.2,0.2c-0.3,0.2-0.4,0.4-0.4,0.7s0.2,0.6,0.5,0.8s0.7,0.3,1.2,0.5c0.5,0.1,1,0.3,1.6,0.5
		c0.5,0.2,1.1,0.4,1.6,0.7s0.9,0.7,1.2,1.2s0.5,1.2,0.5,1.9c0,1.3-0.5,2.3-1.4,3S67.9,69.6,66.3,69.6z"/>
	<path class="st2" d="M21.9,99.8c-0.6,0-1.2-0.2-1.6-0.6c-0.4-0.4-0.6-1-0.6-1.6s0.2-1.2,0.6-1.6c0.4-0.4,0.9-0.6,1.6-0.6
		c0.6,0,1.2,0.2,1.6,0.6s0.6,1,0.6,1.6s-0.2,1.2-0.6,1.6C23,99.6,22.5,99.8,21.9,99.8z"/>
</g>
<path class="st3" d="M60.9,59.1L60.9,59.1c0.2,0.2,0.2,0.2,0.3,0.3c-0.2,0.2-0.2,0.3-0.3,0.5c-0.2,0.2-0.3,0.5-0.5,0.8
	c0,0-0.2,0-0.2,0.2c-0.2,0-0.3,0.2-0.6,0.3c0,0-0.2,0-0.2,0.2l0,0c-0.3,0-0.6,0-0.9,0.2c-0.5,0.2-0.9,0.3-1.4,0.3
	c-0.2,0-0.2,0-0.3,0.2l0,0l0,0c-0.2,0-0.2,0-0.3,0s-0.3,0.2-0.2,0.3v0.2c0.3,0.6,0.6,1.4,0.9,2v0.2c0,0.5,0.2,0.9,0.2,1.2
	c0,0.2,0,0.3,0.2,0.6c0,0,0,0.2,0,0.3c0,0.5-0.2,1.1,0.2,1.4V68c0,0.5,0.2,0.8,0.3,1.1c0,0.2,0.2,0.2,0,0.5c0,0,0,0.2,0,0.3
	c0.2,0.5,0.5,0.8,0.6,1.2l0,0c0,0.2,0,0.3,0.2,0.5c0,0.2,0.2,0.3,0.3,0.6c0.2,0.2,0.3,0.5,0.3,0.8c0,0,0,0.2,0,0.3
	c-0.2-0.2-0.2-0.3-0.3-0.5c0,0-0.2-0.2-0.2-0.3c-0.2-0.3-0.2-0.8-0.3-1.1c0-0.2-0.2-0.3-0.3-0.5c-0.3-0.3-0.5-0.8-0.5-1.1
	s0-0.6-0.2-0.9c-0.2-0.5-0.3-1.1-0.5-1.5c-0.2-0.8-0.3-1.4-0.5-2.1c0-0.2-0.2-0.5-0.2-0.8c0-0.2,0-0.5-0.2-0.6
	c-0.2-0.5-0.2-1.1-0.3-1.5c0-0.2-0.2-0.5-0.2-0.8s0-0.3,0.3-0.5c0.2,0,0.5-0.2,0.8-0.2h0.2c0.3,0.2,0.6,0,1.1,0
	c0.2,0,0.3-0.2,0.5-0.2c0.3,0,0.6-0.2,0.9-0.5c0.2-0.2,0.3-0.3,0.6-0.5c0.3-0.2,0.6-0.5,0.8-0.9c0-0.2,0-0.3-0.2-0.3s-0.3,0-0.3,0
	s-0.2-0.2-0.2-0.3c0-0.5,0-0.5-0.5-0.6c-0.3,0-0.6-0.2-0.8-0.3c0-0.5,0-0.5-0.3-0.6c-0.3-0.2-0.6-0.2-0.9-0.3
	c-0.9,0.2-1.5,0.2-2.1,0.2c0,0-0.2,0-0.3,0C55.5,57,55,57,54.6,57c-0.2,0-0.2,0-0.3,0c-0.2,0-0.3,0-0.5,0s-0.3,0-0.5,0
	c-0.5,0.2-0.9,0.2-1.2,0.3c-0.3,0-0.6-0.2-0.8,0h-0.2c-0.2,0-0.3,0-0.5,0.2c-0.3,0.3-0.3,0.3-0.8,0.2c0,0-0.2,0-0.3,0
	c-0.2,0-0.3,0-0.6,0c-0.3,0-0.8,0-1.1,0c-0.2,0-0.3,0-0.5,0.2c-0.2,0.3-0.5,0.5-0.8,0.5L46.7,58c-0.2-0.3-0.2-0.3-0.6-0.2
	c-0.3,0-0.6,0-0.9,0c-0.2,0-0.5,0-0.8,0c0,0-0.2,0-0.3,0c-0.3-0.2-0.6-0.5-0.9-0.6c-0.2,0-0.3-0.2-0.5-0.2c-0.3,0-0.6-0.2-0.8-0.3
	c-0.5-0.3-0.9-0.3-1.4-0.2c-0.2,0-0.3,0-0.5-0.2c-0.3-0.3-0.8-0.5-1.2-0.5c-0.5,0-0.9-0.2-1.2-0.2c-0.2,0-0.3,0-0.5,0
	c-0.5-0.2-0.9,0-1.2,0c0,0-0.2,0-0.2,0.2c-0.2,0-0.3,0.2-0.5,0.2c-0.5,0-0.9,0-1.2,0.2c-0.2,0-0.5,0-0.8,0s-0.8,0-1.1,0.3
	c-0.3,0.2-0.5,0.3-0.8,0.5c-0.2,0.2-0.3,0.2-0.3,0.5c0,0,0,0.2-0.2,0.3c-0.2,0.2,0,0.3,0,0.3c0.3,0.2,0.3,0.3,0.3,0.6
	c0,0,0,0.2,0,0.3c0,0.3,0,0.6-0.3,0.9c-0.2,0.2-0.2,0.2,0,0.3c0,0,0.2,0.2,0.3,0.2c0,0,0.2,0.2,0.3,0.3c0.3,0.3,0.9,0.5,1.2,0.5
	c0.3,0,0.8,0,1.1,0c0.2,0,0.3,0.2,0.3,0.3c0,0.2,0,0.3-0.2,0.5v0.2c0,0.2,0,0.3-0.2,0.6c-0.2,0.3-0.2,0.6-0.2,0.9
	c0,0.3,0,0.6-0.2,0.9c0,0.2-0.2,0.3-0.2,0.5c0,0.3-0.3,0.6-0.5,0.8c0,0,0,0,0-0.2c0.2-0.3,0.3-0.8,0.6-1.1c0.2-0.3,0.2-0.5-0.2-0.8
	c-0.2,0-0.2-0.2-0.2-0.3c0-0.5,0-0.9,0.2-1.2c0.2-0.3,0-0.5-0.3-0.6c-0.5,0-0.9-0.2-1.2-0.2c-0.2,0-0.5,0-0.6-0.2
	c-0.2-0.2-0.3-0.2-0.6-0.2c-0.2,0-0.3,0-0.5-0.2l-0.2-0.2c-0.3,0-0.6,0-0.9,0.2l-0.3,0.2c-0.2,0-0.3,0-0.5,0.2
	c-0.2,0.2-0.3,0.2-0.5,0.2c-0.3,0-0.6,0-0.9,0c-0.8,0-1.7,0-2.4,0c-0.3,0-0.3,0.2-0.2,0.3c0.2,0.3,0.3,0.6,0.5,1.1
	c0.2,0.2,0.2,0.5,0.3,0.8c0,0.2,0,0.3,0.2,0.5l0,0v0.2c0.2,0.2,0.2,0.5,0,0.8c0,0.2,0,0.3,0,0.5c0.2,0.5,0,0.9,0,1.2
	c-0.2-0.5-0.3-1.1-0.3-1.5c0-0.6-0.2-1.2-0.3-2c-0.2-0.5-0.3-0.9-0.8-1.2c-0.2-0.2-0.2-0.3,0.2-0.5h0.2c0.3,0,0.6,0,0.9,0
	c0.5,0,0.8,0,1.2-0.2c0.3,0,0.8,0,1.1,0c0.2,0,0.5,0,0.6-0.2c0,0,0.2-0.2,0.3-0.2s0.3-0.2,0.5-0.3c0.2-0.3,0.3-0.5,0.3-0.9
	c0-0.2,0-0.5,0.3-0.6c0.2,0,0.2-0.2,0-0.3c-0.2-0.3-0.3-0.5-0.6-0.8c-0.3-0.3-0.6-0.6-0.6-1.1L28.5,57c-0.2,0-0.3-0.2-0.6-0.2
	c-0.2,0-0.3-0.2-0.5-0.2c-0.3,0-0.6,0-0.9-0.2c-0.2,0-0.5,0-0.6,0c-0.5,0-0.9,0-1.4,0c-0.3,0-0.8,0-1.1,0.2c0.2,0.3,0.2,0.3,0.3,0.8
	c0,0.3,0,0.3,0.5,0.3c0.3,0,0.6,0.2,0.9,0.2c0,0.2-0.2,0.2-0.3,0.2c-0.2,0-0.2,0-0.3,0c-0.3,0.2-0.8,0.3-1.1,0.3c-0.3,0-0.8,0-1.1,0
	c-0.3,0-0.6,0-0.9,0c-0.2,0-0.2,0-0.3,0c-0.3,0-0.8,0-1.1,0c-0.3,0-0.6,0-0.9-0.2l0,0c0.5,0,0.9,0,1.2,0c0.2,0,0.5,0,0.8,0h0.2
	c0.2,0,0.2,0,0.2-0.2s-0.2-0.5-0.3-0.6c-0.2-0.2-0.2-0.5-0.2-0.8c0-0.2,0.2-0.2,0.3-0.2c0,0,0.2,0,0.3,0c0.2-0.2,0.5-0.2,0.8,0
	c0.3,0,0.8,0,1.1,0c0.5,0,0.9-0.2,1.4,0c0.2,0,0.3,0,0.5,0c0.5-0.2,0.9-0.2,1.4,0c0.6,0,1.1,0.2,1.7,0.2c0.5,0,0.8,0.2,1.1,0.3
	c0.2,0,0.3,0.2,0.5,0.2c0.2,0,0.3,0,0.3,0.2L30,57.4c-0.2,0.2-0.2,0.3,0,0.3c0.2,0.2,0.3,0.3,0.5,0.3c0.2,0,0.3-0.2,0.5-0.2l0.2-0.2
	c0.2-0.2,0.3-0.5,0.5-0.6c0,0,0.2-0.2,0.3-0.2c0.6-0.3,1.1-0.6,1.8-0.6c0,0,0.2,0,0.3-0.2c0.2,0,0.2-0.2,0.3-0.2
	c0.2-0.2,0.5-0.2,0.6,0h0.3c0.2,0,0.3,0,0.5,0c0,0,0.2,0,0.3,0c0.5-0.2,0.9-0.2,1.2,0c0.6,0.2,1.2,0,2,0.3c0.2,0,0.3,0.2,0.6,0.2
	c0.2,0,0.5,0,0.6,0.2l0,0c0.3,0.2,0.8,0.3,1.2,0.2c0.2,0,0.3,0,0.3,0c0.5,0.3,0.9,0.5,1.5,0.5c0.2,0,0.3,0,0.5,0.2
	c0.6,0.3,1.2,0.5,1.8,0.8c0,0,0.2,0,0.3,0H46c0.2,0,0.3,0,0.6,0s0.6,0,0.9,0c0.5-0.2,0.9,0,1.2-0.2c0.3,0,0.8,0,1.1-0.2
	c0.2-0.2,0.3,0,0.5,0l0.2,0.2c0,0,0,0,0.2,0c0,0,0-0.2,0.2-0.2c0.2-0.3,0.3-0.3,0.6-0.2c0.2,0,0.3,0,0.5,0s0.3,0,0.5,0s0.3,0,0.5,0
	c0.3-0.2,0.8-0.2,1.1-0.3c0.2,0,0.5-0.2,0.8,0c0,0,0,0,0.2,0s0.3,0,0.6,0c0.3,0,0.6,0,0.9-0.2c0.2-0.2,0.5-0.2,0.6-0.2
	c0.2,0,0.5,0,0.8,0c0.3,0,0.8,0,1.1,0c0.2,0.2,0.3,0.2,0.5,0.3c0,0,0.2,0.2,0.3,0.2c0.3,0.2,0.5,0.2,0.8,0.3c0.2,0,0.3,0.2,0.2,0.3
	c0,0.2,0,0.3,0.2,0.5c0.2,0,0.3,0.2,0.3,0.5c0,0.6,0,0.5,0.5,0.6C60.9,59.1,60.9,59.1,60.9,59.1z M30.4,58.5c0,0,0.2,0.2,0.2,0.3
	c0.2-0.2,0.3-0.2,0.5-0.3c0.2-0.2,0-0.3-0.2-0.3C30.6,58,30.4,58.2,30.4,58.5z"/>
<path class="st3" d="M86.4,20.5L86.4,20.5c-0.2,0-0.3,0-0.5,0c-0.6,0-1.1,0-1.7,0c0,0-0.2,0-0.3,0c-0.3,0-0.6,0-0.9,0
	c-0.2,0-0.5,0-0.6,0c-0.3,0-0.5-0.2-0.8-0.3c-0.2-0.2-0.3-0.2-0.5,0.2c-0.2,0.2-0.3,0.3-0.5,0.5c-0.2,0.2-0.3,0.3,0,0.5
	c0.2,0.2,0.2,0.5,0,0.6c-0.3,0.3-0.3,0.5,0,0.9c0.2,0.2,0.2,0.3,0.5,0.3c0,0,0.2,0,0.3,0c0.2,0,0.3,0.2,0.3,0.3
	c0,0.2,0.2,0.3,0.3,0.3c0.3,0,0.6,0.2,0.8,0.2c0.2,0,0.3,0,0.5,0.2c0.2,0,0.3,0.2,0.5,0.2c0.3,0,0.6,0,0.9,0c0.5,0,1.1,0,1.5,0
	c0.2,0,0.5,0,0.6,0.2c-0.2,0.3-0.2,0.3-0.6,0c-0.2,0-0.3,0.2-0.5,0.3c-0.2,0.2-0.3,0.2-0.5,0h-0.2c0,0-0.2,0-0.2,0.2v0.2
	c0,0,0.2,0.2,0.3,0.2c0.6,0,1.1,0.2,1.7,0.2c0.2,0,0.3,0,0.5,0.2c0,0.2,0.2,0.5,0.2,0.6l0,0l0,0c0-0.2,0-0.2-0.2-0.3
	c0-0.2-0.2-0.3-0.5-0.2c-0.5,0-1.1,0-1.5,0c-0.3,0-0.6-0.2-1.1-0.3c-0.2,0-0.5,0-0.6,0c0,0-0.2,0-0.3,0c-0.5,0-0.5-0.2-0.3-0.5
	c0-0.2-0.2-0.2-0.3,0c-0.2,0.2-0.3,0.2-0.6,0c-0.2,0-0.5-0.2-0.6-0.2c0,0,0-0.2,0-0.3c-0.2,0-0.5,0-0.6,0c0,0.2,0.2,0.3,0.2,0.5
	c-0.3,0.3-0.2,0.6,0,0.9c0,0.5,0.2,0.9,0.3,1.2V27c0,0.2-0.2,0.3-0.2,0.5c0,0,0,0.2,0,0.3c0,0.3,0,0.6,0,0.9c0,0.2,0,0.3-0.2,0.3
	c-0.3,0-0.3,0.3-0.5,0.6v0.2c0.2,0.3,0.2,0.8,0.2,1.1c0,0,0,0,0,0.2c0,0.2,0.2,0.2,0.3,0.2l0.2-0.2c0.2-0.3,0.3-0.6,0.6-0.8
	c0.3,0.2,0.3,0.5,0.2,0.8c0,0.2-0.2,0.3-0.3,0.5c-0.5-0.5-0.5-0.3-0.5,0s-0.2,0.5-0.3,0.6c0,0,0,0-0.2,0c-0.2,0.2-0.2,0.3,0,0.3
	c0.2,0,0.3,0.2,0.5,0.2c0,0,0.2,0,0.2,0.2l-0.2,0.2c-0.5,0.3-1.1,0.6-1.7,0.8c-0.8,0.2-1.4,0.2-2.1,0.2c0,0-0.2,0-0.3,0
	s-0.3,0-0.5,0c-0.8-0.2-1.5-0.3-2.1-0.3c-0.6,0-1.2,0-1.8,0c-0.2,0-0.3,0-0.5,0.2c-0.2,0.3-0.5,0.3-0.9,0.3c-0.6,0-1.2,0-1.8,0.2
	c-0.3,0-0.6,0-0.9,0c-0.2,0-0.3,0-0.5,0c0,0.3,0.3,0,0.5,0.3h-0.2c-0.2,0-0.3,0-0.6,0c-0.5,0-0.9,0-1.4,0.2c-0.3,0-0.5,0-0.8,0
	s-0.5,0-0.6,0.2c-0.2,0.2-0.3,0.2-0.5,0.2c-0.2,0-0.3,0-0.3,0.2S64.4,35,64.2,35c-0.6,0-0.6,0-0.6,0.5c0,0.2,0,0.5,0,0.6
	c0,0.8,0.3,1.5,0.3,2.1c0,0.3,0,0.6,0,0.9c0,0.3,0.3,0.5,0.6,0.5s0.8,0,1.1,0.2c0,0,0.2,0,0.3,0.2c0.2,0,0.2,0.2,0.3,0.2
	c0,0,0.2,0,0.2,0.2c0.2,0.2,0.3,0.3,0.5,0.3c0,0,0,0.2,0.2,0.2l0,0c-0.3-0.2-0.8-0.5-1.1-0.6c-0.2,0.2-0.2,0.3,0,0.3
	c0,0.2,0.2,0.3,0,0.5c-0.2,0.2-0.3,0.2-0.5,0c-0.3-0.2-0.6-0.3-0.9-0.5c-0.3-0.2-0.5-0.3-0.6-0.8c0-0.2-0.2-0.3-0.3-0.5
	c-0.2,0-0.2-0.3-0.2-0.5c0-0.3,0-0.5-0.2-0.6c-0.2-0.3-0.5-0.6-0.3-1.1c0-0.2,0-0.3,0-0.6c0-0.5-0.2-0.8,0-1.2
	c0.2-0.6,0.2-1.1,0.2-1.7c0-0.2,0-0.2,0.2-0.3c0.3,0.3,0.8,0.5,1.2,0.5c0.5,0,1.1,0,1.7,0c0.3,0,0.8,0,1.1,0c0.2,0,0.3,0,0.3-0.2
	s0.2-0.2,0.5-0.2h0.2c0.3,0,0.8,0,1.1,0c0,0,0.2,0,0.3,0c0.3,0,0.6,0,0.9,0c0.2,0,0.3,0,0.5-0.2c0-0.2,0.2-0.2,0.3-0.2
	c0.3,0,0.5,0,0.8-0.2l0,0c0.5,0,0.9,0,1.2,0c0.9,0,1.7,0,2.4,0c0.3,0,0.8,0,1.1,0c0.2,0,0.5,0,0.6,0c0.3,0,0.6,0,0.9-0.2
	c0,0,0,0,0.2,0c0.5,0,0.8,0,1.2-0.2c0.2,0,0.5,0,0.6-0.3c-0.2-0.2-0.3-0.3-0.5-0.5c0.2-0.2,0.2-0.3,0.3-0.3c0.3,0,0.5-0.3,0.6-0.5
	c0.2-0.2,0.2-0.5,0.2-0.8c-0.6,0-0.6,0-0.8-0.3c0-0.2,0-0.2,0.2-0.3c0-0.3-0.2-0.6-0.3-0.8c-0.2-0.3,0-0.5,0.2-0.8
	c0,0,0.2-0.2,0.2-0.3c0-0.5-0.2-0.9-0.2-1.4c0-0.2,0-0.2,0.2-0.3c0.3,0,0.3-0.2,0.2-0.5c0-0.2,0-0.3,0-0.5s0-0.3,0-0.5
	c0-0.2,0-0.3,0-0.5c0-0.2,0-0.5-0.3-0.5c-0.2,0-0.2-0.2-0.2-0.3c0-0.3,0-0.3-0.3-0.3c-0.2,0-0.2,0-0.3-0.2c-0.2-0.3-0.5-0.5-0.8-0.8
	c0,0-0.3-0.2-0.3,0c-0.3,0-0.5,0.2-0.8,0.3c-0.2,0-0.2,0-0.3,0c-0.2-0.2-0.3-0.5-0.3-0.8c0-0.3,0-0.3-0.2-0.5
	c-0.2,0-0.5-0.2-0.6-0.5c0,0,0,0-0.2-0.2c-0.3-0.3-0.6-0.5-1.1-0.8c0,0,0,0,0.2,0c0.2,0.2,0.5,0.3,0.6,0.5c0.2,0,0.5,0.2,0.6,0.2
	c0,0,0.2,0,0.3,0.2c0.2,0.3,0.6,0.3,0.9,0.3s0.5,0.2,0.6,0.3c0.2,0.3,0.3,0.5,0.6,0.6c0.2,0,0.3,0.2,0.5,0.3c0,0,0.2,0,0.3,0
	s0.5,0,0.6,0.2c0,0,0.2,0,0.3,0v-0.2c0-0.2,0-0.2,0-0.3V22c0-0.2-0.2-0.3-0.3-0.2c-0.2,0-0.2,0-0.3,0.2c-0.2,0.2-0.2,0-0.3,0
	c0-0.5,0.2-0.5,0.6-0.3c0.2,0,0.5,0.2,0.6,0c0,0,0-0.2,0-0.3c-0.2-0.3,0-0.6-0.2-0.9v-0.2c0.2-0.2,0.3-0.3,0.6-0.5
	c0.3-0.5,0.8-0.6,1.2-0.3c0.3,0.2,0.6,0.3,1.1,0.3c0.2,0,0.3,0,0.5,0c0.3,0,0.6,0,0.6,0.5c0.5,0,0.9,0,1.4,0
	C86.1,20.3,86.2,20.3,86.4,20.5z"/>
<path class="st3" d="M75.1,20.6L75.1,20.6c-0.3-0.2-0.5-0.3-0.6-0.6c0-0.2,0-0.2-0.2-0.3c0-0.2-0.2-0.2-0.3,0c-0.2,0-0.2,0-0.3,0
	c-0.5,0-0.8-0.2-1.1-0.5c-0.3-0.3-0.8-0.5-1.2-0.5c-0.6,0-1.2-0.2-1.8-0.2c-0.3,0-0.8,0-1.1,0.2c0,0-0.2,0.2-0.3,0.2
	c-0.5,0.2-1.1,0.2-1.5,0.2h-0.2c0,0-0.2,0-0.3,0c-0.2,0-0.3,0-0.6,0c-0.3,0-0.5,0-0.8,0s-0.8,0-1.1,0.2c-0.6,0.2-1.2,0.3-1.8,0.6
	c-0.2,0-0.2,0-0.2,0.3c0,0,0.2,0,0.3,0c0.2,0,0.3,0.2,0.2,0.3c0,0,0,0.2-0.2,0.2c-0.3,0.2-0.6,0.5-0.9,0.8c-0.2,0.2-0.5,0.3-0.6,0.5
	c-0.9,0.5-1.5,1.1-2.1,2c-0.3,0.5-0.6,1.1-0.9,1.5c-0.2,0.3-0.5,0.8-0.8,1.1c0,0.2-0.2,0.3-0.3,0.5c0,0.2,0,0.3-0.2,0.5
	c0,0.2,0,0.3,0.2,0.3c0,0,0.2-0.2,0.2-0.3l0.2-0.2v0.2c0,0.2,0,0.5,0.2,0.6c0.2,0.3,0.3,0.6,0.2,0.9c0,0.2,0,0.3,0,0.3
	c0,0.2,0,0.5-0.2,0.6c0.2,0.6,0.2,0.9,0.2,1.2c0,0.6,0,1.1,0,1.7c0,0.2,0,0.3,0.2,0.5c0.2,0.2,0.3,0.3,0.5,0.5c0.2,0,0,0.2,0,0.3
	c0,0,0,0-0.2,0c-0.2,0.2-0.3,0.3,0,0.5c0,0,0.2,0.2,0,0.3c-0.2,0.3-0.2,0.8,0,1.1c0,0.5,0,0.9,0,1.2c0,0.2,0,0.3,0,0.5
	c0.2,0.5,0.5,0.9,0.6,1.4c0,0.2,0.2,0.3,0.2,0.5c0.3,0.6,0.6,1.2,0.9,1.8c0.2,0.3,0.3,0.6,0.5,0.9l0,0c-0.2-0.2-0.3-0.3-0.3-0.5
	c-0.3-0.5-0.6-1.1-0.9-1.5c-0.2-0.5-0.5-0.8-0.6-1.2c-0.2-0.2-0.3-0.5-0.5-0.6c-0.2-0.2-0.2-0.5-0.3-0.6c-0.2-0.3-0.2-0.8-0.2-1.1
	c0-0.6,0-1.2,0-2c0,0,0-0.2,0-0.3c0-0.3-0.2-0.6,0.2-0.8c0,0,0,0,0-0.2c-0.2-0.2-0.2-0.3-0.2-0.5s0-0.5,0-0.8c0-0.3,0-0.6-0.2-0.9
	s-0.2-0.8-0.3-1.2c0-0.3,0-0.8,0-1.1v-0.2c-0.3,0-0.3,0.3-0.3,0.5c0,0.3,0,0.5-0.2,0.8v0.3c0,0.2,0,0.5,0,0.6l0,0
	c0,0.2-0.2,0.3-0.3,0.3c-0.2,0-0.2-0.2-0.2-0.5c0-0.3,0.2-0.8,0.2-1.1c0-0.2,0-0.3,0.2-0.5c0.2-0.3,0.2-0.6,0.3-0.9
	c0-0.2,0.2-0.3,0.3-0.5c0.2-0.2,0.3-0.3,0.2-0.5c0,0,0-0.2,0.2-0.3c0-0.2,0.2-0.3,0.2-0.5v-0.3c0.2-0.3,0.3-0.8,0.6-1.1
	c0.3-0.3,0.6-0.6,0.8-1.1l0,0c0.2-0.3,0.5-0.6,0.6-0.9c0.2-0.3,0.5-0.6,0.6-0.9c0,0,0-0.2,0.2-0.2c0.3-0.3,0.8-0.6,1.1-0.8
	c0.2,0,0.3,0,0.5-0.2c0-0.2-0.2-0.2-0.3-0.3c0-0.2,0.2-0.2,0.2-0.3c-0.2-0.3-0.5,0-0.6-0.2c0,0,0,0,0.2-0.2c0.3-0.2,0.9-0.3,1.2-0.6
	c0.2-0.2,0.5-0.2,0.6-0.2c0.3,0,0.5-0.2,0.8-0.2c0.5-0.2,0.9-0.3,1.4-0.3h0.2c0.3-0.2,0.6-0.2,0.9-0.3c0.3,0,0.5-0.2,0.8,0
	c0.2,0,0.5,0,0.6,0c0,0,0.2,0.2,0.3,0.2c0.3,0.2,0.6,0,0.9-0.2c0.2-0.2,0.5-0.3,0.9-0.3c0.6,0,1.2,0.2,2,0.2c0.2,0,0.3,0,0.5,0
	c0.3,0,0.5,0,0.8,0c0.3,0.2,0.8,0.2,1.1,0.3c0.2,0,0.3,0,0.5,0c0.3-0.2,0.5-0.2,0.6,0.2c0.2,0.3,0.5,0.8,0.6,1.1
	C74.9,20.3,74.9,20.5,75.1,20.6z"/>
<path class="st3" d="M18.4,20.9c0-0.2,0-0.3,0-0.5s0-0.5,0-0.8c0-0.3,0-0.5,0.3-0.6c0.2-0.2,0.3-0.3,0.3-0.6c0-0.3,0-0.8,0-1.1
	c0-0.3,0-0.8-0.2-1.1c0-0.2-0.3-0.3-0.5-0.3c0,0-0.2,0-0.5,0c0,0.2,0,0.2,0,0.3s0,0.2,0.2,0.3c0,0.3,0,0.5-0.5,0.5
	c-0.9,0-1.5-0.5-2.4-0.5c-0.2,0-0.2,0-0.3-0.2c0-0.2,0-0.5,0-0.6c0-0.2,0-0.5,0-0.6c0-0.2,0.2-0.3,0.2-0.5c-0.2-0.2-0.5-0.3-0.8-0.3
	c-0.2,0-0.5,0-0.6-0.2c0,0,0,0,0-0.2c0-0.5-0.2-0.8-0.3-1.2c0-0.5,0-1.1,0.5-1.4c0.2-0.2,0.5-0.3,0.8-0.3c0,0-0.2,0.2-0.3,0.2
	c-0.3,0.2-0.5,0.3-0.6,0.6c-0.2,0.2-0.2,0.5-0.2,0.8s0.2,0.6,0.3,0.9c0,0.2,0.2,0.3,0.5,0.5c0.5,0,0.9,0.2,1.4,0.3
	c0.6,0.3,1.1,0.6,1.8,0.8c0.5,0.2,0.9,0.5,1.4,0.8c0.2,0,0.2,0.2,0.2,0.3c0,0.2,0,0.3,0,0.5c0,0.2,0.2,0.3,0.2,0.5
	c0,0.6,0,1.2,0,1.8v0.2c0,0.2,0,0.5,0,0.8c0,0.2,0,0.3-0.2,0.5c-0.3,0.3-0.5,0.8-0.5,1.1c0,0,0,0.2,0,0.3c0,0.3-0.2,0.8,0,1.1
	c0,0.5,0,1.1,0,1.5c0,0.3,0,0.8,0,1.1c0,0.6,0,1.1-0.2,1.7c0,0.2,0,0.3,0,0.5c0,0.3,0,0.6,0,0.9c0,0.5-0.2,1.1-0.2,1.5
	c0,0.2,0,0.3,0.2,0.3c0.2-0.5,0.2-0.5,0.3-0.5c0.2,0,0.2,0.2,0.2,0.3c0,0.6,0,1.2,0,2c0,0,0,0,0,0.2c0,0.3,0.2,0.6,0.2,0.9v0.2
	c0,0.2,0,0.5,0,0.6c0,0.3,0,0.5,0,0.8c0,0.3,0,0.6,0,0.9c0,0.3,0,0.6,0,1.1s0,0.9,0.2,1.2c0,0,0,0.2,0,0.3c0,0.3-0.2,0.6,0,1.1v0.2
	c0,0.5-0.2,0.9,0,1.4c0,0.2,0,0.5,0,0.6s-0.2,0.3-0.3,0.2c-0.2,0-0.2-0.2-0.3-0.3c0,0,0,0,0,0.2c0.2,0.3,0,0.6-0.2,0.9
	c0,0.2-0.2,0.3-0.5,0.3c-0.3,0-0.5,0-0.8,0c-0.3,0-0.6,0-0.9,0.2c-0.2,0-0.3,0-0.5,0c-0.5,0-1.1,0.2-1.4,0.3s-0.5,0.3-0.3,0.8
	c0,0.2,0.2,0.5,0.2,0.6s0,0.3,0.2,0.5c0.2,0.2,0.3,0.3,0.6,0.5c0.5,0.2,0.9,0.5,1.4,0.8c0.5,0.2,0.9,0.5,1.2,0.6l0,0
	c0,0-0.2,0-0.3,0l0,0c0-0.2-0.3-0.2-0.5-0.2l0,0c-0.3-0.2-0.6-0.3-0.9-0.5c-0.2,0-0.3-0.2-0.6-0.2s-0.3-0.2-0.6-0.2
	c0,0-0.2-0.2-0.3-0.2c-0.2-0.2-0.3-0.3-0.5-0.5c-0.5-0.5-0.5-0.5-0.5-0.8c0-0.2-0.2-0.3-0.2-0.5c-0.2-0.2-0.5-0.5-0.6-0.6
	c0,0-0.2-0.2,0-0.3c0.2-0.2,0.6-0.3,0.9-0.3c0.2,0,0.5,0,0.6,0c0.3,0,0.5-0.2,0.8-0.2c0.9,0,1.8,0,2.6-0.2c0.5,0,0.6-0.3,0.5-0.8
	l0,0c-0.3-0.5-0.2-0.8-0.2-1.1c0,0,0-0.2,0.2-0.2l0.2-0.2c-0.2-0.3,0-0.6,0.2-0.8l0,0c0.2-0.3,0.3-0.6,0.5-1.1
	c0.2-0.3,0.2-0.6,0-0.9c0,0,0-0.2,0-0.3s0-0.3,0-0.5c0-0.3,0-0.6,0-0.9c0-0.5,0-1.1,0.2-1.5c0-0.5,0-0.9-0.2-1.2
	c-0.2-0.3-0.2-0.5-0.2-0.6c0-0.3,0-0.6,0-0.9c0-0.2,0-0.3-0.2-0.2c0,0-0.2,0-0.3,0.2v0.2c0,0.2,0,0.3-0.2,0.3c0-0.2,0-0.3,0-0.6
	c0,0,0.2-0.2,0-0.3c0-0.6,0-1.1,0-1.7c0-0.3,0.2-0.8,0.2-1.2c0,0,0,0,0-0.2c-0.2-0.6,0-1.1,0-1.7c0-0.2,0-0.5-0.2-0.6
	c-0.2-0.2-0.2-0.3,0-0.6c0-0.3,0-0.5,0-0.8c0-0.2,0-0.5,0-0.6c0-0.6,0.2-1.2,0.5-2C18.4,21.9,18.5,21.4,18.4,20.9z"/>
<path class="st3" d="M31.3,38.3c0,0-0.2-0.2-0.2-0.3c0-0.3-0.2-0.6-0.3-0.9c-0.2-0.3-0.3-0.6-0.5-0.9c0-0.2,0-0.3-0.2-0.3
	c-0.3-0.3-0.3-0.8-0.5-1.2c0,0,0-0.2,0-0.3c0-0.3,0.2-0.8,0.2-1.1c0-0.5,0.2-0.9,0-1.4c0-0.3,0-0.6,0.2-0.8c0-0.2,0-0.3,0-0.5
	c0-0.2,0-0.3,0-0.5c0-0.2,0.2-0.3,0.2-0.6c0,0,0-0.2,0.2-0.3c0.2-0.3,0.3-0.6,0.3-0.9c0-0.2,0-0.3,0-0.3c0-0.3,0-0.5,0-0.8
	c0-0.2,0-0.3,0-0.6c0-0.3,0.2-0.6,0.5-0.8c0.2-0.3,0.5-0.6,0.5-0.9l0,0c0.3-0.6,0.6-1.4,1.2-2c0.5-0.5,1.1-0.9,1.5-1.4
	c0.3-0.3,0.8-0.5,1.1-0.8c0.3-0.2,0.6-0.3,0.9-0.6c0.2-0.2,0.5-0.5,0.6-0.6c0.2-0.2,0.2-0.3,0.3-0.5s0.3-0.2,0.5-0.3
	c0.6-0.6,1.2-0.9,2-1.1c0.3,0,0.6-0.2,1.1-0.3c0.3,0,0.3,0,0.5,0.2c0.2,0.3,0.3,0.3,0.6,0.3c0.2,0,0.5,0.2,0.6,0.3l0,0
	c0.5-0.3,0.9-0.2,1.4,0.2c0.3,0.2,0.6,0.2,1.1,0.3c0-0.2,0-0.3,0-0.5c0.2,0,0.5,0.2,0.6,0.2c0.3,0.2,0.8,0.3,1.1,0.6
	c0.8,0.5,1.5,0.8,2.1,1.4c0.2,0.2,0.3,0.2,0.5,0.3s0.5,0.3,0.6,0.5c0.5,0.5,0.9,0.9,1.4,1.4c0.2,0.2,0.3,0.3,0.5,0.5
	c0,0,0.2,0,0.2,0.2c0.2,0.3,0.6,0.8,0.8,1.2c0,0.2,0.2,0.3,0.3,0.6c0,0.2,0,0.3,0,0.3l0,0c0-0.2-0.2-0.5-0.3-0.6
	c0-0.2,0-0.2-0.2-0.3c-0.3-0.5-0.6-1.1-1.1-1.4c-0.2-0.2-0.3-0.3-0.5-0.5c-0.5-0.5-0.8-0.8-1.2-1.2c0,0-0.2-0.2-0.3-0.3
	c-0.2-0.2-0.3-0.2-0.6-0.3c-0.2-0.2-0.3-0.3-0.8-0.3c-0.2,0-0.5,0-0.6,0c-0.5,0-0.8,0-1.1-0.2c-0.2,0-0.5-0.2-0.6-0.2
	c-0.3,0-0.6-0.2-0.8-0.3c-0.3-0.2-0.6-0.3-0.9-0.5c0,0-0.2-0.2-0.3,0c-0.3,0-0.5,0-0.8,0h-0.2c-0.5,0-1.1,0.2-1.5,0.2
	c-0.8,0-1.4,0-2,0.2c-0.3,0-0.6,0.2-0.8,0.3c-0.3,0.3-0.8,0.6-1.2,0.9c-0.5,0.3-0.9,0.5-1.2,0.8c-0.8,0.5-1.5,1.1-2.1,1.7l-0.2,0.2
	c-0.2,0.2-0.3,0.3-0.5,0.5c-0.2,0.5-0.3,0.8-0.5,1.2c-0.2,0.3-0.2,0.6-0.3,0.9c-0.2,0.2-0.3,0.5-0.3,0.8c0,0.3-0.2,0.6-0.3,0.8
	c-0.2,0.5-0.5,1.1-0.5,1.5c-0.2,0.5-0.3,1.1-0.6,1.5c0,0.2-0.2,0.3-0.2,0.5c0,0.3,0,0.8-0.2,1.1c0,0.2,0,0.3,0,0.3
	c0,0.2,0,0.2,0,0.3c0,0.6-0.2,1.1-0.2,1.7c0,0,0,0.2,0,0.3c0,0.5,0.2,0.8,0.5,1.1c0.2,0.2,0.2,0.5,0.3,0.8c0,0.6,0.2,1.1,0.3,1.5
	c0,0.2,0,0.3,0,0.5C31.3,38.1,31.3,38.3,31.3,38.3z M42.2,18.8c-0.2,0-0.3-0.2-0.5,0V19c0,0,0,0,0.2,0C41.9,19.1,42,19,42.2,18.8z"
	/>
<path class="st3" d="M49.4,33.5c-1.1,0-2,0-3,0c-0.6,0-1.2,0.2-1.8,0.2c-0.3,0-0.8,0-1.1,0l0,0c-0.6-0.2-0.9,0.2-1.2,0.5
	c-0.2,0-0.2,0.2-0.3,0.2c-0.3,0-0.6,0-1.1,0c-0.2,0-0.3,0-0.5,0c0,0-0.2,0-0.3,0c-0.5,0-0.8,0-1.2,0c0,0-0.2,0-0.3,0
	c-0.3-0.2-0.5,0-0.8,0.2c0,0-0.2,0.2-0.2,0.3c0,0,0,0.2-0.2,0.3s0,0.3,0,0.5c0,0.2,0,0.2,0,0.3c0,0.2,0,0.3,0,0.5c0,0.3,0,0.6,0,1.1
	c0,0.2-0.2,0.3-0.2,0.5c-0.2,0.5-0.2,0.5,0,0.8c0.2,0.2,0.2,0.3,0.3,0.5C38,39,38,39.3,38,39.5s0,0.3,0.2,0.3c0.2,0,0.3,0,0.5-0.2
	c0.2-0.2,0.3-0.2,0.5-0.2c0.2,0,0.3,0,0.5,0c0.3,0,0.6,0.2,0.9,0c0,0,0.2,0,0.3,0c0.2,0,0.3,0,0.5,0c0.2,0,0.3,0,0.3,0.2
	s0,0.3,0,0.5c0,0.2,0.2,0.3,0.3,0.5c-0.2,0-0.3,0-0.5,0c-0.2,0-0.5,0-0.6,0.2s-0.2,0-0.3,0c0,0.3-0.3,0.3-0.6,0.3c0,0,0,0-0.2,0
	l-0.2,0.2l0.2,0.2c0.3,0,0.6,0,0.9,0c0.3,0,0.5,0,0.8,0.2c0.2,0.2,0.5,0.2,0.6,0H42c0.3,0,0.6,0,0.8,0.3c0,0.2,0.3,0.2,0.5,0.2l0,0
	c0,0.2,0,0.3,0.2,0.3c0.5,0,0.9-0.2,1.2-0.3c0-0.3-0.5-0.2-0.5-0.3s0.2-0.5,0.3-0.8h0.2c0.3,0.2,0.6,0.2,0.9,0.2
	c0.2,0,0.5-0.3,0.5-0.6c0-0.3,0-0.3,0.3-0.3c0.2,0,0.5,0,0.8,0c0.2,0,0.3,0,0.5,0c0.3,0.2,0.6,0,0.6-0.3c0-0.3,0-0.5,0.2-0.6
	c0-0.2,0.2-0.3,0-0.5c-0.6,0.2-1.1,0.8-1.5,1.1c-0.2,0-0.2-0.2,0-0.3c0,0,0.2-0.2,0.3-0.3L46.9,39c-0.2-0.2-0.2-0.3,0-0.5
	c0.2-0.2,0.2-0.2,0.2-0.5V38c0.2-0.2,0.3-0.3,0.6-0.5c0.2,0,0.3,0,0.3,0.3c0,0.2,0.2,0.3,0.3,0.3c0.2,0,0.2,0,0.3,0l0.2-0.2
	c0,0.2-0.2,0.3-0.2,0.5c0,0.5-0.2,0.9-0.5,1.4c0,0,0,0,0,0.2c-0.2,0.2-0.5,0.3-0.9,0.2c-0.2,0-0.2,0-0.3,0.2c0,0,0.2,0.2,0.2,0.3
	c-0.2,0.2-0.2,0.2-0.3,0.2c-0.3,0-0.6,0.2-0.8,0.5c0,0.2-0.2,0.2-0.3,0.3c-0.3,0.2-0.8,0.3-1.1,0.5c-0.3,0-0.6,0.2-0.9,0.3
	c-0.3,0-0.8,0-1.1-0.3l-0.2-0.2c-0.3,0-0.6-0.2-0.9-0.2c-0.3-0.2-0.6-0.3-1.1-0.3c-0.5,0-1.1,0-1.5,0c-0.3,0-0.6,0-0.9-0.3H38
	c-0.5,0-0.8-0.3-0.6-0.8c0-0.2,0-0.2,0-0.3c0,0-0.2,0-0.2-0.2c-0.2,0-0.2-0.2-0.2-0.3c0-0.3,0-0.6,0-0.9c0-0.2,0-0.3-0.2-0.5
	c0-0.2-0.2-0.2-0.3-0.3s-0.2-0.3,0-0.5c0.2-0.2,0.3-0.5,0.2-0.6v-0.2c0-0.3,0-0.6,0-1.1c0-0.3,0-0.5,0-0.8c0-0.2,0-0.3,0-0.5
	c0-0.3,0-0.5,0.5-0.6c0.2,0,0.5,0,0.6,0s0.3,0,0.5,0c0.3,0,0.6,0,0.9,0c0.2,0,0.5,0,0.8,0c0.3,0,0.6,0,0.8-0.2c0,0,0,0,0.2,0
	c0.3,0.2,0.6,0,0.8,0c0.3,0,0.6-0.2,0.8-0.3c0.2-0.2,0.3-0.2,0.5-0.2c0.3,0,0.6,0,0.9,0c0.8,0,1.4,0,2.1,0c1.1,0,2,0,3,0
	C49.3,33.3,49.4,33.5,49.4,33.5z M38.3,40.7c0.2,0.2,0.2,0.3,0.3,0.5c0.2,0.2,0.3,0.3,0.6,0.2c0.2,0,0.5-0.2,0.8-0.3
	c0.2,0,0.5-0.2,0.6-0.2c0.2,0,0.2-0.2,0.2-0.3c0,0-0.2-0.2-0.3-0.2h-0.2c-0.2,0-0.3,0-0.3,0c-0.2-0.2-0.3-0.2-0.6,0
	c-0.2,0-0.3,0-0.5,0c0,0-0.2,0-0.3,0.2C38.4,40.5,38.4,40.7,38.3,40.7z M47.6,39c0.3,0,0.3,0,0.3-0.3C47.6,38.7,47.6,38.9,47.6,39z
	 M38.3,40.1L38.3,40.1h0.2l0,0H38.3z M39,39.8C38.9,39.8,38.9,39.8,39,39.8c-0.2,0-0.2,0-0.2,0H39C38.9,39.9,38.9,39.9,39,39.8z"/>
<path class="st3" d="M49.4,33.5c-0.2,0-0.2-0.2-0.3-0.2c-1.1,0-2,0-3,0c-0.8,0-1.4,0-2.1,0c-0.3,0-0.6,0-0.9,0c-0.2,0-0.3,0-0.5,0.2
	c-0.2,0.2-0.5,0.3-0.8,0.3c-0.3,0-0.6,0.2-0.8,0H41c-0.3,0.5-0.6,0.5-0.8,0.5c-0.2,0-0.5,0-0.8,0c-0.3,0-0.6,0-0.9,0
	c-0.2,0-0.3,0-0.5,0s-0.5,0-0.6,0c-0.3,0-0.5,0.2-0.5,0.6c0,0.2,0,0.3,0,0.5c0,0.3,0,0.5,0,0.8c0,0.3,0,0.6,0,1.1v0.2
	c0,0.3,0,0.5-0.2,0.6c-0.2,0.2-0.2,0.3,0,0.5c0,0.2,0.2,0.2,0.3,0.3s0.2,0.3,0.2,0.5c0,0.3,0,0.6,0,0.9c0,0.2,0,0.3,0.2,0.3
	c0,0,0.2,0,0.2,0.2c0,0.2,0,0.2,0,0.3c0,0.5,0.2,0.8,0.6,0.8h0.2c0.2,0.3,0.5,0.3,0.9,0.3c0.5,0,1.1,0,1.5,0c0.3,0,0.6,0.2,1.1,0.3
	c0.3,0.2,0.5,0.3,0.9,0.2c0,0,0.2,0,0.2,0.2c0.3,0.3,0.6,0.3,1.1,0.3c0.3,0,0.6-0.2,0.9-0.3c0.3-0.2,0.8-0.3,1.1-0.5
	c0.2,0,0.2-0.2,0.3-0.3s0.3-0.5,0.8-0.5c0.2,0,0.2,0,0.3-0.2c0,0-0.2-0.2-0.2-0.3s0.2-0.3,0.3-0.2c0.3,0.2,0.6,0,0.9-0.2l0,0
	c0,0.2-0.2,0.3-0.3,0.3c-0.2,0-0.3,0.2-0.3,0.2c-0.2,0.3-0.3,0.5-0.6,0.6c-0.2,0-0.3,0.3,0,0.5c0.2,0.2,0.3,0.3,0.6,0.3
	c0,0,0.2,0.2,0.2,0.3s0,0.3-0.2,0.3s-0.2,0-0.3-0.3v-0.2c-0.2,0-0.5,0-0.6-0.2c-0.2-0.2-0.3-0.2-0.6,0c-0.2,0-0.2,0.2-0.3,0.2
	c-0.2,0-0.2,0.2-0.3,0.2c-0.3,0-0.6,0-0.8,0.3c0,0,0.2,0.2,0.2,0.3v0.2h-0.2c-0.2,0-0.2,0-0.2-0.2c0,0,0-0.2,0-0.3
	c-0.2,0-0.3,0-0.5,0c-0.6,0-1.1,0-1.5-0.5c-0.2,0-0.3-0.2-0.5,0c-0.2,0-0.3,0-0.5,0c-0.2-0.6-0.3-0.6-0.9-0.6c-0.2,0-0.3,0-0.3,0
	c-0.3,0-0.8,0-1.1,0c-0.3,0.2-0.6,0-0.9-0.2c-0.2-0.2-0.5-0.5-0.6-0.8c-0.2-0.2-0.3-0.3-0.5-0.6c0,0-0.2-0.2-0.2-0.3s0-0.5-0.2-0.6
	c0-0.2-0.2-0.3-0.2-0.6c0,0,0-0.2-0.2-0.2c-0.2-0.3-0.5-0.5-0.6-0.8c-0.2-0.3-0.3-0.6,0-1.1c0,0,0.2,0,0.3,0
	c0.3-0.2,0.5-0.6,0.3-0.9c0-0.3,0-0.5-0.2-0.8c-0.2-0.2-0.3-0.5-0.5-0.6c-0.2-0.3,0-0.5,0.3-0.6c0.3-0.2,0.6,0,0.9-0.3
	c0.2,0,0.3,0,0.5,0c0.3,0,0.8,0,1.1,0c0,0,0.2,0,0.3,0s0.3,0,0.3,0c0.2,0,0.5,0,0.8,0c0.2,0,0.3,0,0.5,0c0.5,0,1.1,0,1.5-0.2
	c0.2,0,0.5,0,0.8-0.2c0,0,0.2,0,0.3,0c0.6,0,1.2,0,2,0c0.2,0,0.5,0,0.8,0c1.1,0,2,0,3,0c0.6,0,1.1,0.2,1.5,0.2c0.3,0,0.6,0,0.9,0
	c0.6,0,1.1,0,1.7-0.2c0.2,0,0.5-0.2,0.6-0.3c0,0,0,0,0.2,0c-0.2,0.2-0.5,0.3-0.8,0.5c-0.2,0-0.3,0.2-0.6,0.2c-0.2,0-0.5,0.2-0.6,0.2
	c-0.6,0-1.2,0-1.8,0C49.7,33.6,49.6,33.5,49.4,33.5z"/>
<path class="st3" d="M14.6,11.3c-0.3,0-0.5,0.2-0.8,0.3c0-0.2,0.2-0.3,0.5-0.5c0.3,0,0.6-0.2,0.9-0.5c0.2,0,0.3,0,0.3,0
	c0.2,0,0.3,0,0.5-0.2l0,0c-0.3-0.3-0.3-0.3,0-0.6c0.2-0.2,0.3-0.3,0.6-0.5c0,0,0.2-0.2,0.3-0.2c0.8,0,1.4,0,2,0.2
	c0.3,0.2,0.8,0.3,1.1,0.5c0.2,0,0.5,0,0.6,0c0.5-0.3,0.5-0.2,0.8,0.2c0.2,0.2,0.3,0.3,0.5,0.5c0.2,0.2,0.3,0.2,0.3,0.5
	c0,0,0,0.2,0.2,0.2c0.5,0.2,0.8,0.5,1.1,0.8c0,0,0,0.2,0.2,0.2c0,0,0.2,0.2,0.3,0.2s0.3,0.2,0.3,0.3c0,0.2,0,0.3,0.2,0.5
	c0.2,0.2,0.3,0.5,0.5,0.6c0,0,0.2,0.2,0.2,0.3c0,0.2,0.2,0.3,0.3,0.5c0.3,0.3,0.6,0.6,0.9,0.9c0.2,0.2,0.2,0.5,0.2,0.6
	c0,0.3,0,0.6,0,0.9c0,0.8-0.2,1.4-0.2,2.1c0,0.3,0,0.5,0,0.8c0,0.3,0,0.6-0.2,0.9c0,0.2-0.2,0.3-0.3,0.2c0,0-0.2,0-0.3,0
	c-0.2,0-0.2,0.2-0.3,0.2c-0.2,0-0.3,0-0.3-0.2c0-0.2,0-0.3-0.2-0.5c0,0,0,0-0.2,0c-0.2,0.3-0.3,0.8-0.2,1.1c0,0.2,0.3,0.5,0.6,0.5
	h0.2c0.2,0.3,0,0.5,0,0.8c0-0.2-0.2-0.3-0.3-0.3c-0.3-0.2-0.6-0.5-0.5-0.9c0,0,0-0.2,0-0.3c0-0.5,0.2-0.8,0.2-1.2c0-0.2,0-0.3,0-0.5
	c0-0.3,0-0.5,0-0.8c0,0,0-0.2,0.2-0.3c0,0.2,0.2,0.3,0.3,0.5c0.2-0.2,0.3-0.2,0.5-0.3c0,0,0-0.2,0.2-0.2c0-0.2,0.2-0.5,0.2-0.8
	c0-0.3,0-0.6,0-0.9s0-0.6,0-1.1c0-0.2,0-0.3-0.2-0.5c-0.5-0.5-0.8-1.1-1.2-1.4c-0.3-0.3-0.5-0.9-1.1-0.9l0,0
	c-0.2-0.2-0.3-0.5-0.5-0.6c-0.2-0.3-0.3-0.5-0.6-0.6c-0.2,0-0.3-0.2-0.3-0.3c0,0-0.2-0.2-0.3-0.3c0,0-0.2-0.2-0.3-0.2
	c-0.3,0-0.6,0-0.9,0c-0.2,0-0.5,0-0.6-0.2c-0.5,0-0.9,0-1.2-0.3h-0.2c-0.5-0.2-0.8-0.3-0.9-0.3c-0.2,0-0.3-0.2-0.5,0
	c-0.3,0-0.6,0.2-0.9,0.2c-0.3,0.2-0.3,0.3-0.2,0.6c0.2,0.3-0.2,0.8-0.5,0.6c-0.2,0-0.5,0-0.6,0.2C14.9,11.3,14.8,11.3,14.6,11.3z"/>
<path class="st3" d="M63.1,58.6c0-0.6,0.5-0.8,0.9-1.1c0.2,0,0.3,0,0.5-0.2c0.3,0,0.6-0.2,0.8-0.3c0.2-0.2,0.3-0.2,0.6-0.2
	c0.2,0,0.5,0,0.8,0c0.2,0,0.3,0,0.5,0c0.5,0,1.1,0,1.5,0c0.9,0,1.8,0,2.6,0c0.5,0,0.9,0,1.2,0c0.5,0,0.8,0,1.1,0.3
	c0.2,0.2,0.3,0.2,0.6,0.3c0,0,0.2,0,0.3,0c0.3,0,0.8,0,1.1,0c0,0,0.2,0,0.3,0c0.3,0,0.5,0,0.5,0.3c0,0.6,0.5,1.1,0.8,1.4
	c0.2,0.5,0.3,0.9,0.2,1.4v0.2c-0.3,0.2-0.5,0.6-0.6,0.9c-0.2,0.3-0.9,0.6-1.2,0.6c-0.6,0-1.1,0-1.7-0.2c-0.2,0-0.3,0-0.5,0.2
	c-0.2,0-0.3,0.2-0.6,0.2c-0.3,0-0.5,0.3-0.5,0.6c0,0,0,0.2,0,0.3v0.2c0,0.6-0.3,1.1-0.6,1.5c-0.2,0.2-0.2,0.5-0.2,0.6
	c0,0,0,0.2,0,0.3c-0.2,0.3-0.3,0.6-0.3,1.1v0.2c-0.2,0.2,0,0.5,0,0.6c0,0.3,0,0.6,0,0.9c-0.2,0.6-0.3,1.4-0.3,2c0,0.3,0,0.5,0,0.8
	c0,0.2,0,0.2-0.2,0.3c0,0.2,0,0.2,0,0.3c0,0.3-0.2,0.8-0.5,1.1c-0.2,0.2-0.2,0.3-0.2,0.5c0,0.5,0,0.8-0.3,1.1l0,0
	c-0.3,0.6-0.8,1.1-1.2,1.7c-0.2,0.2-0.5,0.5-0.5,0.8c0,0.2-0.2,0.2-0.3,0.2h-0.2c-0.2,0-0.3,0-0.5,0.2c-0.2,0.3-0.3,0.6-0.5,0.9
	c0,0.3-0.2,0.5-0.5,0.8c-0.2,0.2-0.5,0.5-0.6,0.9c-0.5,0.9-0.8,1.8-1.1,2.7c-0.3,0.6-0.6,1.2-0.9,2c0,0.2-0.2,0.2-0.2,0.3l0,0
	c0-0.2,0.2-0.3,0.2-0.5c0.2-0.5,0.5-0.9,0.6-1.4c0.2-0.6,0.5-1.1,0.8-1.7c0-0.2,0.2-0.5,0.3-0.6c0.2-0.6,0.5-1.1,0.8-1.7l0.2-0.2
	c0.2,0,0.3-0.2,0.3-0.3c0.2-0.3,0.3-0.8,0.6-1.1l0.2-0.2c0.5,0,0.8-0.5,1.1-0.9c0.2-0.2,0.3-0.5,0.5-0.6c0.3-0.5,0.6-1.1,0.9-1.7
	c0.2-0.3,0.3-0.8,0.5-1.1v-0.2c0-0.5,0.2-0.8,0.3-1.1c0-0.3,0.2-0.5,0.2-0.8c0-0.2,0-0.3,0-0.5c0.3-0.6,0.2-1.1,0.3-1.8v-0.2
	c-0.2-0.5,0-1.1,0-1.4c0-0.5,0.5-1.1,0.5-1.5c0,0,0-0.2,0.2-0.3c0-0.2,0.2-0.3,0.3-0.5c0-0.2,0.2-0.3,0-0.3c-0.2-0.2-0.2-0.2,0-0.5
	c0.2-0.3,0.3-0.8,0.6-1.1c0.2-0.2,0.2-0.5,0.5-0.6c0.3-0.2,0.8-0.3,1.1-0.3H74c0.5,0,0.9,0,1.4,0c0,0,0.2,0,0.3,0s0.3,0,0.3-0.2
	s0.2-0.3,0.5-0.3c0.2,0,0.2-0.2,0.3-0.3c0,0,0-0.2,0.2-0.2C77,61.3,77,61.2,77,61s0-0.3,0-0.5s0-0.5-0.2-0.5
	c-0.2-0.2-0.2-0.5-0.3-0.6c-0.2-0.2-0.3-0.3-0.5-0.5c0,0,0-0.2-0.2-0.2c-0.3-0.2-0.6-0.3-1.1-0.3c0,0-0.2,0-0.3,0c0,0-0.2,0-0.3,0
	c-0.3,0-0.6-0.2-0.9-0.5c0-0.2-0.2-0.2-0.3-0.3c-0.6-0.2-1.4-0.2-2-0.2c-0.5,0-0.9,0-1.2,0c-0.6,0-1.4,0-2,0c-0.2,0-0.2,0-0.3,0
	c-0.2,0-0.5,0-0.6,0c-0.2,0-0.3,0.2-0.3,0c-0.3,0-0.6,0-0.9,0.2c-0.3,0.2-0.8,0.3-1.1,0.5c-0.6,0.2-1.1,0.5-1.1,1.1l0,0
	C63.1,58.8,63.1,58.8,63.1,58.6z"/>
<path class="st3" d="M49.7,85c0.5,0,0.8,0.3,0.9,0.6c0.3,0.5,0.6,0.9,0.3,1.5v0.2c0,0.2,0,0.5-0.2,0.6c-0.2,0.2-0.2,0.3,0.2,0.5
	c0.3,0.2,0.6,0.2,0.9,0.2s0.6,0,0.9,0c0.2,0,0.3,0,0.5,0h0.2c0.3,0.2,0.6,0,0.9,0c0.2,0,0.3-0.2,0.5-0.3s0.5-0.3,0.8-0.2
	c0.3,0,0.5,0,0.8-0.3c0,0,0-0.2,0.2-0.2c0.5-0.5,0.9-0.9,1.4-1.2c0.2-0.2,0.3-0.2,0.3-0.5c0,0,0-0.2,0.2-0.3c0-0.2,0.2-0.2,0.3-0.3
	c0-0.2,0.2-0.3,0-0.5v-0.2c0.2-0.2,0.3-0.5,0.5-0.8l0.2-0.2c0.2-0.2,0.2-0.3,0-0.5c-0.3-0.2-0.3-0.3-0.3-0.5
	c0.2,0.2,0.3,0.5,0.6,0.6c0,0,0.2,0.2,0.2,0.3v0.2h-0.2c0,0,0,0-0.2,0c-0.2-0.2-0.3,0-0.3,0c-0.2,0.3-0.3,0.6-0.3,1.1
	c0,0.3-0.2,0.6-0.3,0.9c0,0,0,0.2-0.2,0.2c-0.3,0.5-0.5,0.9-0.8,1.2c-0.5,0.8-0.6,1.5-0.2,2.3c0,0.2,0.2,0.3,0.2,0.5
	c-0.3,0-0.8,0-0.9-0.3c0-0.2-0.2-0.3-0.2-0.5c0-0.2-0.2-0.2-0.3-0.3c-0.3,0-0.6-0.2-1.1-0.3c-0.3,0.3-0.5,0.8-0.6,1.2
	c-0.2,0-0.3,0-0.3-0.2c-0.3-0.2-0.3-0.2-0.5,0.2s-0.3,0.3-0.6,0.3c-0.2,0-0.3-0.2-0.3-0.5c0-0.2,0-0.3,0-0.5
	c-0.6,0.2-0.8,0.6-1.2,0.9c-0.2,0-0.2-0.2-0.2-0.3c0.2-0.3,0-0.8,0.6-0.8c0,0,0,0,0-0.2c0-0.2,0-0.2,0-0.2h-0.2
	c-0.2,0-0.3,0.2-0.5,0.3c-0.2,0-0.3,0.2-0.5,0.2s-0.3,0-0.6,0.2c-0.2,0-0.3,0-0.3,0c-0.2,0-0.3,0-0.3-0.3c0-0.3,0-0.3-0.3-0.5
	c-0.2,0-0.2-0.2,0-0.3l0.2-0.2c0.3-0.2,0.6-0.3,0.9-0.5c0.3-0.2,0.3-0.5,0.3-0.8v-0.2c0.2-0.2,0-0.5,0-0.8c-0.2-0.5-0.3-0.9-0.9-1.1
	c0,0-0.2-0.2-0.3-0.2C49.6,85,49.6,85,49.7,85z"/>
<path class="st3" d="M18.4,20.9c0.2,0.5,0,1.1,0,1.4c-0.2,0.6-0.3,1.2-0.5,2c0,0.2,0,0.5,0,0.6c0,0.3,0,0.5,0,0.8c0,0.2,0,0.3,0,0.6
	c0.2,0,0.2,0.3,0.2,0.5c0,0.6,0,1.1,0,1.7c0,0,0,0,0,0.2c0,0.5-0.2,0.8-0.2,1.2c-0.2,0.6-0.2,1.1,0,1.7c0,0.2,0,0.2,0,0.3
	c0,0.2,0,0.3,0,0.6c0.2,0,0.2-0.2,0.2-0.3v-0.2c0,0,0.2-0.2,0.3-0.2s0.2,0.2,0.2,0.2c0,0.3,0,0.6,0,0.9c0,0.2,0,0.3,0,0.5
	c0.2,0.5,0.2,0.9,0.2,1.2c0,0.5,0,1.1-0.2,1.5c0,0.3,0,0.6,0,0.9c0,0.2,0,0.3,0,0.5c0,0,0,0.2,0,0.3c0.2,0.3,0.2,0.6,0,0.9
	c-0.2,0.3-0.3,0.6-0.5,1.1l0,0c-0.2,0.2-0.5,0.5-0.2,0.8c0,0,0,0.2-0.2,0.2c0,0.2-0.2,0.2-0.2,0.3c0,0.3,0,0.6,0.2,1.1l0,0
	c0.2,0.3,0,0.8-0.5,0.8c-0.9,0-1.8,0-2.6,0.2c-0.3,0-0.6,0-0.8,0.2c-0.2,0-0.5,0.2-0.6,0c-0.2,0-0.8,0-0.9,0.3c0,0.2,0,0.2,0,0.3
	c0.2,0.2,0.5,0.5,0.6,0.6c0,0.2,0.2,0.3,0.2,0.5s0,0.3,0.2,0.5c0.2,0.2,0.3,0.3,0.5,0.5c0,0,0.2,0.2,0.3,0.2c0.2,0,0.3,0.2,0.6,0.2
	s0.3,0.2,0.6,0.2c0.3,0.2,0.6,0.3,0.9,0.5h-0.2c-0.3,0-0.6-0.2-0.8-0.3c-0.6-0.2-1.1-0.5-1.5-0.8c-0.2,0-0.5-0.3-0.5-0.5
	c-0.2-0.3-0.3-0.6-0.6-0.8c-0.2,0-0.2-0.2-0.3-0.2c-0.2-0.2-0.2-0.3-0.2-0.6s0-0.8,0-1.1s0-0.3,0.3-0.5c0.2,0,0.2,0,0.3,0
	c0.3-0.2,0.6-0.2,0.9,0H14c0.5-0.2,0.5-0.2,0.6,0.3l0.2,0.2c0.3,0,0.6,0,0.8,0c0,0,0.2,0,0.3,0c0.3-0.2,0.3-0.2,0.6,0l0,0
	c0.2,0,0.5,0,0.6-0.3c-0.2-0.2-0.5-0.5-0.8-0.3c-0.2,0-0.3,0-0.5-0.2c0.3-0.2,0.6-0.3,0.9-0.2c0.2,0,0.3,0,0.5,0
	c0.2-0.2,0.2-0.3,0-0.6c0-0.2,0-0.3,0-0.5c0.2,0,0.2-0.2,0.2-0.5c0-0.3,0-0.5,0-0.8c0-0.2,0-0.3,0-0.3s0-0.2,0-0.3
	c0-0.3,0-0.5,0.3-0.3c0,0,0.2,0,0.3,0s0.3,0,0.3-0.3c0-0.2,0-0.3-0.2-0.5c0-0.2,0-0.3,0-0.3c0.2-0.3,0.2-0.6,0-0.9
	c-0.2-0.2-0.2-0.5,0-0.6c0-0.2,0-0.3,0-0.5s0-0.5,0.2-0.8c0-0.2,0-0.3,0-0.5c-0.2-0.2-0.3-0.5-0.3-0.8c0-0.2,0-0.3-0.3-0.3
	c-0.6-0.2-0.6,0-0.5-0.6c0-0.5,0-1.1,0.2-1.5c0,0,0,0,0-0.2c0-0.5,0-0.9,0.2-1.2c0-0.5,0.2-0.9,0-1.4c0,0,0-0.2,0-0.3
	c0-0.5,0-0.9,0-1.2v-0.2c-0.2-0.3-0.2-0.8,0-1.1c0-0.2,0-0.3,0-0.5c-0.2-0.3,0-0.8,0-1.1c0-0.5,0-0.8,0-1.2c0-0.2,0-0.5,0.2-0.6
	c0.3-0.2,0.3-0.5,0.3-0.8C18.2,21.1,18.2,20.9,18.4,20.9z"/>
<path class="st3" d="M31.3,38.3v-0.2V38.3c0.2,0.3,0.3,0.6,0.5,0.9c0.2,0.3,0.3,0.6,0.6,0.9c0,0.2,0.2,0.2,0.2,0.3
	c0,0.5,0,0.9,0,1.2c0,0.2,0.2,0.3,0.2,0.5c0.2,0.2,0.3,0.3,0.5,0.6c0.3,0.5,0.6,1.1,0.5,1.7c0,0.2,0,0.3,0,0.5
	c0.3,0.5,0.6,0.9,1.1,1.1c0,0,0.2,0.2,0.3,0.2c0.2,0,0.5,0.2,0.6,0.3c0.5,0.3,1.1,0.5,1.7,0.6c0.5,0.2,1.1,0.3,1.5,0.5
	s0.9,0.3,1.4,0.3h0.2c0.2,0.2,0.5,0.2,0.8,0.2c0.2,0,0.5,0,0.8,0c0.2,0,0.3,0,0.5-0.2c0.2-0.3,0.5-0.3,0.9-0.3h0.2
	c0.2,0,0.5-0.2,0.8-0.2c0,0,0.2,0,0.3-0.2c0.2-0.3,0.6-0.3,0.9-0.6c0.2,0,0.3-0.2,0.3-0.5c0-0.3,0.2-0.5,0.5-0.5
	c0.5,0,0.9,0,1.2-0.5l0.3-0.2c0.3-0.2,0.6-0.3,1.1-0.6c0.2,0,0.5-0.2,0.6-0.3c-0.3,0.2-0.8,0.5-1.1,0.8c-0.5,0.2-0.8,0.3-1.1,0.8
	c0,0.2-0.3,0.2-0.5,0.2s-0.3,0-0.5,0c-0.3,0-0.3,0-0.5,0.3c0,0.2,0,0.2-0.2,0.3c0,0-0.2,0.2-0.3,0.2c-0.3,0.2-0.5,0.3-0.6,0.5
	c0,0.2-0.2,0.2-0.5,0.2c-0.5,0-0.9,0.2-1.2,0.5c-0.3,0.2-0.6,0.5-1.1,0.5h-0.2c-0.5,0.2-1.1,0.2-1.4-0.3c-0.2-0.2-0.3-0.2-0.5-0.2
	c-0.3,0-0.6,0-0.9,0h-0.2c-0.3-0.3-0.8-0.3-1.1-0.5c-0.6-0.3-1.2-0.3-1.8-0.6h-0.2c-0.5,0-0.9-0.2-1.2-0.5c-0.2-0.2-0.3-0.2-0.5-0.2
	c-0.5-0.2-0.6-0.3-0.6-0.8c0-0.3-0.2-0.6-0.5-0.8c-0.2-0.2-0.5-0.3-0.6-0.5c-0.3-0.3-0.5-0.6-0.8-0.9c-0.3-0.5-0.2-0.9,0-1.2
	c0-0.2,0.3-0.2,0.5-0.2c0-0.3,0-0.8-0.2-1.1c0-0.2-0.2-0.3-0.3-0.3s-0.3-0.2-0.3-0.3c0.2-0.2,0.2-0.3,0.2-0.6
	C31.3,38.9,31.3,38.6,31.3,38.3z"/>
<path class="st3" d="M62.8,84.4L62.8,84.4c0,0.3-0.2,0.5-0.3,0.8v0.2c0,0.2,0,0.2,0.2,0.2h0.2c0.2,0,0.2,0.2,0,0.2
	c0,0-0.2,0.2-0.2,0.3c0,0,0,0.2-0.2,0.3c0,0,0,0.2-0.2,0.2c-0.3-0.2,0-0.5-0.2-0.6c0,0,0,0-0.2,0.2c-0.5,0.8-0.9,1.4-1.2,2.1
	c-0.2,0.3-0.3,0.5-0.6,0.8s-0.6,0.6-0.9,0.9c-0.6,0.6-1.2,1.2-1.7,2l-0.2,0.2c0,0,0,0-0.2,0c-0.3,0.2-0.3,0.3-0.2,0.6
	c-0.2,0.2-0.3,0.2-0.5,0.2c-0.5,0-1.1,0-1.5,0.2c-0.2,0-0.5,0-0.8,0c-0.6,0-1.2,0-1.8,0c-0.5,0-0.8,0-1.1,0.2
	c-0.2,0-0.3,0.2-0.6,0.2c0,0-0.2,0-0.3,0h-0.2c-0.5,0-0.8-0.2-1.1-0.3c-0.6-0.3-1.1-0.6-1.8-0.8c-0.3-0.2-0.6-0.3-0.9-0.3
	c0,0-0.2,0-0.2-0.2c-0.2,0-0.6,0-0.9,0c-0.2,0-0.3,0-0.5,0c-0.3,0-0.5-0.2-0.6-0.3c0,0,0-0.2,0-0.3c0-0.3-0.2-0.6-0.3-0.9
	c0-0.2-0.2-0.2-0.3-0.3s-0.3-0.3-0.2-0.6c0-0.2,0-0.3,0-0.5c0-0.8,0-1.4,0.5-1.8c0.2-0.2,0.3-0.5,0.5-0.8c0-0.2,0.2-0.3,0.3-0.3l0,0
	c-0.3,0.5-0.5,0.9-0.8,1.2c-0.2,0.2-0.2,0.3-0.2,0.5c0,0.2,0,0.3,0,0.5c-0.2,0.6,0,1.1,0.5,1.4c0.3,0.3,0.5,0.6,0.5,1.1
	c0,0.2,0,0.3,0.3,0.5c0.6,0.2,1.1,0.5,1.5,0.9c0,0,0,0,0.2,0c0.3,0,0.5,0,0.6,0.2c0,0,0.2,0.2,0.3,0.2c0.2,0.2,0.5,0.3,0.8,0.5
	c0.6,0.2,1.1,0.5,1.5,0.8c0.2,0.2,0.5,0.2,0.8,0.3c0.2,0,0.3,0,0.3,0c0.2,0,0.5,0,0.6-0.2c0.2,0,0.3,0,0.3,0
	c0.5-0.2,0.9-0.3,1.2-0.2c0.5,0,0.9,0,1.4,0c0.5,0,0.8,0,1.2-0.2c0.2,0,0.5,0,0.6,0c0.2,0,0.3-0.2,0.3-0.3s0-0.2,0.2-0.3
	c0.3-0.3,0.6-0.5,0.8-0.9c0,0,0,0,0.2,0s0.2-0.2,0.3-0.3c0.8-0.8,1.5-1.5,2.1-2.4c0.3-0.5,0.6-0.9,0.9-1.2c0.5-0.8,0.9-1.7,1.4-2.4
	C62.7,84.5,62.8,84.4,62.8,84.4z"/>
<path class="st3" d="M51.4,63.3c0,0-0.2-0.2-0.3-0.3c-0.2-0.3-0.6-0.3-1.1-0.5c-0.2,0-0.3,0-0.6,0.2c0,0,0,0-0.2,0
	c-0.5,0-0.9,0-1.4,0c-0.2,0-0.3-0.2-0.3-0.3c0-0.2,0-0.3,0.2-0.3l0,0h-0.2c-0.5,0-0.9,0-1.2-0.2l0,0c-0.6,0-1.4,0-2-0.2
	c-0.2,0-0.3,0-0.6,0c-0.2,0-0.3,0-0.5,0c-0.5,0.3-0.9,0.3-1.2,0c-0.5-0.2-0.6,0-0.9,0.2c0,0,0,0-0.2,0.2l0,0
	c0.2-0.2,0.3-0.3,0.5-0.5h0.2c0.2,0,0.3,0,0.5-0.2c0.2-0.3,0.5-0.3,0.8-0.2c0.2,0,0.3,0,0.5,0c0.5,0,0.9,0,1.2,0c0.2,0,0.3,0,0.5,0
	s0.3-0.2,0.5-0.3c0.2-0.2,0.3-0.2,0.6,0c0.2,0,0.3,0.2,0.3,0.2c0.5,0,0.9,0,1.2,0c0.2,0,0.3,0,0.5,0.2c0.2,0,0.3,0.2,0.5,0.2
	s0.2,0.2,0.3,0.2c0.2,0.2,0.2,0.3,0.3,0.5H49c-0.2,0-0.5,0-0.8,0c-0.2,0-0.3,0-0.3-0.2c-0.3-0.2-0.5-0.2-0.8,0
	c0.2,0.2,0.5,0.3,0.8,0.2c0.3,0,0.6,0.2,0.9,0.3c0.2,0.2,0.3,0.3,0.6,0.3c0.2,0,0.5,0,0.8,0c0.3,0,0.5-0.2,0.8,0
	c0.3,0,0.3,0,0.5,0.3c0,0.2,0,0.3,0.3,0.5l0,0C51.4,63.3,51.4,63.3,51.4,63.3z M47.9,62.5c0,0.2,0,0.3,0.2,0.3c0.2,0,0.2,0,0.3-0.2
	C48.1,62.5,48.1,62.5,47.9,62.5z"/>
<path class="st3" d="M58.9,82.9c0,0.2,0,0.3,0.2,0.3c0.2,0.2,0.2,0.3,0,0.5l-0.2,0.2C58.9,83.5,58.9,83.2,58.9,82.9
	c0-0.2,0-0.3-0.2-0.6c0-0.2,0-0.3,0-0.3c0-0.2-0.2-0.5-0.3-0.8c0,0,0-0.2-0.2-0.2c-0.3-0.2-0.3-0.5-0.5-0.8c-0.2-0.6-0.3-1.2-0.3-2
	v-0.2c0-0.2-0.2-0.3-0.3-0.3c-0.3,0-0.5-0.2-0.8-0.3c-0.2-0.3-0.5-0.6-0.5-1.1c0-0.2-0.2-0.5-0.2-0.6c-0.2-0.3-0.2-0.8-0.3-1.1
	c0,0,0-0.2,0-0.3s-0.2-0.3-0.2-0.6v-0.2c-0.3,0-0.2,0.3-0.3,0.5c-0.2,0-0.2-0.2-0.2-0.2c0-0.3,0-0.8,0-1.1c0,0,0-0.2,0-0.3
	c0.2-0.3,0-0.5-0.2-0.8c0-0.2-0.2-0.3-0.2-0.6c0-0.2-0.2-0.5-0.2-0.8v-0.2c0-0.3-0.2-0.6-0.5-0.8l0,0l0,0c0.2-0.3,0-0.6,0-0.9
	c-0.2-0.2-0.2-0.5-0.3-0.6c-0.2-0.3-0.3-0.5-0.5-0.8c-0.2-0.3-0.3-0.5-0.3-0.9c0-0.3,0-0.6-0.2-1.1l0,0v0.2c0.2,0.5,0.2,1.1,0.6,1.4
	v0.2c0,0.5,0.3,0.9,0.6,1.4c0.2,0.3,0.5,0.6,0.3,1.1c0,0,0,0.2,0,0.3s0.2,0.3,0.2,0.5c0,0.3,0.2,0.5,0.3,0.8c0,0,0,0,0,0.2
	c0.2,0.5,0.5,1.1,0.6,1.5c0,0,0,0,0,0.2c0.2,0.3,0.3,0.8,0.2,1.1c0,0.3,0,0.6,0.2,0.9c0.2,0.2,0.2,0.5,0,0.6c0,0.2,0,0.2,0,0.3
	c0,0.3,0.2,0.5,0.3,0.8c0.2,0.5,0.3,0.6,0.8,0.6c0.2,0,0.3,0,0.5,0c0.3,0.2,0.6,0.3,0.9,0.3l0,0c0,0-0.2,0.2-0.2,0.3
	c-0.2,0.3-0.3,0.6-0.5,0.9c0,0.5,0,0.8,0.3,1.1c0,0.2,0.2,0.3,0.3,0.5c0.2,0.3,0.3,0.8,0.5,1.1c0,0,0,0.2,0,0.3
	C58.8,82.3,58.8,82.6,58.9,82.9z"/>
<path class="st3" d="M67.1,41.3c0,0,0-0.2-0.2-0.2C67.1,41.1,67.1,41.1,67.1,41.3c0.2,0,0.2,0,0.3,0c0.6,0,1.2,0.2,1.8,0
	c0.5-0.2,1.1-0.3,1.7-0.3c0.5,0,1.1,0,1.5,0c0.3,0,0.5-0.3,0.5-0.6c0-0.5-0.2-0.9,0-1.4c0.2-0.3,0.3-0.8,0.5-1.1
	c0-0.2,0.2-0.2,0.3-0.5c0.2,0.5,0.2,0.9,0,1.2c-0.2,0.3-0.2,0.8-0.3,1.1c0,0,0,0.2,0,0.3c0.2-0.2,0.3-0.3,0.5-0.5l0.2-0.2
	c0,0,0.2-0.2,0.3,0c0,0.2,0,0.3,0,0.5s-0.2,0.3-0.3,0.5c-0.3,0.2-0.3,0.5-0.5,0.6c0.3,0.2,0.5,0.2,0.6,0c0,0,0.2-0.2,0.2-0.3
	c0.2-0.2,0.3-0.3,0.5-0.6c0.2-0.2,0.3-0.5,0.2-0.8c0-0.3,0-0.6,0.2-0.9l0,0c0.3-0.2,0.5-0.5,0.8-0.5l0,0c0,0,0,0-0.2,0.2
	c-0.2-0.2-0.2,0.3-0.2,0.8c0,0.2,0,0.3,0,0.5c-0.2,0.5-0.3,0.8-0.6,1.1c-0.5,0.6-1.1,0.9-1.4,1.5l0,0c-0.2,0.2-0.3,0.3-0.6,0.5
	c-0.3,0.3-0.5,0.3-0.8,0c0-0.2-0.2-0.2-0.5-0.2c-0.2,0-0.3,0-0.5,0L71,42c0,0,0-0.2,0.2-0.3c0,0,0.2-0.2,0.3-0.2c0,0,0-0.2,0.2-0.2
	h-0.2c-0.2,0-0.3,0-0.5,0c-0.3,0-0.6,0-0.9,0.2c0,0,0,0-0.2,0c-0.2,0-0.3,0-0.6,0.2C68.4,41.6,67.8,41.6,67.1,41.3z"/>
<path class="st3" d="M56.2,56.4c-0.2,0-0.5,0-0.6,0.2c-0.3,0.2-0.6,0.2-0.9,0.2c-0.2,0-0.3,0-0.6,0c0,0,0,0-0.2,0
	c-0.3,0-0.5,0-0.8,0c-0.3,0.2-0.8,0.2-1.1,0.3c0,0-0.3,0-0.5,0s-0.3,0-0.5,0s-0.3,0-0.5,0c-0.3,0-0.5,0-0.6,0.2c0,0,0,0.2-0.2,0.2
	c0,0,0,0-0.2,0c0,0-0.2,0-0.2-0.2c-0.2-0.2-0.3-0.2-0.5,0c-0.3,0.2-0.6,0.2-1.1,0.2s-0.9,0-1.2,0.2c-0.3,0-0.6,0-0.9,0
	c-0.2,0-0.3,0-0.6,0h-0.2c0,0-0.2,0-0.3,0c-0.6-0.3-1.2-0.6-1.8-0.8c-0.2,0-0.3,0-0.5-0.2c-0.6,0-1.1,0-1.5-0.5c0,0-0.2,0-0.3,0
	c-0.5,0-0.9,0-1.2-0.2c0.5,0,0.9,0.2,1.2,0h0.2c0.2,0.2,0.5,0.2,0.8,0.2c0.3,0,0.5,0.2,0.8,0.3c0.2,0.2,0.5,0.2,0.8,0.2
	c0.3,0,0.8,0,1.1,0.3c0.2,0.2,0.5,0.2,0.8,0.2c0.2,0,0.2,0,0.3,0.2l0.2,0.2c0.3,0,0.8,0.2,1.1,0c0.2,0,0.2,0,0.3,0
	c0.3,0.2,0.8,0,1.1,0l0.2-0.2c0-0.2,0.2-0.3,0.2-0.5c0.2-0.3,0.3-0.3,0.6-0.2c0.2,0,0.3,0,0.6,0c0,0,0.2,0,0.3,0.2
	c0.2-0.2,0.3-0.2,0.6-0.2c0.2,0,0.2,0,0.3,0c0.2,0,0.5,0,0.6,0c0.5,0.2,0.9,0,1.2-0.2c0.2,0,0.3,0,0.5,0
	C54.6,56.5,55.3,56.5,56.2,56.4C56.2,56.2,56.2,56.2,56.2,56.4c0.5-0.2,0.9-0.2,1.4-0.2c0,0,0.2,0,0.3,0c0.6-0.2,1.1,0,1.2,0.6
	c0.2,0.2,0.3,0.3,0.6,0.5c0,0,0,0,0.2,0c0.5,0,0.5,0.2,0.3,0.6c0,0.2-0.2,0.3,0,0.6c0,0.2,0,0.3,0,0.5s0,0.3,0.3,0.5
	c0,0,0.2,0,0.2,0.2h-0.2c-0.5-0.2-0.5,0-0.5-0.6c0-0.2,0-0.3-0.3-0.5c-0.2-0.2-0.3-0.2-0.2-0.5c0-0.2,0-0.3-0.2-0.3
	c-0.3-0.2-0.5-0.2-0.8-0.3c0,0-0.2-0.2-0.3-0.2c-0.2-0.2-0.2-0.3-0.5-0.3s-0.8,0-1.1,0C56.8,56.4,56.5,56.2,56.2,56.4z"/>
<path class="st3" d="M17,46.6L17,46.6c0.2,0,0.5,0.2,0.6,0.2c0.2,0,0.3,0.2,0.6,0c0.2-0.2,0.5-0.3,0.6-0.5s0.5-0.2,0.6-0.2
	c0.3,0,0.8,0,1.1,0c0.3-0.2,0.5,0,0.6,0.3l0.2,0.2c0.2,0,0.5,0,0.6,0.2H22c0.3-0.2,0.6-0.3,0.8-0.5c0.2-0.2,0.5-0.3,0.8-0.3
	c0.3,0,0.3-0.2,0.3-0.5c0-0.2,0-0.3,0-0.5l0.2-0.2l0.2,0.2c0,0.3,0.2,0.3,0.3,0.3c0.2,0,0.3,0,0.5,0c0.6,0,1.1-0.2,1.7-0.5
	c0,0,0.2,0,0.3,0c0.3,0.2,0.3,0.2,0.6-0.2c0,0,0,0,0-0.2c0.3-0.5,0.3-0.8,0-1.2c-0.2-0.2-0.2-0.3,0-0.6l0,0c0.2,0.3,0.3,0.6,0.5,0.9
	c0,0.2,0,0.5,0,0.6c0,0.8-0.5,1.1-1.1,1.4c-0.3,0.2-0.6,0.2-0.9,0.3c-0.2,0-0.3,0-0.5,0c-0.2,0-0.2,0-0.3,0c-0.2,0-0.3,0-0.5,0.2
	c-0.2,0-0.2,0-0.3,0.2c-0.2,0.2-0.5,0.2-0.6,0c0,0-0.2,0-0.3,0c-0.2,0.2-0.5,0.2-0.6,0c-0.2,0-0.3,0-0.6,0c-0.3,0.2-0.5,0.2-0.8,0.3
	c-0.2,0-0.3,0-0.6,0c0,0-0.3,0-0.5,0c0.2-0.3,0-0.3-0.5-0.3c0,0-0.2,0-0.3,0c-0.3,0-0.5,0-0.8,0.3l-0.2,0.2
	c-0.2,0.2-0.3,0.2-0.6,0.2c-0.3,0-0.6,0-0.8-0.2C17.3,46.7,17,46.6,17,46.6C17.2,46.6,17,46.6,17,46.6z"/>
<path class="st3" d="M41.1,62.1L41.1,62.1c-0.2,0.6-0.5,1.1-0.6,1.5v0.3c0,0.2,0,0.3,0,0.3c-0.3,0.5-0.5,1.1-0.8,1.7
	c0,0,0,0.2,0,0.3c0.3,0,0.5-0.2,0.5-0.5c0-0.2,0.2-0.3,0.3-0.5c0.2-0.2,0.3-0.3,0.3-0.5c0.3-0.3,0.6-0.8,0.5-1.2
	c0.3,0,0.3,0,0.5,0.2c0.2,0.3,0.2,0.6,0,0.9c-0.2,0.5-0.5,0.9-0.6,1.4c0,0.2,0,0.5-0.2,0.6c0,0.3,0,0.3-0.5,0.2c-0.2,0-0.3,0-0.3,0
	c-0.2,0-0.5,0.2-0.6,0.2c0,0-0.2,0-0.2,0.2c-0.2,0.2-0.3,0.5-0.6,0.8L38.7,68c0,0.5-0.2,0.9-0.2,1.4c0,0.3,0,0.6-0.2,0.9
	c0,0.2,0,0.3-0.2,0.5v-0.2c0-0.3,0.2-0.8,0-1.1c0,0,0-0.2,0-0.3c0-0.2,0-0.3,0-0.5l0,0c0-0.2,0.2-0.3,0.2-0.5c0,0,0-0.2,0-0.3
	c0.2-0.3,0.3-0.6,0.3-1.1c0.2-0.5,0.3-0.9,0.6-1.4c0-0.2,0.2-0.3,0.2-0.6c0-0.3,0-0.3,0.2-0.5c0.2-0.3,0.3-0.6,0.3-0.9
	c0,0,0-0.2,0-0.3c0.2-0.2,0-0.5,0.2-0.8c0-0.2,0.3-0.3,0.5-0.6l0,0L41.1,62.1L41.1,62.1z"/>
<path class="st3" d="M63.1,58.6c0,0,0,0.2,0,0.3s0,0.3,0,0.5c0,0.9,0.6,1.4,1.4,1.4c0.2,0,0.5,0,0.6,0.2c0.2,0,0.3,0.2,0.5,0.2
	c0.2,0,0.3,0,0.5,0c0.3,0,0.8,0.2,1.1,0.2s0.8,0,1.1,0.2c0.3,0,0.3,0.3,0,0.6c-0.2,0.2-0.3,0.3-0.6,0.3s-0.6,0.6-0.5,0.9
	c0,0.2,0,0.3,0,0.5c-0.2,0.2-0.2,0.3,0,0.5c0,0.2,0,0.3,0,0.3c0,0.2,0,0.3,0,0.3l0.2,0.2l0,0c0,0,0,0-0.2,0.2
	c-0.2,0.2-0.2,0.2-0.5,0c-0.2-0.2-0.3,0-0.3,0.2c-0.2,0.5-0.3,0.8-0.5,1.2c-0.2,0.6-0.5,1.2-0.6,1.8c-0.2,0.6-0.5,1.2-0.6,2l0,0
	c0-0.2,0-0.5,0.2-0.8c0.2-0.5,0.3-1.1,0.6-1.5c0.2-0.3,0.3-0.8,0.5-1.1c0-0.2,0-0.3,0-0.5c-0.2,0-0.3,0-0.6-0.2
	c0-0.2,0.2-0.3,0.2-0.3s0.2,0,0.2-0.2c0.3,0,0.5-0.2,0.3-0.5l0,0c0.2-0.2,0.3-0.5,0.6-0.8c0.2-0.2,0.3-0.5,0.3-0.8
	c0-0.5,0-1.1,0.2-1.5c0.2-0.3,0-0.5-0.5-0.5c-0.2,0-0.5,0-0.8,0c-0.2,0-0.3-0.2-0.6-0.2c-0.2,0-0.3,0-0.5,0c0-0.3,0-0.5-0.3-0.6l0,0
	c0,0,0-0.2-0.2-0.2c0,0-0.2,0-0.3,0c-0.2,0-0.3,0-0.5-0.2c0-0.2-0.2-0.2-0.3-0.3c-0.5-0.3-0.5-0.9-0.5-1.4
	C63,58.9,63.1,58.8,63.1,58.6z"/>
<path class="st3" d="M45.2,85.6L45.2,85.6c0-0.2,0.2-0.3,0.3-0.6c0.2-0.2,0.2-0.6,0-0.9c0-0.2-0.2-0.2-0.3,0c0,0-0.2,0.2-0.3,0.2
	h-0.2v-0.2c0,0,0,0,0.2-0.2c0.3-0.3,0.8-0.6,1.1-0.8c0.2-0.2,0.5,0,0.8-0.2c0.3-0.2,0.6-0.2,0.9-0.2c0,0,0.2,0,0.3,0
	c0.2,0.2,0.5,0.2,0.6,0.3c0,0,0.2,0,0.2,0.2c0.2,0.3,0.3,0.3,0.6,0.5c0,0,0.2,0.2,0.3,0.2c0,0,0,0,0,0.2c-0.2,0.5-0.2,0.5,0.2,0.9
	c0,0,0,0-0.2,0c-0.2-0.2-0.3-0.3-0.5-0.5c-0.2-0.2-0.3-0.3-0.6-0.2h-0.2c-0.3,0-0.6-0.2-0.9-0.2c0,0-0.2,0-0.3,0
	c-0.3,0.2-0.6,0.3-1.1,0.5C45.8,84.8,45.4,85.3,45.2,85.6z"/>
<path class="st3" d="M59.8,73.1c0,0,0-0.2,0-0.3c-0.2-0.2-0.2-0.5-0.3-0.8c0-0.2-0.2-0.3-0.3-0.6c0-0.2,0-0.3-0.2-0.5
	c0.3,0.3,0.5,0.8,0.6,1.2c0,0,0,0,0,0.2c0.6,0.9,0.9,1.7,1.1,2.7c0,0.5,0.2,0.8,0.2,1.2c0,0.2,0,0.3,0.2,0.5
	c0.3-0.2,0.5-0.3,0.5-0.6c0-0.5,0-0.9,0-1.4s0.2-0.8,0.3-1.2c0-0.2,0.2-0.2,0.3-0.2c0,0.2,0,0.5,0,0.6c0,0,0,0.2,0.2,0.2h0.2
	c0,0,0.2-0.2,0.2-0.3c0.2,0.2,0.2,0.2,0.2,0.3c-0.2,0.2,0,0.5,0,0.8v0.2c-0.2,0.2-0.2,0.5-0.3,0.8c-0.2,0.2-0.2,0.5-0.5,0.6
	c-0.2,0.2-0.3,0.3-0.3,0.5c-0.2,0.2-0.2,0.5-0.3,0.8c0,0.2,0,0.5,0,0.6c0,0.2,0,0.2,0,0.3c0,0.2,0.2,0.2,0.3,0c0,0,0-0.2,0.2-0.2
	c0-0.2,0.2-0.5,0.2-0.6c0.2-0.3,0.3-0.6,0.5-1.1l0,0c-0.2,0.5-0.3,1.1-0.5,1.5c0,0.2-0.2,0.3-0.2,0.5c0,0.2-0.2,0.2-0.3,0
	c0-0.2-0.2-0.2-0.2-0.3c0-0.3-0.2-0.8-0.2-1.1c-0.2-0.5-0.3-0.9-0.3-1.4c0-0.3,0-0.6-0.2-0.9c-0.2-0.6-0.3-1.2-0.6-1.7
	C59.8,73.4,59.8,73.2,59.8,73.1z"/>
<path class="st3" d="M49.1,44.3c-0.2,0-0.5,0.2-0.6,0.3C48.5,44.5,48.7,44.3,49.1,44.3c0.5-0.5,1.1-0.9,1.5-1.4
	c0.2-0.2,0.3-0.3,0.5-0.3c0.5-0.3,0.8-0.8,1.2-1.1c0.2-0.2,0.2-0.3,0.2-0.5c0,0,0-0.2,0-0.3c0.2-0.6,0.3-1.2,0.6-1.8
	c0.2-0.6,0-1.1,0-1.7c0-0.3-0.2-0.5-0.5-0.6c-0.2,0-0.5-0.2-0.5-0.5c0,0-0.2,0-0.3-0.2c-0.3,0-0.6-0.2-0.8-0.2h-0.2
	c-0.3,0.2-0.6,0.3-0.8,0.6c0,0.2-0.2,0.2-0.2,0.3v-0.2c0,0,0-0.2,0.2-0.2s0.2,0,0.2-0.2c0.3-0.3,0.8-0.6,1.2-0.5c0.2,0,0.2,0,0.3,0
	s0.5,0,0.6,0c0.5,0.2,0.8,0.6,0.9,1.1c0,0.5,0,0.9,0,1.4c0,0.5,0,0.5,0.3,0.8c0.2,0,0.3-0.2,0.5-0.3c0.3,0.2,0.3,0.3,0.2,0.6
	c-0.2,0.5-0.5,0.9-0.8,1.4c-0.3,0.5-0.8,0.9-1.2,1.1c-0.3,0.2-0.5,0.3-0.8,0.5c-0.3,0.3-0.6,0.6-0.9,0.8c-0.3,0.3-0.8,0.6-1.1,0.9
	C49.4,44.2,49.3,44.3,49.1,44.3z"/>
<path class="st3" d="M60,42L60,42L60,42c0.5,0.5,0.8,0.8,0.9,1.1c0,0,0.2,0.2,0.2,0.3c0,0.2,0.2,0.3,0.3,0.5c0,0,0.2,0,0.3,0.2
	c0.3,0.2,0.6,0.2,0.9,0.3c0.5,0.3,0.9,0.6,1.4,0.9c0.2,0,0.3,0.2,0.5,0.2c0.3,0,0.5,0.2,0.6,0.3c0,0,0.2,0.2,0.2,0.3
	c0.5,0.5,1.1,0.8,1.5,0.9c0,0,0.2,0.2,0.3,0.2c0.6,0,1.4,0,2-0.2s1.2-0.2,1.8-0.3c0.3-0.2,0.8,0,1.2-0.2c0.5-0.2,0.9-0.2,1.2-0.6
	h0.2c0,0.2-0.2,0.3-0.3,0.5c-0.2,0-0.3,0-0.5,0.2c-0.2,0-0.3,0-0.5,0c-0.3,0-0.8,0.3-1.1,0.2c-0.2,0-0.3,0-0.5,0.2
	c-0.3,0.2-0.8,0.2-1.2,0.3c0,0-0.2,0-0.3,0.2c-0.2,0.3-0.5,0.3-0.9,0.2c-0.5,0-0.9,0-1.4-0.3c-0.3-0.2-0.6-0.2-0.9-0.3
	c0,0-0.2,0-0.3-0.2c-0.5,0-0.8-0.3-1.1-0.6c0,0-0.2,0-0.2-0.2c-0.2-0.3-0.5-0.3-0.6-0.5c-0.2,0-0.3-0.2-0.5-0.3
	c-0.5-0.5-1.1-0.8-1.7-1.1c-0.2,0-0.5-0.2-0.6-0.2c-0.2,0-0.3-0.2-0.3-0.5c0-0.2,0-0.3-0.2-0.5C60.3,42.7,60.1,42.3,60,42z"/>
<path class="st3" d="M50.5,43.3c0.3-0.3,0.6-0.6,0.9-0.8c0.2-0.2,0.5-0.3,0.8-0.5c0.5-0.3,0.9-0.6,1.2-1.1s0.6-0.9,0.8-1.4
	c0-0.3,0-0.3-0.2-0.6c-0.2,0-0.3,0.2-0.5,0.3C53,39,53,39,53.2,38.6s0-0.9,0-1.4c0-0.6-0.3-0.9-0.9-1.1c-0.2-0.2-0.5-0.2-0.8,0
	c-0.2,0-0.2,0-0.3,0c-0.5,0-0.9,0.2-1.2,0.5c0,0-0.2,0-0.2,0.2c0.2-0.3,0.3-0.6,0.6-0.6c0.3-0.2,0.6-0.3,1.1-0.2l0,0
	c0.5-0.2,0.9,0,1.4,0c0.5,0,1.1,0.6,1.1,1.2c0,0.2,0,0.2,0,0.3s0,0.3-0.3,0.3h-0.2c-0.2,0-0.3,0.2-0.3,0.3s0,0.3,0,0.5
	c0,0.2-0.2,0.3,0,0.5c0.2,0,0.2-0.2,0.3-0.2c0,0,0.2,0,0.3,0c0.2,0.2,0.3,0.2,0.6,0V39c0,0.2,0,0.5-0.3,0.8
	c-0.2,0.3-0.3,0.6-0.6,1.1c-0.3,0.5-0.8,0.9-1.1,1.4c-0.2,0.2-0.5,0.5-0.8,0.5h-0.2c0,0,0,0-0.2,0C51.1,42.8,50.8,43.3,50.5,43.3
	C50.6,43.3,50.5,43.3,50.5,43.3z"/>
<path class="st3" d="M32.6,82.9c-0.3,0.5-0.8,0.9-1.2,1.2h-0.2c-0.3,0-0.8,0-1.1,0l0,0c-0.3-0.2-0.8,0-1.1-0.5l0,0l0,0
	c-0.2,0-0.3,0.2-0.5,0c-0.2,0-0.5-0.2-0.5-0.5c0-0.3-0.2-0.6-0.3-0.9c-0.3-0.5-0.2-1.1-0.5-1.7c0-0.2-0.2-0.2-0.2-0.3
	c-0.2-0.2-0.2-0.3-0.3-0.6c0,0,0,0,0-0.2c0,0,0,0,0.2,0c0.2,0.3,0.3,0.6,0.6,0.9c0.2,0.2,0.2,0.3,0.2,0.6c0,0.2,0.2,0.5,0.3,0.6
	c0,0,0.2,0.2,0.3,0.2c0.2,0.2,0.3,0.2,0.6,0.2h0.2c0,0.2,0,0.3,0,0.5c-0.2,0.2,0,0.3,0,0.5c0.3,0.5,0.6,0.8,1.1,0.8
	c0.5,0,0.9-0.2,1.2,0l0,0c0.3-0.2,0.6-0.3,0.8-0.5C32.4,83.2,32.4,83,32.6,82.9C32.4,82.9,32.6,82.9,32.6,82.9z"/>
<path class="st3" d="M24.7,23.1c0.2,0.3,0.5,0.3,0.6,0c0.2-0.2,0.2-0.3,0.3-0.6c0-0.2,0.2-0.3,0.2-0.5l0,0v0.2c0,0.5,0,0.9-0.2,1.4
	c-0.2,0.5-0.3,1.1-0.3,1.7c0,0.3,0,0.6,0,0.8c0.2,0.8,0.3,1.5,0.5,2.3c0,0.9,0.2,1.8,0.2,2.7c0,0.3-0.2,0.6-0.5,0.8c0,0-0.3,0-0.5,0
	c-0.2,0-0.3,0-0.3,0.3c0,0.2,0,0.3,0,0.5c0,0.3,0,0.5-0.2,0.8c0,0.2,0,0.3,0,0.5c0,0.2,0,0.3,0,0.5c-0.2,0.5-0.3,1.1-0.6,1.5
	c-0.2,0.2-0.2,0.5-0.2,0.6v0.2c0-0.2,0-0.3,0-0.5l0,0c0,0,0,0,0-0.2c0-0.3,0-0.6,0.2-0.8v-0.2c0-0.2,0-0.5,0.2-0.6
	c0.2-0.2,0.3-0.5,0.3-0.8c0-0.2,0-0.3,0-0.3c0.2-0.5,0.2-0.9,0.2-1.4l0,0c0.2-0.2,0-0.5,0-0.6s0-0.5,0.3-0.6c0,0,0.2,0.2,0.2,0.3
	c0,0,0,0.2,0,0.3c0,0.2,0,0.2,0.2,0.2c0.2,0,0.2,0,0.3-0.2c0-0.2,0-0.3,0-0.5c0-0.5,0-0.9,0-1.2c0-0.9-0.2-1.7-0.3-2.4
	c0-0.2-0.2-0.5-0.2-0.8s-0.2-0.5-0.2-0.8c0-0.5,0.2-0.9,0.3-1.2c0-0.3,0-0.6-0.5-0.5c-0.2,0-0.3,0-0.3-0.2
	C24.7,23.2,24.7,23.2,24.7,23.1z"/>
<path class="st3" d="M24.7,23.1c0,0,0,0.2,0,0.3c0,0.2,0.2,0.2,0.3,0.2c0.5,0,0.5,0,0.5,0.5c-0.2,0.5-0.2,0.9-0.3,1.2
	c0,0.3,0,0.5,0.2,0.8c0,0.2,0.2,0.5,0.2,0.8c0.2,0.8,0.3,1.7,0.3,2.4c0,0.5,0,0.9,0,1.2c0,0.2,0,0.3,0,0.5s-0.2,0.2-0.3,0.2
	s-0.2-0.2-0.2-0.2s0-0.2,0-0.3c0,0-0.2-0.2-0.2-0.3c-0.3,0.2-0.3,0.5-0.3,0.6s0,0.5,0,0.6c0-0.5,0-0.9,0-1.2c0,0,0.2-0.2,0.2-0.3
	c0,0,0.2,0,0.3,0.2c0,0,0,0.2,0.2,0.2l0.2,0.2c0-0.2,0.2-0.2,0.2-0.3c0.2-0.5,0-0.9,0-1.2c0-0.2-0.2-0.5-0.2-0.8
	c0-0.5-0.2-0.9-0.2-1.2c0-0.2,0-0.2,0-0.3c0-0.3,0-0.6-0.2-0.8c0,0,0-0.2,0-0.3c0-0.2,0-0.5,0-0.8c0,0,0-0.2,0-0.3
	c0-0.5,0-0.8-0.3-1.1C24.9,23.4,24.9,23.2,24.7,23.1c0.2-0.5,0.3-0.9,0.2-1.2l0,0c0-0.2,0-0.5-0.2-0.6c-0.3-0.3-0.3-0.8-0.2-1.2
	c0,0,0,0.2,0,0.3c0,0.5,0.2,0.8,0.5,0.9c0.2,0,0.3,0.2,0.3,0.3c0,0.3,0,0.6,0,0.8C24.7,22.9,24.7,23.1,24.7,23.1z"/>
<path class="st3" d="M26.7,79.9C26.7,80,26.7,80,26.7,79.9C26.5,80,26.5,79.9,26.7,79.9c-0.3-0.6-0.6-1.1-0.6-1.7c0-0.2,0-0.2,0-0.3
	c-0.3-0.5-0.5-1.1-0.6-1.5c0-0.3-0.3-0.6-0.3-0.9c0,0,0-0.2-0.2-0.2c-0.2,0-0.3-0.3-0.3-0.5c0,0,0-0.2,0-0.3s-0.2-0.3-0.2-0.6
	c0-0.2,0-0.3-0.2-0.5c-0.2,0-0.2,0.2-0.3,0.2l0,0c0,0,0-0.2-0.2-0.3c-0.2-0.2-0.2-0.3,0-0.6c0-0.2,0-0.3,0-0.5c0-0.2,0-0.3-0.2-0.3
	c-0.2-0.2-0.3-0.5-0.3-0.8c0-0.3-0.2-0.6-0.3-1.1c-0.2-0.3-0.3-0.6-0.2-1.1c0,0,0-0.2,0-0.3s0-0.3,0-0.5l0,0c0,0,0,0,0,0.2
	c0.2,0.5,0.2,0.9,0.3,1.2s0.3,0.8,0.3,1.2c0,0,0,0.2,0.2,0.3c0,0.3,0.2,0.5,0.3,0.8c0,0.3,0.2,0.8,0.3,1.1c0.2,0.2,0.2,0.3,0.3,0.6
	c0,0.2,0,0.3,0.2,0.3c0.3,0.6,0.8,1.1,0.8,1.8c0,0.2,0.2,0.3,0.2,0.6c0.2,0.6,0.5,1.1,0.8,1.5c0,0.2,0.2,0.3,0.2,0.6
	C26.5,79.1,26.5,79.4,26.7,79.9z"/>
<path class="st3" d="M53.4,33L53.4,33c0-0.2,0.2-0.3,0.3-0.3c0.5-0.3,0.8-0.8,0.9-1.2c0-0.2,0-0.3-0.2-0.5c-0.2,0.2-0.2,0.3-0.3,0.6
	c-0.2,0-0.2-0.2-0.2-0.3c0-0.2,0-0.5-0.2-0.6c-0.2-0.3-0.2-0.6-0.3-0.9v-0.2c0-0.3-0.2-0.6-0.2-0.9v-0.2c0-0.2-0.2-0.5-0.3-0.6
	c0-0.2-0.2-0.3-0.2-0.6c0-0.2,0-0.5,0-0.6c0-0.3,0-0.6-0.2-0.9l0,0c0,0.2,0.2,0.3,0.3,0.6c0.2,0.3,0.2,0.6,0.3,1.1c0,0,0,0.2,0,0.3
	c0,0.5,0.2,0.9,0.2,1.2c0,0.3,0,0.8,0.2,1.1c0,0.2,0,0.3,0.2,0.5c0,0,0.2,0.2,0.3,0c0.2,0,0.5,0,0.5,0.2c0.2,0.3,0.2,0.5,0.2,0.9
	c-0.2,0.6-0.6,1.1-1.2,1.4C53.5,32.9,53.5,32.9,53.4,33z"/>
<path class="st3" d="M79.1,41.1c0,0.2-0.2,0.3-0.2,0.6v0.2c0.2,0,0.2-0.2,0.3-0.3c0.2-0.2,0.3-0.2,0.3,0c0,0.2,0,0.3,0,0.3
	c-0.2,0.2-0.2,0.2-0.3,0.3c-0.2,0.2-0.5,0.3-0.6,0.5c-0.5,0.3-0.9,0.6-1.2,1.1C77.3,44,77,44,76.7,44.2c-0.2,0-0.3,0.2-0.5,0.2
	c-0.2,0-0.5,0.2-0.6,0.2s-0.3,0.2-0.5,0.3c-0.3,0.3-0.6,0.5-0.9,0.6l0,0c0.2,0,0.2-0.2,0.3-0.3c0.2-0.2,0.3-0.2,0.5-0.5
	c0,0,0,0,0.2-0.2c0.6-0.3,1.1-0.8,1.7-1.1c0.3-0.2,0.6-0.5,0.9-0.6c0.3-0.2,0.6-0.5,0.8-0.8C78.7,41.9,78.8,41.6,79.1,41.1
	C79,41.3,79.1,41.3,79.1,41.1z"/>
<path class="st3" d="M32.6,82.9L32.6,82.9c0-0.2,0.2-0.3,0.3-0.6s0.5-0.8,0.8-1.1c0-0.2,0.2-0.3,0.2-0.5c0-0.2,0-0.3,0.2-0.5
	c0.2-0.3,0.5-0.6,0.9-0.6v-0.2v-0.2c0,0,0,0,0.2,0s0.3,0,0.3,0s0.2-0.2,0.2-0.3s0.2-0.3,0.5-0.5c0.2,0,0.3-0.2,0.5-0.2
	c0.2,0,0.3-0.2,0.3-0.3c0.3-0.6,0.6-1.2,0.8-2c0-0.3,0.2-0.5,0.3-0.8v0.2c-0.2,0.6-0.2,1.2-0.5,1.8c0,0.2-0.2,0.3-0.2,0.3
	c-0.5,1.1-1.2,1.8-2.1,2.4c-0.2,0.2-0.3,0.2-0.6,0.2c-0.2,0-0.3,0-0.5,0.3c0,0,0,0.2,0.2,0.3c-0.6,0.5-0.8,1.1-1.2,1.5
	C32.9,82.7,32.7,82.7,32.6,82.9z"/>
<path class="st3" d="M58.9,71.3c-0.2-0.5-0.5-0.8-0.6-1.2c0,0,0-0.2,0-0.3c0-0.2,0-0.3,0-0.5C58.2,69,58,68.6,58,68.3v-0.2
	c-0.3-0.5-0.2-0.9-0.2-1.4c0,0,0-0.2,0-0.3c-0.2-0.2-0.2-0.3-0.2-0.6c0-0.5,0-0.9-0.2-1.2v-0.2c-0.3-0.6-0.6-1.4-0.9-2v-0.2
	c0-0.2,0-0.3,0.2-0.3s0.2,0,0.3,0c0,0-0.2,0-0.3,0.2c-0.2,0.2-0.3,0.2-0.2,0.5c0.2,0.3,0.3,0.6,0.5,0.9c0.3,0.6,0.5,1.2,0.9,2
	c0.2,0.3,0.2,0.8,0.3,1.2c0,0.2,0,0.5,0,0.8c0,0.2,0,0.3,0,0.5c0,0.2,0,0.3,0,0.5c0,0.2,0,0.3,0.2,0.5c0,0.3,0.2,0.8,0.2,1.1
	c0,0.2,0.2,0.3,0.2,0.6c0,0.3,0,0.3,0.2,0.5C58.9,70.5,58.9,70.8,58.9,71.3z"/>
<path class="st3" d="M79.1,41.1C79.1,41.1,79.1,41.3,79.1,41.1c0,0,0-0.2,0-0.3c0.2-0.2,0.3-0.3,0.5-0.6c0.5-0.8,0.8-1.5,0.9-2.4
	c0-0.2,0-0.3-0.2-0.3c-0.3,0-0.5-0.2-0.6-0.5c0-0.3-0.2-0.5-0.5-0.8C79.1,36.2,79,36,78.7,36h0.2c0.3,0,0.6,0.3,0.8,0.6
	c0,0,0,0.2,0.2,0.3c0.2,0.3,0.2,0.3,0.6,0.3c0,0,0.2,0,0.3,0.2c0.3,0.3,0.3,1.2-0.2,1.5C80.3,39,80,39.3,80,39.6v0.2
	c-0.2,0.3-0.2,0.6-0.5,0.8C79.4,40.8,79.3,41,79.1,41.1z"/>
<path class="st3" d="M37.7,75.7L37.7,75.7c0-0.3,0-0.5,0-0.5c0.2-0.5,0.3-0.9,0.3-1.4c0-0.2,0-0.2,0-0.3c0-0.3,0.2-0.8,0.2-1.1v-0.2
	c-0.3,0-0.3,0.3-0.6,0.3c0-0.2,0-0.2,0-0.3c0-0.2,0.2-0.3,0.2-0.5c0-0.3,0.2-0.6,0.2-0.9s0.2-0.6,0-0.9c0-0.2,0-0.3,0-0.5
	c0-0.3,0.2-0.5,0.3-0.8c0,0.2,0,0.3,0,0.5c0,0,0,0.2,0,0.3c0.2,0.3,0.2,0.8,0,1.1v0.2c0,0.2,0,0.2,0,0.3c0,0.2,0,0.3,0.2,0.5
	c0.2,0.2,0.2,0.3,0.2,0.6c0,0.5,0,0.9-0.3,1.2c0,0,0,0.2,0,0.3C38.3,74.5,38,74.9,37.7,75.7C37.8,75.5,37.8,75.5,37.7,75.7z"/>
<path class="st3" d="M27.7,43L27.7,43c-0.5-0.3-0.8-0.6-1.1-0.9l-0.2-0.2c-0.3,0-0.5-0.2-0.8-0.5c-0.2,0-0.2-0.2-0.2-0.3
	c0,0,0-0.2,0-0.3s0-0.3-0.2-0.3c0,0,0,0-0.2,0c0-0.5,0-0.6-0.3-0.6h-0.2c0,0,0.2,0,0.3,0c0.2,0,0.5,0,0.6,0.2c0.2,0,0.2,0,0.3,0
	c0,0.3,0,0.6,0,0.9v0.2c0.3,0.3,0.5,0.8,0.9,0.9C27,42,27.4,42.5,27.7,43C27.7,42.8,27.7,42.8,27.7,43z"/>
<path class="st3" d="M22.6,68.6L22.6,68.6c-0.2-0.2-0.2-0.3-0.2-0.5c0-0.2,0-0.5-0.3-0.6l0,0c0-0.6-0.3-1.1-0.6-1.5
	c0,0,0-0.2-0.2-0.3c-0.2-0.3-0.3-0.6-0.5-0.9c-0.2-0.3-0.3-0.6-0.3-1.1c0-0.3,0-0.6-0.2-0.9l0,0c0.2,0.2,0.2,0.3,0.2,0.5
	c0,0,0,0.2,0,0.3c0.2,0.6,0.3,1.4,0.8,2l0,0c0.2,0.3,0.5,0.8,0.8,1.1c0.2,0.2,0.2,0.2,0.2,0.5c0,0.2,0,0.3,0,0.6
	C22.6,68,22.6,68.4,22.6,68.6z"/>
<path class="st3" d="M24.7,39.8h0.2c-0.2,0-0.3,0.2-0.5,0.2c0-0.2,0-0.2,0-0.3s0-0.3,0-0.5s-0.2-0.3-0.3-0.2c-0.2,0-0.3,0.2-0.3,0.5
	c0,0.2,0,0.3-0.2,0.3c-0.2-0.2,0-0.3,0-0.5c0.2-0.5,0.2-0.8,0-1.2c-0.2-0.2-0.2-0.5-0.2-0.6c0-0.5,0-0.9,0.2-1.2
	c0-0.2,0-0.5,0.2-0.6c0,0.2,0,0.3,0,0.5l0,0v0.2c0,0.2,0,0.5,0,0.6c0,0.3,0,0.6,0.2,0.9c0,0,0,0.2,0,0.3s0,0.3,0.2,0.3
	c0.2,0.2,0.3,0.3,0.5,0.5C24.6,39.2,24.6,39.3,24.7,39.8C24.7,39.6,24.7,39.6,24.7,39.8z"/>
<path class="st3" d="M62.5,76.9c0.2-0.5,0.3-0.9,0.5-1.2c0-0.3,0.2-0.6,0.3-0.9c0.2-0.5,0.3-0.9,0.5-1.2v-0.2c0-0.5,0.3-0.8,0.5-1.1
	c0.2-0.3,0.2-0.6,0.3-1.1c0.2-0.3,0.3-0.6,0.5-0.9l0,0c0,0.2-0.2,0.5-0.3,0.6c-0.3,0.8-0.6,1.4-0.9,2c0,0,0,0,0,0.2
	c-0.2,0.3-0.2,0.8-0.3,1.1c-0.2,0.6-0.5,1.1-0.6,1.7C62.8,76.1,62.7,76.6,62.5,76.9L62.5,76.9z"/>
<path class="st3" d="M24.6,39.6c0-0.2,0-0.3,0-0.6c-0.2-0.2-0.3-0.3-0.5-0.5c0,0,0-0.3-0.2-0.3c0,0,0-0.2,0-0.3
	c-0.2-0.3-0.2-0.6-0.2-0.9c0-0.2,0-0.5,0-0.6v-0.2c0,0.2,0.2,0.3,0.3,0.6c-0.2,0.2-0.2,0.3,0,0.6c0,0,0,0.2,0,0.3s0,0.5,0,0.8v0.2
	c0,0,0.2,0,0.2,0.2c0.2,0.2,0.3,0.3,0.3,0.5C24.6,39.2,24.6,39.5,24.6,39.6z"/>
<path class="st3" d="M59.5,61.2L59.5,61.2c0.3-0.2,0.5-0.3,0.8-0.5c0,0,0.2,0,0.2-0.2c0.2-0.3,0.3-0.5,0.5-0.8
	c0.2-0.2,0.2-0.3,0.3-0.5L61,59.2h0.2c0.2,0.2,0.2,0.3,0,0.5c0,0-0.2,0.2-0.3,0.3c0,0.2-0.3,0.5,0,0.6C60.6,60.9,60,61,59.5,61.2z"
	/>
<path class="st3" d="M49.9,36.8v0.2c-0.2,0.3-0.3,0.6-0.3,0.9c0,0.2,0,0.3-0.2,0.5c-0.3,0.3-0.6,0.8-0.6,1.4c0,0.3-0.2,0.8-0.5,1.1
	l0,0c0,0,0,0,0-0.2c0.2-0.5,0.3-0.9,0.5-1.4c0-0.2,0-0.3,0.2-0.5l0,0c0.3-0.2,0.6-0.3,0.5-0.8c0-0.2,0.2-0.5,0.3-0.6
	C49.7,37.1,49.7,36.9,49.9,36.8z"/>
<path class="st3" d="M20.3,63c0,0.3,0.2,0.6,0.2,0.9c0,0.5,0.2,0.6,0.3,1.1c0.2,0.3,0.3,0.6,0.5,0.9c-0.5-0.6-1.1-1.2-1.1-2v-0.2
	C20.3,63.4,20.3,63.3,20.3,63L20.3,63z"/>
<path class="st3" d="M52.3,65.7L52.3,65.7c-0.2-0.3-0.3-0.8-0.5-1.1c-0.2-0.5-0.5-1.1-0.6-1.4c0,0,0,0,0-0.2
	c0.2,0.3,0.3,0.6,0.6,0.9c0.2,0.3,0.3,0.5,0.3,0.8V65C52.3,65.4,52.3,65.6,52.3,65.7z"/>
<path class="st3" d="M57,61.8c0.2,0,0.2-0.2,0.3-0.2c0.5,0,0.9-0.2,1.4-0.3c0.3,0,0.6-0.2,0.9-0.2c-0.3,0.2-0.5,0.2-0.8,0.2
	c-0.2,0-0.3,0-0.6,0.2C57.9,61.8,57.4,61.8,57,61.8z"/>
<path class="st3" d="M79,36.2L79,36.2h-0.3c0,0-0.2-0.2-0.3-0.2c-0.2-0.2-0.5-0.2-0.6,0c0,0-0.2,0.2-0.3,0.2c0-0.2,0.3-0.3,0.5-0.5
	c0,0,0.2,0,0.3,0C78.4,35.9,78.8,36,79,36.2z"/>
<path class="st3" d="M77.3,36.2c0,0,0.2,0,0.3-0.2c0.2-0.2,0.5-0.2,0.6,0c0,0,0.2,0.2,0.3,0.2c-0.5-0.2-0.9,0-1.4,0.3
	c-0.2,0.2-0.3,0.3-0.6,0.5c0,0,0,0,0-0.2l0,0c0.2-0.2,0.3-0.3,0.5-0.5C77.3,36.2,77.3,36.2,77.3,36.2z"/>
<path class="st3" d="M72.9,46.3c0-0.2,0.2-0.3,0.3-0.5l0,0c0.2,0,0.3,0,0.6-0.2c0.2,0,0.3-0.2,0.5-0.2l0,0c-0.2,0-0.3,0-0.5,0.3
	c0,0-0.2,0-0.3,0.2C73.4,46.1,73.2,46.4,72.9,46.3z"/>
<path class="st3" d="M21.6,66.2c0.5,0.5,0.6,0.9,0.6,1.5c0,0,0,0,0-0.2c-0.2-0.5-0.2-0.8-0.5-1.1C21.6,66.3,21.6,66.2,21.6,66.2z"/>
<path class="st3" d="M49.3,37.8c0,0.5-0.3,0.6-0.5,0.8v-0.2C49,38.1,49.1,38,49.3,37.8z"/>
<path class="st3" d="M76.7,36.6C76.7,36.8,76.7,36.8,76.7,36.6c0,0.3,0,0.3-0.2,0.5c0,0-0.2,0-0.3,0.2l0,0
	C76.4,37.1,76.6,36.8,76.7,36.6z"/>
<path class="st3" d="M22.2,67.7c0.2,0.2,0.3,0.3,0.3,0.6C22.2,68,22.2,67.8,22.2,67.7z"/>
<path class="st3" d="M77.2,36.2c-0.2,0.2-0.3,0.3-0.5,0.5C76.7,36.3,77,36.3,77.2,36.2z"/>
<path class="st3" d="M40.2,55.9c-0.2,0-0.5,0-0.6-0.2C39.8,55.9,40.1,55.9,40.2,55.9z"/>
<path class="st3" d="M16.3,46.3c0.2,0,0.3,0,0.5,0.2C16.6,46.4,16.4,46.4,16.3,46.3z"/>
<path class="st3" d="M17,46.6C17.2,46.6,17.2,46.6,17,46.6c0,0-0.2,0-0.3,0C16.9,46.6,17,46.6,17,46.6z"/>
<path class="st3" d="M76,37.5c0,0,0.2-0.2,0.3-0.2l0,0C76.3,37.4,76.1,37.5,76,37.5L76,37.5z"/>
<path class="st3" d="M52.3,65.7c0-0.2,0-0.5-0.2-0.6V65c0-0.3-0.2-0.6-0.3-0.8c-0.2-0.3-0.3-0.6-0.6-0.9l0,0c0-0.5-0.3-0.9-0.2-1.4
	c-0.2-0.3-0.6-0.3-0.9-0.5c-0.2,0-0.3-0.2-0.3-0.5c0-0.3-0.2-0.3-0.5-0.3c-0.2,0-0.3,0.2-0.6,0.2c-0.2,0-0.3,0-0.5,0
	c-0.2-0.2-0.3-0.2-0.5-0.2s-0.3,0-0.3-0.2s0-0.3-0.2-0.3s-0.2,0-0.3,0.3c-0.2,0.3-0.5,0.5-0.9,0.3c-0.2,0-0.2-0.2-0.3-0.3
	c-0.2-0.2-0.3-0.2-0.5,0c0,0,0,0.2-0.2,0.2c-0.2,0.2-0.5,0.3-0.8,0.3c-0.3,0-0.6,0-1.1,0c-0.2,0-0.3,0-0.3,0c-0.2,0.2-0.3,0.2-0.6,0
	c-0.2-0.2-0.3,0-0.5,0c0,0-0.2,0.2-0.3,0.2c-0.5,0.2-0.8,0.5-0.9,0.9l0,0c-0.2,0.2-0.3,0.3-0.5,0.6c0,0.2,0,0.5-0.2,0.8
	c0,0,0,0.2,0,0.3c0,0.3-0.2,0.6-0.3,0.9c0,0.2-0.2,0.3-0.2,0.5c0,0.2-0.2,0.3-0.2,0.6c-0.2,0.5-0.5,0.9-0.6,1.4
	c-0.2,0.3-0.2,0.8-0.3,1.1c0,0,0,0.2,0,0.3c-0.2,0-0.2,0.3-0.2,0.5l0,0c0,0.2-0.2,0.5-0.3,0.8c0,0.2,0,0.3,0,0.5
	c0.2,0.3,0,0.6,0,0.9s-0.2,0.6-0.2,0.9c0,0.2,0,0.3-0.2,0.5c0,0.2,0,0.2,0,0.3c0.3,0,0.2-0.5,0.6-0.3v0.2c0,0.3-0.2,0.8-0.2,1.1
	c0,0.2,0,0.2,0,0.3c0,0.5-0.2,0.9-0.3,1.4c0,0.2,0,0.3,0,0.3c0,0.2-0.2,0.5-0.3,0.8c-0.2,0.8-0.5,1.4-0.8,2c0,0.2-0.2,0.3-0.3,0.3
	c-0.2,0-0.3,0.2-0.5,0.2c-0.2,0-0.3,0.3-0.5,0.5c0,0.2,0,0.3-0.2,0.3c0,0-0.2,0-0.3,0c0,0,0,0-0.2,0v0.2v0.2c-0.5,0-0.8,0.2-0.9,0.6
	c0,0.2-0.2,0.2-0.2,0.5c0,0.2,0,0.3-0.2,0.5c-0.3,0.3-0.5,0.8-0.8,1.1c-0.2,0.2-0.3,0.3-0.5,0.6c-0.2,0.2-0.3,0.2-0.3,0.3
	c-0.2,0.2-0.5,0.3-0.8,0.5l0,0c-0.5,0-0.9,0-1.2,0c-0.5,0-0.9-0.2-1.1-0.8c0-0.2-0.2-0.3,0-0.5c0.2-0.2,0.2-0.3,0-0.5h-0.2
	c-0.2,0-0.3,0-0.6-0.2c0,0-0.2-0.2-0.3-0.2c-0.2-0.2-0.3-0.3-0.3-0.6s0-0.5-0.2-0.6c-0.3-0.3-0.5-0.6-0.6-0.9c0,0,0,0-0.2,0
	c-0.2-0.5-0.2-0.9-0.2-1.2c0-0.2,0-0.3-0.2-0.6c-0.3-0.5-0.6-1.1-0.8-1.5c0-0.2-0.2-0.3-0.2-0.6c0-0.8-0.5-1.2-0.8-1.8
	c0-0.2-0.2-0.3-0.2-0.3c0-0.2-0.2-0.5-0.3-0.6c-0.2-0.3-0.3-0.6-0.3-1.1c0-0.3-0.2-0.5-0.3-0.8c0-0.2-0.2-0.2-0.2-0.3
	c0-0.5-0.2-0.8-0.3-1.2c-0.2-0.5-0.2-0.9-0.3-1.2c0,0,0,0,0-0.2c0-0.3,0-0.6-0.2-0.9c0-0.2-0.2-0.3,0-0.6c0-0.2,0-0.3-0.2-0.5
	c-0.3-0.3-0.5-0.6-0.8-1.1l0,0c-0.5-0.6-0.6-1.2-0.8-2c0,0,0-0.2,0-0.3c0-0.2,0-0.3-0.2-0.5c0-0.2-0.2-0.5-0.2-0.6
	c0-0.2-0.2-0.2-0.5-0.2c-0.6,0-1.1-0.2-1.7-0.2c0,0-0.2,0-0.3-0.2v-0.2c0,0,0-0.2,0.2-0.2h0.2c0.2,0.2,0.3,0,0.5,0
	c0.2-0.2,0.3-0.2,0.5-0.3c0.5,0.3,0.5,0.3,0.6,0c0-0.3-0.3-0.2-0.6-0.2c-0.5,0-1.1,0-1.5,0c-0.3,0-0.6,0-0.9,0c-0.2,0-0.3,0-0.5-0.2
	c-0.2,0-0.3-0.2-0.5-0.2c-0.3,0-0.6,0-0.8-0.2c-0.2,0-0.3-0.2-0.3-0.3s-0.2-0.3-0.3-0.3c0,0-0.2,0-0.3,0c-0.2,0-0.3-0.2-0.5-0.3
	c-0.2-0.3-0.2-0.6,0-0.9c0.2-0.2,0.2-0.5,0-0.6c-0.2-0.3-0.2-0.3,0-0.5s0.3-0.3,0.5-0.5c0.2-0.2,0.2-0.2,0.5-0.2
	c0.2,0.2,0.5,0.3,0.8,0.3c0.2,0,0.5,0,0.6,0c0.3,0,0.6,0,0.9,0c0,0,0.2,0,0.3,0c0.6,0,1.1,0,1.7,0c0.2,0,0.3,0,0.5,0
	c0.3,0,0.6,0.2,0.9,0.2s0.8,0,1.1,0c0,0,0.2,0,0.3,0c0.3,0,0.6,0,0.9,0s0.8,0,1.1,0c0.5,0,0.8-0.2,1.1-0.3c0,0,0.2,0,0.3,0
	s0.2,0,0.3-0.2c-0.3,0-0.6-0.2-0.9-0.2s-0.3,0-0.5-0.3c0-0.3,0-0.5-0.3-0.8c0.3,0,0.8-0.2,1.1-0.2c0.5,0,0.9,0,1.4,0
	c0.2,0,0.5,0,0.6,0c0.3,0,0.6,0.2,0.9,0.2c0.2,0,0.3,0,0.5,0.2c0.2,0,0.3,0.2,0.6,0.2c0,0,0.2,0,0.2,0.2c0,0.5,0.5,0.8,0.6,1.1
	c0.2,0.2,0.3,0.5,0.6,0.8c0.2,0.2,0.2,0.3,0,0.3c-0.3,0.2-0.3,0.3-0.3,0.6s0,0.6-0.3,0.9C30.3,59.8,30.3,60,30,60
	c-0.2,0-0.2,0.2-0.3,0.2c-0.2,0.2-0.5,0.3-0.6,0.2c-0.3,0-0.8,0-1.1,0c-0.5,0-0.8,0-1.2,0.2c-0.3,0-0.6,0-0.9,0h-0.2
	c-0.3,0-0.3,0.3-0.2,0.5c0.3,0.3,0.6,0.8,0.8,1.2c0.2,0.6,0.3,1.2,0.3,2c0,0.6,0.2,1.1,0.3,1.5c0.2,0.5,0.5,1.1,0.6,1.5
	c0,0.2,0.2,0.2,0.3,0.3c0.2,0,0.5,0.3,0.5,0.6c0,0.3,0.2,0.6,0.2,0.9V69c0.3,0.3,0.5,0.6,0.6,1.1v0.2c0.2,0.2,0.2,0.5,0.2,0.6
	c0,0.5,0.2,0.9,0.3,1.2c0.2,0.2,0.3,0.5,0.6,0.6c0.2,0.2,0.3,0.3,0.3,0.6c0,0.2,0,0.3,0.2,0.3c0.2,0.2,0.5,0.3,0.8,0.5
	c0.2-0.2,0.2-0.2,0.3-0.5c0-0.3,0.2-0.6,0.3-0.9c0.2-0.3,0.3-0.8,0.5-1.1c0.2-0.6,0.5-1.2,0.6-1.8c0.2-0.3,0.2-0.8,0.3-1.1v-0.2
	c0.2-0.2,0.2-0.5,0.2-0.8s0-0.5,0-0.8c0-0.2,0-0.3,0.2-0.5c0,0,0-0.2,0.2-0.2c0-0.2,0.2-0.5,0.3-0.8c0.2-0.5,0.3-0.9,0.2-1.2
	c0.2-0.2,0.3-0.5,0.5-0.8c0-0.2,0.2-0.3,0.2-0.5C35,63,35,62.7,35,62.4s0-0.6,0.2-0.9c0-0.2,0.2-0.3,0.2-0.6v-0.2
	c0-0.2,0-0.3,0.2-0.5c0-0.2,0-0.3-0.3-0.3c-0.3,0-0.8,0-1.1,0c-0.5,0-0.9-0.2-1.2-0.5c0,0-0.2-0.2-0.3-0.3c-0.2-0.2-0.2-0.2-0.3-0.2
	c-0.2-0.2-0.2-0.2,0-0.3c0.3-0.2,0.3-0.5,0.3-0.9c0,0,0-0.2,0-0.3c0-0.3,0-0.5-0.3-0.6c-0.2,0-0.2-0.2,0-0.3c0,0,0.2-0.2,0.2-0.3
	c0-0.2,0.2-0.3,0.3-0.5c0.2-0.2,0.5-0.3,0.8-0.5c0.3-0.2,0.6-0.3,1.1-0.3c0.2,0,0.5,0,0.8,0c0.5,0,0.9-0.2,1.2-0.2
	c0.2,0,0.3-0.2,0.5-0.2l0.2-0.2c0.5,0,0.9-0.2,1.2,0c0.2,0,0.3,0,0.5,0c0.5,0,0.9,0,1.2,0.2c0.3,0.2,0.9,0.2,1.2,0.5
	c0,0.2,0.2,0.2,0.5,0.2c0.5-0.2,1.1,0,1.4,0.2c0.2,0.2,0.6,0.2,0.8,0.3c0.2,0,0.3,0.2,0.5,0.2c0.3,0.2,0.6,0.3,0.9,0.6
	c0,0,0.2,0,0.3,0s0.5,0,0.8,0s0.6,0,0.9,0c0.3-0.2,0.5,0,0.6,0.2c0,0,0,0.2,0.2,0.2c0.3-0.2,0.6-0.2,0.8-0.5c0-0.2,0.2-0.2,0.5-0.2
	c0.3,0,0.8,0,1.1,0c0.2,0,0.3,0,0.6,0c0,0,0.2,0,0.3,0c0.5,0.2,0.5,0.2,0.8-0.2c0.2-0.2,0.3-0.2,0.5-0.2h0.2c0.3-0.2,0.6,0,0.8,0
	c0.5,0,0.9,0,1.2-0.3c0.2,0,0.3,0,0.5,0s0.3,0,0.5,0s0.2,0,0.3,0c0.5,0,0.8,0,1.2-0.2c0,0,0.2,0,0.3,0c0.6,0,1.1,0,1.7,0.3
	c0.3,0.2,0.6,0.3,0.9,0.3c0.3,0.2,0.3,0.2,0.3,0.6c0.2,0.2,0.5,0.3,0.8,0.3c0.5,0.2,0.5,0.2,0.5,0.6c0,0,0.2,0.2,0.2,0.3
	c0.2,0,0.3,0,0.3,0c0.2,0,0.3,0.2,0.2,0.3c-0.2,0.3-0.5,0.6-0.8,0.9c-0.2,0.2-0.3,0.3-0.6,0.5s-0.5,0.3-0.9,0.5
	c-0.2,0-0.3,0-0.5,0.2c-0.3,0.2-0.6,0.3-1.1,0h-0.2c-0.2,0-0.5,0.2-0.8,0.2c-0.3,0-0.3,0.2-0.3,0.5c0,0.3,0.2,0.5,0.2,0.8
	c0.2,0.5,0.2,1.1,0.3,1.5c0,0.2,0,0.5,0.2,0.6c0,0.2,0.2,0.5,0.2,0.8c0.2,0.8,0.3,1.4,0.5,2.1c0.2,0.5,0.3,1.1,0.5,1.5
	c0,0.3,0.2,0.6,0.2,0.9c0,0.5,0.2,0.8,0.5,1.1c0.2,0.2,0.2,0.3,0.3,0.5c0.2,0.3,0.2,0.8,0.3,1.1c0,0.2,0.2,0.2,0.2,0.3
	c0.2,0.2,0.2,0.3,0.3,0.5c0,0,0,0.2,0.2,0.3c0.3,0.6,0.5,1.1,0.6,1.7c0,0.3,0,0.6,0.2,0.9c0.2,0.5,0.3,0.9,0.3,1.4
	c0,0.3,0.2,0.8,0.2,1.1c0,0.2,0,0.3,0.2,0.3c0.2,0.2,0.2,0.2,0.3,0c0-0.2,0.2-0.3,0.2-0.5c0.2-0.5,0.3-1.1,0.5-1.5
	c0.2-0.3,0.3-0.8,0.5-1.1c0.2-0.6,0.5-1.1,0.6-1.7c0.2-0.3,0.2-0.8,0.3-1.1c0,0,0,0,0-0.2c0.3-0.8,0.6-1.4,0.9-2
	c0-0.2,0.2-0.5,0.3-0.6c0.2-0.6,0.5-1.2,0.6-2c0.2-0.6,0.5-1.2,0.6-1.8c0.2-0.5,0.3-0.8,0.5-1.2c0-0.2,0.2-0.2,0.3-0.2
	c0.3,0.2,0.3,0.2,0.5,0c0,0,0,0,0.2-0.2l0,0l-0.2-0.2c0,0-0.2-0.2,0-0.3c0-0.2,0-0.3,0-0.3c0-0.2,0-0.3,0-0.5c0.2-0.2,0-0.3,0-0.5
	c-0.2-0.3,0-0.9,0.5-0.9c0.2,0,0.5-0.2,0.6-0.3c0.3-0.2,0.2-0.5,0-0.6c-0.3-0.2-0.8-0.2-1.1-0.2s-0.8,0-1.1-0.2c-0.2,0-0.3,0-0.5,0
	c-0.2,0-0.3,0-0.5-0.2c-0.2-0.2-0.5-0.2-0.6-0.2c-0.8,0-1.5-0.6-1.4-1.4c0-0.2,0-0.3,0-0.5l0,0c0-0.6,0.5-1.1,1.1-1.1
	c0.5,0,0.8-0.2,1.1-0.5c0.3-0.2,0.6-0.3,0.9-0.2c0.2,0,0.3,0,0.3,0c0.2,0,0.3-0.2,0.6,0c0,0,0.2,0,0.3,0c0.6,0,1.4,0,2,0
	c0.5,0,0.9,0,1.2,0c0.8,0,1.4,0,2,0.2c0.2,0,0.3,0.2,0.3,0.3c0.2,0.3,0.6,0.3,0.9,0.5c0,0,0.2,0,0.3,0c0,0,0.2,0,0.3,0
	c0.3,0,0.6,0.2,1.1,0.3c0,0,0,0,0.2,0.2c0.2,0.2,0.3,0.3,0.5,0.5c0.2,0.2,0.2,0.5,0.3,0.6c0.2,0.2,0.2,0.3,0.2,0.5s0,0.3,0,0.5
	c0,0.2,0,0.5-0.2,0.5c0,0,0,0.2-0.2,0.2c-0.2,0.2-0.2,0.2-0.3,0.3c-0.2,0-0.3,0.2-0.5,0.3c0,0-0.2,0.2-0.3,0.2c0,0-0.2,0-0.3,0
	c-0.5,0-0.9,0-1.4,0h-0.2c-0.3,0.2-0.8,0.2-1.1,0.3c-0.2,0-0.3,0.3-0.5,0.6c-0.2,0.3-0.3,0.8-0.6,1.1c-0.2,0.3-0.2,0.2,0,0.5
	c0.2,0.2,0,0.3,0,0.3c0,0.2-0.2,0.3-0.3,0.5c0,0-0.2,0.2-0.2,0.3c0,0.6-0.3,1.1-0.5,1.5c-0.2,0.5-0.2,0.9,0,1.4v0.2
	c-0.2,0.6,0,1.2-0.3,1.8c0,0.2,0,0.3,0,0.5c0,0.3,0,0.5-0.2,0.8c-0.2,0.3-0.3,0.8-0.3,1.1V72c-0.2,0.3-0.3,0.6-0.5,1.1
	c-0.2,0.6-0.5,1.1-0.9,1.7c-0.2,0.2-0.3,0.5-0.5,0.6c-0.3,0.3-0.5,0.8-1.1,0.9c0,0-0.2,0-0.2,0.2c-0.2,0.3-0.5,0.8-0.6,1.1
	c0,0.2-0.2,0.3-0.3,0.3l-0.2,0.2c-0.2,0.6-0.5,1.1-0.8,1.7c0,0.2-0.2,0.5-0.3,0.6c-0.2,0.6-0.5,1.1-0.8,1.7
	c-0.2,0.5-0.5,0.9-0.6,1.4c0,0.2-0.2,0.3-0.2,0.5c0,0.2-0.2,0.2-0.2,0.3c-0.5,0.9-0.9,1.7-1.4,2.4c-0.3,0.5-0.6,0.9-0.9,1.2
	c-0.8,0.9-1.4,1.7-2.1,2.4c-0.2,0.2-0.2,0.2-0.3,0.3c0,0,0,0-0.2,0c-0.2,0.3-0.5,0.6-0.8,0.9c0,0-0.2,0.2-0.2,0.3
	c0,0.2-0.2,0.3-0.3,0.3c-0.2,0-0.5,0-0.6,0c-0.5,0-0.8,0-1.2,0.2c-0.5,0-0.9,0.2-1.4,0c-0.5,0-0.9,0-1.2,0.2c-0.2,0-0.3,0-0.3,0
	c-0.2,0-0.5,0-0.6,0.2c0,0-0.2,0-0.3,0c-0.3,0-0.5-0.2-0.8-0.3c-0.5-0.3-1.1-0.6-1.5-0.8c-0.3-0.2-0.6-0.3-0.8-0.5
	c0,0-0.2-0.2-0.3-0.2c-0.2-0.3-0.5-0.3-0.6-0.2c0,0,0,0-0.2,0c-0.5-0.5-1.1-0.6-1.5-0.9c-0.2,0-0.3-0.2-0.3-0.5
	c0-0.5-0.2-0.8-0.5-1.1c-0.5-0.3-0.6-0.8-0.5-1.4c0-0.2,0-0.3,0-0.5c0-0.2,0.2-0.3,0.2-0.5c0.3-0.3,0.5-0.9,0.8-1.2
	c0.3-0.3,0.6-0.8,1.1-1.1c0.3-0.2,0.6-0.3,1.1-0.5c0,0,0.2,0,0.3,0c0.3,0,0.6,0,0.9,0.2H49c0.2,0,0.3,0,0.6,0.2
	c0.2,0.2,0.3,0.3,0.5,0.5c0,0,0.2,0.2,0.3,0.2c0.5,0.2,0.8,0.6,0.9,1.1c0,0.2,0.2,0.5,0,0.8v0.2c0,0.3,0,0.6-0.3,0.8
	c-0.3,0.2-0.6,0.3-0.9,0.5l-0.2,0.2c0,0.2,0,0.2,0,0.3c0.2,0,0.3,0.2,0.3,0.5c0,0.2,0.2,0.3,0.3,0.3c0.2,0,0.3,0,0.3,0
	c0.2,0,0.5,0,0.6-0.2c0.2-0.2,0.3-0.2,0.5-0.2s0.3-0.2,0.5-0.3h0.2c0,0,0,0,0,0.2c0,0,0,0,0,0.2c-0.6,0-0.5,0.5-0.6,0.8
	c0,0.2,0,0.2,0.2,0.3c0.5-0.3,0.6-0.8,1.2-0.9c0,0.2,0,0.3,0,0.5c0,0.3,0.2,0.5,0.3,0.5c0.3,0,0.3,0,0.6-0.3
	c0.2-0.3,0.2-0.2,0.5-0.2c0.2,0,0.2,0,0.3,0.2c0.2-0.5,0.2-1.1,0.6-1.2c0.3,0.2,0.6,0.3,1.1,0.3c0.2,0,0.3,0,0.3,0.3
	c0,0.2,0,0.3,0.2,0.5c0.2,0.3,0.5,0.5,0.9,0.3c0-0.2,0-0.3-0.2-0.5c-0.3-0.8-0.3-1.5,0.2-2.3c0.3-0.5,0.5-0.9,0.8-1.2
	c0,0,0-0.2,0.2-0.2c0.2-0.2,0.3-0.6,0.3-0.9c0-0.3,0.2-0.6,0.3-1.1c0-0.2,0.2-0.2,0.3,0c0,0,0,0,0.2,0H60v-0.2c0,0-0.2-0.2-0.2-0.3
	c-0.2-0.2-0.5-0.3-0.6-0.6c0-0.3,0-0.8-0.2-1.1c0,0,0-0.2,0-0.3c-0.2-0.3-0.3-0.8-0.5-1.1c0-0.2-0.2-0.3-0.3-0.5
	c-0.2-0.3-0.3-0.8-0.3-1.1s0.3-0.6,0.5-0.9c0,0,0.2-0.2,0.2-0.3l0,0c-0.3,0-0.6,0-0.9-0.3c-0.2,0-0.3,0-0.5,0
	c-0.5,0-0.8-0.2-0.8-0.6c0-0.3-0.2-0.5-0.3-0.8c0-0.2,0-0.2,0-0.3s0-0.5,0-0.6c-0.2-0.3-0.2-0.5-0.2-0.9c0-0.3,0-0.8-0.2-1.1
	c0,0,0,0,0-0.2c0-0.6-0.5-1.1-0.6-1.5c0,0,0,0,0-0.2c-0.2-0.2-0.3-0.5-0.3-0.8c0-0.2,0-0.3-0.2-0.5c0,0-0.2-0.2,0-0.3
	c0-0.5-0.2-0.8-0.3-1.1c-0.2-0.5-0.5-0.9-0.6-1.4v-0.2c-0.3-0.5-0.5-0.9-0.6-1.4C52.4,65.9,52.4,65.7,52.3,65.7z"/>
<path class="st3" d="M25.8,64.1c0.3,0.3,0.5,0.8,0.6,1.1v0.2c0,0.3,0,0.6,0.2,1.1c0.2,0.3,0.2,0.8,0,1.1l0,0
	c-0.2-0.2-0.2-0.5-0.5-0.6c0,0.3,0,0.5,0.3,0.8c0.2,0.2,0.2,0.3,0.3,0.5c0.2,0.3,0.5,0.6,0.9,0.6c0.2,0.3,0.3,0.6,0.5,1.1v0.2
	c0.2,0.3,0.2,0.8,0.2,1.1c0,0.2,0,0.3,0.2,0.3c0.2,0.2,0.3,0.3,0.2,0.6c-0.2,0.8,0.3,1.2,0.8,1.8c0.3,0.3,0.6,0.8,0.9,1.1
	c0.2,0.2,0.2,0.3,0.3,0.5c0.2-0.3,0.3-0.5,0.5-0.8c0.3-0.8,0.6-1.5,0.9-2.1c0.2-0.3,0.3-0.6,0.5-0.9c0.2-0.3,0.3-0.8,0.3-1.2
	c0-0.5,0-1.1,0.3-1.5l0,0c0,0.3,0,0.5,0,0.8c0,0.2,0,0.5-0.2,0.8v0.2c0,0.3-0.2,0.8-0.3,1.1c-0.2,0.6-0.5,1.2-0.6,1.8
	c-0.2,0.3-0.3,0.8-0.5,1.1c-0.2,0.3-0.2,0.6-0.3,0.9c0,0.2,0,0.3-0.3,0.5c-0.2-0.2-0.5-0.3-0.8-0.5c0,0-0.2-0.2-0.2-0.3
	c0-0.2-0.2-0.5-0.3-0.6c-0.2-0.2-0.3-0.5-0.6-0.6c-0.3-0.3-0.3-0.8-0.3-1.2c0-0.2,0-0.5-0.2-0.6v-0.2c-0.2-0.3-0.2-0.8-0.6-1.1v-0.2
	c0-0.3-0.2-0.6-0.2-0.9c0-0.3-0.2-0.5-0.5-0.6c-0.2,0-0.3-0.2-0.3-0.3c-0.2-0.5-0.5-1.1-0.6-1.5c0-0.5,0-0.9,0-1.2
	c0-0.2,0-0.3,0-0.5c0-0.2,0-0.5,0-0.8C25.8,64.2,25.8,64.1,25.8,64.1z"/>
<path class="st3" d="M32.6,68.4L32.6,68.4L32.6,68.4c-0.3-0.3-0.3-0.6-0.2-0.9c0.3-0.6,0.6-1.2,0.9-2c0,0,0,0,0,0.2
	c0.2,0.5,0,0.9-0.2,1.2c0,0.2-0.2,0.5-0.3,0.8c0,0,0,0.2-0.2,0.2C32.7,68.1,32.6,68.3,32.6,68.4z"/>
<path class="st3" d="M58.2,56.4c0.3,0,0.3,0.2,0.5,0.3C58.5,56.7,58.3,56.5,58.2,56.4z"/>
<path class="st3" d="M56.2,56.4c0.2-0.2,0.5,0,0.8,0C56.8,56.5,56.5,56.4,56.2,56.4z"/>
<path class="st3" d="M25.5,63.6c0,0.2,0.2,0.3,0.2,0.5C25.5,63.9,25.5,63.8,25.5,63.6z"/>
<path class="st3" d="M76.6,37.1c0-0.2,0-0.2,0.2-0.3s0.3-0.3,0.6-0.5c0.5-0.3,0.9-0.3,1.4-0.3h0.2c0.2,0.2,0.3,0.2,0.6,0.3
	c0.2,0.2,0.5,0.5,0.5,0.8c0,0.3,0.2,0.5,0.6,0.5c0.2,0,0.2,0.2,0.2,0.3c-0.2,0.9-0.5,1.7-0.9,2.4c-0.2,0.2-0.3,0.3-0.5,0.6
	c0,0,0,0.2-0.2,0.3c-0.2,0.3-0.5,0.6-0.6,1.1c-0.2,0.3-0.5,0.6-0.8,0.8s-0.6,0.5-0.9,0.6c-0.6,0.3-1.1,0.8-1.7,1.1c0,0,0,0-0.2,0.2
	h-0.2c-0.3,0.3-0.8,0.5-1.1,0.6c-0.2,0-0.5,0.2-0.6,0.3l0,0h-0.2c-0.3,0.5-0.9,0.5-1.2,0.6c-0.5,0-0.9,0-1.2,0.2
	c-0.6,0.2-1.2,0.2-1.8,0.3c-0.6,0.2-1.4,0.2-2,0.2c-0.2,0-0.2,0-0.3-0.2c-0.5-0.3-1.1-0.5-1.5-0.9c0,0-0.2-0.2-0.2-0.3
	c-0.2-0.2-0.3-0.3-0.6-0.3c-0.2,0-0.3,0-0.5-0.2c-0.5-0.3-0.9-0.6-1.4-0.9c-0.3-0.2-0.6-0.3-0.9-0.3c-0.2,0-0.2,0-0.3-0.2
	c-0.2,0-0.3-0.2-0.3-0.5c0-0.2,0-0.2-0.2-0.3c-0.3-0.3-0.5-0.8-0.8-1.1l0,0c-0.2-0.3-0.3-0.6-0.5-0.9c-0.3-0.6-0.6-1.2-0.9-1.8
	c0-0.2-0.2-0.3-0.2-0.5c-0.2-0.5-0.5-0.9-0.6-1.4c0-0.2,0-0.3,0-0.5c0-0.5,0-0.9,0-1.2c0-0.3-0.2-0.8,0-1.1c0-0.2,0-0.2,0-0.3
	c-0.2-0.2-0.2-0.3,0-0.5c0,0,0,0,0.2,0s0.2-0.2,0-0.3s-0.3-0.3-0.5-0.5c-0.5-0.2-0.5-0.3-0.5-0.5c0-0.6,0-1.1,0-1.7
	c0-0.3,0-0.5,0.3-0.8c0.2-0.2,0-0.3,0.2-0.6c0-0.2,0-0.3,0-0.3c0.2-0.3,0-0.6-0.2-0.9c-0.2-0.2-0.2-0.3-0.2-0.6v-0.2
	c-0.2,0-0.2,0-0.2,0.2c0,0-0.2,0.2-0.2,0.3C57,28.2,57,28,57,27.9c0-0.2,0-0.3,0.2-0.5c0-0.2,0.2-0.3,0.3-0.5
	c0.2-0.3,0.5-0.8,0.8-1.1c0.3-0.5,0.6-1.1,0.9-1.5c0.6-0.8,1.2-1.5,2.1-2c0.2-0.2,0.5-0.3,0.6-0.5c0.3-0.2,0.6-0.5,0.9-0.8l0.2-0.2
	c0-0.2,0-0.3-0.2-0.3s-0.2,0-0.3,0c0-0.2,0-0.3,0.2-0.3c0.6-0.2,1.2-0.3,1.8-0.6c0.3,0,0.8-0.2,1.1-0.2s0.5,0,0.8,0
	c0.2,0,0.3,0,0.6,0c0,0,0.2,0,0.3,0h0.2c0.5,0,1.1,0,1.5-0.2c0,0,0.2,0,0.3-0.2c0.3-0.2,0.6-0.3,1.1-0.2c0.6,0,1.2,0.2,1.8,0.2
	c0.5,0,0.9,0.2,1.2,0.5c0.3,0.3,0.6,0.5,1.1,0.5c0.2,0,0.3,0,0.3,0c0.2,0,0.3,0,0.3,0c0,0.2,0.2,0.2,0.2,0.3c0,0.3,0.2,0.5,0.5,0.6
	c0.3,0.3,0.6,0.5,1.1,0.8c0,0,0,0,0.2,0.2s0.3,0.3,0.6,0.5c0.2,0,0.3,0.2,0.2,0.5c0,0.3,0,0.6,0.3,0.8c0,0,0.2,0,0.3,0
	c0.2-0.2,0.5-0.3,0.8-0.3H79c0.3,0.2,0.6,0.3,0.8,0.8c0,0.2,0.2,0.2,0.3,0.2c0.3,0,0.3,0,0.3,0.3c0,0.2,0,0.3,0.2,0.3
	c0.3,0,0.3,0.3,0.3,0.5c0,0.2,0,0.3,0,0.5c0,0.2,0,0.3,0,0.5c0,0.2,0,0.3,0,0.5c0,0.3,0,0.3-0.2,0.5c-0.2,0.2-0.2,0-0.2,0.3
	c0,0.5,0.2,0.9,0.2,1.4c0,0,0,0.2-0.2,0.3c-0.2,0.2-0.3,0.5-0.2,0.8c0.2,0.2,0.2,0.5,0.3,0.8c0,0,0,0.2-0.2,0.3
	c0.3,0.3,0.3,0.3,0.8,0.3c0,0.3,0,0.6-0.2,0.8c-0.2,0.2-0.3,0.3-0.6,0.5c-0.2,0-0.2,0.2-0.3,0.3c0.2,0.2,0.3,0.3,0.5,0.5
	c-0.2,0.2-0.3,0.2-0.6,0.3c-0.5,0-0.8,0-1.2,0.2c0,0,0,0-0.2,0c-0.3,0.2-0.6,0.2-0.9,0.2c-0.2,0-0.5,0-0.6,0c-0.3,0-0.8,0-1.1,0
	c-0.9,0-1.7,0-2.4,0c-0.5,0-0.9,0-1.2,0l0,0c-0.2,0.2-0.5,0.2-0.8,0.2c-0.2,0-0.2,0-0.3,0.2c0,0.2-0.3,0.2-0.5,0.2
	c-0.3,0-0.6,0-0.9,0c-0.2,0-0.2,0-0.3,0c-0.3,0-0.8,0-1.1,0h-0.2c-0.2,0-0.3,0-0.5,0.2c0,0.2-0.2,0.2-0.3,0.2c-0.3,0-0.8,0-1.1,0
	c-0.6,0-1.1,0-1.7,0c-0.5,0-0.9,0-1.2-0.5c0,0.2-0.2,0.3-0.2,0.3c0,0.6-0.2,1.1-0.2,1.7c0,0.5,0,0.9,0,1.2c0,0.2,0,0.3,0,0.6
	c0,0.5,0.2,0.8,0.3,1.1c0.2,0.2,0.3,0.3,0.2,0.6c0,0.2,0,0.3,0.2,0.5c0.2,0.2,0.2,0.3,0.3,0.5c0,0.3,0.3,0.6,0.6,0.8
	c0.3,0.2,0.6,0.3,0.9,0.5c0.2,0,0.3,0.2,0.5,0c0.2-0.2,0-0.3,0-0.5c0-0.2,0-0.2,0-0.3c0.5,0.2,0.8,0.5,1.1,0.6
	c0,0.2,0.3,0.2,0.5,0.2c0.3,0,0.6,0.2,0.9,0c0.5-0.2,0.8,0,1.1,0.2c0,0-0.2,0.2-0.3,0.3c-0.2,0.2,0,0.3,0.2,0.3c0,0,0.2,0,0.3,0
	c0.5,0,0.6,0,0.9,0.3c0.2,0.2,0.2,0.2,0.5,0.2c0.3,0,0.8,0,1.1-0.2c0,0,0.2,0,0.3,0c0.3-0.2,0.6-0.3,0.8-0.5c0.6-0.6,1.2-1.4,2-2
	c0,0,0.2-0.2,0.2-0.3c0.2-0.5,0.3-0.9,0.6-1.2c0.2-0.2,0.2-0.3,0-0.5c0,0,0-0.2-0.2-0.2c0.2,0,0.2-0.2,0.3-0.3
	C76.3,37.5,76.6,37.4,76.6,37.1z M68.6,30c0,0,0.2,0,0.3,0s0.5,0,0.8,0c0.2,0,0.3,0,0.5,0.3c0,0.2,0.2,0.3,0.3,0.3
	c0.2,0.2,0.3,0.2,0.6,0c0.2,0,0.3,0,0.5-0.2c0.5-0.2,0.9-0.2,1.2-0.3c0.5,0,0.8-0.2,1.2-0.2c0.3,0,0.8,0,1.1,0c0.3,0,0.8,0,1.1-0.2
	c0.5,0,0.6-0.3,0.5-0.8c0,0,0,0,0-0.2c0-0.3,0-0.8,0-1.1c0,0,0-0.2-0.2-0.2c0-0.3,0-0.5-0.2-0.8c0-0.2-0.2-0.3-0.2-0.5
	c0-0.2,0-0.3-0.2-0.5c-0.2-0.3-0.3-0.6-0.5-0.9L75.2,25c-0.3-0.2-0.5-0.3-0.6-0.6l-0.2-0.2c-0.3-0.2-0.6-0.3-0.8-0.6
	c-0.2-0.2-0.5-0.2-0.8-0.3c-0.2,0-0.3,0-0.3,0.2s0.2,0.3,0.3,0.3s0.3,0.2,0.5,0.3c0,0.2,0.2,0.2,0.3,0.3c0.2,0,0.2,0.2,0.2,0.3
	c0,0.3,0,0.6,0,0.9c0,0,0,0.2-0.2,0.3h-0.3c0,0,0-0.2-0.2-0.2c0-0.2-0.2-0.5-0.3-0.6c-0.2-0.3-0.2-0.5-0.6-0.3c0,0,0,0-0.2,0
	c0,0,0,0,0-0.2c0-0.3,0-0.3-0.5-0.3c-0.2,0-0.3,0-0.3-0.2c-0.3-0.5-0.8-0.6-1.2-0.6c-0.3,0-0.8,0-0.9,0.3c0,0-0.2,0.2-0.3,0.2
	c-0.2,0-0.5,0-0.8,0c-0.6,0-1.1,0-1.7,0c0,0-0.2,0-0.3,0.2c0.2,0,0.3,0.2,0.5,0.2c-0.2,0.2-0.3,0.2-0.5,0.2c-0.2,0-0.5,0-0.6,0.2
	c-0.3,0.2-0.8,0.5-1.1,0.6c-0.8,0.5-1.5,0.8-2,1.5c0,0-0.2,0-0.2,0.2c-0.2,0.2-0.2,0.3-0.3,0.5c-0.2,0.3-0.2,0.8-0.3,1.1
	c0,0.2,0,0.3,0.2,0.5l0.2,0.2c0,0.2,0.2,0.3,0.3,0.5c0.2,0.3,0.6,0.3,0.9,0c0.3-0.2,0.3-0.2,0.5,0c0.3,0.3,0.8,0.3,1.1,0
	c0.2-0.2,0.5-0.2,0.8-0.2c0.2,0,0.5,0,0.8,0c0.2,0,0.3,0,0.6,0c0,0,0.2,0,0.3,0c0.2-0.2,0.5,0,0.6,0s0.5,0,0.6,0
	C68.6,30,68.6,30,68.6,30z"/>
<path class="st3" d="M76.6,37.1c0,0.3-0.3,0.3-0.6,0.6c0,0-0.2,0.2-0.3,0.3c0,0,0,0.2,0.2,0.2c0.2,0.2,0.2,0.3,0,0.5
	c-0.2,0.3-0.5,0.8-0.6,1.2c0,0.2-0.2,0.3-0.2,0.3c-0.6,0.6-1.2,1.4-2,2c-0.2,0.2-0.5,0.3-0.8,0.5c0,0-0.2,0-0.3,0
	c-0.3,0-0.8,0-1.1,0.2c-0.3,0-0.5,0-0.5-0.2c-0.2-0.5-0.3-0.5-0.9-0.3c0,0-0.2,0-0.3,0S69,42,69.2,41.9c0,0,0.2-0.2,0.3-0.3
	c-0.3-0.2-0.8-0.3-1.1-0.2s-0.6,0-0.9,0c-0.2,0-0.3,0-0.5-0.2l0,0c0.6,0.2,1.4,0.2,2,0c0.2,0,0.3,0,0.6-0.2c0,0,0,0,0.2,0
	c0.3-0.2,0.6-0.2,0.9-0.2c0.2,0,0.3,0,0.5,0h0.2c0,0,0,0.2-0.2,0.2c0,0-0.2,0.2-0.3,0.2c0,0-0.2,0.2-0.2,0.3l0.2,0.2
	c0.2,0,0.3,0.2,0.5,0c0.2,0,0.3,0,0.5,0.2c0.3,0.3,0.5,0.3,0.8,0c0.2-0.2,0.3-0.3,0.6-0.5l0,0c0.5-0.6,1.1-0.9,1.4-1.5
	c0.3-0.3,0.5-0.8,0.6-1.1c0-0.2,0-0.3,0-0.5c0-0.5,0.2-0.9,0.6-1.1c0,0,0,0,0.2-0.2c0,0,0.2-0.2,0.3-0.2
	C76.4,37.2,76.6,37.2,76.6,37.1z"/>
<path class="st3" d="M23.8,35.7c0,0.2-0.2,0.5-0.2,0.6c0,0.5-0.2,0.9-0.2,1.2c0,0.2,0,0.5,0.2,0.6c0.2,0.5,0.2,0.8,0,1.2
	c0,0.2-0.2,0.3,0,0.5c0.2,0,0.2-0.2,0.2-0.3s0.2-0.3,0.3-0.5c0.2-0.2,0.3,0,0.3,0.2s0,0.3,0,0.5c0,0,0,0.2,0,0.3
	c0.2,0,0.3-0.2,0.5-0.2c0.3,0,0.3,0.2,0.3,0.6c0,0,0,0,0.2,0s0.2,0.2,0.2,0.3c0,0,0,0.2,0,0.3s0,0.3,0.2,0.5
	c0.2,0.2,0.5,0.3,0.8,0.5c0,0,0.2,0,0.2,0.2c0.3,0.3,0.8,0.6,1.1,0.9c0,0.2,0,0.3,0,0.6c0.3,0.5,0.3,0.9,0,1.2c0,0,0,0,0,0.2
	c-0.2,0.3-0.2,0.3-0.6,0.2c-0.2,0-0.2,0-0.3,0c-0.5,0.3-1.1,0.3-1.7,0.5c-0.2,0-0.3,0-0.5,0c-0.2,0-0.3-0.2-0.3-0.3l-0.2-0.2
	L24,45.2c0,0.2,0,0.3,0,0.5c0,0.3,0,0.5-0.3,0.5c-0.3,0-0.5,0.2-0.8,0.3c-0.3,0.2-0.5,0.3-0.8,0.5H22c-0.2-0.2-0.3-0.2-0.6-0.2
	l-0.2-0.2c-0.2-0.3-0.3-0.3-0.6-0.3c-0.3,0.2-0.6,0.2-1.1,0c-0.2,0-0.5,0-0.6,0.2c-0.2,0.2-0.3,0.3-0.6,0.5c-0.2,0-0.3,0-0.6,0
	c-0.2,0-0.3-0.2-0.5-0.2c-0.5-0.2-0.9-0.5-1.2-0.6c-0.5-0.2-0.9-0.5-1.4-0.8c-0.2-0.2-0.5-0.3-0.6-0.5C14,44.8,14,44.8,14,44.5
	c0-0.2,0-0.5-0.2-0.6c0-0.3,0-0.6,0.3-0.8c0.5-0.2,0.9-0.3,1.4-0.3c0.2,0,0.3,0,0.5,0c0.3-0.2,0.6,0,0.9-0.2c0.3,0,0.5,0,0.8,0
	c0.2,0,0.3-0.2,0.5-0.3c0.2-0.3,0.3-0.6,0.2-0.9c0,0,0,0,0-0.2c0,0,0.2,0.2,0.3,0.3c0.2,0,0.3,0,0.3-0.2s0-0.5,0-0.6
	c-0.2-0.5,0-1.1,0-1.4v-0.2c-0.2-0.3,0-0.6,0-1.1c0,0,0-0.2,0-0.3c-0.2-0.5-0.2-0.9-0.2-1.2c0-0.3,0-0.6,0-1.1c0-0.3,0-0.6,0-0.9
	s0-0.5,0-0.8c0-0.2,0-0.5,0-0.6v-0.2c0-0.3-0.2-0.6-0.2-0.9c0,0,0,0,0-0.2c0-0.6,0-1.2,0-2c0-0.2,0-0.2-0.2-0.3
	c-0.2,0-0.2,0-0.3,0.5c-0.2,0-0.2-0.2-0.2-0.3c0-0.5,0.2-1.1,0.2-1.5c0-0.3,0-0.6,0-0.9c0-0.2,0-0.3,0-0.5c0.2-0.5,0.2-1.1,0.2-1.7
	c0-0.3,0-0.8,0-1.1c0-0.5,0.2-1.1,0-1.5c-0.2-0.2,0-0.6,0-0.9c0-0.2,0-0.2,0-0.3c0-0.5,0-0.9,0.5-1.1c0.2-0.2,0.2-0.3,0.2-0.5
	s0-0.5,0-0.8v-0.2c0.2-0.6,0-1.2,0-1.8c0-0.2,0-0.3-0.2-0.5c0-0.2-0.2-0.3,0-0.5c0-0.2,0-0.2-0.2-0.3c-0.5-0.2-0.9-0.6-1.4-0.8
	c-0.6-0.2-1.1-0.5-1.7-0.9c-0.5-0.2-0.9-0.3-1.4-0.3c-0.3,0-0.5-0.2-0.5-0.5s-0.2-0.6-0.3-0.9c-0.2-0.3,0-0.6,0.2-0.9
	c0.2-0.2,0.2-0.5,0.5-0.6c0.2,0,0.2-0.2,0.3-0.2c0.2,0,0.3,0,0.6-0.2c0.3,0,0.5-0.2,0.8,0c0.3,0,0.6-0.3,0.5-0.6
	c-0.2-0.3-0.2-0.5,0.2-0.6c0.3-0.2,0.6-0.2,0.8-0.3c0.2,0,0.3,0,0.5,0c0.2,0,0.5,0.2,0.6,0h0.2c0.5,0.3,0.9,0.2,1.2,0.3
	c0.2,0,0.5,0,0.6,0.2c0.3,0,0.6,0.2,0.9,0c0,0,0.2,0,0.3,0.2c0.2,0,0.2,0.2,0.3,0.3c0.2,0.2,0.2,0.3,0.3,0.3c0.3,0,0.5,0.3,0.6,0.6
	c0.2,0.2,0.3,0.5,0.5,0.6l0,0c0.5,0,0.6,0.6,1.1,0.9c0.5,0.5,0.8,0.9,1.2,1.4c0.2,0.2,0.2,0.3,0.2,0.5c0,0.3,0,0.6,0,1.1
	c0,0.3,0,0.6,0,0.9c0,0.2-0.2,0.5-0.2,0.8c0,0,0,0.2-0.2,0.2c-0.2,0.2-0.3,0.2-0.5,0.3c0-0.2-0.2-0.2-0.3-0.5c0,0.2-0.2,0.2-0.2,0.3
	c0,0.3,0,0.5,0,0.8c0,0.2,0,0.3,0,0.5c0,0.5-0.2,0.8-0.2,1.2c-0.2,0.5-0.2,0.9,0.2,1.2c0.2,0.2,0.2,0.3,0.2,0.6l0,0
	c0.3,0.5,0,0.9,0,1.2c0,0.2,0,0.3,0.2,0.3c0.3,0.3,0.5,0.6,0.3,1.1c0,0,0,0.2,0,0.3c0,0.2,0,0.5,0,0.8c0,0,0,0.2,0,0.3
	c0.2,0.3,0.2,0.5,0.2,0.8c0,0.2,0,0.2,0,0.3c0,0.5,0.2,0.8,0.2,1.2c0,0.3,0,0.5,0.2,0.8c0.2,0.5,0.2,0.9,0,1.2c0,0,0,0.2-0.2,0.3
	c0-0.2-0.2-0.2-0.2-0.2c0.2,0,0.2,0,0.2,0s-0.2-0.2-0.3-0.2c0,0-0.2,0.2-0.2,0.3c0,0.5,0,0.9,0,1.2l0,0c0,0.2,0,0.5-0.2,0.6
	c0,0,0,0.2-0.2,0.3c-0.2,0.2-0.2,0.3-0.2,0.6c0,0.2,0,0.5,0,0.8C24,34.4,24,34.7,24,35v0.2C23.8,35.1,23.8,35.4,23.8,35.7L23.8,35.7
	z"/>
<path class="st3" d="M48.2,40.5c0.3-0.3,0.5-0.6,0.5-1.1c0-0.5,0.2-1.1,0.6-1.4c0.2-0.2,0.2-0.2,0.2-0.5c0-0.3,0.2-0.6,0.3-0.9
	c0,0,0.2-0.2,0.2-0.3c0.2-0.3,0.5-0.5,0.8-0.6h0.2c0.3,0,0.6,0,0.8,0.2c0,0,0.2,0,0.3,0.2s0.3,0.3,0.5,0.5c0.3,0.2,0.5,0.3,0.5,0.6
	c0,0.6,0.2,1.1,0,1.7c-0.2,0.6-0.3,1.2-0.6,1.8c0,0,0,0.2,0,0.3c0,0.2,0,0.3-0.2,0.5c-0.5,0.3-0.8,0.8-1.2,1.1
	c-0.2,0.2-0.3,0.2-0.5,0.3c-0.5,0.5-1.1,0.9-1.7,1.2c-0.2,0-0.3,0.3-0.5,0.5c-0.3,0.2-0.6,0.3-1.1,0.6c-0.2,0-0.3,0-0.3,0.2
	c-0.3,0.5-0.9,0.5-1.2,0.5s-0.5,0.2-0.5,0.5c0,0.2-0.2,0.3-0.3,0.5c-0.3,0.2-0.6,0.3-0.9,0.6c0,0-0.2,0.2-0.3,0.2
	c-0.3,0-0.5,0-0.8,0.2h-0.2c-0.3,0-0.6,0-0.9,0.3c0,0-0.3,0.2-0.5,0.2c-0.2,0-0.5,0-0.8,0c-0.3,0-0.6,0-0.8-0.2h-0.2
	c-0.5,0-0.9-0.2-1.4-0.3c-0.5-0.2-1.1-0.3-1.5-0.5c-0.6-0.2-1.1-0.3-1.7-0.6c-0.2-0.2-0.5-0.2-0.6-0.3c0,0-0.2-0.2-0.3-0.2
	c-0.5-0.3-0.8-0.8-1.1-1.1c0-0.2-0.2-0.2,0-0.5c0.2-0.6-0.2-1.1-0.5-1.7c-0.2-0.2-0.3-0.5-0.5-0.6c0-0.2-0.2-0.3-0.2-0.5
	c0-0.6,0-1.1,0-1.4c0-0.2,0-0.3-0.2-0.3c-0.2-0.3-0.5-0.6-0.6-0.9c-0.2-0.3-0.2-0.6-0.3-0.8c0,0,0-0.2-0.2-0.3c0-0.2,0-0.3,0-0.5
	c-0.2-0.5-0.3-1.1-0.3-1.5c0-0.3-0.2-0.5-0.3-0.8c-0.2-0.5-0.3-0.8-0.3-1.2c0,0,0-0.2,0-0.3c0-0.6,0.2-1.1,0.2-1.7c0,0,0-0.2,0-0.3
	c0-0.2,0-0.3,0-0.3c0-0.3,0.2-0.6,0.2-1.1c0-0.2,0-0.3,0.2-0.5c0.3-0.5,0.5-1.1,0.6-1.5c0.2-0.5,0.3-1.1,0.5-1.5
	c0.2-0.3,0.3-0.5,0.3-0.8s0.2-0.5,0.3-0.8c0.2-0.3,0.3-0.6,0.3-0.9c0.2-0.5,0.3-0.9,0.5-1.2c0-0.2,0.3-0.3,0.5-0.5l0.2-0.2
	c0.6-0.6,1.4-1.1,2.1-1.7c0.5-0.3,0.9-0.5,1.2-0.8c0.5-0.3,0.8-0.6,1.2-0.9c0.2-0.2,0.5-0.3,0.8-0.3c0.8-0.2,1.4-0.2,2-0.2
	c0.5,0,1.1,0,1.5-0.2h0.2c0.3,0,0.5,0,0.8,0c0,0,0.2,0,0.3,0c0.3,0.2,0.6,0.3,0.9,0.5c0.2,0.2,0.5,0.3,0.8,0.3
	c0.2,0,0.5,0.2,0.6,0.2c0.3,0.2,0.8,0.3,1.1,0.2c0.2,0,0.5,0,0.6,0c0.3,0,0.6,0.3,0.9,0.5c0.2,0.2,0.3,0.2,0.6,0.3
	c0.2,0,0.2,0.2,0.3,0.3c0.5,0.5,0.8,0.8,1.2,1.2c0.2,0.2,0.3,0.3,0.5,0.5c0.5,0.5,0.8,0.9,1.1,1.4c0,0.2,0,0.2,0.2,0.3
	c0,0.2,0.2,0.5,0.3,0.6c0,0.3,0.2,0.5,0.2,0.9c0,0.2,0,0.5,0,0.6s0,0.5,0.2,0.6s0.2,0.5,0.3,0.6v0.2c0,0.3,0,0.6,0.2,0.9v0.2
	c0,0.3,0.2,0.6,0.3,0.9c0,0.2,0,0.3,0.2,0.6c0,0.2,0,0.3,0.2,0.3c0-0.2,0.2-0.5,0.3-0.6c0.2,0.2,0.2,0.3,0.2,0.5
	c0,0.6-0.3,1.1-0.9,1.2c-0.2,0-0.3,0.3-0.5,0.3c-0.2,0.2-0.5,0.2-0.6,0.3c-0.6,0.2-1.1,0.2-1.7,0.2c-0.3,0-0.6,0-0.9,0
	c-0.5,0-1.1-0.2-1.5-0.2c-1.1,0.2-2,0-3,0c-0.2,0-0.5,0-0.8,0c-0.6,0-1.2,0-2,0c0,0-0.2,0-0.3,0c-0.2,0.2-0.5,0.2-0.8,0.2
	c-0.5,0-1.1,0-1.5,0.2c-0.2,0-0.3,0-0.5,0s-0.5,0-0.8,0c-0.2,0-0.3,0-0.3,0c-0.2,0-0.2,0-0.3,0c-0.3,0-0.8,0-1.1,0
	c-0.2,0-0.3,0-0.5,0C36.5,33,36,33,35.7,33c-0.3,0.2-0.5,0.3-0.3,0.6c0.2,0.2,0.2,0.5,0.5,0.6C36,34.4,36,34.7,36,35
	c0,0.3,0,0.8-0.3,0.9c0,0-0.2,0-0.3,0c-0.2,0.3-0.2,0.8,0,1.1c0.2,0.3,0.5,0.6,0.6,0.8l0.2,0.2c0,0.2,0,0.3,0.2,0.6
	c0.2,0.2,0.2,0.5,0.2,0.6s0,0.2,0.2,0.3c0.2,0.2,0.3,0.3,0.5,0.6c0.2,0.3,0.3,0.6,0.6,0.8c0.3,0.3,0.6,0.5,0.9,0.2
	c0.3-0.2,0.8,0,1.1,0c0.2,0,0.3,0,0.3,0c0.6,0,0.8,0,0.9,0.6c0.2,0,0.3,0,0.5,0c0.2,0,0.3,0,0.5,0c0.5,0.3,1.1,0.3,1.5,0.5
	c0.2,0,0.3,0,0.5,0c0,0.2,0,0.2,0,0.3s0,0.2,0.2,0.2H44v-0.2c0,0-0.2-0.2-0.2-0.3c0.2-0.3,0.5-0.3,0.8-0.3c0.2,0,0.3,0,0.3-0.2
	c0,0,0.2-0.2,0.3-0.2c0.3-0.2,0.5-0.2,0.6,0c0.2,0.2,0.3,0.3,0.6,0.2v0.2c0,0.2,0.2,0.3,0.3,0.3c0.2,0,0.3-0.2,0.2-0.3
	c0,0-0.2-0.2-0.2-0.3c-0.3,0-0.3-0.2-0.6-0.3c-0.2-0.2-0.2-0.5,0-0.5c0.3-0.2,0.5-0.3,0.6-0.6c0,0,0.2-0.2,0.3-0.2
	C48.1,40.8,48.2,40.7,48.2,40.5z M41.1,23.7L41.1,23.7c-0.2,0-0.2,0-0.3,0s-0.5,0-0.6,0.3c-0.2,0.5-0.5,0.8-0.9,0.9
	c-0.5,0.3-0.9,0.6-1.4,0.8c-0.3,0.2-0.3,0.3-0.3,0.6c0,0.2,0,0.2,0,0.3c-0.2,0.2-0.5,0.3-0.6,0.5c-0.2,0-0.2,0.2-0.3,0.3
	c-0.2,0.2-0.3,0.5-0.2,0.8c0,0,0,0.2,0,0.3c0,0.5,0.2,0.8,0.6,0.9c0.3,0,0.8,0,1.1,0.2c0.3,0.2,0.6,0,0.9,0c0.3,0,0.6,0,0.8,0
	l0.2,0.2c0.2,0,0.2,0.2,0.3,0.3c0.2,0.2,0.3,0.2,0.5,0c0.2,0,0.5-0.2,0.6-0.2c0,0,0.2,0,0.3-0.2c0.3,0,0.6,0,1.1,0
	c0.2,0,0.5,0,0.6-0.3l0.2-0.2c0.2,0,0.5,0,0.8,0c0.5,0,0.6,0,0.8-0.5c0-0.2,0-0.2,0-0.3s0.2-0.2,0.3-0.2s0.3,0,0.3,0
	c0.5,0.2,1.1,0.3,1.4,0.5c0.3,0,0.5,0.2,0.6,0.5c0,0.2,0.2,0.2,0.3,0.2c0.3,0,0.6,0,0.9-0.2c0.5,0,0.6-0.3,0.6-0.8
	c0-0.2,0-0.3,0-0.5c0-0.2,0-0.3-0.2-0.5c0,0-0.2,0-0.2-0.2c-0.2-0.2-0.3-0.2-0.5-0.3c-0.6-0.2-1.1-0.5-1.2-1.1
	c0-0.2-0.2-0.3-0.3-0.5c-0.3-0.5-0.8-0.8-1.1-1.2c0,0,0,0-0.2-0.2c-0.2-0.2-0.5-0.3-0.8-0.3c-0.2,0-0.2-0.2-0.3-0.2
	c-0.5,0-0.9-0.2-1.2-0.5c-0.2,0-0.3-0.2-0.5,0c-0.5,0-0.9,0-1.4,0C41.4,23.7,41.3,23.7,41.1,23.7z"/>
<path class="st3" d="M52.3,25c0-0.2,0-0.2-0.2-0.3C52.3,24.9,52.3,25,52.3,25z"/>
<path class="st3" d="M38.3,40.7c0-0.2,0.2-0.2,0.3-0.3c0,0,0.2-0.2,0.3-0.2s0.3,0,0.5,0c0.2,0,0.3,0,0.6,0h0.3h0.2
	c0,0,0.2,0,0.3,0.2c0,0.2,0,0.2-0.2,0.3c-0.2,0-0.5,0.2-0.6,0.2c-0.2,0-0.5,0.2-0.8,0.3c-0.3,0.2-0.3,0-0.6-0.2
	C38.6,41,38.4,40.8,38.3,40.7z"/>
<path class="st3" d="M38.3,40.1c0.2,0,0.2,0,0.2,0S38.4,40.1,38.3,40.1c-0.2,0-0.2,0-0.2,0S38.1,40.1,38.3,40.1z"/>
<path class="st3" d="M39,39.8C38.9,39.9,38.9,39.9,39,39.8h-0.2H39C38.9,39.8,38.9,39.8,39,39.8z"/>
<path class="st3" d="M41.1,62.1c0.2-0.5,0.5-0.8,0.9-0.9c0,0,0.2-0.2,0.3-0.2c0.2-0.2,0.3-0.2,0.5,0s0.3,0.2,0.6,0c0,0,0.2,0,0.3,0
	c0.3,0,0.6,0,1.1,0c0.3,0,0.6-0.2,0.8-0.3c0,0,0-0.2,0.2-0.2c0.2-0.2,0.3-0.2,0.5,0c0.2,0,0.2,0.2,0.3,0.3c0.3,0.2,0.8,0,0.9-0.3
	c0-0.2,0-0.2,0.3-0.3c0.2,0,0.2,0.2,0.2,0.3c0,0.2,0.2,0.3,0.3,0.2c0.2,0,0.3,0,0.5,0.2c0.2,0.2,0.3,0.2,0.5,0
	c0.2,0,0.3-0.2,0.6-0.2c0.3,0,0.5,0,0.5,0.3c0,0.2,0.2,0.3,0.3,0.5c0.3,0.2,0.8,0.2,0.9,0.5c-0.2,0.5,0.2,0.9,0.2,1.4
	c-0.2,0-0.2-0.3-0.3-0.5c0-0.3-0.2-0.2-0.5-0.3c-0.3,0-0.5,0-0.8,0c-0.2,0-0.5,0-0.8,0c-0.3,0-0.3-0.2-0.6-0.3
	c-0.2-0.2-0.5-0.3-0.9-0.3c-0.3,0-0.6,0-0.8-0.2c0.3-0.2,0.6-0.2,0.8,0c0,0,0.2,0,0.3,0.2c0.2,0,0.5,0,0.8,0h0.2
	c-0.2-0.2-0.2-0.3-0.3-0.5c0,0-0.2-0.2-0.3-0.2c-0.2,0-0.3-0.2-0.5-0.2S47.5,61,47.3,61c-0.5,0-0.9,0-1.2,0c-0.2,0-0.3,0-0.3-0.2
	c-0.2-0.2-0.3-0.2-0.6,0c-0.2,0.2-0.3,0.3-0.5,0.3s-0.3,0-0.5,0c-0.5,0-0.9,0-1.2,0c-0.2,0-0.3,0-0.5,0c-0.3,0-0.5,0-0.8,0.2
	c0,0.2-0.2,0.3-0.5,0.2h-0.2C41.3,61.9,41.1,62.1,41.1,62.1L41.1,62.1L41.1,62.1z"/>
<path class="st3" d="M47.9,62.5c0.2,0,0.3,0,0.5,0C48.4,62.7,48.2,62.8,47.9,62.5C47.9,62.8,47.8,62.7,47.9,62.5z"/>
<path class="st3" d="M38.4,68.7c0-0.2,0-0.3,0.2-0.5C38.6,68.4,38.6,68.6,38.4,68.7z"/>
<path class="st3" d="M23.8,35.7c0-0.3,0-0.6,0-0.9v-0.2c0-0.3,0-0.6,0.2-0.9c0-0.2,0-0.5,0-0.8c0-0.3,0-0.5,0.3-0.6
	c0,0,0.2-0.2,0.2-0.3c0-0.2,0-0.5,0.2-0.6c0,0.5,0,0.9-0.2,1.4c0,0.2,0,0.3,0,0.3c0,0.3,0,0.6-0.3,0.8c-0.3,0.2-0.3,0.3-0.2,0.6v0.2
	C24,35,23.8,35.3,23.8,35.7L23.8,35.7z"/>
<path class="st3" d="M73.2,45.8c0.2-0.2,0.5-0.3,0.6-0.3c0.3-0.2,0.8-0.3,1.1-0.6c0,0,0,0,0.2,0c-0.2,0.2-0.3,0.3-0.5,0.5
	c-0.2,0-0.2,0.2-0.3,0.3c-0.2,0-0.3,0-0.5,0.2C73.7,45.7,73.4,45.8,73.2,45.8z"/>
<path class="st3" d="M63.4,30c-0.2,0.3-0.6,0.3-0.9,0c0-0.2-0.2-0.3-0.3-0.5l-0.2-0.2c-0.2-0.2-0.3-0.2-0.2-0.5
	c0-0.3,0.2-0.8,0.3-1.1c0-0.2,0.2-0.3,0.3-0.5c0,0,0.2,0,0.2-0.2c0.6-0.6,1.2-1.1,2-1.5c0.3-0.2,0.6-0.5,1.1-0.6
	c0.2,0,0.5-0.2,0.6-0.2c0.2,0,0.3,0,0.5-0.2c-0.2,0-0.3-0.2-0.5-0.2c0-0.2,0.2-0.2,0.3-0.2c0.6,0,1.1,0,1.7,0c0.2,0,0.5,0,0.8,0
	c0,0,0.2,0,0.3-0.2c0.3-0.3,0.6-0.3,0.9-0.3c0.5,0,1.1,0.2,1.2,0.6c0,0,0.2,0.2,0.3,0.2c0.3,0,0.3,0,0.5,0.3c0,0,0,0,0,0.2
	c0,0,0,0,0.2,0c0.3-0.2,0.5,0,0.6,0.3c0,0.2,0.2,0.5,0.3,0.6c0,0,0,0.2,0.2,0.2c0.2,0,0.3,0.2,0.3,0c0,0,0.2-0.2,0.2-0.3
	c0-0.3-0.2-0.6,0-0.9c0-0.2,0-0.3-0.2-0.3c-0.2,0-0.2-0.2-0.3-0.3c-0.2-0.2-0.3-0.3-0.5-0.3c-0.2,0-0.3-0.2-0.3-0.3
	c0-0.2,0.2-0.2,0.3-0.2c0.3,0,0.5,0,0.8,0.3c0.2,0.2,0.5,0.5,0.8,0.6l0.2,0.2c0.2,0.2,0.3,0.5,0.6,0.6l0.2,0.2
	c0.2,0.3,0.3,0.6,0.5,0.9c0,0.2,0.2,0.3,0.2,0.5c0,0,0,0-0.2-0.2c-0.2-0.2-0.3-0.5-0.5-0.6c-0.2-0.2-0.5-0.3-0.5-0.6h-0.2h-0.2
	c-0.5,0.2-0.5,0.2-0.3,0.6c0.2,0.3,0.2,0.8,0,1.1c-0.2,0.2-0.5,0-0.6,0c0,0-0.2-0.2-0.3-0.3c0,0-0.2,0-0.2-0.2
	c-0.3-0.5-0.6-0.9-1.1-1.1c-0.5-0.2-0.8-0.5-1.1-0.6c-0.3-0.2-0.5-0.2-0.8,0.2l-0.2,0.2c-0.3,0-0.6,0.2-0.9,0c-0.3,0-0.6,0-0.9,0.2
	c-0.2,0-0.3,0.2-0.5,0c0,0-0.2,0-0.3-0.2c-0.2,0-0.3,0-0.3,0c-0.2,0-0.3,0-0.5,0c-0.2,0-0.5,0-0.6,0.2c-0.3,0.3-0.6,0.6-1.1,0.9
	c-0.2,0.2-0.3,0.3-0.5,0.5c-0.2,0.3-0.3,0.6-0.6,0.6c0,0-0.2,0-0.2,0.2c-0.3,0.2-0.3,0.5-0.5,0.8c0,0,0,0.2,0,0.3c0,0.2,0,0.5,0,0.6
	C63.6,29.5,63.4,29.8,63.4,30c-0.2,0.3-0.2,0.6,0.2,0.6C63.3,30,63.4,30,63.4,30z M74.1,25c0-0.2,0.2-0.2,0-0.3c0,0,0-0.2-0.2-0.2
	c0,0-0.2,0-0.2,0.2C74,24.9,74.1,25,74.1,25z"/>
<path class="st3" d="M73.2,26.5c0.2,0,0.2,0.2,0.3,0.3c0.2,0.2,0.3,0.2,0.6,0c0-0.3,0-0.8,0-1.1c0-0.3-0.3-0.5,0.2-0.6h0.2h0.2
	c0,0.3,0.2,0.5,0.5,0.6c0.2,0.2,0.3,0.5,0.5,0.6c0,0,0,0,0.2,0.2c0,0.2,0.2,0.3,0.2,0.5c0,0.3,0,0.5,0.2,0.8c0,0,0,0,0,0.2
	c0,0-0.2,0-0.2-0.2c0-0.6-0.3-1.1-0.6-1.5c-0.2-0.2-0.2-0.3-0.5-0.5c-0.2-0.2-0.5-0.2-0.8-0.3v0.2c0.2,0.5,0.2,0.9,0.3,1.4
	c0,0.3,0.2,0.6,0.2,0.9c0,0.3,0.2,0.6,0.2,0.9c0,0,0,0.2,0.2,0.3c0.2,0,0.3,0.2,0.2,0.5c0,0.2,0.2,0.5,0.3,0.5s0.3-0.2,0.3-0.5
	c0-0.3,0-0.3,0.2-0.5c0,0.2,0,0.2,0,0.3c0,0.2,0,0.3-0.2,0.5c-0.2,0.2-0.5,0.2-0.8,0c-0.2,0-0.3,0-0.5,0c0,0.2-0.2,0.2-0.3,0.2
	c-0.6,0-1.2,0-2,0h-0.2c-0.2,0.2-0.5,0-0.8,0c-0.2,0-0.3,0-0.6,0c-0.5,0-0.9,0-1.2-0.2c0.3,0,0.8,0,1.1-0.2c0.2,0,0.3,0,0.5,0
	c0.3,0.2,0.8,0.2,1.1,0.2c0.2,0,0.3,0,0.5,0c0.5,0,1.1,0,1.4,0s0.5-0.2,0.3-0.5c0-0.2-0.2-0.5-0.3-0.6c-0.2-0.5-0.2-0.8-0.3-1.2
	c0-0.2-0.2-0.3-0.3-0.5C73.7,27,73.4,26.8,73.2,26.5z"/>
<path class="st3" d="M63.4,30c-0.2,0-0.3,0-0.3,0c-0.3,0-0.3-0.2-0.3-0.5c0-0.2,0.2-0.5,0.3-0.8c0.2-0.2,0-0.5,0-0.6
	c0-0.2,0-0.2,0-0.3c0.2-0.3,0.2-0.6,0.5-0.8l0.2-0.2c0.3,0,0.5-0.3,0.6-0.6c0.2-0.2,0.3-0.3,0.5-0.5c0.3-0.3,0.6-0.6,1.1-0.9
	c0.2-0.2,0.3-0.2,0.6-0.2c0.2,0,0.3,0,0.5,0c0,0,0.2,0,0.3,0c-0.2,0-0.3,0.2-0.6,0.3c0,0,0,0-0.2,0c-0.3-0.2-0.3-0.2-0.5,0
	c0,0-0.2,0.2-0.3,0.3c-0.5,0.2-0.8,0.6-1.1,1.1c-0.2,0.2-0.2,0.5-0.3,0.6s-0.3,0.5-0.5,0.8c0,0.2-0.2,0.5-0.3,0.6
	c-0.2,0.3-0.2,0.6-0.6,0.8c0,0-0.2,0.2-0.2,0.3l0.2,0.2c0.2,0,0.3,0,0.3-0.2c0-0.2,0.2-0.3,0.2-0.3s0.2-0.2,0.3-0.3
	c0,0.2,0.2,0.3,0.2,0.3c0,0.2,0.2,0.3,0.5,0.3c0.2,0,0.5,0,0.6,0c0.5,0,0.9,0,1.4,0s1.1,0,1.5,0.2c0.2,0,0.3,0,0.5,0l0,0
	c-0.2,0-0.5,0-0.6,0c-0.2,0-0.5-0.2-0.6,0c0,0-0.2,0-0.3,0s-0.3,0-0.6,0c-0.2,0-0.5,0-0.8,0c-0.2,0-0.5,0-0.8,0.2
	C64.4,30,63.9,30,63.4,30C63.8,29.7,63.8,29.7,63.4,30z"/>
<path class="st3" d="M76.1,28L76.1,28C76.3,28,76.3,28,76.1,28c0.2,0.5,0.2,0.8,0.2,1.1c0,0,0,0,0,0.2c0,0.5,0,0.8-0.5,0.8
	c-0.3,0-0.8,0.2-1.1,0.2c-0.3,0-0.8,0-1.1,0c-0.5,0-0.9,0.2-1.2,0.2c-0.5,0-0.9,0.2-1.2,0.3c-0.2,0-0.3,0-0.5,0.2
	c-0.2,0.2-0.5,0-0.6,0c-0.2,0-0.2-0.2-0.3-0.3c0-0.2-0.2-0.3-0.5-0.3c-0.2,0-0.5,0-0.8,0c0,0-0.2,0-0.3,0c0.5,0,0.9,0,1.4,0l0,0l0,0
	c0.3,0.3,0.8,0.2,1.2,0.2c0.2,0,0.3,0,0.6,0s0.5,0,0.8,0h0.2c0.6,0,1.2,0,2,0c0.2,0,0.3,0,0.3-0.2c0.2-0.2,0.2-0.2,0.5,0
	c0.3,0.2,0.6,0,0.8,0c0.2-0.2,0.2-0.3,0.2-0.5c0,0,0-0.2,0-0.3C76.3,28.6,76.1,28.3,76.1,28z"/>
<path class="st3" d="M70.1,30c-0.5,0-0.9,0-1.4,0c0,0,0,0-0.2,0l0,0c0.5,0,0.8,0,1.2,0C69.8,30,69.9,30,70.1,30z"/>
<path class="st3" d="M41.1,23.7c0.2,0,0.5,0,0.6,0c0.5,0,0.9,0.2,1.4,0c0.2,0,0.3,0,0.5,0c0.5,0.2,0.9,0.3,1.2,0.5
	c0.2,0,0.3,0.2,0.3,0.2c0.2,0.2,0.5,0.2,0.8,0.3c0,0,0,0,0.2,0.2c0.3,0.5,0.6,0.9,1.1,1.2c0.2,0.2,0.2,0.3,0.3,0.5
	c0.2,0.6,0.8,0.9,1.2,1.1c0.2,0,0.3,0,0.5,0.3c0,0,0.2,0,0.2,0.2c0.2,0,0.2,0.2,0.2,0.5c0,0.2,0,0.3,0,0.5c0,0.5,0,0.6-0.6,0.8
	c-0.3,0-0.6,0-0.9,0.2c-0.2,0-0.3,0-0.3-0.2c0-0.3-0.3-0.5-0.6-0.5c-0.5-0.2-1.1-0.3-1.4-0.5c-0.2,0-0.3,0-0.3,0
	c-0.2,0-0.2,0-0.3,0.2c0,0.2,0,0.2,0,0.3c-0.2,0.3-0.5,0.5-0.8,0.5c-0.2,0-0.5,0-0.8,0c0,0-0.2,0-0.2,0.2C43.1,29.8,43,30,42.7,30
	s-0.6,0-1.1,0c0,0-0.2,0-0.3,0.2c-0.2,0-0.5,0.2-0.6,0.2s-0.3,0-0.5,0c0,0-0.2-0.2-0.3-0.3l-0.2-0.2c-0.3,0-0.6-0.2-0.8,0
	c-0.3,0-0.6,0-0.9,0c-0.3,0-0.8,0-1.1-0.2c-0.5,0-0.6-0.5-0.6-0.9c0-0.2,0-0.3,0-0.3c-0.2-0.3,0-0.6,0.2-0.8c0,0,0.2-0.2,0.3-0.3
	c0.2-0.2,0.5-0.3,0.6-0.5c0,0,0.2-0.2,0-0.3c0-0.3,0-0.5,0.3-0.6c0.5-0.3,0.9-0.5,1.4-0.8c0.3-0.2,0.8-0.5,0.9-0.9
	c0-0.2,0.3-0.3,0.6-0.3C40.8,23.7,41,23.7,41.1,23.7L41.1,23.7z M44.8,24.7c0-0.2,0-0.3-0.2-0.3c-0.2,0-0.3,0-0.5,0
	c-0.2-0.2-0.5-0.2-0.8,0c-0.2,0-0.3,0.2-0.6,0c-0.2,0-0.3,0-0.5,0c-0.2,0-0.5,0-0.6-0.2c-0.3-0.3-0.5-0.2-0.9,0
	c-0.2,0.2-0.5,0.2-0.6,0.3c-0.2,0.2-0.3,0.2-0.5,0.5c-0.6,0.8-1.2,1.2-1.8,1.8c-0.2,0.2-0.5,0.5-0.6,0.8c0,0.2-0.2,0.3-0.3,0.3
	c0,0,0,0-0.2,0V28c0.2,0.3,0.2,0.3,0,0.6c0,0.2-0.2,0.2-0.2,0.3c-0.2,0.3,0,0.3,0.2,0.5c0,0,0.2,0,0.3,0c0.6,0,1.2,0,2,0
	c0.3,0,0.5,0,0.8,0.2c0.3,0.2,0.6,0.3,1.1,0.2l0,0c0,0-0.2-0.2-0.2-0.3c0.2,0,0.2-0.2,0.3-0.2c0.2,0,0.3-0.2,0.6-0.2
	c0.2,0,0.3-0.2,0.5-0.2c0.3,0,0.8,0,1.1,0c0.5,0,0.9,0,1.1-0.3c0,0,0.2-0.2,0.3-0.2c0.6,0,1.1,0,1.7,0c0.3,0,0.6,0,0.8,0.3
	c0,0.2,0.2,0.2,0.3,0c-0.2-0.3-0.3-0.6-0.5-0.9c0-0.2,0-0.3-0.2-0.5c0-0.2-0.2-0.5-0.3-0.6c-0.2-0.2-0.3-0.3-0.5-0.6
	c-0.2-0.3-0.6-0.6-0.9-0.9c-0.2-0.2-0.6-0.2-0.9-0.3c0,0-0.2,0-0.2-0.2C44.5,24.6,44.6,24.6,44.8,24.7z"/>
<path class="st3" d="M74.1,25c0-0.2-0.2-0.2-0.2-0.3c0,0,0-0.2,0.2-0.2c0.2,0,0.2,0,0.2,0.2C74.3,24.9,74.3,25,74.1,25z"/>
</svg>
