<?xml version="1.0" encoding="utf-8"?>
<!-- Generator: Adobe Illustrator 24.1.0, SVG Export Plug-In . SVG Version: 6.00 Build 0)  -->
<svg version="1.1" xmlns="http://www.w3.org/2000/svg" xmlns:xlink="http://www.w3.org/1999/xlink" x="0px" y="0px"
	 viewBox="0 0 40 40" style="enable-background:new 0 0 40 40;" xml:space="preserve">
<style type="text/css">
	.st0{fill:#FFFFFF;}
</style>
<g id="Layer_2">
</g>
<g id="Layer_1">
	<g>
		<path class="st0" d="M25.4,18.6c-1.4,0-2.2,1.1-2.2,2.8c0,1.6,0.8,2.8,2.2,2.8c1.6,0,2.1-1.4,2.1-2.8C27.5,20,26.8,18.6,25.4,18.6
			z"/>
		<path class="st0" d="M19.9,0C8.9,0,0,9,0,20s8.9,20,19.9,20s19.9-9,19.9-20S31,0,19.9,0z M25.9,25.7c-1,0-2.2-0.3-2.7-1.3v1.1
			h-1.6V14.4l-6,11H2.8l6-11h12.8h1.7v4.1c0.5-0.8,1.4-1.3,2.3-1.3c2.4,0,3.6,1.9,3.6,4.3C29.2,23.6,28.2,25.7,25.9,25.7z
			 M33.6,25.6c-2.4,0-3.7-1.8-3.7-4.1c0-2.4,1.3-4.3,3.8-4.3c1.8,0,3.3,0.9,3.5,2.9h-1.7c-0.1-1-0.8-1.5-1.8-1.5
			c-0.9,0-2.1,0.5-2.1,2.9c0,1.3,0.6,2.7,2,2.7c1,0,1.7-0.7,1.8-1.8h1.7C36.8,24.5,35.5,25.6,33.6,25.6z"/>
	</g>
	<g>
		<defs>
			<rect id="SVGID_1_" width="40" height="40"/>
		</defs>
		<clipPath id="SVGID_2_">
			<use xlink:href="#SVGID_1_"  style="overflow:visible;"/>
		</clipPath>
	</g>
</g>
</svg>
