<?xml version="1.0" encoding="utf-8"?>
<!-- Generator: Adobe Illustrator 24.1.0, SVG Export Plug-In . SVG Version: 6.00 Build 0)  -->
<svg version="1.1" id="Layer_1" xmlns="http://www.w3.org/2000/svg" xmlns:xlink="http://www.w3.org/1999/xlink" x="0px" y="0px"
	 viewBox="0 0 40 40" style="enable-background:new 0 0 40 40;" xml:space="preserve">
<style type="text/css">
	.st0{clip-path:url(#SVGID_3_);}
	.st1{clip-path:url(#SVGID_4_);}
	.st2{clip-path:url(#SVGID_7_);}
	.st3{clip-path:url(#SVGID_8_);fill:#FFFFFF;}
	.st4{clip-path:url(#SVGID_11_);}
	.st5{clip-path:url(#SVGID_12_);fill:#FFFFFF;}
	.st6{clip-path:url(#SVGID_15_);}
	.st7{clip-path:url(#SVGID_16_);fill:#FFFFFF;}
</style>
<g>
	<defs>
		<rect id="SVGID_1_" y="0" width="40" height="40"/>
	</defs>
	<defs>
		<path id="SVGID_2_" d="M20,40c11,0,20-9,20-20S31,0,20,0S0,9,0,20S9,40,20,40L20,40z M20,40"/>
	</defs>
	<clipPath id="SVGID_3_">
		<use xlink:href="#SVGID_1_"  style="overflow:visible;"/>
	</clipPath>
	<clipPath id="SVGID_4_" class="st0">
		<use xlink:href="#SVGID_2_"  style="overflow:visible;"/>
	</clipPath>
	<rect x="-0.4" y="-0.4" class="st1" width="40.8" height="40.8"/>
</g>
<g>
	<defs>
		<rect id="SVGID_5_" y="0" width="40" height="40"/>
	</defs>
	<defs>
		<path id="SVGID_6_" d="M25.4,18.6c-1.4,0-2.2,1.1-2.2,2.8c0,1.6,0.8,2.8,2.2,2.8c1.6,0,2.1-1.4,2.1-2.8
			C27.5,20,26.8,18.6,25.4,18.6 M21.6,14.4h1.7v4.1h0c0.5-0.8,1.4-1.3,2.3-1.3c2.4,0,3.6,1.9,3.6,4.3c0,2.1-1,4.2-3.3,4.2
			c-1,0-2.2-0.3-2.7-1.3h0v1.1h-1.6L21.6,14.4L21.6,14.4"/>
	</defs>
	<clipPath id="SVGID_7_">
		<use xlink:href="#SVGID_5_"  style="overflow:visible;"/>
	</clipPath>
	<clipPath id="SVGID_8_" class="st2">
		<use xlink:href="#SVGID_6_"  style="overflow:visible;"/>
	</clipPath>
	<rect x="21.2" y="14" class="st3" width="8.4" height="12"/>
</g>
<g>
	<defs>
		<rect id="SVGID_9_" y="0" width="40" height="40"/>
	</defs>
	<defs>
		<path id="SVGID_10_" d="M35.5,20.1c-0.1-1-0.8-1.5-1.8-1.5c-0.9,0-2.1,0.5-2.1,2.9c0,1.3,0.6,2.7,2,2.7c1,0,1.7-0.7,1.8-1.8h1.7
			c-0.3,2.1-1.6,3.2-3.5,3.2c-2.4,0-3.7-1.8-3.7-4.1c0-2.4,1.3-4.3,3.8-4.3c1.8,0,3.3,0.9,3.5,2.9L35.5,20.1L35.5,20.1"/>
	</defs>
	<clipPath id="SVGID_11_">
		<use xlink:href="#SVGID_9_"  style="overflow:visible;"/>
	</clipPath>
	<clipPath id="SVGID_12_" class="st4">
		<use xlink:href="#SVGID_10_"  style="overflow:visible;"/>
	</clipPath>
	<rect x="29.5" y="16.8" class="st5" width="8.1" height="9.2"/>
</g>
<g>
	<defs>
		<rect id="SVGID_13_" y="0" width="40" height="40"/>
	</defs>
	<defs>
		<polyline id="SVGID_14_" points="15.6,25.4 2.8,25.4 8.8,14.4 21.6,14.4 15.6,25.4 		"/>
	</defs>
	<clipPath id="SVGID_15_">
		<use xlink:href="#SVGID_13_"  style="overflow:visible;"/>
	</clipPath>
	<clipPath id="SVGID_16_" class="st6">
		<use xlink:href="#SVGID_14_"  style="overflow:visible;"/>
	</clipPath>
	<rect x="2.5" y="14" class="st7" width="19.5" height="11.8"/>
</g>
</svg>
