<?xml version="1.0" encoding="utf-8"?>
<!-- Generator: Adobe Illustrator 24.1.0, SVG Export Plug-In . SVG Version: 6.00 Build 0)  -->
<svg version="1.1" xmlns="http://www.w3.org/2000/svg" xmlns:xlink="http://www.w3.org/1999/xlink" x="0px" y="0px"
	 viewBox="0 0 72 72" style="enable-background:new 0 0 72 72;" xml:space="preserve">
<style type="text/css">
	.st0{display:none;}
	.st1{display:inline;fill:#282828;}
	.st2{display:inline;fill:#FBBD15;}
</style>
<g id="Layer_1" class="st0">
	<path class="st1" d="M13.2,33.5c-1.2,0-2.3-0.3-3.2-0.9c-1-0.6-1.7-1.4-2.3-2.4c-0.5-1-0.8-2.2-0.8-3.5s0.3-2.5,0.8-3.5
		s1.3-1.8,2.2-2.4s2-0.9,3.3-0.9c0.9,0,1.8,0.2,2.5,0.6s1.4,0.9,1.8,1.6s0.7,1.4,0.7,2.3V29c0,0.8-0.3,1.6-0.7,2.3
		c-0.5,0.7-1.1,1.2-1.8,1.6C15,33.3,14.2,33.5,13.2,33.5z M13.8,30.2c0.7,0,1.2-0.1,1.7-0.4s0.9-0.7,1.2-1.2
		c0.3-0.5,0.4-1.1,0.4-1.8c0-0.7-0.1-1.3-0.4-1.8s-0.7-0.9-1.2-1.2c-0.5-0.3-1.1-0.4-1.7-0.4c-0.7,0-1.2,0.2-1.7,0.5
		s-0.9,0.7-1.2,1.2s-0.4,1.1-0.4,1.8c0,0.7,0.1,1.3,0.4,1.8c0.3,0.5,0.7,0.9,1.2,1.2C12.6,30,13.2,30.2,13.8,30.2z M20.5,33.2H17
		v-3.5l0.6-3.2L17,23.4v-9.7h3.5V33.2z"/>
	<path class="st1" d="M29.8,33.5c-1.4,0-2.6-0.3-3.6-0.9c-1.1-0.6-1.9-1.4-2.5-2.4s-0.9-2.2-0.9-3.5s0.3-2.5,0.9-3.5
		s1.4-1.8,2.5-2.4c1-0.6,2.2-0.9,3.5-0.9s2.4,0.3,3.3,0.9c1,0.6,1.7,1.3,2.3,2.3c0.5,1,0.8,2.1,0.8,3.3c0,0.2,0,0.5,0,0.7
		S36,27.6,36,27.9H25v-2.6h9.3l-1.4,1.1c0-0.8-0.2-1.4-0.4-1.9s-0.6-0.9-1.1-1.2c-0.5-0.3-1-0.4-1.7-0.4s-1.3,0.2-1.8,0.5
		s-0.9,0.8-1.2,1.3c-0.3,0.6-0.4,1.2-0.4,2s0.1,1.5,0.4,2.1s0.7,1,1.3,1.4c0.6,0.3,1.2,0.5,1.9,0.5c0.7,0,1.3-0.1,1.8-0.3
		c0.5-0.2,1-0.6,1.4-1l2.1,2.1c-0.6,0.7-1.4,1.3-2.3,1.7C31.9,33.3,30.9,33.5,29.8,33.5z"/>
	<path class="st1" d="M42.7,33.5c-0.7,0-1.5-0.1-2.2-0.3s-1.4-0.5-2-0.8c-0.5-0.4-1-0.8-1.5-1.3l2.1-2.1c0.4,0.5,1,0.9,1.6,1.1
		c0.6,0.3,1.3,0.4,2,0.4c0.6,0,1-0.1,1.3-0.2c0.3-0.2,0.4-0.4,0.4-0.7c0-0.4-0.2-0.6-0.5-0.8c-0.3-0.2-0.7-0.4-1.2-0.5
		s-1-0.3-1.6-0.5c-0.5-0.2-1.1-0.4-1.6-0.7c-0.5-0.3-0.9-0.7-1.2-1.2s-0.5-1.1-0.5-1.9s0.2-1.5,0.6-2.2c0.4-0.6,1-1.1,1.7-1.4
		c0.8-0.3,1.6-0.5,2.7-0.5c1.1,0,2.1,0.2,2.9,0.6c0.9,0.4,1.6,0.9,2.2,1.7l-2.1,2.1c-0.4-0.5-0.8-0.8-1.3-1.1
		c-0.5-0.2-1-0.3-1.6-0.3c-0.5,0-0.9,0.1-1.2,0.2c-0.3,0.2-0.4,0.4-0.4,0.7c0,0.3,0.2,0.6,0.5,0.8c0.3,0.2,0.7,0.3,1.2,0.5
		c0.5,0.1,1,0.3,1.6,0.5c0.5,0.2,1.1,0.4,1.6,0.7c0.5,0.3,0.9,0.7,1.2,1.2s0.5,1.2,0.5,1.9c0,1.3-0.5,2.3-1.4,3
		C45.5,33.1,44.3,33.5,42.7,33.5z"/>
	<path class="st1" d="M7.7,57.3V37.8h3.5v9.7l-0.6,3.1l0.6,3.2v3.5H7.7z M15,57.5c-0.9,0-1.8-0.2-2.5-0.6c-0.8-0.4-1.4-0.9-1.8-1.6
		C10.2,54.6,10,53.9,10,53v-4.6c0-0.8,0.3-1.6,0.7-2.3s1.1-1.2,1.8-1.6c0.8-0.4,1.6-0.6,2.5-0.6c1.2,0,2.3,0.3,3.2,0.9
		c1,0.6,1.7,1.4,2.3,2.4c0.5,1,0.8,2.2,0.8,3.5s-0.3,2.4-0.8,3.5c-0.5,1-1.3,1.8-2.3,2.4C17.3,57.2,16.2,57.5,15,57.5z M14.4,54.3
		c0.6,0,1.2-0.1,1.7-0.4c0.5-0.3,0.9-0.7,1.2-1.2c0.3-0.5,0.4-1.1,0.4-1.8s-0.1-1.3-0.4-1.8s-0.7-0.9-1.2-1.2s-1.1-0.4-1.7-0.4
		c-0.6,0-1.2,0.1-1.7,0.4c-0.5,0.3-0.9,0.7-1.2,1.2s-0.4,1.1-0.4,1.8s0.1,1.3,0.4,1.8c0.3,0.5,0.7,0.9,1.2,1.2
		C13.1,54.1,13.7,54.3,14.4,54.3z"/>
	<path class="st1" d="M23.6,57.3v-13h3.5v13H23.6z M27.1,50.1l-1.4-0.9c0.2-1.6,0.6-2.9,1.4-3.8c0.8-0.9,1.9-1.4,3.3-1.4
		c0.6,0,1.2,0.1,1.7,0.3c0.5,0.2,1,0.5,1.4,1l-2.2,2.5c-0.2-0.2-0.4-0.4-0.7-0.5c-0.3-0.1-0.6-0.2-1-0.2c-0.8,0-1.4,0.2-1.8,0.7
		C27.4,48.4,27.1,49.1,27.1,50.1z"/>
	<path class="st1" d="M40.6,57.5c-1.3,0-2.5-0.3-3.6-0.9c-1.1-0.6-1.9-1.4-2.5-2.5c-0.6-1-0.9-2.2-0.9-3.5s0.3-2.4,0.9-3.4
		c0.6-1,1.4-1.8,2.5-2.4c1.1-0.6,2.2-0.9,3.5-0.9s2.5,0.3,3.6,0.9c1.1,0.6,1.9,1.4,2.5,2.4s0.9,2.2,0.9,3.4c0,1.3-0.3,2.4-0.9,3.5
		c-0.6,1-1.4,1.9-2.5,2.5C43.1,57.2,41.9,57.5,40.6,57.5z M40.6,54.3c0.7,0,1.3-0.1,1.8-0.4c0.5-0.3,0.9-0.7,1.2-1.2
		s0.4-1.1,0.4-1.8s-0.1-1.3-0.4-1.8c-0.3-0.5-0.7-0.9-1.2-1.2s-1.1-0.4-1.8-0.4c-0.6,0-1.2,0.1-1.7,0.4c-0.5,0.3-0.9,0.7-1.2,1.2
		s-0.4,1.1-0.4,1.8s0.1,1.3,0.4,1.8c0.3,0.5,0.7,0.9,1.2,1.2C39.4,54.1,39.9,54.3,40.6,54.3z"/>
	<path class="st1" d="M54.3,57.6c-0.7,0-1.5-0.1-2.2-0.3s-1.4-0.5-2-0.8c-0.6-0.4-1.1-0.8-1.5-1.3l2.1-2.1c0.4,0.5,1,0.9,1.6,1.1
		c0.6,0.3,1.3,0.4,2,0.4c0.6,0,1-0.1,1.3-0.2c0.3-0.2,0.4-0.4,0.4-0.7c0-0.4-0.2-0.6-0.5-0.8s-0.7-0.4-1.2-0.5s-1-0.3-1.6-0.5
		c-0.5-0.2-1.1-0.4-1.6-0.7s-0.9-0.7-1.2-1.2s-0.5-1.1-0.5-1.9c0-0.8,0.2-1.5,0.6-2.2c0.4-0.6,1-1.1,1.7-1.4
		c0.8-0.3,1.6-0.5,2.7-0.5c1.1,0,2.1,0.2,2.9,0.6c0.9,0.4,1.6,0.9,2.2,1.7l-2.1,2.1c-0.4-0.5-0.8-0.8-1.3-1.1
		c-0.5-0.2-1-0.3-1.6-0.3c-0.5,0-0.9,0.1-1.2,0.2c-0.3,0.2-0.4,0.4-0.4,0.7s0.2,0.6,0.5,0.8s0.7,0.3,1.2,0.5c0.5,0.1,1,0.3,1.6,0.5
		c0.5,0.2,1.1,0.4,1.6,0.7s0.9,0.7,1.2,1.2s0.5,1.2,0.5,1.9c0,1.3-0.5,2.3-1.4,3C57.2,57.2,55.9,57.6,54.3,57.6z"/>
	<path class="st2" d="M9.9,87.8c-0.6,0-1.2-0.2-1.6-0.6c-0.4-0.4-0.6-1-0.6-1.6s0.2-1.2,0.6-1.6c0.4-0.4,0.9-0.6,1.6-0.6
		c0.6,0,1.2,0.2,1.6,0.6c0.4,0.4,0.6,1,0.6,1.6s-0.2,1.2-0.6,1.6C11,87.6,10.5,87.8,9.9,87.8z"/>
</g>
<g id="Layer_2">
	<path d="M44.4,43.5L44.4,43.5c0.1,0.1,0.1,0.1,0.2,0.2c-0.1,0.1-0.1,0.2-0.2,0.3c-0.1,0.1-0.2,0.3-0.3,0.5c0,0-0.1,0-0.1,0.1
		c-0.1,0-0.2,0.1-0.4,0.2c0,0-0.1,0-0.1,0.1l0,0c-0.2,0-0.4,0-0.6,0.1c-0.3,0.1-0.6,0.2-0.9,0.2c-0.1,0-0.1,0-0.2,0.1l0,0l0,0
		c-0.1,0-0.1,0-0.2,0c-0.1,0-0.2,0.1-0.1,0.2c0,0,0,0.1,0,0.1c0.2,0.4,0.4,0.9,0.6,1.3c0,0,0,0.1,0,0.1c0,0.3,0.1,0.6,0.1,0.8
		c0,0.1,0,0.2,0.1,0.4c0,0,0,0.1,0,0.2c0,0.3-0.1,0.7,0.1,0.9c0,0,0,0.1,0,0.1c0,0.3,0.1,0.5,0.2,0.7c0,0.1,0.1,0.1,0,0.3
		c0,0,0,0.1,0,0.2c0.1,0.3,0.3,0.5,0.4,0.8l0,0c0,0.1,0,0.2,0.1,0.3c0,0.1,0.1,0.2,0.2,0.4c0.1,0.1,0.2,0.3,0.2,0.5c0,0,0,0.1,0,0.2
		c-0.1-0.1-0.1-0.2-0.2-0.3c0,0-0.1-0.1-0.1-0.2c-0.1-0.2-0.1-0.5-0.2-0.7c0-0.1-0.1-0.2-0.2-0.3c-0.2-0.2-0.3-0.5-0.3-0.7
		c0-0.2,0-0.4-0.1-0.6c-0.1-0.3-0.2-0.7-0.3-1c-0.1-0.5-0.2-0.9-0.3-1.4c0-0.1-0.1-0.3-0.1-0.5c0-0.1,0-0.3-0.1-0.4
		c-0.1-0.3-0.1-0.7-0.2-1c0-0.1-0.1-0.3-0.1-0.5c0-0.2,0-0.2,0.2-0.3c0.1,0,0.3-0.1,0.5-0.1c0,0,0.1,0,0.1,0c0.2,0.1,0.4,0,0.7,0
		c0.1,0,0.2-0.1,0.3-0.1c0.2,0,0.4-0.1,0.6-0.3c0.1-0.1,0.2-0.2,0.4-0.3c0.2-0.1,0.4-0.3,0.5-0.6c0-0.1,0-0.2-0.1-0.2
		c-0.1,0-0.2,0-0.2,0s-0.1-0.1-0.1-0.2c0-0.3,0-0.3-0.3-0.4c-0.2,0-0.4-0.1-0.5-0.2c0-0.3,0-0.3-0.2-0.4c-0.2-0.1-0.4-0.1-0.6-0.2
		C42,42,41.6,42,41.2,42c0,0-0.1,0-0.2,0c-0.2,0.1-0.5,0.1-0.8,0.1c-0.1,0-0.1,0-0.2,0c-0.1,0-0.2,0-0.3,0c-0.1,0-0.2,0-0.3,0
		c-0.3,0.1-0.6,0.1-0.8,0.2c-0.2,0-0.4-0.1-0.5,0c0,0-0.1,0-0.1,0c-0.1,0-0.2,0-0.3,0.1c-0.2,0.2-0.2,0.2-0.5,0.1c0,0-0.1,0-0.2,0
		c-0.1,0-0.2,0-0.4,0c-0.2,0-0.5,0-0.7,0c-0.1,0-0.2,0-0.3,0.1c-0.1,0.2-0.3,0.3-0.5,0.3c0,0-0.1-0.1-0.1-0.1
		c-0.1-0.2-0.1-0.2-0.4-0.1c-0.2,0-0.4,0-0.6,0c-0.1,0-0.3,0-0.5,0c0,0-0.1,0-0.2,0c-0.2-0.1-0.4-0.3-0.6-0.4
		c-0.1,0-0.2-0.1-0.3-0.1c-0.2,0-0.4-0.1-0.5-0.2c-0.3-0.2-0.6-0.2-0.9-0.1c-0.1,0-0.2,0-0.3-0.1c-0.2-0.2-0.5-0.3-0.8-0.3
		c-0.3,0-0.6-0.1-0.8-0.1c-0.1,0-0.2,0-0.3,0c-0.3-0.1-0.6,0-0.8,0c0,0-0.1,0-0.1,0.1c-0.1,0-0.2,0.1-0.3,0.1c-0.3,0-0.6,0-0.8,0.1
		c-0.1,0-0.3,0-0.5,0c-0.2,0-0.5,0-0.7,0.2c-0.2,0.1-0.3,0.2-0.5,0.3c-0.1,0.1-0.2,0.1-0.2,0.3c0,0,0,0.1-0.1,0.2
		c-0.1,0.1,0,0.2,0,0.2C25,43,25,43.1,25,43.3c0,0,0,0.1,0,0.2c0,0.2,0,0.4-0.2,0.6c-0.1,0.1-0.1,0.1,0,0.2c0,0,0.1,0.1,0.2,0.1
		c0,0,0.1,0.1,0.2,0.2c0.2,0.2,0.6,0.3,0.8,0.3c0.2,0,0.5,0,0.7,0c0.1,0,0.2,0.1,0.2,0.2c0,0.1,0,0.2-0.1,0.3c0,0,0,0.1,0,0.1
		c0,0.1,0,0.2-0.1,0.4c-0.1,0.2-0.1,0.4-0.1,0.6c0,0.2,0,0.4-0.1,0.6c0,0.1-0.1,0.2-0.1,0.3c0,0.2-0.2,0.4-0.3,0.5c0,0,0,0,0-0.1
		c0.1-0.2,0.2-0.5,0.4-0.7c0.1-0.2,0.1-0.3-0.1-0.5c-0.1,0-0.1-0.1-0.1-0.2c0-0.3,0-0.6,0.1-0.8c0.1-0.2,0-0.3-0.2-0.4
		c-0.3,0-0.6-0.1-0.8-0.1c-0.1,0-0.3,0-0.4-0.1c-0.1-0.1-0.2-0.1-0.4-0.1c-0.1,0-0.2,0-0.3-0.1c0,0-0.1-0.1-0.1-0.1
		c-0.2,0-0.4,0-0.6,0.1c0,0-0.2,0.1-0.2,0.1c-0.1,0-0.2,0-0.3,0.1c-0.1,0.1-0.2,0.1-0.3,0.1c-0.2,0-0.4,0-0.6,0c-0.5,0-1.1,0-1.6,0
		c-0.2,0-0.2,0.1-0.1,0.2c0.1,0.2,0.2,0.4,0.3,0.7c0.1,0.1,0.1,0.3,0.2,0.5c0,0.1,0,0.2,0.1,0.3l0,0c0,0,0,0.1,0,0.1
		c0.1,0.1,0.1,0.3,0,0.5c0,0.1,0,0.2,0,0.3c0.1,0.3,0,0.6,0,0.8c-0.1-0.3-0.2-0.7-0.2-1c0-0.4-0.1-0.8-0.2-1.3
		c-0.1-0.3-0.2-0.6-0.5-0.8c-0.1-0.1-0.1-0.2,0.1-0.3c0,0,0.1,0,0.1,0c0.2,0,0.4,0,0.6,0c0.3,0,0.5,0,0.8-0.1c0.2,0,0.5,0,0.7,0
		c0.1,0,0.3,0,0.4-0.1c0,0,0.1-0.1,0.2-0.1c0.1,0,0.2-0.1,0.3-0.2c0.1-0.2,0.2-0.3,0.2-0.6c0-0.1,0-0.3,0.2-0.4c0.1,0,0.1-0.1,0-0.2
		c-0.1-0.2-0.2-0.3-0.4-0.5c-0.2-0.2-0.4-0.4-0.4-0.7c0,0-0.1-0.1-0.1-0.1c-0.1,0-0.2-0.1-0.4-0.1c-0.1,0-0.2-0.1-0.3-0.1
		c-0.2,0-0.4,0-0.6-0.1c-0.1,0-0.3,0-0.4,0c-0.3,0-0.6,0-0.9,0c-0.2,0-0.5,0-0.7,0.1c0.1,0.2,0.1,0.2,0.2,0.5c0,0.2,0,0.2,0.3,0.2
		c0.2,0,0.4,0.1,0.6,0.1c0,0.1-0.1,0.1-0.2,0.1s-0.1,0-0.2,0c-0.2,0.1-0.5,0.2-0.7,0.2c-0.2,0-0.5,0-0.7,0c-0.2,0-0.4,0-0.6,0
		c-0.1,0-0.1,0-0.2,0c-0.2,0-0.5,0-0.7,0c-0.2,0-0.4,0-0.6-0.1v0c0.3,0,0.6,0,0.8,0c0.1,0,0.3,0,0.5,0c0,0,0.1,0,0.1,0
		c0.1,0,0.1,0,0.1-0.1c0-0.1-0.1-0.3-0.2-0.4c-0.1-0.1-0.1-0.3-0.1-0.5c0-0.1,0.1-0.1,0.2-0.1c0,0,0.1,0,0.2,0
		c0.1-0.1,0.3-0.1,0.5,0c0.2,0,0.5,0,0.7,0c0.3,0,0.6-0.1,0.9,0c0.1,0,0.2,0,0.3,0c0.3-0.1,0.6-0.1,0.9,0c0.4,0,0.7,0.1,1.1,0.1
		c0.3,0,0.5,0.1,0.7,0.2c0.1,0,0.2,0.1,0.3,0.1c0.1,0,0.2,0,0.2,0.1c0,0-0.1,0.1-0.1,0.1c-0.1,0.1-0.1,0.2,0,0.2
		c0.1,0.1,0.2,0.2,0.3,0.2c0.1,0,0.2-0.1,0.3-0.1c0,0,0.1-0.1,0.1-0.1c0.1-0.1,0.2-0.3,0.3-0.4c0,0,0.1-0.1,0.2-0.1
		c0.4-0.2,0.7-0.4,1.2-0.4c0,0,0.1,0,0.2-0.1c0.1,0,0.1-0.1,0.2-0.1c0.1-0.1,0.3-0.1,0.4,0c0,0,0.2,0,0.2,0c0.1,0,0.2,0,0.3,0
		c0,0,0.1,0,0.2,0c0.3-0.1,0.6-0.1,0.8,0c0.4,0.1,0.8,0,1.3,0.2c0.1,0,0.2,0.1,0.4,0.1c0.1,0,0.3,0,0.4,0.1l0,0
		c0.2,0.1,0.5,0.2,0.8,0.1c0.1,0,0.2,0,0.2,0c0.3,0.2,0.6,0.3,1,0.3c0.1,0,0.2,0,0.3,0.1c0.4,0.2,0.8,0.3,1.2,0.5c0,0,0.1,0,0.2,0
		c0,0,0.1,0,0.1,0c0.1,0,0.2,0,0.4,0c0.2,0,0.4,0,0.6,0c0.3-0.1,0.6,0,0.8-0.1c0.2,0,0.5,0,0.7-0.1c0.1-0.1,0.2,0,0.3,0
		c0,0,0.1,0.1,0.1,0.1c0,0,0,0,0.1,0c0,0,0-0.1,0.1-0.1c0.1-0.2,0.2-0.2,0.4-0.1c0.1,0,0.2,0,0.3,0c0.1,0,0.2,0,0.3,0
		c0.1,0,0.2,0,0.3,0c0.2-0.1,0.5-0.1,0.7-0.2c0.1,0,0.3-0.1,0.5,0c0,0,0,0,0.1,0c0.1,0,0.2,0,0.4,0c0.2,0,0.4,0,0.6-0.1
		c0.1-0.1,0.3-0.1,0.4-0.1c0.1,0,0.3,0,0.5,0c0.2,0,0.5,0,0.7,0c0.1,0.1,0.2,0.1,0.3,0.2c0,0,0.1,0.1,0.2,0.1
		c0.2,0.1,0.3,0.1,0.5,0.2c0.1,0,0.2,0.1,0.1,0.2c0,0.1,0,0.2,0.1,0.3c0.1,0,0.2,0.1,0.2,0.3c0,0.4,0,0.3,0.3,0.4
		C44.4,43.5,44.4,43.5,44.4,43.5z M24.2,43.1c0,0,0.1,0.1,0.1,0.2c0.1-0.1,0.2-0.1,0.3-0.2c0.1-0.1,0-0.2-0.1-0.2
		C24.3,42.8,24.2,42.9,24.2,43.1z"/>
	<path d="M61.3,17.9L61.3,17.9c-0.1,0-0.2,0-0.3,0c-0.4,0-0.7,0-1.1,0c0,0-0.1,0-0.2,0c-0.2,0-0.4,0-0.6,0c-0.1,0-0.3,0-0.4,0
		c-0.2,0-0.3-0.1-0.5-0.2c-0.1-0.1-0.2-0.1-0.3,0.1c-0.1,0.1-0.2,0.2-0.3,0.3c-0.1,0.1-0.2,0.2,0,0.3c0.1,0.1,0.1,0.3,0,0.4
		c-0.2,0.2-0.2,0.3,0,0.6c0.1,0.1,0.1,0.2,0.3,0.2c0,0,0.1,0,0.2,0c0.1,0,0.2,0.1,0.2,0.2c0,0.1,0.1,0.2,0.2,0.2
		c0.2,0,0.4,0.1,0.5,0.1c0.1,0,0.2,0,0.3,0.1c0.1,0,0.2,0.1,0.3,0.1c0.2,0,0.4,0,0.6,0c0.3,0,0.7,0,1,0c0.1,0,0.3,0,0.4,0.1
		c-0.1,0.2-0.1,0.2-0.4,0c-0.1,0-0.2,0.1-0.3,0.2c-0.1,0.1-0.2,0.1-0.3,0c0,0-0.1,0-0.1,0c0,0-0.1,0-0.1,0.1c0,0,0,0.1,0,0.1
		c0,0,0.1,0.1,0.2,0.1c0.4,0,0.7,0.1,1.1,0.1c0.1,0,0.2,0,0.3,0.1c0,0.1,0.1,0.3,0.1,0.4l0,0h0c0-0.1,0-0.1-0.1-0.2
		c0-0.1-0.1-0.2-0.3-0.1c-0.3,0-0.7,0-1,0c-0.2,0-0.4-0.1-0.7-0.2c-0.1,0-0.3,0-0.4,0c0,0-0.1,0-0.2,0c-0.3,0-0.3-0.1-0.2-0.3
		c0-0.1-0.1-0.1-0.2,0c-0.1,0.1-0.2,0.1-0.4,0c-0.1,0-0.3-0.1-0.4-0.1c0,0,0-0.1,0-0.2c-0.1,0-0.3,0-0.4,0c0,0.1,0.1,0.2,0.1,0.3
		c-0.2,0.2-0.1,0.4,0,0.6c0,0.3,0.1,0.6,0.2,0.8c0,0,0,0.1,0,0.1c0,0.1-0.1,0.2-0.1,0.3c0,0,0,0.1,0,0.2c0,0.2,0,0.4,0,0.6
		c0,0.1,0,0.2-0.1,0.2c-0.2,0-0.2,0.2-0.3,0.4c0,0,0,0.1,0,0.1c0.1,0.2,0.1,0.5,0.1,0.7c0,0,0,0,0,0.1c0,0.1,0.1,0.1,0.2,0.1
		c0,0,0.1-0.1,0.1-0.1c0.1-0.2,0.2-0.4,0.4-0.5c0.2,0.1,0.2,0.3,0.1,0.5c0,0.1-0.1,0.2-0.2,0.3C58,24.8,58,24.9,58,25.1
		c0,0.2-0.1,0.3-0.2,0.4c0,0,0,0-0.1,0c-0.1,0.1-0.1,0.2,0,0.2c0.1,0,0.2,0.1,0.3,0.1c0,0,0.1,0,0.1,0.1c0,0-0.1,0.1-0.1,0.1
		c-0.3,0.2-0.7,0.4-1.1,0.5c-0.5,0.1-0.9,0.1-1.4,0.1c0,0-0.1,0-0.2,0c-0.1,0-0.2,0-0.3,0c-0.5-0.1-1-0.2-1.4-0.2
		c-0.4,0-0.8,0-1.2,0c-0.1,0-0.2,0-0.3,0.1c-0.1,0.2-0.3,0.2-0.6,0.2c-0.4,0-0.8,0-1.2,0.1c-0.2,0-0.4,0-0.6,0c-0.1,0-0.2,0-0.3,0
		c0,0.2,0.2,0,0.3,0.2c0,0-0.1,0-0.1,0c-0.1,0-0.2,0-0.4,0c-0.3,0-0.6,0-0.9,0.1c-0.2,0-0.3,0-0.5,0c-0.2,0-0.3,0-0.4,0.1
		c-0.1,0.1-0.2,0.1-0.3,0.1c-0.1,0-0.2,0-0.2,0.1c0,0.1-0.2,0.1-0.3,0.1c-0.4,0-0.4,0-0.4,0.3c0,0.1,0,0.3,0,0.4
		c0,0.5,0.2,1,0.2,1.4c0,0.2,0,0.4,0,0.6c0,0.2,0.2,0.3,0.4,0.3c0.2,0,0.5,0,0.7,0.1c0,0,0.1,0,0.2,0.1c0.1,0,0.1,0.1,0.2,0.1
		c0,0,0.1,0,0.1,0.1c0.1,0.1,0.2,0.2,0.3,0.2c0,0,0,0.1,0.1,0.1h0c-0.2-0.1-0.5-0.3-0.7-0.4c-0.1,0.1-0.1,0.2,0,0.2
		c0,0.1,0.1,0.2,0,0.3s-0.2,0.1-0.3,0c-0.2-0.1-0.4-0.2-0.6-0.3c-0.2-0.1-0.3-0.2-0.4-0.5c0-0.1-0.1-0.2-0.2-0.3
		c-0.1,0-0.1-0.2-0.1-0.3c0-0.2,0-0.3-0.1-0.4c-0.1-0.2-0.3-0.4-0.2-0.7c0-0.1,0-0.2,0-0.4c0-0.3-0.1-0.5,0-0.8
		c0.1-0.4,0.1-0.7,0.1-1.1c0-0.1,0-0.1,0.1-0.2c0.2,0.2,0.5,0.3,0.8,0.3c0.3,0,0.7,0,1.1,0c0.2,0,0.5,0,0.7,0c0.1,0,0.2,0,0.2-0.1
		s0.1-0.1,0.3-0.1c0,0,0.1,0,0.1,0c0.2,0,0.5,0,0.7,0c0,0,0.1,0,0.2,0c0.2,0,0.4,0,0.6,0c0.1,0,0.2,0,0.3-0.1c0-0.1,0.1-0.1,0.2-0.1
		c0.2,0,0.3,0,0.5-0.1h0c0.3,0,0.6,0,0.8,0c0.6,0,1.1,0,1.6,0c0.2,0,0.5,0,0.7,0c0.1,0,0.3,0,0.4,0c0.2,0,0.4,0,0.6-0.1
		c0,0,0,0,0.1,0c0.3,0,0.5,0,0.8-0.1c0.1,0,0.3,0,0.4-0.2c-0.1-0.1-0.2-0.2-0.3-0.3c0.1-0.1,0.1-0.2,0.2-0.2c0.2,0,0.3-0.2,0.4-0.3
		c0.1-0.1,0.1-0.3,0.1-0.5c-0.4,0-0.4,0-0.5-0.2c0-0.1,0-0.1,0.1-0.2c0-0.2-0.1-0.4-0.2-0.5c-0.1-0.2,0-0.3,0.1-0.5
		c0,0,0.1-0.1,0.1-0.2c0-0.3-0.1-0.6-0.1-0.9c0-0.1,0-0.1,0.1-0.2c0.2,0,0.2-0.1,0.1-0.3c0-0.1,0-0.2,0-0.3c0-0.1,0-0.2,0-0.3
		c0-0.1,0-0.2,0-0.3c0-0.1,0-0.3-0.2-0.3c-0.1,0-0.1-0.1-0.1-0.2c0-0.2,0-0.2-0.2-0.2c-0.1,0-0.1,0-0.2-0.1
		c-0.1-0.2-0.3-0.3-0.5-0.5c0,0-0.2-0.1-0.2,0c-0.2,0-0.3,0.1-0.5,0.2c-0.1,0-0.1,0-0.2,0c-0.1-0.1-0.2-0.3-0.2-0.5
		c0-0.2,0-0.2-0.1-0.3c-0.1,0-0.3-0.1-0.4-0.3c0,0,0,0-0.1-0.1c-0.2-0.2-0.4-0.3-0.7-0.5c0,0,0,0,0.1,0c0.1,0.1,0.3,0.2,0.4,0.3
		c0.1,0,0.3,0.1,0.4,0.1c0,0,0.1,0,0.2,0.1c0.1,0.2,0.4,0.2,0.6,0.2c0.2,0,0.3,0.1,0.4,0.2c0.1,0.2,0.2,0.3,0.4,0.4
		c0.1,0,0.2,0.1,0.3,0.2c0,0,0.1,0,0.2,0c0.1,0,0.3,0,0.4,0.1c0,0,0.1,0,0.2,0c0,0,0-0.1,0-0.1c0-0.1,0-0.1,0-0.2c0,0,0-0.1,0-0.1
		c0-0.1-0.1-0.2-0.2-0.1c-0.1,0-0.1,0-0.2,0.1s-0.1,0-0.2,0c0-0.3,0.1-0.3,0.4-0.2c0.1,0,0.3,0.1,0.4,0c0,0,0-0.1,0-0.2
		c-0.1-0.2,0-0.4-0.1-0.6c0,0,0-0.1,0-0.1c0.1-0.1,0.2-0.2,0.4-0.3c0.2-0.3,0.5-0.4,0.8-0.2c0.2,0.1,0.4,0.2,0.7,0.2
		c0.1,0,0.2,0,0.3,0c0.2,0,0.4,0,0.4,0.3c0.3,0,0.6,0,0.9,0C61.1,17.8,61.2,17.8,61.3,17.9z"/>
	<path d="M53.8,18C53.8,18,53.8,18,53.8,18c-0.2-0.1-0.3-0.2-0.4-0.4c0-0.1,0-0.1-0.1-0.2c0-0.1-0.1-0.1-0.2,0c-0.1,0-0.1,0-0.2,0
		c-0.3,0-0.5-0.1-0.7-0.3c-0.2-0.2-0.5-0.3-0.8-0.3c-0.4,0-0.8-0.1-1.2-0.1c-0.2,0-0.5,0-0.7,0.1c0,0-0.1,0.1-0.2,0.1
		c-0.3,0.1-0.7,0.1-1,0.1c0,0-0.1,0-0.1,0c0,0-0.1,0-0.2,0c-0.1,0-0.2,0-0.4,0c-0.2,0-0.3,0-0.5,0c-0.2,0-0.5,0-0.7,0.1
		c-0.4,0.1-0.8,0.2-1.2,0.4c-0.1,0-0.1,0-0.1,0.2c0,0,0.1,0,0.2,0c0.1,0,0.2,0.1,0.1,0.2c0,0,0,0.1-0.1,0.1
		c-0.2,0.1-0.4,0.3-0.6,0.5c-0.1,0.1-0.3,0.2-0.4,0.3c-0.6,0.3-1,0.7-1.4,1.3c-0.2,0.3-0.4,0.7-0.6,1c-0.1,0.2-0.3,0.5-0.5,0.7
		c0,0.1-0.1,0.2-0.2,0.3c0,0.1,0,0.2-0.1,0.3c0,0.1,0,0.2,0.1,0.2c0,0,0.1-0.1,0.1-0.2c0,0,0.1-0.1,0.1-0.1c0,0,0,0.1,0,0.1
		c0,0.1,0,0.3,0.1,0.4c0.1,0.2,0.2,0.4,0.1,0.6c0,0.1,0,0.2,0,0.2c0,0.1,0,0.3-0.1,0.4C42,24.4,42,24.6,42,24.8c0,0.4,0,0.7,0,1.1
		c0,0.1,0,0.2,0.1,0.3c0.1,0.1,0.2,0.2,0.3,0.3c0.1,0,0,0.1,0,0.2c0,0,0,0-0.1,0c-0.1,0.1-0.2,0.2,0,0.3c0,0,0.1,0.1,0,0.2
		c-0.1,0.2-0.1,0.5,0,0.7c0,0.3,0,0.6,0,0.8c0,0.1,0,0.2,0,0.3c0.1,0.3,0.3,0.6,0.4,0.9c0,0.1,0.1,0.2,0.1,0.3
		c0.2,0.4,0.4,0.8,0.6,1.2c0.1,0.2,0.2,0.4,0.3,0.6h0c-0.1-0.1-0.2-0.2-0.2-0.3c-0.2-0.3-0.4-0.7-0.6-1c-0.1-0.3-0.3-0.5-0.4-0.8
		c-0.1-0.1-0.2-0.3-0.3-0.4s-0.1-0.3-0.2-0.4c-0.1-0.2-0.1-0.5-0.1-0.7c0-0.4,0-0.8,0-1.3c0,0,0-0.1,0-0.2c0-0.2-0.1-0.4,0.1-0.5
		c0,0,0,0,0-0.1c-0.1-0.1-0.1-0.2-0.1-0.3c0-0.1,0-0.3,0-0.5c0-0.2,0-0.4-0.1-0.6c-0.1-0.2-0.1-0.5-0.2-0.8c0-0.2,0-0.5,0-0.7
		c0,0,0-0.1,0-0.1c-0.2,0-0.2,0.2-0.2,0.3c0,0.2,0,0.3-0.1,0.5c0,0,0,0.2,0,0.2c0,0.1,0,0.3,0,0.4v0c0,0.1-0.1,0.2-0.2,0.2
		s-0.1-0.1-0.1-0.3c0-0.2,0.1-0.5,0.1-0.7c0-0.1,0-0.2,0.1-0.3c0.1-0.2,0.1-0.4,0.2-0.6c0-0.1,0.1-0.2,0.2-0.3
		c0.1-0.1,0.2-0.2,0.1-0.3c0,0,0-0.1,0.1-0.2c0-0.1,0.1-0.2,0.1-0.3c0,0,0-0.2,0-0.2c0.1-0.2,0.2-0.5,0.4-0.7
		c0.2-0.2,0.4-0.4,0.5-0.7v0c0.1-0.2,0.3-0.4,0.4-0.6c0.1-0.2,0.3-0.4,0.4-0.6c0,0,0-0.1,0.1-0.1c0.2-0.2,0.5-0.4,0.7-0.5
		c0.1,0,0.2,0,0.3-0.1c0-0.1-0.1-0.1-0.2-0.2c0-0.1,0.1-0.1,0.1-0.2c-0.1-0.2-0.3,0-0.4-0.1c0,0,0,0,0.1-0.1
		c0.2-0.1,0.6-0.2,0.8-0.4c0.1-0.1,0.3-0.1,0.4-0.1c0.2,0,0.3-0.1,0.5-0.1c0.3-0.1,0.6-0.2,0.9-0.2c0,0,0.1,0,0.1,0
		c0.2-0.1,0.4-0.1,0.6-0.2c0.2,0,0.3-0.1,0.5,0c0.1,0,0.3,0,0.4,0c0,0,0.1,0.1,0.2,0.1c0.2,0.1,0.4,0,0.6-0.1
		c0.1-0.1,0.3-0.2,0.6-0.2c0.4,0,0.8,0.1,1.3,0.1c0.1,0,0.2,0,0.3,0c0.2,0,0.3,0,0.5,0c0.2,0.1,0.5,0.1,0.7,0.2c0.1,0,0.2,0,0.3,0
		c0.2-0.1,0.3-0.1,0.4,0.1c0.1,0.2,0.3,0.5,0.4,0.7C53.7,17.8,53.7,17.9,53.8,18z"/>
	<path d="M16.2,18.2c0-0.1,0-0.2,0-0.3c0-0.1,0-0.3,0-0.5c0-0.2,0-0.3,0.2-0.4c0.1-0.1,0.2-0.2,0.2-0.4c0-0.2,0-0.5,0-0.7
		c0-0.2,0-0.5-0.1-0.7c0-0.1-0.2-0.2-0.3-0.2c0,0-0.1,0-0.3,0c0,0.1,0,0.1,0,0.2s0,0.1,0.1,0.2c0,0.2,0,0.3-0.3,0.3
		c-0.6,0-1-0.3-1.6-0.3c-0.1,0-0.1,0-0.2-0.1c0-0.1,0-0.3,0-0.4c0-0.1,0-0.3,0-0.4c0-0.1,0.1-0.2,0.1-0.3c-0.1-0.1-0.3-0.2-0.5-0.2
		c-0.1,0-0.3,0-0.4-0.1c0,0,0,0,0-0.1c0-0.3-0.1-0.5-0.2-0.8c0-0.3,0-0.7,0.3-0.9c0.1-0.1,0.3-0.2,0.5-0.2c0,0-0.1,0.1-0.2,0.1
		c-0.2,0.1-0.3,0.2-0.4,0.4C13,12.5,13,12.7,13,12.9c0,0.2,0.1,0.4,0.2,0.6c0,0.1,0.1,0.2,0.3,0.3c0.3,0,0.6,0.1,0.9,0.2
		c0.4,0.2,0.7,0.4,1.2,0.5c0.3,0.1,0.6,0.3,0.9,0.5c0.1,0,0.1,0.1,0.1,0.2c0,0.1,0,0.2,0,0.3c0,0.1,0.1,0.2,0.1,0.3
		c0,0.4,0,0.8,0,1.2c0,0,0,0.1,0,0.1c0,0.1,0,0.3,0,0.5c0,0.1,0,0.2-0.1,0.3c-0.2,0.2-0.3,0.5-0.3,0.7c0,0,0,0.1,0,0.2
		c0,0.2-0.1,0.5,0,0.7c0,0.3,0,0.7,0,1c0,0.2,0,0.5,0,0.7c0,0.4,0,0.7-0.1,1.1c0,0.1,0,0.2,0,0.3c0,0.2,0,0.4,0,0.6
		c0,0.3-0.1,0.7-0.1,1c0,0.1,0,0.2,0.1,0.2c0.1-0.3,0.1-0.3,0.2-0.3c0.1,0,0.1,0.1,0.1,0.2c0,0.4,0,0.8,0,1.3c0,0,0,0,0,0.1
		c0,0.2,0.1,0.4,0.1,0.6c0,0,0,0.1,0,0.1c0,0.1,0,0.3,0,0.4c0,0.2,0,0.3,0,0.5c0,0.2,0,0.4,0,0.6c0,0.2,0,0.4,0,0.7
		c0,0.3,0,0.6,0.1,0.8c0,0,0,0.1,0,0.2c0,0.2-0.1,0.4,0,0.7c0,0,0,0.1,0,0.1c0,0.3-0.1,0.6,0,0.9c0,0.1,0,0.3,0,0.4
		s-0.1,0.2-0.2,0.1c-0.1,0-0.1-0.1-0.2-0.2c0,0,0,0,0,0.1c0.1,0.2,0,0.4-0.1,0.6c0,0.1-0.1,0.2-0.3,0.2c-0.2,0-0.3,0-0.5,0
		s-0.4,0-0.6,0.1c-0.1,0-0.2,0-0.3,0c-0.3,0-0.7,0.1-0.9,0.2c-0.2,0.1-0.3,0.2-0.2,0.5c0,0.1,0.1,0.3,0.1,0.4s0,0.2,0.1,0.3
		c0.1,0.1,0.2,0.2,0.4,0.3c0.3,0.1,0.6,0.3,0.9,0.5c0.3,0.1,0.6,0.3,0.8,0.4h0c0,0-0.1,0-0.2,0l0,0c0-0.1-0.2-0.1-0.3-0.1l0,0
		c-0.2-0.1-0.4-0.2-0.6-0.3c-0.1,0-0.2-0.1-0.4-0.1s-0.2-0.1-0.4-0.1c0,0-0.1-0.1-0.2-0.1c-0.1-0.1-0.2-0.2-0.3-0.3
		C13,33.9,13,33.9,13,33.7c0-0.1-0.1-0.2-0.1-0.3c-0.1-0.1-0.3-0.3-0.4-0.4c0,0-0.1-0.1,0-0.2c0.1-0.1,0.4-0.2,0.6-0.2
		c0.1,0,0.3,0,0.4,0c0.2,0,0.3-0.1,0.5-0.1c0.6,0,1.2,0,1.7-0.1c0.3,0,0.4-0.2,0.3-0.5c0,0,0,0,0,0c-0.2-0.3-0.1-0.5-0.1-0.7
		c0,0,0-0.1,0.1-0.1c0,0,0.1-0.1,0.1-0.1c-0.1-0.2,0-0.4,0.1-0.5l0,0c0.1-0.2,0.2-0.4,0.3-0.7c0.1-0.2,0.1-0.4,0-0.6
		c0,0,0-0.1,0-0.2c0-0.1,0-0.2,0-0.3c0-0.2,0-0.4,0-0.6c0-0.3,0-0.7,0.1-1c0-0.3,0-0.6-0.1-0.8c-0.1-0.2-0.1-0.3-0.1-0.4
		c0-0.2,0-0.4,0-0.6c0-0.1,0-0.2-0.1-0.1c0,0-0.1,0-0.2,0.1c0,0,0,0.1,0,0.1c0,0.1,0,0.2-0.1,0.2c0-0.1,0-0.2,0-0.4
		c0,0,0.1-0.1,0-0.2c0-0.4,0-0.7,0-1.1c0-0.2,0.1-0.5,0.1-0.8c0,0,0,0,0-0.1c-0.1-0.4,0-0.7,0-1.1c0-0.1,0-0.3-0.1-0.4
		c-0.1-0.1-0.1-0.2,0-0.4c0-0.2,0-0.3,0-0.5c0-0.1,0-0.3,0-0.4c0-0.4,0.1-0.8,0.3-1.3C16.2,18.8,16.3,18.5,16.2,18.2z"/>
	<path d="M24.8,29.7c0,0-0.1-0.1-0.1-0.2c0-0.2-0.1-0.4-0.2-0.6s-0.2-0.4-0.3-0.6c0-0.1,0-0.2-0.1-0.2c-0.2-0.2-0.2-0.5-0.3-0.8
		c0,0,0-0.1,0-0.2c0-0.2,0.1-0.5,0.1-0.7c0-0.3,0.1-0.6,0-0.9c0-0.2,0-0.4,0.1-0.5c0-0.1,0-0.2,0-0.3c0-0.1,0-0.2,0-0.3
		c0-0.1,0.1-0.2,0.1-0.4c0,0,0-0.1,0.1-0.2c0.1-0.2,0.2-0.4,0.2-0.6c0-0.1,0-0.2,0-0.2c0-0.2,0-0.3,0-0.5c0-0.1,0-0.2,0-0.4
		c0-0.2,0.1-0.4,0.3-0.5c0.1-0.2,0.3-0.4,0.3-0.6l0,0c0.2-0.4,0.4-0.9,0.8-1.3c0.3-0.3,0.7-0.6,1-0.9c0.2-0.2,0.5-0.3,0.7-0.5
		c0.2-0.1,0.4-0.2,0.6-0.4c0.1-0.1,0.3-0.3,0.4-0.4c0.1-0.1,0.1-0.2,0.2-0.3c0.1-0.1,0.2-0.1,0.3-0.2c0.4-0.4,0.8-0.6,1.3-0.7
		c0.2,0,0.4-0.1,0.7-0.2c0.2,0,0.2,0,0.3,0.1c0.1,0.2,0.2,0.2,0.4,0.2c0.1,0,0.3,0.1,0.4,0.2h0c0.3-0.2,0.6-0.1,0.9,0.1
		c0.2,0.1,0.4,0.1,0.7,0.2c0-0.1,0-0.2,0-0.3c0.1,0,0.3,0.1,0.4,0.1c0.2,0.1,0.5,0.2,0.7,0.4c0.5,0.3,1,0.5,1.4,0.9
		c0.1,0.1,0.2,0.1,0.3,0.2c0.1,0.1,0.3,0.2,0.4,0.3c0.3,0.3,0.6,0.6,0.9,0.9c0.1,0.1,0.2,0.2,0.3,0.3c0,0,0.1,0,0.1,0.1
		c0.1,0.2,0.4,0.5,0.5,0.8c0,0.1,0.1,0.2,0.2,0.4c0,0.1,0,0.2,0,0.2h0c0-0.1-0.1-0.3-0.2-0.4c0-0.1,0-0.1-0.1-0.2
		c-0.2-0.3-0.4-0.7-0.7-0.9c-0.1-0.1-0.2-0.2-0.3-0.3c-0.3-0.3-0.5-0.5-0.8-0.8c0,0-0.1-0.1-0.2-0.2c-0.1-0.1-0.2-0.1-0.4-0.2
		C36.1,18.1,36,18,35.7,18c-0.1,0-0.3,0-0.4,0c-0.3,0-0.5,0-0.7-0.1c-0.1,0-0.3-0.1-0.4-0.1c-0.2,0-0.4-0.1-0.5-0.2
		c-0.2-0.1-0.4-0.2-0.6-0.3c0,0-0.1-0.1-0.2,0c-0.2,0-0.3,0-0.5,0c0,0-0.1,0-0.1,0c-0.3,0-0.7,0.1-1,0.1c-0.5,0-0.9,0-1.3,0.1
		c-0.2,0-0.4,0.1-0.5,0.2c-0.2,0.2-0.5,0.4-0.8,0.6s-0.6,0.3-0.8,0.5c-0.5,0.3-1,0.7-1.4,1.1c0,0-0.1,0.1-0.1,0.1
		c-0.1,0.1-0.2,0.2-0.3,0.3c-0.1,0.3-0.2,0.5-0.3,0.8c-0.1,0.2-0.1,0.4-0.2,0.6c-0.1,0.1-0.2,0.3-0.2,0.5c0,0.2-0.1,0.4-0.2,0.5
		c-0.1,0.3-0.3,0.7-0.3,1c-0.1,0.3-0.2,0.7-0.4,1c0,0.1-0.1,0.2-0.1,0.3c0,0.2,0,0.5-0.1,0.7c0,0.1,0,0.2,0,0.2c0,0.1,0,0.1,0,0.2
		c0,0.4-0.1,0.7-0.1,1.1c0,0,0,0.1,0,0.2c0,0.3,0.1,0.5,0.3,0.7c0.1,0.1,0.1,0.3,0.2,0.5c0,0.4,0.1,0.7,0.2,1c0,0.1,0,0.2,0,0.3
		C24.8,29.6,24.8,29.7,24.8,29.7z M32,16.8c-0.1,0-0.2-0.1-0.3,0c0,0,0,0.1,0,0.1c0,0,0,0,0.1,0C31.8,17,31.9,16.9,32,16.8z"/>
	<path d="M36.8,26.5c-0.7,0-1.3,0-2,0c-0.4,0-0.8,0.1-1.2,0.1c-0.2,0-0.5,0-0.7,0c0,0,0,0,0,0c-0.4-0.1-0.6,0.1-0.8,0.3
		c-0.1,0-0.1,0.1-0.2,0.1c-0.2,0-0.4,0-0.7,0c-0.1,0-0.2,0-0.3,0c0,0-0.1,0-0.2,0c-0.3,0-0.5,0-0.8,0c0,0-0.1,0-0.2,0
		c-0.2-0.1-0.3,0-0.5,0.1c0,0-0.1,0.1-0.1,0.2c0,0,0,0.1-0.1,0.2c-0.1,0.1,0,0.2,0,0.3c0,0.1,0,0.1,0,0.2c0,0.1,0,0.2,0,0.3
		c0,0.2,0,0.4,0,0.7c0,0.1-0.1,0.2-0.1,0.3c-0.1,0.3-0.1,0.3,0,0.5c0.1,0.1,0.1,0.2,0.2,0.3c0.1,0.1,0.1,0.3,0.1,0.4
		c0,0.1,0,0.2,0.1,0.2c0.1,0,0.2,0,0.3-0.1c0.1-0.1,0.2-0.1,0.3-0.1c0.1,0,0.2,0,0.3,0c0.2,0,0.4,0.1,0.6,0c0,0,0.1,0,0.2,0
		c0.1,0,0.2,0,0.3,0c0.1,0,0.2,0,0.2,0.1c0,0.1,0,0.2,0,0.3c0,0.1,0.1,0.2,0.2,0.3c-0.1,0-0.2,0-0.3,0c-0.1,0-0.3,0-0.4,0.1
		c-0.1,0.1-0.1,0-0.2,0c0,0.2-0.2,0.2-0.4,0.2c0,0,0,0-0.1,0c0,0-0.1,0.1-0.1,0.1c0,0,0.1,0.1,0.1,0.1c0.2,0,0.4,0,0.6,0
		c0.2,0,0.3,0,0.5,0.1c0.1,0.1,0.3,0.1,0.4,0c0,0,0.1,0,0.1,0c0.2,0,0.4,0,0.5,0.2c0,0.1,0.2,0.1,0.3,0.1v0c0,0.1,0,0.2,0.1,0.2
		c0.3,0,0.6-0.1,0.8-0.2c0-0.2-0.3-0.1-0.3-0.2c0-0.1,0.1-0.3,0.2-0.5c0,0,0.1,0,0.1,0c0.2,0.1,0.4,0.1,0.6,0.1
		c0.1,0,0.3-0.2,0.3-0.4c0-0.2,0-0.2,0.2-0.2c0.1,0,0.3,0,0.5,0c0.1,0,0.2,0,0.3,0c0.2,0.1,0.4,0,0.4-0.2c0-0.2,0-0.3,0.1-0.4
		c0-0.1,0.1-0.2,0-0.3c-0.4,0.1-0.7,0.5-1,0.7c-0.1,0-0.1-0.1,0-0.2c0,0,0.1-0.1,0.2-0.2c0,0-0.1-0.1-0.1-0.1
		c-0.1-0.1-0.1-0.2,0-0.3c0.1-0.1,0.1-0.1,0.1-0.3v-0.1c0.1-0.1,0.2-0.2,0.4-0.3c0.1,0,0.2,0,0.2,0.2c0,0.1,0.1,0.2,0.2,0.2
		s0.1,0,0.2,0c0,0,0.1-0.1,0.1-0.1c0,0.1-0.1,0.2-0.1,0.3c0,0.3-0.1,0.6-0.3,0.9c0,0,0,0,0,0.1c-0.1,0.1-0.3,0.2-0.6,0.1
		c-0.1,0-0.1,0-0.2,0.1c0,0,0.1,0.1,0.1,0.2c-0.1,0.1-0.1,0.1-0.2,0.1c-0.2,0-0.4,0.1-0.5,0.3c0,0.1-0.1,0.1-0.2,0.2
		c-0.2,0.1-0.5,0.2-0.7,0.3c-0.2,0-0.4,0.1-0.6,0.2c-0.2,0-0.5,0-0.7-0.2c0,0-0.1-0.1-0.1-0.1c-0.2,0-0.4-0.1-0.6-0.1
		c-0.2-0.1-0.4-0.2-0.7-0.2c-0.3,0-0.7,0-1,0c-0.2,0-0.4,0-0.6-0.2c0,0-0.1,0-0.1,0c-0.3,0-0.5-0.2-0.4-0.5c0-0.1,0-0.1,0-0.2
		c0,0-0.1,0-0.1-0.1c-0.1,0-0.1-0.1-0.1-0.2c0-0.2,0-0.4,0-0.6c0-0.1,0-0.2-0.1-0.3c0-0.1-0.1-0.1-0.2-0.2c-0.1-0.1-0.1-0.2,0-0.3
		c0.1-0.1,0.2-0.3,0.1-0.4c0,0,0-0.1,0-0.1c0-0.2,0-0.4,0-0.7c0-0.2,0-0.3,0-0.5c0-0.1,0-0.2,0-0.3c0-0.2,0-0.3,0.3-0.4
		c0.1,0,0.3,0,0.4,0c0.1,0,0.2,0,0.3,0c0.2,0,0.4,0,0.6,0c0.1,0,0.3,0,0.5,0c0.2,0,0.4,0,0.5-0.1c0,0,0,0,0.1,0c0.2,0.1,0.4,0,0.5,0
		c0.2,0,0.4-0.1,0.5-0.2c0.1-0.1,0.2-0.1,0.3-0.1c0.2,0,0.4,0,0.6,0c0.5,0,0.9,0,1.4,0c0.7,0,1.3,0,2,0
		C36.7,26.4,36.8,26.5,36.8,26.5z M29.4,31.3c0.1,0.1,0.1,0.2,0.2,0.3c0.1,0.1,0.2,0.2,0.4,0.1c0.1,0,0.3-0.1,0.5-0.2
		c0.1,0,0.3-0.1,0.4-0.1c0.1,0,0.1-0.1,0.1-0.2c0,0-0.1-0.1-0.2-0.1c0,0-0.1,0-0.1,0c-0.1,0-0.2,0-0.2,0c-0.1-0.1-0.2-0.1-0.4,0
		c-0.1,0-0.2,0-0.3,0c0,0-0.1,0-0.2,0.1C29.5,31.2,29.5,31.3,29.4,31.3z M35.6,30.2c0.2,0,0.2,0,0.2-0.2
		C35.6,30,35.6,30.1,35.6,30.2z M29.4,30.9L29.4,30.9c0,0,0.1,0,0.1,0v0C29.5,30.9,29.4,30.9,29.4,30.9z M29.9,30.7
		C29.8,30.7,29.8,30.7,29.9,30.7c-0.1,0-0.1,0-0.1,0H29.9C29.8,30.8,29.8,30.8,29.9,30.7z"/>
	<path d="M36.8,26.5c-0.1,0-0.1-0.1-0.2-0.1c-0.7,0-1.3,0-2,0c-0.5,0-0.9,0-1.4,0c-0.2,0-0.4,0-0.6,0c-0.1,0-0.2,0-0.3,0.1
		c-0.1,0.1-0.3,0.2-0.5,0.2c-0.2,0-0.4,0.1-0.5,0h-0.1C31,27,30.8,27,30.7,27c-0.1,0-0.3,0-0.5,0c-0.2,0-0.4,0-0.6,0
		c-0.1,0-0.2,0-0.3,0c-0.1,0-0.3,0-0.4,0c-0.2,0-0.3,0.1-0.3,0.4c0,0.1,0,0.2,0,0.3c0,0.2,0,0.3,0,0.5c0,0.2,0,0.4,0,0.7
		c0,0,0,0.1,0,0.1c0,0.2,0,0.3-0.1,0.4c-0.1,0.1-0.1,0.2,0,0.3c0,0.1,0.1,0.1,0.2,0.2c0.1,0.1,0.1,0.2,0.1,0.3c0,0.2,0,0.4,0,0.6
		c0,0.1,0,0.2,0.1,0.2c0,0,0.1,0,0.1,0.1c0,0.1,0,0.1,0,0.2c0,0.3,0.1,0.5,0.4,0.5c0,0,0.1,0,0.1,0c0.1,0.2,0.3,0.2,0.6,0.2
		c0.3,0,0.7,0,1,0c0.2,0,0.4,0.1,0.7,0.2c0.2,0.1,0.3,0.2,0.6,0.1c0,0,0.1,0,0.1,0.1c0.2,0.2,0.4,0.2,0.7,0.2c0.2,0,0.4-0.1,0.6-0.2
		c0.2-0.1,0.5-0.2,0.7-0.3c0.1,0,0.1-0.1,0.2-0.2c0.1-0.1,0.2-0.3,0.5-0.3c0.1,0,0.1,0,0.2-0.1c0,0-0.1-0.1-0.1-0.2
		c0-0.1,0.1-0.2,0.2-0.1c0.2,0.1,0.4,0,0.6-0.1l0,0c0,0.1-0.1,0.2-0.2,0.2c-0.1,0-0.2,0.1-0.2,0.1c-0.1,0.2-0.2,0.3-0.4,0.4
		c-0.1,0-0.2,0.2,0,0.3c0.1,0.1,0.2,0.2,0.4,0.2c0,0,0.1,0.1,0.1,0.2c0,0.1,0,0.2-0.1,0.2c-0.1,0-0.1,0-0.2-0.2c0,0,0-0.1,0-0.1
		c-0.1,0-0.3,0-0.4-0.1c-0.1-0.1-0.2-0.1-0.4,0c-0.1,0-0.1,0.1-0.2,0.1c-0.1,0-0.1,0.1-0.2,0.1c-0.2,0-0.4,0-0.5,0.2
		c0,0,0.1,0.1,0.1,0.2c0,0,0,0.1,0,0.1c0,0-0.1,0-0.1,0c-0.1,0-0.1,0-0.1-0.1c0,0,0-0.1,0-0.2c-0.1,0-0.2,0-0.3,0
		c-0.4,0-0.7,0-1-0.3c-0.1,0-0.2-0.1-0.3,0c-0.1,0-0.2,0-0.3,0c-0.1-0.4-0.2-0.4-0.6-0.4c-0.1,0-0.2,0-0.2,0c-0.2,0-0.5,0-0.7,0
		c-0.2,0.1-0.4,0-0.6-0.1c-0.1-0.1-0.3-0.3-0.4-0.5c-0.1-0.1-0.2-0.2-0.3-0.4c0,0-0.1-0.1-0.1-0.2c0-0.1,0-0.3-0.1-0.4
		c0-0.1-0.1-0.2-0.1-0.4c0,0,0-0.1-0.1-0.1c-0.1-0.2-0.3-0.3-0.4-0.5c-0.1-0.2-0.2-0.4,0-0.7c0,0,0.1,0,0.2,0
		c0.2-0.1,0.3-0.4,0.2-0.6c0-0.2,0-0.3-0.1-0.5c-0.1-0.1-0.2-0.3-0.3-0.4c-0.1-0.2,0-0.3,0.2-0.4c0.2-0.1,0.4,0,0.6-0.2
		c0.1,0,0.2,0,0.3,0c0.2,0,0.5,0,0.7,0c0,0,0.1,0,0.2,0c0.1,0,0.2,0,0.2,0c0.1,0,0.3,0,0.5,0c0.1,0,0.2,0,0.3,0c0.3,0,0.7,0,1-0.1
		c0.1,0,0.3,0,0.5-0.1c0,0,0.1,0,0.2,0c0.4,0,0.8,0,1.3,0c0.1,0,0.3,0,0.5,0c0.7,0,1.3,0,2,0c0.4,0,0.7,0.1,1,0.1c0.2,0,0.4,0,0.6,0
		c0.4,0,0.7,0,1.1-0.1c0.1,0,0.3-0.1,0.4-0.2c0,0,0,0,0.1,0c-0.1,0.1-0.3,0.2-0.5,0.3c-0.1,0-0.2,0.1-0.4,0.1
		c-0.1,0-0.3,0.1-0.4,0.1c-0.4,0-0.8,0-1.2,0C37,26.6,36.9,26.5,36.8,26.5z"/>
	<path d="M13.7,11.8c-0.2,0-0.3,0.1-0.5,0.2c0-0.1,0.1-0.2,0.3-0.3c0.2,0,0.4-0.1,0.6-0.3c0.1,0,0.2,0,0.2,0c0.1,0,0.2,0,0.3-0.1v0
		c-0.2-0.2-0.2-0.2,0-0.4c0.1-0.1,0.2-0.2,0.4-0.3c0,0,0.1-0.1,0.2-0.1c0.5,0,0.9,0,1.3,0.1c0.2,0.1,0.5,0.2,0.7,0.3
		c0.1,0,0.3,0,0.4,0c0.3-0.2,0.3-0.1,0.5,0.1c0.1,0.1,0.2,0.2,0.3,0.3c0.1,0.1,0.2,0.1,0.2,0.3c0,0,0,0.1,0.1,0.1
		c0.3,0.1,0.5,0.3,0.7,0.5c0,0,0,0.1,0.1,0.1c0,0,0.1,0.1,0.2,0.1c0.1,0,0.2,0.1,0.2,0.2c0,0.1,0,0.2,0.1,0.3
		c0.1,0.1,0.2,0.3,0.3,0.4c0,0,0.1,0.1,0.1,0.2c0,0.1,0.1,0.2,0.2,0.3c0.2,0.2,0.4,0.4,0.6,0.6c0.1,0.1,0.1,0.3,0.1,0.4
		c0,0.2,0,0.4,0,0.6c0,0.5-0.1,0.9-0.1,1.4c0,0.2,0,0.3,0,0.5c0,0.2,0,0.4-0.1,0.6c0,0.1-0.1,0.2-0.2,0.1c0,0-0.1,0-0.2,0
		c-0.1,0-0.1,0.1-0.2,0.1c-0.1,0-0.2,0-0.2-0.1c0-0.1,0-0.2-0.1-0.3c0,0,0,0-0.1,0c-0.1,0.2-0.2,0.5-0.1,0.7c0,0.1,0.2,0.3,0.4,0.3
		c0,0,0.1,0,0.1,0c0.1,0.2,0,0.3,0,0.5c0-0.1-0.1-0.2-0.2-0.2c-0.2-0.1-0.4-0.3-0.3-0.6c0,0,0-0.1,0-0.2c0-0.3,0.1-0.5,0.1-0.8
		c0-0.1,0-0.2,0-0.3c0-0.2,0-0.3,0-0.5c0,0,0-0.1,0.1-0.2c0,0.1,0.1,0.2,0.2,0.3c0.1-0.1,0.2-0.1,0.3-0.2c0,0,0-0.1,0.1-0.1
		c0-0.1,0.1-0.3,0.1-0.5c0-0.2,0-0.4,0-0.6c0-0.2,0-0.4,0-0.7c0-0.1,0-0.2-0.1-0.3c-0.3-0.3-0.5-0.7-0.8-0.9
		c-0.2-0.2-0.3-0.6-0.7-0.6l0,0c-0.1-0.1-0.2-0.3-0.3-0.4c-0.1-0.2-0.2-0.3-0.4-0.4c-0.1,0-0.2-0.1-0.2-0.2c0,0-0.1-0.1-0.2-0.2
		c0,0-0.1-0.1-0.2-0.1c-0.2,0-0.4,0-0.6,0c-0.1,0-0.3,0-0.4-0.1c-0.3,0-0.6,0-0.8-0.2c0,0-0.1,0-0.1,0c-0.3-0.1-0.5-0.2-0.6-0.2
		c-0.1,0-0.2-0.1-0.3,0c-0.2,0-0.4,0.1-0.6,0.1c-0.2,0.1-0.2,0.2-0.1,0.4c0.1,0.2-0.1,0.5-0.3,0.4c-0.1,0-0.3,0-0.4,0.1
		C13.9,11.8,13.8,11.8,13.7,11.8z"/>
	<path d="M45.9,43.2c0-0.4,0.3-0.5,0.6-0.7c0.1,0,0.2,0,0.3-0.1c0.2,0,0.4-0.1,0.5-0.2c0.1-0.1,0.2-0.1,0.4-0.1c0.1,0,0.3,0,0.5,0
		c0.1,0,0.2,0,0.3,0c0.3,0,0.7,0,1,0c0.6,0,1.2,0,1.7,0c0.3,0,0.6,0,0.8,0c0.3,0,0.5,0,0.7,0.2c0.1,0.1,0.2,0.1,0.4,0.2
		c0,0,0.1,0,0.2,0c0.2,0,0.5,0,0.7,0c0,0,0.1,0,0.2,0c0.2,0,0.3,0,0.3,0.2c0,0.4,0.3,0.7,0.5,0.9c0.1,0.3,0.2,0.6,0.1,0.9
		c0,0,0,0.1,0,0.1c-0.2,0.1-0.3,0.4-0.4,0.6c-0.1,0.2-0.6,0.4-0.8,0.4c-0.4,0-0.7,0-1.1-0.1c-0.1,0-0.2,0-0.3,0.1
		c-0.1,0-0.2,0.1-0.4,0.1c-0.2,0-0.3,0.2-0.3,0.4c0,0,0,0.1,0,0.2c0,0,0,0.1,0,0.1c0,0.4-0.2,0.7-0.4,1c-0.1,0.1-0.1,0.3-0.1,0.4
		c0,0,0,0.1,0,0.2c-0.1,0.2-0.2,0.4-0.2,0.7c0,0,0,0.1,0,0.1c-0.1,0.1,0,0.3,0,0.4c0,0.2,0,0.4,0,0.6c-0.1,0.4-0.2,0.9-0.2,1.3
		c0,0.2,0,0.3,0,0.5c0,0.1,0,0.1-0.1,0.2c0,0.1,0,0.1,0,0.2c0,0.2-0.1,0.5-0.3,0.7c-0.1,0.1-0.1,0.2-0.1,0.3c0,0.3,0,0.5-0.2,0.7
		l0,0c-0.2,0.4-0.5,0.7-0.8,1.1c-0.1,0.1-0.3,0.3-0.3,0.5c0,0.1-0.1,0.1-0.2,0.1c0,0-0.1,0-0.1,0c-0.1,0-0.2,0-0.3,0.1
		c-0.1,0.2-0.2,0.4-0.3,0.6c0,0.2-0.1,0.3-0.3,0.5c-0.1,0.1-0.3,0.3-0.4,0.6c-0.3,0.6-0.5,1.2-0.7,1.8c-0.2,0.4-0.4,0.8-0.6,1.3
		c0,0.1-0.1,0.1-0.1,0.2v0c0-0.1,0.1-0.2,0.1-0.3c0.1-0.3,0.3-0.6,0.4-0.9c0.1-0.4,0.3-0.7,0.5-1.1c0-0.1,0.1-0.3,0.2-0.4
		c0.1-0.4,0.3-0.7,0.5-1.1c0,0,0.1-0.1,0.1-0.1c0.1,0,0.2-0.1,0.2-0.2c0.1-0.2,0.2-0.5,0.4-0.7c0,0,0.1-0.1,0.1-0.1
		c0.3,0,0.5-0.3,0.7-0.6c0.1-0.1,0.2-0.3,0.3-0.4c0.2-0.3,0.4-0.7,0.6-1.1c0.1-0.2,0.2-0.5,0.3-0.7c0,0,0-0.1,0-0.1
		c0-0.3,0.1-0.5,0.2-0.7c0-0.2,0.1-0.3,0.1-0.5c0-0.1,0-0.2,0-0.3c0.2-0.4,0.1-0.7,0.2-1.2c0,0,0-0.1,0-0.1c-0.1-0.3,0-0.7,0-0.9
		c0-0.3,0.3-0.7,0.3-1c0,0,0-0.1,0.1-0.2c0-0.1,0.1-0.2,0.2-0.3c0-0.1,0.1-0.2,0-0.2c-0.1-0.1-0.1-0.1,0-0.3
		c0.1-0.2,0.2-0.5,0.4-0.7c0.1-0.1,0.1-0.3,0.3-0.4c0.2-0.1,0.5-0.2,0.7-0.2c0,0,0.1,0,0.1,0c0.3,0,0.6,0,0.9,0c0,0,0.1,0,0.2,0
		c0.1,0,0.2,0,0.2-0.1c0-0.1,0.1-0.2,0.3-0.2c0.1,0,0.1-0.1,0.2-0.2c0,0,0-0.1,0.1-0.1c0.1-0.1,0.1-0.2,0.1-0.3c0-0.1,0-0.2,0-0.3
		c0-0.1,0-0.3-0.1-0.3c-0.1-0.1-0.1-0.3-0.2-0.4c-0.1-0.1-0.2-0.2-0.3-0.3c0,0,0-0.1-0.1-0.1c-0.2-0.1-0.4-0.2-0.7-0.2
		c0,0-0.1,0-0.2,0c0,0-0.1,0-0.2,0c-0.2,0-0.4-0.1-0.6-0.3c0-0.1-0.1-0.1-0.2-0.2c-0.4-0.1-0.9-0.1-1.3-0.1c-0.3,0-0.6,0-0.8,0
		c-0.4,0-0.9,0-1.3,0c-0.1,0-0.1,0-0.2,0c-0.1,0-0.3,0-0.4,0s-0.2,0.1-0.2,0c-0.2,0-0.4,0-0.6,0.1c-0.2,0.1-0.5,0.2-0.7,0.3
		c-0.4,0.1-0.7,0.3-0.7,0.7l0,0C45.9,43.3,45.9,43.3,45.9,43.2z"/>
	<path d="M37,60.7c0.3,0,0.5,0.2,0.6,0.4c0.2,0.3,0.4,0.6,0.2,1c0,0,0,0.1,0,0.1c0,0.1,0,0.3-0.1,0.4c-0.1,0.1-0.1,0.2,0.1,0.3
		c0.2,0.1,0.4,0.1,0.6,0.1c0.2,0,0.4,0,0.6,0c0.1,0,0.2,0,0.3,0c0,0,0.1,0,0.1,0c0.2,0.1,0.4,0,0.6,0c0.1,0,0.2-0.1,0.3-0.2
		c0.1-0.1,0.3-0.2,0.5-0.1c0.2,0,0.3,0,0.5-0.2c0,0,0-0.1,0.1-0.1c0.3-0.3,0.6-0.6,0.9-0.8c0.1-0.1,0.2-0.1,0.2-0.3
		c0,0,0-0.1,0.1-0.2c0-0.1,0.1-0.1,0.2-0.2c0-0.1,0.1-0.2,0-0.3c0,0,0-0.1,0-0.1c0.1-0.1,0.2-0.3,0.3-0.5c0,0,0.1-0.1,0.1-0.1
		c0.1-0.1,0.1-0.2,0-0.3C43,59.5,43,59.4,43,59.3c0.1,0.1,0.2,0.3,0.4,0.4c0,0,0.1,0.1,0.1,0.2c0,0,0,0.1,0,0.1s-0.1,0-0.1,0
		c0,0,0,0-0.1,0c-0.1-0.1-0.2,0-0.2,0c-0.1,0.2-0.2,0.4-0.2,0.7c0,0.2-0.1,0.4-0.2,0.6c0,0,0,0.1-0.1,0.1c-0.2,0.3-0.3,0.6-0.5,0.8
		c-0.3,0.5-0.4,1-0.1,1.5c0,0.1,0.1,0.2,0.1,0.3c-0.2,0-0.5,0-0.6-0.2c0-0.1-0.1-0.2-0.1-0.3c0-0.1-0.1-0.1-0.2-0.2
		c-0.2,0-0.4-0.1-0.7-0.2c-0.2,0.2-0.3,0.5-0.4,0.8c-0.1,0-0.2,0-0.2-0.1c-0.2-0.1-0.2-0.1-0.3,0.1c-0.1,0.2-0.2,0.2-0.4,0.2
		c-0.1,0-0.2-0.1-0.2-0.3c0-0.1,0-0.2,0-0.3c-0.4,0.1-0.5,0.4-0.8,0.6c-0.1,0-0.1-0.1-0.1-0.2c0.1-0.2,0-0.5,0.4-0.5c0,0,0,0,0-0.1
		s0-0.1,0-0.1c0,0-0.1,0-0.1,0c-0.1,0-0.2,0.1-0.3,0.2c-0.1,0-0.2,0.1-0.3,0.1c-0.1,0-0.2,0-0.4,0.1c-0.1,0-0.2,0-0.2,0
		c-0.1,0-0.2,0-0.2-0.2s0-0.2-0.2-0.3c-0.1,0-0.1-0.1,0-0.2c0,0,0.1-0.1,0.1-0.1c0.2-0.1,0.4-0.2,0.6-0.3c0.2-0.1,0.2-0.3,0.2-0.5
		c0,0,0-0.1,0-0.1c0.1-0.1,0-0.3,0-0.5c-0.1-0.3-0.2-0.6-0.6-0.7c0,0-0.1-0.1-0.2-0.1C36.9,60.7,36.9,60.7,37,60.7z"/>
	<path d="M16.2,18.2c0.1,0.3,0,0.7,0,0.9c-0.1,0.4-0.2,0.8-0.3,1.3c0,0.1,0,0.3,0,0.4c0,0.2,0,0.3,0,0.5c0,0.1,0,0.2,0,0.4
		C16,21.7,16,21.9,16,22c0,0.4,0,0.7,0,1.1c0,0,0,0,0,0.1c0,0.3-0.1,0.5-0.1,0.8c-0.1,0.4-0.1,0.7,0,1.1c0,0.1,0,0.1,0,0.2
		c0,0.1,0,0.2,0,0.4c0.1,0,0.1-0.1,0.1-0.2c0,0,0-0.1,0-0.1c0,0,0.1-0.1,0.2-0.1c0.1,0,0.1,0.1,0.1,0.1c0,0.2,0,0.4,0,0.6
		c0,0.1,0,0.2,0,0.3c0.1,0.3,0.1,0.6,0.1,0.8c0,0.3,0,0.7-0.1,1c0,0.2,0,0.4,0,0.6c0,0.1,0,0.2,0,0.3c0,0,0,0.1,0,0.2
		c0.1,0.2,0.1,0.4,0,0.6c-0.1,0.2-0.2,0.4-0.3,0.7l0,0c-0.1,0.1-0.3,0.3-0.1,0.5c0,0,0,0.1-0.1,0.1c0,0.1-0.1,0.1-0.1,0.2
		c0,0.2,0,0.4,0.1,0.7l0,0c0.1,0.2,0,0.5-0.3,0.5c-0.6,0-1.2,0-1.7,0.1c-0.2,0-0.4,0-0.5,0.1c-0.1,0-0.3,0.1-0.4,0
		c-0.1,0-0.5,0-0.6,0.2c0,0.1,0,0.1,0,0.2c0.1,0.1,0.3,0.3,0.4,0.4c0,0.1,0.1,0.2,0.1,0.3s0,0.2,0.1,0.3c0.1,0.1,0.2,0.2,0.3,0.3
		c0,0,0.1,0.1,0.2,0.1c0.1,0,0.2,0.1,0.4,0.1s0.2,0.1,0.4,0.1c0.2,0.1,0.4,0.2,0.6,0.3c0,0-0.1,0-0.1,0c-0.2,0-0.4-0.1-0.5-0.2
		c-0.4-0.1-0.7-0.3-1-0.5c-0.1,0-0.3-0.2-0.3-0.3c-0.1-0.2-0.2-0.4-0.4-0.5c-0.1,0-0.1-0.1-0.2-0.1c-0.1-0.1-0.1-0.2-0.1-0.4
		c0-0.2,0-0.5,0-0.7c0-0.2,0-0.2,0.2-0.3c0.1,0,0.1,0,0.2,0c0.2-0.1,0.4-0.1,0.6,0c0,0,0.1,0,0.1,0c0.3-0.1,0.3-0.1,0.4,0.2
		c0,0,0.1,0.1,0.1,0.1c0.2,0,0.4,0,0.5,0c0,0,0.1,0,0.2,0c0.2-0.1,0.2-0.1,0.4,0l0,0c0.1,0,0.3,0,0.4-0.2c-0.1-0.1-0.3-0.3-0.5-0.2
		c-0.1,0-0.2,0-0.3-0.1c0.2-0.1,0.4-0.2,0.6-0.1c0.1,0,0.2,0,0.3,0c0.1-0.1,0.1-0.2,0-0.4c0-0.1,0-0.2,0-0.3c0.1,0,0.1-0.1,0.1-0.3
		c0-0.2,0-0.3,0-0.5c0-0.1,0-0.2,0-0.2c0,0,0-0.1,0-0.2c0-0.2,0-0.3,0.2-0.2c0,0,0.1,0,0.2,0c0.1,0,0.2,0,0.2-0.2
		c0-0.1,0-0.2-0.1-0.3c0-0.1,0-0.2,0-0.2c0.1-0.2,0.1-0.4,0-0.6c-0.1-0.1-0.1-0.3,0-0.4c0-0.1,0-0.2,0-0.3c0-0.1,0-0.3,0.1-0.5
		c0-0.1,0-0.2,0-0.3c-0.1-0.1-0.2-0.3-0.2-0.5c0-0.1,0-0.2-0.2-0.2c-0.4-0.1-0.4,0-0.3-0.4c0-0.3,0-0.7,0.1-1c0,0,0,0,0-0.1
		c0-0.3,0-0.6,0.1-0.8c0-0.3,0.1-0.6,0-0.9c0,0,0-0.1,0-0.2c0-0.3,0-0.6,0-0.8c0,0,0-0.1,0-0.1c-0.1-0.2-0.1-0.5,0-0.7
		c0-0.1,0-0.2,0-0.3c-0.1-0.2,0-0.5,0-0.7c0-0.3,0-0.5,0-0.8c0-0.1,0-0.3,0.1-0.4c0.2-0.1,0.2-0.3,0.2-0.5
		C16.1,18.3,16.1,18.2,16.2,18.2z"/>
	<path d="M24.8,29.7c0,0,0-0.1,0-0.1C24.8,29.6,24.8,29.7,24.8,29.7c0.1,0.2,0.2,0.4,0.3,0.6c0.1,0.2,0.2,0.4,0.4,0.6
		c0,0.1,0.1,0.1,0.1,0.2c0,0.3,0,0.6,0,0.8c0,0.1,0.1,0.2,0.1,0.3c0.1,0.1,0.2,0.2,0.3,0.4c0.2,0.3,0.4,0.7,0.3,1.1
		c0,0.1,0,0.2,0,0.3c0.2,0.3,0.4,0.6,0.7,0.7c0,0,0.1,0.1,0.2,0.1c0.1,0,0.3,0.1,0.4,0.2c0.3,0.2,0.7,0.3,1.1,0.4
		c0.3,0.1,0.7,0.2,1,0.3c0.3,0.1,0.6,0.2,0.9,0.2c0,0,0.1,0,0.1,0c0.1,0.1,0.3,0.1,0.5,0.1c0.1,0,0.3,0,0.5,0c0.1,0,0.2,0,0.3-0.1
		c0.1-0.2,0.3-0.2,0.6-0.2c0,0,0.1,0,0.1,0c0.1,0,0.3-0.1,0.5-0.1c0,0,0.1,0,0.2-0.1c0.1-0.2,0.4-0.2,0.6-0.4c0.1,0,0.2-0.1,0.2-0.3
		c0-0.2,0.1-0.3,0.3-0.3c0.3,0,0.6,0,0.8-0.3c0,0,0.2-0.1,0.2-0.1c0.2-0.1,0.4-0.2,0.7-0.4c0.1,0,0.3-0.1,0.4-0.2
		c-0.2,0.1-0.5,0.3-0.7,0.5c-0.3,0.1-0.5,0.2-0.7,0.5c0,0.1-0.2,0.1-0.3,0.1c-0.1,0-0.2,0-0.3,0c-0.2,0-0.2,0-0.3,0.2
		c0,0.1,0,0.1-0.1,0.2c0,0-0.1,0.1-0.2,0.1c-0.2,0.1-0.3,0.2-0.4,0.3c0,0.1-0.1,0.1-0.3,0.1c-0.3,0-0.6,0.1-0.8,0.3
		c-0.2,0.1-0.4,0.3-0.7,0.3c0,0-0.1,0-0.1,0c-0.3,0.1-0.7,0.1-0.9-0.2c-0.1-0.1-0.2-0.1-0.3-0.1c-0.2,0-0.4,0-0.6,0c0,0-0.1,0-0.1,0
		c-0.2-0.2-0.5-0.2-0.7-0.3c-0.4-0.2-0.8-0.2-1.2-0.4c0,0-0.1,0-0.1,0c-0.3,0-0.6-0.1-0.8-0.3c-0.1-0.1-0.2-0.1-0.3-0.1
		c-0.3-0.1-0.4-0.2-0.4-0.5c0-0.2-0.1-0.4-0.3-0.5c-0.1-0.1-0.3-0.2-0.4-0.3c-0.2-0.2-0.3-0.4-0.5-0.6c-0.2-0.3-0.1-0.6,0-0.8
		c0-0.1,0.2-0.1,0.3-0.1c0-0.2,0-0.5-0.1-0.7c0-0.1-0.1-0.2-0.2-0.2c-0.1,0-0.2-0.1-0.2-0.2c0.1-0.1,0.1-0.2,0.1-0.4
		C24.8,30.1,24.8,29.9,24.8,29.7z"/>
	<path d="M45.7,60.3L45.7,60.3c0,0.2-0.1,0.3-0.2,0.5c0,0,0,0.1,0,0.1c0,0.1,0,0.1,0.1,0.1c0,0,0.1,0,0.1,0c0.1,0,0.1,0.1,0,0.1
		c0,0-0.1,0.1-0.1,0.2c0,0,0,0.1-0.1,0.2c0,0,0,0.1-0.1,0.1c-0.2-0.1,0-0.3-0.1-0.4c0,0,0,0-0.1,0.1c-0.3,0.5-0.6,0.9-0.8,1.4
		c-0.1,0.2-0.2,0.3-0.4,0.5c-0.2,0.2-0.4,0.4-0.6,0.6c-0.4,0.4-0.8,0.8-1.1,1.3c0,0-0.1,0.1-0.1,0.1c0,0,0,0-0.1,0
		c-0.2,0.1-0.2,0.2-0.1,0.4c-0.1,0.1-0.2,0.1-0.3,0.1c-0.3,0-0.7,0-1,0.1c-0.1,0-0.3,0-0.5,0c-0.4,0-0.8,0-1.2,0
		c-0.3,0-0.5,0-0.7,0.1c-0.1,0-0.2,0.1-0.4,0.1c0,0-0.1,0-0.2,0c0,0-0.1,0-0.1,0c-0.3,0-0.5-0.1-0.7-0.2c-0.4-0.2-0.7-0.4-1.2-0.5
		c-0.2-0.1-0.4-0.2-0.6-0.2c0,0-0.1,0-0.1-0.1C34.9,65,34.6,65,34.4,65c-0.1,0-0.2,0-0.3,0c-0.2,0-0.3-0.1-0.4-0.2c0,0,0-0.1,0-0.2
		c0-0.2-0.1-0.4-0.2-0.6c0-0.1-0.1-0.1-0.2-0.2c-0.1-0.1-0.2-0.2-0.1-0.4c0-0.1,0-0.2,0-0.3c0-0.5,0-0.9,0.3-1.2
		c0.1-0.1,0.2-0.3,0.3-0.5c0-0.1,0.1-0.2,0.2-0.2h0c-0.2,0.3-0.3,0.6-0.5,0.8c-0.1,0.1-0.1,0.2-0.1,0.3c0,0.1,0,0.2,0,0.3
		c-0.1,0.4,0,0.7,0.3,0.9c0.2,0.2,0.3,0.4,0.3,0.7c0,0.1,0,0.2,0.2,0.3c0.4,0.1,0.7,0.3,1,0.6c0,0,0,0,0.1,0c0.2,0,0.3,0,0.4,0.1
		c0,0,0.1,0.1,0.2,0.1c0.1,0.1,0.3,0.2,0.5,0.3c0.4,0.1,0.7,0.3,1,0.5c0.1,0.1,0.3,0.1,0.5,0.2c0.1,0,0.2,0,0.2,0
		c0.1,0,0.3,0,0.4-0.1c0.1,0,0.2,0,0.2,0c0.3-0.1,0.6-0.2,0.8-0.1c0.3,0,0.6,0,0.9,0c0.3,0,0.5,0,0.8-0.1c0.1,0,0.3,0,0.4,0
		c0.1,0,0.2-0.1,0.2-0.2c0-0.1,0-0.1,0.1-0.2c0.2-0.2,0.4-0.3,0.5-0.6c0,0,0,0,0.1,0c0.1,0,0.1-0.1,0.2-0.2c0.5-0.5,1-1,1.4-1.6
		c0.2-0.3,0.4-0.6,0.6-0.8c0.3-0.5,0.6-1.1,0.9-1.6C45.6,60.4,45.7,60.3,45.7,60.3z"/>
	<path d="M38.1,46.3c0,0-0.1-0.1-0.2-0.2c-0.1-0.2-0.4-0.2-0.7-0.3c-0.1,0-0.2,0-0.4,0.1c0,0,0,0-0.1,0c-0.3,0-0.6,0-0.9,0
		c-0.1,0-0.2-0.1-0.2-0.2c0-0.1,0-0.2,0.1-0.2c0,0,0,0,0,0c0,0-0.1,0-0.1,0c-0.3,0-0.6,0-0.8-0.1h0c-0.4,0-0.9,0-1.3-0.1
		c-0.1,0-0.2,0-0.4,0c-0.1,0-0.2,0-0.3,0c-0.3,0.2-0.6,0.2-0.8,0c-0.3-0.1-0.4,0-0.6,0.1c0,0,0,0-0.1,0.1v0c0.1-0.1,0.2-0.2,0.3-0.3
		c0,0,0.1,0,0.1,0c0.1,0,0.2,0,0.3-0.1c0.1-0.2,0.3-0.2,0.5-0.1c0.1,0,0.2,0,0.3,0c0.3,0,0.6,0,0.8,0c0.1,0,0.2,0,0.3,0
		c0.1,0,0.2-0.1,0.3-0.2c0.1-0.1,0.2-0.1,0.4,0c0.1,0,0.2,0.1,0.2,0.1c0.3,0,0.6,0,0.8,0c0.1,0,0.2,0,0.3,0.1c0.1,0,0.2,0.1,0.3,0.1
		c0.1,0,0.1,0.1,0.2,0.1c0.1,0.1,0.1,0.2,0.2,0.3c0,0-0.1,0-0.1,0c-0.1,0-0.3,0-0.5,0c-0.1,0-0.2,0-0.2-0.1c-0.2-0.1-0.3-0.1-0.5,0
		c0.1,0.1,0.3,0.2,0.5,0.1c0.2,0,0.4,0.1,0.6,0.2c0.1,0.1,0.2,0.2,0.4,0.2c0.1,0,0.3,0,0.5,0c0.2,0,0.3-0.1,0.5,0
		c0.2,0,0.2,0,0.3,0.2c0,0.1,0,0.2,0.2,0.3l0,0C38.1,46.3,38.1,46.3,38.1,46.3z M35.8,45.8c0,0.1,0,0.2,0.1,0.2c0.1,0,0.1,0,0.2-0.1
		C35.9,45.8,35.9,45.8,35.8,45.8z"/>
	<path d="M43.1,59.3c0,0.1,0,0.2,0.1,0.2c0.1,0.1,0.1,0.2,0,0.3c0,0-0.1,0.1-0.1,0.1c0-0.2,0-0.4,0-0.6c0-0.1,0-0.2-0.1-0.4
		c0-0.1,0-0.2,0-0.2c0-0.1-0.1-0.3-0.2-0.5c0,0,0-0.1-0.1-0.1c-0.2-0.1-0.2-0.3-0.3-0.5c-0.1-0.4-0.2-0.8-0.2-1.3c0,0,0-0.1,0-0.1
		c0-0.1-0.1-0.2-0.2-0.2c-0.2,0-0.3-0.1-0.5-0.2c-0.1-0.2-0.3-0.4-0.3-0.7c0-0.1-0.1-0.3-0.1-0.4c-0.1-0.2-0.1-0.5-0.2-0.7
		c0,0,0-0.1,0-0.2c0-0.1-0.1-0.2-0.1-0.4c0,0,0-0.1,0-0.1c-0.2,0-0.1,0.2-0.2,0.3c-0.1,0-0.1-0.1-0.1-0.1c0-0.2,0-0.5,0-0.7
		c0,0,0-0.1,0-0.2c0.1-0.2,0-0.3-0.1-0.5c0-0.1-0.1-0.2-0.1-0.4c0-0.1-0.1-0.3-0.1-0.5c0,0,0-0.1,0-0.1c0-0.2-0.1-0.4-0.3-0.5l0,0
		c0,0,0,0,0,0c0.1-0.2,0-0.4,0-0.6c-0.1-0.1-0.1-0.3-0.2-0.4c-0.1-0.2-0.2-0.3-0.3-0.5c-0.1-0.2-0.2-0.3-0.2-0.6
		c0-0.2,0-0.4-0.1-0.7h0c0,0,0,0.1,0,0.1c0.1,0.3,0.1,0.7,0.4,0.9c0,0,0,0.1,0,0.1c0,0.3,0.2,0.6,0.4,0.9c0.1,0.2,0.3,0.4,0.2,0.7
		c0,0,0,0.1,0,0.2c0,0.1,0.1,0.2,0.1,0.3c0,0.2,0.1,0.3,0.2,0.5c0,0,0,0,0,0.1c0.1,0.3,0.3,0.7,0.4,1c0,0,0,0,0,0.1
		c0.1,0.2,0.2,0.5,0.1,0.7c0,0.2,0,0.4,0.1,0.6c0.1,0.1,0.1,0.3,0,0.4c0,0.1,0,0.1,0,0.2c0,0.2,0.1,0.3,0.2,0.5
		c0.1,0.3,0.2,0.4,0.5,0.4c0.1,0,0.2,0,0.3,0c0.2,0.1,0.4,0.2,0.6,0.2l0,0c0,0-0.1,0.1-0.1,0.2c-0.1,0.2-0.2,0.4-0.3,0.6
		c0,0.3,0,0.5,0.2,0.7c0,0.1,0.1,0.2,0.2,0.3c0.1,0.2,0.2,0.5,0.3,0.7c0,0,0,0.1,0,0.2C43,58.9,43,59.1,43.1,59.3z"/>
	<path d="M48.5,31.7c0,0,0-0.1-0.1-0.1C48.5,31.6,48.5,31.6,48.5,31.7c0.1,0,0.1,0,0.2,0c0.4,0,0.8,0.1,1.2,0
		c0.3-0.1,0.7-0.2,1.1-0.2c0.3,0,0.7,0,1,0c0.2,0,0.3-0.2,0.3-0.4c0-0.3-0.1-0.6,0-0.9c0.1-0.2,0.2-0.5,0.3-0.7
		c0-0.1,0.1-0.1,0.2-0.3c0.1,0.3,0.1,0.6,0,0.8c-0.1,0.2-0.1,0.5-0.2,0.7c0,0,0,0.1,0,0.2c0.1-0.1,0.2-0.2,0.3-0.3
		c0,0,0.1-0.1,0.1-0.1c0,0,0.1-0.1,0.2,0c0,0.1,0,0.2,0,0.3c0,0.1-0.1,0.2-0.2,0.3c-0.2,0.1-0.2,0.3-0.3,0.4c0.2,0.1,0.3,0.1,0.4,0
		c0,0,0.1-0.1,0.1-0.2c0.1-0.1,0.2-0.2,0.3-0.4c0.1-0.1,0.2-0.3,0.1-0.5c0-0.2,0-0.4,0.1-0.6c0,0,0,0,0,0c0.2-0.1,0.3-0.3,0.5-0.3
		l0,0c0,0,0,0-0.1,0.1C54,29.5,54,29.8,54,30.1c0,0.1,0,0.2,0,0.3c-0.1,0.3-0.2,0.5-0.4,0.7c-0.3,0.4-0.7,0.6-0.9,1l0,0
		c-0.1,0.1-0.2,0.2-0.4,0.3c-0.2,0.2-0.3,0.2-0.5,0c0-0.1-0.1-0.1-0.3-0.1c-0.1,0-0.2,0-0.3,0c0,0-0.1-0.1-0.1-0.1s0-0.1,0.1-0.2
		c0,0,0.1-0.1,0.2-0.1c0,0,0-0.1,0.1-0.1c0,0-0.1,0-0.1,0c-0.1,0-0.2,0-0.3,0c-0.2,0-0.4,0-0.6,0.1c0,0,0,0-0.1,0
		c-0.1,0-0.2,0-0.4,0.1C49.4,31.9,49,31.9,48.5,31.7z"/>
	<path d="M41.3,41.7c-0.1,0-0.3,0-0.4,0.1c-0.2,0.1-0.4,0.1-0.6,0.1c-0.1,0-0.2,0-0.4,0c0,0,0,0-0.1,0c-0.2,0-0.3,0-0.5,0
		c-0.2,0.1-0.5,0.1-0.7,0.2c0,0-0.2,0-0.3,0c-0.1,0-0.2,0-0.3,0c-0.1,0-0.2,0-0.3,0c-0.2,0-0.3,0-0.4,0.1c0,0,0,0.1-0.1,0.1
		c0,0,0,0-0.1,0c0,0-0.1,0-0.1-0.1c-0.1-0.1-0.2-0.1-0.3,0c-0.2,0.1-0.4,0.1-0.7,0.1c-0.3,0-0.6,0-0.8,0.1c-0.2,0-0.4,0-0.6,0
		c-0.1,0-0.2,0-0.4,0c0,0-0.1,0-0.1,0c0,0-0.1,0-0.2,0c-0.4-0.2-0.8-0.4-1.2-0.5c-0.1,0-0.2,0-0.3-0.1c-0.4,0-0.7,0-1-0.3
		c0,0-0.1,0-0.2,0c-0.3,0-0.6,0-0.8-0.1c0.3,0,0.6,0.1,0.8,0c0,0,0.1,0,0.1,0c0.1,0.1,0.3,0.1,0.5,0.1c0.2,0,0.3,0.1,0.5,0.2
		c0.1,0.1,0.3,0.1,0.5,0.1c0.2,0,0.5,0,0.7,0.2c0.1,0.1,0.3,0.1,0.5,0.1c0.1,0,0.1,0,0.2,0.1c0,0,0.1,0.1,0.1,0.1
		c0.2,0,0.5,0.1,0.7,0c0.1,0,0.1,0,0.2,0c0.2,0.1,0.5,0,0.7,0c0,0,0.1-0.1,0.1-0.1c0-0.1,0.1-0.2,0.1-0.3c0.1-0.2,0.2-0.2,0.4-0.1
		c0.1,0,0.2,0,0.4,0c0,0,0.1,0,0.2,0.1c0.1-0.1,0.2-0.1,0.4-0.1c0.1,0,0.1,0,0.2,0c0.1,0,0.3,0,0.4,0c0.3,0.1,0.6,0,0.8-0.1
		c0.1,0,0.2,0,0.3,0C40.2,41.8,40.7,41.8,41.3,41.7c0-0.1,0-0.1,0-0.1c0.3,0,0.6,0,0.9,0c0,0,0.1,0,0.2,0c0.4-0.1,0.7,0,0.8,0.4
		c0.1,0.1,0.2,0.2,0.4,0.3c0,0,0,0,0.1,0c0.3,0,0.3,0.1,0.2,0.4c0,0.1-0.1,0.2,0,0.4c0,0.1,0,0.2,0,0.3c0,0.1,0,0.2,0.2,0.3
		c0,0,0.1,0,0.1,0.1c0,0-0.1,0-0.1,0c-0.3-0.1-0.3,0-0.3-0.4c0-0.1,0-0.2-0.2-0.3c-0.1-0.1-0.2-0.1-0.1-0.3c0-0.1,0-0.2-0.1-0.2
		c-0.2-0.1-0.3-0.1-0.5-0.2c0,0-0.1-0.1-0.2-0.1c-0.1-0.1-0.1-0.2-0.3-0.2c-0.2,0-0.5,0-0.7,0C41.7,41.7,41.5,41.6,41.3,41.7z"/>
	<path d="M15.3,35.2L15.3,35.2c0.1,0,0.3,0.1,0.4,0.1c0.1,0,0.2,0.1,0.4,0c0.1-0.1,0.3-0.2,0.4-0.3c0.1-0.1,0.3-0.1,0.4-0.1
		c0.2,0,0.5,0,0.7,0c0.2-0.1,0.3,0,0.4,0.2c0,0,0.1,0.1,0.1,0.1c0.1,0,0.3,0,0.4,0.1c0,0,0.1,0,0.1,0c0.2-0.1,0.4-0.2,0.5-0.3
		s0.3-0.2,0.5-0.2c0.2,0,0.2-0.1,0.2-0.3c0-0.1,0-0.2,0-0.3c0,0,0.1-0.1,0.1-0.1c0,0,0.1,0.1,0.1,0.1c0,0.2,0.1,0.2,0.2,0.2
		c0.1,0,0.2,0,0.3,0c0.4,0,0.7-0.1,1.1-0.3c0,0,0.1,0,0.2,0c0.2,0.1,0.2,0.1,0.4-0.1c0,0,0,0,0-0.1c0.2-0.3,0.2-0.5,0-0.8
		c-0.1-0.1-0.1-0.2,0-0.4h0c0.1,0.2,0.2,0.4,0.3,0.6c0,0.1,0,0.3,0,0.4c0,0.5-0.3,0.7-0.7,0.9c-0.2,0.1-0.4,0.1-0.6,0.2
		c-0.1,0-0.2,0-0.3,0c-0.1,0-0.1,0-0.2,0c-0.1,0-0.2,0-0.3,0.1c-0.1,0-0.1,0-0.2,0.1c-0.1,0.1-0.3,0.1-0.4,0c0,0-0.1,0-0.2,0
		c-0.1,0.1-0.3,0.1-0.4,0c-0.1,0-0.2,0-0.4,0c-0.2,0.1-0.3,0.1-0.5,0.2c-0.1,0-0.2,0-0.4,0c0,0-0.2,0-0.3,0C17.7,35,17.6,35,17.3,35
		c0,0-0.1,0-0.2,0c-0.2,0-0.3,0-0.5,0.2c0,0-0.1,0.1-0.1,0.1c-0.1,0.1-0.2,0.1-0.4,0.1c-0.2,0-0.4,0-0.5-0.1
		C15.5,35.3,15.3,35.2,15.3,35.2C15.4,35.2,15.3,35.2,15.3,35.2z"/>
	<path d="M31.3,45.5L31.3,45.5c-0.1,0.4-0.3,0.7-0.4,1c0,0,0,0.2,0,0.2c0,0.1,0,0.2,0,0.2c-0.2,0.3-0.3,0.7-0.5,1.1c0,0,0,0.1,0,0.2
		c0.2,0,0.3-0.1,0.3-0.3c0-0.1,0.1-0.2,0.2-0.3c0.1-0.1,0.2-0.2,0.2-0.3c0.2-0.2,0.4-0.5,0.3-0.8c0.2,0,0.2,0,0.3,0.1
		c0.1,0.2,0.1,0.4,0,0.6c-0.1,0.3-0.3,0.6-0.4,0.9c0,0.1,0,0.3-0.1,0.4c0,0.2,0,0.2-0.3,0.1c-0.1,0-0.2,0-0.2,0
		c-0.1,0-0.3,0.1-0.4,0.1c0,0-0.1,0-0.1,0.1c-0.1,0.1-0.2,0.3-0.4,0.5c0,0-0.1,0.1-0.1,0.1c0,0.3-0.1,0.6-0.1,0.9
		c0,0.2,0,0.4-0.1,0.6c0,0.1,0,0.2-0.1,0.3c0,0,0-0.1,0-0.1c0-0.2,0.1-0.5,0-0.7c0,0,0-0.1,0-0.2c0-0.1,0-0.2,0-0.3l0,0
		c0-0.1,0.1-0.2,0.1-0.3c0,0,0-0.1,0-0.2c0.1-0.2,0.2-0.4,0.2-0.7c0.1-0.3,0.2-0.6,0.4-0.9c0-0.1,0.1-0.2,0.1-0.4s0-0.2,0.1-0.3
		c0.1-0.2,0.2-0.4,0.2-0.6c0,0,0-0.1,0-0.2c0.1-0.1,0-0.3,0.1-0.5c0-0.1,0.2-0.2,0.3-0.4l0,0L31.3,45.5L31.3,45.5z"/>
	<path d="M45.9,43.2c0,0,0,0.1,0,0.2c0,0.1,0,0.2,0,0.3c0,0.6,0.4,0.9,0.9,0.9c0.1,0,0.3,0,0.4,0.1c0.1,0,0.2,0.1,0.3,0.1
		c0.1,0,0.2,0,0.3,0c0.2,0,0.5,0.1,0.7,0.1c0.2,0,0.5,0,0.7,0.1c0.2,0,0.2,0.2,0,0.4c-0.1,0.1-0.2,0.2-0.4,0.2
		c-0.2,0-0.4,0.4-0.3,0.6c0,0.1,0,0.2,0,0.3c-0.1,0.1-0.1,0.2,0,0.3c0,0.1,0,0.2,0,0.2c0,0.1,0,0.2,0,0.2c0,0,0.1,0.1,0.1,0.1
		c0,0,0,0,0,0c0,0,0,0-0.1,0.1c-0.1,0.1-0.1,0.1-0.3,0c-0.1-0.1-0.2,0-0.2,0.1c-0.1,0.3-0.2,0.5-0.3,0.8c-0.1,0.4-0.3,0.8-0.4,1.2
		c-0.1,0.4-0.3,0.8-0.4,1.3h0c0-0.1,0-0.3,0.1-0.5c0.1-0.3,0.2-0.7,0.4-1c0.1-0.2,0.2-0.5,0.3-0.7c0-0.1,0-0.2,0-0.3
		c-0.1,0-0.2,0-0.4-0.1c0-0.1,0.1-0.2,0.1-0.2c0,0,0.1,0,0.1-0.1c0.2,0,0.3-0.1,0.2-0.3v0c0.1-0.1,0.2-0.3,0.4-0.5
		c0.1-0.1,0.2-0.3,0.2-0.5c0-0.3,0-0.7,0.1-1c0.1-0.2,0-0.3-0.3-0.3c-0.1,0-0.3,0-0.5,0c-0.1,0-0.2-0.1-0.4-0.1c-0.1,0-0.2,0-0.3,0
		c0-0.2,0-0.3-0.2-0.4c0,0,0,0,0,0c0,0,0-0.1-0.1-0.1c0,0-0.1,0-0.2,0c-0.1,0-0.2,0-0.3-0.1c0-0.1-0.1-0.1-0.2-0.2
		c-0.3-0.2-0.3-0.6-0.3-0.9C45.8,43.4,45.9,43.3,45.9,43.2z"/>
	<path d="M34,61.1L34,61.1c0-0.1,0.1-0.2,0.2-0.4c0.1-0.1,0.1-0.4,0-0.6c0-0.1-0.1-0.1-0.2,0c0,0-0.1,0.1-0.2,0.1c0,0-0.1,0-0.1,0
		c0,0,0-0.1,0-0.1s0,0,0.1-0.1c0.2-0.2,0.5-0.4,0.7-0.5c0.1-0.1,0.3,0,0.5-0.1c0.2-0.1,0.4-0.1,0.6-0.1c0,0,0.1,0,0.2,0
		c0.1,0.1,0.3,0.1,0.4,0.2c0,0,0.1,0,0.1,0.1c0.1,0.2,0.2,0.2,0.4,0.3c0,0,0.1,0.1,0.2,0.1c0,0,0,0,0,0.1c-0.1,0.3-0.1,0.3,0.1,0.6
		c0,0,0,0-0.1,0c-0.1-0.1-0.2-0.2-0.3-0.3c-0.1-0.1-0.2-0.2-0.4-0.1c0,0-0.1,0-0.1,0c-0.2,0-0.4-0.1-0.6-0.1c0,0-0.1,0-0.2,0
		c-0.2,0.1-0.4,0.2-0.7,0.3C34.4,60.6,34.1,60.9,34,61.1z"/>
	<path d="M43.7,52.8c0,0,0-0.1,0-0.2c-0.1-0.1-0.1-0.3-0.2-0.5c0-0.1-0.1-0.2-0.2-0.4c0-0.1,0-0.2-0.1-0.3c0.2,0.2,0.3,0.5,0.4,0.8
		c0,0,0,0,0,0.1c0.4,0.6,0.6,1.1,0.7,1.8c0,0.3,0.1,0.5,0.1,0.8c0,0.1,0,0.2,0.1,0.3c0.2-0.1,0.3-0.2,0.3-0.4c0-0.3,0-0.6,0-0.9
		c0-0.3,0.1-0.5,0.2-0.8c0-0.1,0.1-0.1,0.2-0.1c0,0.1,0,0.3,0,0.4c0,0,0,0.1,0.1,0.1c0,0,0.1,0,0.1,0c0,0,0.1-0.1,0.1-0.2
		c0.1,0.1,0.1,0.1,0.1,0.2c-0.1,0.1,0,0.3,0,0.5c0,0,0,0.1,0,0.1c-0.1,0.1-0.1,0.3-0.2,0.5c-0.1,0.1-0.1,0.3-0.3,0.4
		c-0.1,0.1-0.2,0.2-0.2,0.3c-0.1,0.1-0.1,0.3-0.2,0.5c0,0.1,0,0.3,0,0.4c0,0.1,0,0.1,0,0.2s0.1,0.1,0.2,0c0,0,0-0.1,0.1-0.1
		c0-0.1,0.1-0.3,0.1-0.4c0.1-0.2,0.2-0.4,0.3-0.7l0,0c-0.1,0.3-0.2,0.7-0.3,1c0,0.1-0.1,0.2-0.1,0.3c0,0.1-0.1,0.1-0.2,0
		c0-0.1-0.1-0.1-0.1-0.2c0-0.2-0.1-0.5-0.1-0.7c-0.1-0.3-0.2-0.6-0.2-0.9c0-0.2,0-0.4-0.1-0.6c-0.1-0.4-0.2-0.8-0.4-1.1
		C43.7,53,43.7,52.9,43.7,52.8z"/>
	<path d="M36.6,33.7c-0.1,0-0.3,0.1-0.4,0.2C36.2,33.8,36.3,33.7,36.6,33.7c0.3-0.3,0.7-0.6,1-0.9c0.1-0.1,0.2-0.2,0.3-0.2
		c0.3-0.2,0.5-0.5,0.8-0.7c0.1-0.1,0.1-0.2,0.1-0.3c0,0,0-0.1,0-0.2c0.1-0.4,0.2-0.8,0.4-1.2c0.1-0.4,0-0.7,0-1.1
		c0-0.2-0.1-0.3-0.3-0.4c-0.1,0-0.3-0.1-0.3-0.3c0,0-0.1,0-0.2-0.1c-0.2,0-0.4-0.1-0.5-0.1c0,0-0.1,0-0.1,0
		c-0.2,0.1-0.4,0.2-0.5,0.4c0,0.1-0.1,0.1-0.1,0.2c0,0,0-0.1,0-0.1c0,0,0-0.1,0.1-0.1s0.1,0,0.1-0.1c0.2-0.2,0.5-0.4,0.8-0.3
		c0.1,0,0.1,0,0.2,0c0.1,0,0.3,0,0.4,0c0.3,0.1,0.5,0.4,0.6,0.7c0,0.3,0,0.6,0,0.9c0,0.3,0,0.3,0.2,0.5c0.1,0,0.2-0.1,0.3-0.2
		c0.2,0.1,0.2,0.2,0.1,0.4c-0.1,0.3-0.3,0.6-0.5,0.9c-0.2,0.3-0.5,0.6-0.8,0.7c-0.2,0.1-0.3,0.2-0.5,0.3c-0.2,0.2-0.4,0.4-0.6,0.5
		c-0.2,0.2-0.5,0.4-0.7,0.6C36.8,33.6,36.7,33.7,36.6,33.7z"/>
	<path d="M43.8,32.2L43.8,32.2L43.8,32.2c0.3,0.3,0.5,0.5,0.6,0.7c0,0,0.1,0.1,0.1,0.2c0,0.1,0.1,0.2,0.2,0.3c0,0,0.1,0,0.2,0.1
		c0.2,0.1,0.4,0.1,0.6,0.2c0.3,0.2,0.6,0.4,0.9,0.6c0.1,0,0.2,0.1,0.3,0.1c0.2,0,0.3,0.1,0.4,0.2c0,0,0.1,0.1,0.1,0.2
		c0.3,0.3,0.7,0.5,1,0.6c0,0,0.1,0.1,0.2,0.1c0.4,0,0.9,0,1.3-0.1c0.4-0.1,0.8-0.1,1.2-0.2c0.2-0.1,0.5,0,0.8-0.1
		c0.3-0.1,0.6-0.1,0.8-0.4c0,0,0.1,0,0.1,0c0,0.1-0.1,0.2-0.2,0.3c-0.1,0-0.2,0-0.3,0.1c-0.1,0-0.2,0-0.3,0c-0.2,0-0.5,0.2-0.7,0.1
		c-0.1,0-0.2,0-0.3,0.1c-0.2,0.1-0.5,0.1-0.8,0.2c0,0-0.1,0-0.2,0.1c-0.1,0.2-0.3,0.2-0.6,0.1c-0.3,0-0.6,0-0.9-0.2
		c-0.2-0.1-0.4-0.1-0.6-0.2c0,0-0.1,0-0.2-0.1c-0.3,0-0.5-0.2-0.7-0.4c0,0-0.1,0-0.1-0.1c-0.1-0.2-0.3-0.2-0.4-0.3
		c-0.1,0-0.2-0.1-0.3-0.2c-0.3-0.3-0.7-0.5-1.1-0.7c-0.1,0-0.3-0.1-0.4-0.1s-0.2-0.1-0.2-0.3c0-0.1,0-0.2-0.1-0.3
		C44,32.6,43.9,32.4,43.8,32.2z"/>
	<path d="M37.5,33c0.2-0.2,0.4-0.4,0.6-0.5c0.1-0.1,0.3-0.2,0.5-0.3c0.3-0.2,0.6-0.4,0.8-0.7c0.2-0.3,0.4-0.6,0.5-0.9
		c0-0.2,0-0.2-0.1-0.4c-0.1,0-0.2,0.1-0.3,0.2c-0.3-0.2-0.3-0.2-0.2-0.5c0.1-0.3,0-0.6,0-0.9c0-0.4-0.2-0.6-0.6-0.7
		c-0.1-0.1-0.3-0.1-0.5,0c-0.1,0-0.1,0-0.2,0c-0.3,0-0.6,0.1-0.8,0.3c0,0-0.1,0-0.1,0.1c0.1-0.2,0.2-0.4,0.4-0.4
		c0.2-0.1,0.4-0.2,0.7-0.1l0,0c0.3-0.1,0.6,0,0.9,0c0.3,0,0.7,0.4,0.7,0.8c0,0.1,0,0.1,0,0.2c0,0.1,0,0.2-0.2,0.2c0,0-0.1,0-0.1,0
		c-0.1,0-0.2,0.1-0.2,0.2c0,0.1,0,0.2,0,0.3c0,0.1-0.1,0.2,0,0.3c0.1,0,0.1-0.1,0.2-0.1c0,0,0.1,0,0.2,0c0.1,0.1,0.2,0.1,0.4,0
		c0,0,0,0.1,0,0.1c0,0.1,0,0.3-0.2,0.5c-0.1,0.2-0.2,0.4-0.4,0.7c-0.2,0.3-0.5,0.6-0.7,0.9c-0.1,0.1-0.3,0.3-0.5,0.3
		c0,0-0.1,0-0.1,0c0,0,0,0-0.1,0C37.9,32.7,37.7,33,37.5,33C37.6,33,37.5,33,37.5,33z"/>
	<path d="M25.6,59.3c-0.2,0.3-0.5,0.6-0.8,0.8c0,0-0.1,0-0.1,0c-0.2,0-0.5,0-0.7,0h0c-0.2-0.1-0.5,0-0.7-0.3l0,0h0
		c-0.1,0-0.2,0.1-0.3,0c-0.1,0-0.3-0.1-0.3-0.3c0-0.2-0.1-0.4-0.2-0.6c-0.2-0.3-0.1-0.7-0.3-1.1c0-0.1-0.1-0.1-0.1-0.2
		c-0.1-0.1-0.1-0.2-0.2-0.4c0,0,0,0,0-0.1c0,0,0,0,0.1,0c0.1,0.2,0.2,0.4,0.4,0.6c0.1,0.1,0.1,0.2,0.1,0.4c0,0.1,0.1,0.3,0.2,0.4
		c0,0,0.1,0.1,0.2,0.1c0.1,0.1,0.2,0.1,0.4,0.1c0,0,0.1,0,0.1,0c0,0.1,0,0.2,0,0.3c-0.1,0.1,0,0.2,0,0.3c0.2,0.3,0.4,0.5,0.7,0.5
		c0.3,0,0.6-0.1,0.8,0c0,0,0,0,0,0c0.2-0.1,0.4-0.2,0.5-0.3C25.5,59.5,25.5,59.4,25.6,59.3C25.5,59.3,25.6,59.3,25.6,59.3z"/>
	<path d="M20.4,19.6c0.1,0.2,0.3,0.2,0.4,0c0.1-0.1,0.1-0.2,0.2-0.4c0-0.1,0.1-0.2,0.1-0.3h0c0,0,0,0.1,0,0.1c0,0.3,0,0.6-0.1,0.9
		c-0.1,0.3-0.2,0.7-0.2,1.1c0,0.2,0,0.4,0,0.5c0.1,0.5,0.2,1,0.3,1.5c0,0.6,0.1,1.2,0.1,1.8c0,0.2-0.1,0.4-0.3,0.5c0,0-0.2,0-0.3,0
		c-0.1,0-0.2,0-0.2,0.2c0,0.1,0,0.2,0,0.3c0,0.2,0,0.3-0.1,0.5c0,0.1,0,0.2,0,0.3c0,0.1,0,0.2,0,0.3c-0.1,0.3-0.2,0.7-0.4,1
		c-0.1,0.1-0.1,0.3-0.1,0.4c0,0,0,0.1,0,0.1c0-0.1,0-0.2,0-0.3l0,0c0,0,0,0,0-0.1c0-0.2,0-0.4,0.1-0.5c0,0,0-0.1,0-0.1
		c0-0.1,0-0.3,0.1-0.4c0.1-0.1,0.2-0.3,0.2-0.5c0-0.1,0-0.2,0-0.2c0.1-0.3,0.1-0.6,0.1-0.9l0,0c0.1-0.1,0-0.3,0-0.4
		c0-0.1,0-0.3,0.2-0.4c0,0,0.1,0.1,0.1,0.2c0,0,0,0.1,0,0.2c0,0.1,0,0.1,0.1,0.1s0.1,0,0.2-0.1c0-0.1,0-0.2,0-0.3c0-0.3,0-0.6,0-0.8
		c0-0.6-0.1-1.1-0.2-1.6c0-0.1-0.1-0.3-0.1-0.5c0-0.2-0.1-0.3-0.1-0.5c0-0.3,0.1-0.6,0.2-0.8c0-0.2,0-0.4-0.3-0.3
		c-0.1,0-0.2,0-0.2-0.1C20.4,19.7,20.4,19.7,20.4,19.6z"/>
	<path d="M20.4,19.6c0,0,0,0.1,0,0.2c0,0.1,0.1,0.1,0.2,0.1c0.3,0,0.3,0,0.3,0.3c-0.1,0.3-0.1,0.6-0.2,0.8c0,0.2,0,0.3,0.1,0.5
		c0,0.1,0.1,0.3,0.1,0.5c0.1,0.5,0.2,1.1,0.2,1.6c0,0.3,0,0.6,0,0.8c0,0.1,0,0.2,0,0.3c0,0.1-0.1,0.1-0.2,0.1s-0.1-0.1-0.1-0.1
		c0,0,0-0.1,0-0.2c0,0-0.1-0.1-0.1-0.2c-0.2,0.1-0.2,0.3-0.2,0.4c0,0.1,0,0.3,0,0.4c0-0.3,0-0.6,0-0.8c0,0,0.1-0.1,0.1-0.2
		c0,0,0.1,0,0.2,0.1c0,0,0,0.1,0.1,0.1c0,0,0.1,0.1,0.1,0.1c0-0.1,0.1-0.1,0.1-0.2c0.1-0.3,0-0.6,0-0.8c0-0.1-0.1-0.3-0.1-0.5
		c0-0.3-0.1-0.6-0.1-0.8c0-0.1,0-0.1,0-0.2c0-0.2,0-0.4-0.1-0.5c0,0,0-0.1,0-0.2c0-0.1,0-0.3,0-0.5c0,0,0-0.1,0-0.2
		c0-0.3,0-0.5-0.2-0.7c-0.1,0-0.1-0.1-0.1-0.2c0-0.3,0.1-0.6,0-0.8v0c0-0.1,0-0.3-0.1-0.4c-0.2-0.2-0.2-0.5-0.1-0.8c0,0,0,0.1,0,0.2
		c0,0.3,0.1,0.5,0.3,0.6c0.1,0,0.2,0.1,0.2,0.2c0,0.2,0,0.4,0,0.5C20.4,19.5,20.4,19.6,20.4,19.6z"/>
	<path d="M21.7,57.3C21.7,57.4,21.7,57.4,21.7,57.3C21.6,57.4,21.6,57.3,21.7,57.3c-0.2-0.4-0.4-0.7-0.4-1.1c0-0.1,0-0.1,0-0.2
		c-0.2-0.3-0.3-0.7-0.4-1c0-0.2-0.2-0.4-0.2-0.6c0,0,0-0.1-0.1-0.1c-0.1,0-0.2-0.2-0.2-0.3c0,0,0-0.1,0-0.2c0-0.1-0.1-0.2-0.1-0.4
		c0-0.1,0-0.2-0.1-0.3c-0.1,0-0.1,0.1-0.2,0.1c0,0,0,0,0,0c0,0,0-0.1-0.1-0.2c-0.1-0.1-0.1-0.2,0-0.4c0-0.1,0-0.2,0-0.3
		s0-0.2-0.1-0.2c-0.1-0.1-0.2-0.3-0.2-0.5c0-0.2-0.1-0.4-0.2-0.7c-0.1-0.2-0.2-0.4-0.1-0.7c0,0,0-0.1,0-0.2c0-0.1,0-0.2,0-0.3h0
		c0,0,0,0,0,0.1c0.1,0.3,0.1,0.6,0.2,0.8c0.1,0.2,0.2,0.5,0.2,0.8c0,0,0,0.1,0.1,0.2c0,0.2,0.1,0.3,0.2,0.5c0,0.2,0.1,0.5,0.2,0.7
		c0.1,0.1,0.1,0.2,0.2,0.4c0,0.1,0,0.2,0.1,0.2c0.2,0.4,0.5,0.7,0.5,1.2c0,0.1,0.1,0.2,0.1,0.4c0.1,0.4,0.3,0.7,0.5,1
		c0,0.1,0.1,0.2,0.1,0.4C21.6,56.8,21.6,57,21.7,57.3z"/>
	<path d="M39.4,26.2C39.4,26.2,39.4,26.2,39.4,26.2c0-0.1,0.1-0.2,0.2-0.2c0.3-0.2,0.5-0.5,0.6-0.8c0-0.1,0-0.2-0.1-0.3
		C40,25,40,25.1,39.9,25.3c-0.1,0-0.1-0.1-0.1-0.2c0-0.1,0-0.3-0.1-0.4c-0.1-0.2-0.1-0.4-0.2-0.6c0,0,0-0.1,0-0.1
		c0-0.2-0.1-0.4-0.1-0.6c0,0,0-0.1,0-0.1c0-0.1-0.1-0.3-0.2-0.4c0-0.1-0.1-0.2-0.1-0.4c0-0.1,0-0.3,0-0.4c0-0.2,0-0.4-0.1-0.6h0
		c0,0.1,0.1,0.2,0.2,0.4c0.1,0.2,0.1,0.4,0.2,0.7c0,0,0,0.1,0,0.2c0,0.3,0.1,0.6,0.1,0.8c0,0.2,0,0.5,0.1,0.7c0,0.1,0,0.2,0.1,0.3
		c0,0,0.1,0.1,0.2,0c0.1,0,0.3,0,0.3,0.1c0.1,0.2,0.1,0.3,0.1,0.6c-0.1,0.4-0.4,0.7-0.8,0.9C39.5,26.1,39.5,26.1,39.4,26.2z"/>
	<path d="M56.5,31.6c0,0.1-0.1,0.2-0.1,0.4c0,0,0,0.1,0,0.1c0.1,0,0.1-0.1,0.2-0.2c0.1-0.1,0.2-0.1,0.2,0c0,0.1,0,0.2,0,0.2
		c-0.1,0.1-0.1,0.1-0.2,0.2c-0.1,0.1-0.3,0.2-0.4,0.3c-0.3,0.2-0.6,0.4-0.8,0.7c-0.1,0.2-0.3,0.2-0.5,0.3c-0.1,0-0.2,0.1-0.3,0.1
		c-0.1,0-0.3,0.1-0.4,0.1c-0.1,0-0.2,0.1-0.3,0.2c-0.2,0.2-0.4,0.3-0.6,0.4l0,0c0.1,0,0.1-0.1,0.2-0.2c0.1-0.1,0.2-0.1,0.3-0.3
		c0,0,0,0,0.1-0.1c0.4-0.2,0.7-0.5,1.1-0.7c0.2-0.1,0.4-0.3,0.6-0.4c0.2-0.1,0.4-0.3,0.5-0.5C56.2,32.1,56.3,31.9,56.5,31.6
		C56.4,31.7,56.5,31.7,56.5,31.6z"/>
	<path d="M25.6,59.3L25.6,59.3c0-0.1,0.1-0.2,0.2-0.4c0.1-0.2,0.3-0.5,0.5-0.7c0-0.1,0.1-0.2,0.1-0.3c0-0.1,0-0.2,0.1-0.3
		c0.1-0.2,0.3-0.4,0.6-0.4c0,0,0-0.1,0-0.1s0-0.1,0-0.1c0,0,0,0,0.1,0c0.1,0,0.2,0,0.2,0c0,0,0.1-0.1,0.1-0.2c0-0.1,0.1-0.2,0.3-0.3
		c0.1,0,0.2-0.1,0.3-0.1c0.1,0,0.2-0.1,0.2-0.2c0.2-0.4,0.4-0.8,0.5-1.3c0-0.2,0.1-0.3,0.2-0.5c0,0,0,0.1,0,0.1
		c-0.1,0.4-0.1,0.8-0.3,1.2c0,0.1-0.1,0.2-0.1,0.2c-0.3,0.7-0.8,1.2-1.4,1.6c-0.1,0.1-0.2,0.1-0.4,0.1c-0.1,0-0.2,0-0.3,0.2
		c0,0,0,0.1,0.1,0.2c-0.4,0.3-0.5,0.7-0.8,1C25.8,59.2,25.7,59.2,25.6,59.3z"/>
	<path d="M43.1,51.6c-0.1-0.3-0.3-0.5-0.4-0.8c0,0,0-0.1,0-0.2c0-0.1,0-0.2,0-0.3c-0.1-0.2-0.2-0.5-0.2-0.7c0,0,0-0.1,0-0.1
		c-0.2-0.3-0.1-0.6-0.1-0.9c0,0,0-0.1,0-0.2c-0.1-0.1-0.1-0.2-0.1-0.4c0-0.3,0-0.6-0.1-0.8c0,0,0-0.1,0-0.1
		c-0.2-0.4-0.4-0.9-0.6-1.3c0,0,0-0.1,0-0.1c0-0.1,0-0.2,0.1-0.2c0.1,0,0.1,0,0.2,0c0,0-0.1,0-0.2,0.1c-0.1,0.1-0.2,0.1-0.1,0.3
		c0.1,0.2,0.2,0.4,0.3,0.6c0.2,0.4,0.3,0.8,0.6,1.3c0.1,0.2,0.1,0.5,0.2,0.8c0,0.1,0,0.3,0,0.5c0,0.1,0,0.2,0,0.3c0,0.1,0,0.2,0,0.3
		s0,0.2,0.1,0.3c0,0.2,0.1,0.5,0.1,0.7c0,0.1,0.1,0.2,0.1,0.4s0,0.2,0.1,0.3C43.1,51.1,43.1,51.3,43.1,51.6z"/>
	<path d="M56.5,31.6C56.5,31.6,56.5,31.7,56.5,31.6c0,0,0-0.1,0-0.2c0.1-0.1,0.2-0.2,0.3-0.4c0.3-0.5,0.5-1,0.6-1.6
		c0-0.1,0-0.2-0.1-0.2c-0.2,0-0.3-0.1-0.4-0.3c0-0.2-0.1-0.3-0.3-0.5c-0.1-0.1-0.2-0.2-0.4-0.2c0,0,0.1,0,0.1,0
		c0.2,0,0.4,0.2,0.5,0.4c0,0,0,0.1,0.1,0.2c0.1,0.2,0.1,0.2,0.4,0.2c0,0,0.1,0,0.2,0.1c0.2,0.2,0.2,0.8-0.1,1
		c-0.1,0.1-0.3,0.3-0.3,0.5c0,0,0,0.1,0,0.1c-0.1,0.2-0.1,0.4-0.3,0.5C56.7,31.4,56.6,31.5,56.5,31.6z"/>
	<path d="M29,54.5c0,0,0-0.1,0-0.1c0-0.1,0-0.2,0-0.2c0.1-0.3,0.2-0.6,0.2-0.9c0-0.1,0-0.1,0-0.2c0-0.2,0.1-0.5,0.1-0.7
		c0,0,0-0.1,0-0.1c-0.2,0-0.2,0.2-0.4,0.2c0-0.1,0-0.1,0-0.2c0-0.1,0.1-0.2,0.1-0.3c0-0.2,0.1-0.4,0.1-0.6s0.1-0.4,0-0.6
		c0-0.1,0-0.2,0-0.3c0-0.2,0.1-0.3,0.2-0.5c0,0.1,0,0.2,0,0.3c0,0,0,0.1,0,0.2c0.1,0.2,0.1,0.5,0,0.7c0,0,0,0.1,0,0.1
		c0,0.1,0,0.1,0,0.2c0,0.1,0,0.2,0.1,0.3c0.1,0.1,0.1,0.2,0.1,0.4c0,0.3,0,0.6-0.2,0.8c0,0,0,0.1,0,0.2C29.4,53.7,29.2,54,29,54.5
		C29.1,54.4,29.1,54.4,29,54.5z"/>
	<path d="M22.4,32.8L22.4,32.8c-0.3-0.2-0.5-0.4-0.7-0.6c0,0-0.1-0.1-0.1-0.1c-0.2,0-0.3-0.1-0.5-0.3C21,31.8,21,31.7,21,31.6
		c0,0,0-0.1,0-0.2c0-0.1,0-0.2-0.1-0.2c0,0,0,0-0.1,0c0-0.3,0-0.4-0.2-0.4c0,0-0.1,0-0.1,0c0,0,0.1,0,0.2,0c0.1,0,0.3,0,0.4,0.1
		c0.1,0,0.1,0,0.2,0c0,0.2,0,0.4,0,0.6c0,0,0,0.1,0,0.1c0.2,0.2,0.3,0.5,0.6,0.6C21.9,32.2,22.2,32.5,22.4,32.8
		C22.4,32.7,22.4,32.7,22.4,32.8z"/>
	<path d="M19,49.8L19,49.8c-0.1-0.1-0.1-0.2-0.1-0.3c0-0.1,0-0.3-0.2-0.4l0,0c0-0.4-0.2-0.7-0.4-1c0,0,0-0.1-0.1-0.2
		c-0.1-0.2-0.2-0.4-0.3-0.6c-0.1-0.2-0.2-0.4-0.2-0.7c0-0.2,0-0.4-0.1-0.6l0,0c0.1,0.1,0.1,0.2,0.1,0.3c0,0,0,0.1,0,0.2
		c0.1,0.4,0.2,0.9,0.5,1.3c0,0,0,0,0,0c0.1,0.2,0.3,0.5,0.5,0.7c0.1,0.1,0.1,0.1,0.1,0.3c0,0.1,0,0.2,0,0.4C19,49.4,19,49.7,19,49.8
		z"/>
	<path d="M20.4,30.7c0,0,0.1,0,0.1,0c-0.1,0-0.2,0.1-0.3,0.1c0-0.1,0-0.1,0-0.2c0-0.1,0-0.2,0-0.3c0-0.1-0.1-0.2-0.2-0.1
		c-0.1,0-0.2,0.1-0.2,0.3c0,0.1,0,0.2-0.1,0.2c-0.1-0.1,0-0.2,0-0.3c0.1-0.3,0.1-0.5,0-0.8c-0.1-0.1-0.1-0.3-0.1-0.4
		c0-0.3,0-0.6,0.1-0.8c0-0.1,0-0.3,0.1-0.4c0,0.1,0,0.2,0,0.3l0,0c0,0,0,0.1,0,0.1c0,0.1,0,0.3,0,0.4c0,0.2,0,0.4,0.1,0.6
		c0,0,0,0.1,0,0.2c0,0.1,0,0.2,0.1,0.2c0.1,0.1,0.2,0.2,0.3,0.3C20.3,30.3,20.3,30.4,20.4,30.7C20.4,30.6,20.4,30.6,20.4,30.7z"/>
	<path d="M45.5,55.3c0.1-0.3,0.2-0.6,0.3-0.8c0-0.2,0.1-0.4,0.2-0.6c0.1-0.3,0.2-0.6,0.3-0.8c0,0,0-0.1,0-0.1c0-0.3,0.2-0.5,0.3-0.7
		c0.1-0.2,0.1-0.4,0.2-0.7c0.1-0.2,0.2-0.4,0.3-0.6h0c0,0.1-0.1,0.3-0.2,0.4c-0.2,0.5-0.4,0.9-0.6,1.3c0,0,0,0,0,0.1
		c-0.1,0.2-0.1,0.5-0.2,0.7c-0.1,0.4-0.3,0.7-0.4,1.1C45.7,54.8,45.6,55.1,45.5,55.3L45.5,55.3z"/>
	<path d="M20.3,30.6c0-0.1,0-0.2,0-0.4c-0.1-0.1-0.2-0.2-0.3-0.3c0,0,0-0.2-0.1-0.2c0,0,0-0.1,0-0.2c-0.1-0.2-0.1-0.4-0.1-0.6
		c0-0.1,0-0.3,0-0.4c0,0,0-0.1,0-0.1c0,0.1,0.1,0.2,0.2,0.4c-0.1,0.1-0.1,0.2,0,0.4c0,0,0,0.1,0,0.2c0,0.1,0,0.3,0,0.5
		c0,0,0,0.1,0,0.1c0,0,0.1,0,0.1,0.1c0.1,0.1,0.2,0.2,0.2,0.3C20.3,30.3,20.3,30.5,20.3,30.6z"/>
	<path d="M43.5,44.9c0,0,0.1-0.1,0.1-0.1c0.1,0,0.2-0.1,0.4-0.2c0,0,0.1,0,0.1-0.1c0.1-0.2,0.2-0.3,0.3-0.5c0.1-0.1,0.1-0.2,0.2-0.3
		c0,0-0.1-0.1-0.1-0.1c0,0,0.1,0,0.1,0c0.1,0.1,0.1,0.2,0,0.3c0,0-0.1,0.1-0.2,0.2c0,0.1-0.2,0.3,0,0.4
		C44.2,44.7,43.8,44.8,43.5,44.9z"/>
	<path d="M37.1,28.7c0,0,0,0.1,0,0.1c-0.1,0.2-0.2,0.4-0.2,0.6c0,0.1,0,0.2-0.1,0.3c-0.2,0.2-0.4,0.5-0.4,0.9c0,0.2-0.1,0.5-0.3,0.7
		l0,0c0,0,0,0,0-0.1c0.1-0.3,0.2-0.6,0.3-0.9c0-0.1,0-0.2,0.1-0.3l0,0c0.2-0.1,0.4-0.2,0.3-0.5c0-0.1,0.1-0.3,0.2-0.4
		C37,28.9,37,28.8,37.1,28.7z"/>
	<path d="M17.5,46.1c0,0.2,0.1,0.4,0.1,0.6c0,0.3,0.1,0.4,0.2,0.7c0.1,0.2,0.2,0.4,0.3,0.6c-0.3-0.4-0.7-0.8-0.7-1.3
		c0,0,0-0.1,0-0.1C17.5,46.4,17.5,46.3,17.5,46.1C17.5,46.1,17.5,46.1,17.5,46.1z"/>
	<path d="M38.7,47.9L38.7,47.9c-0.1-0.2-0.2-0.5-0.3-0.7c-0.1-0.3-0.3-0.7-0.4-0.9c0,0,0,0,0-0.1c0.1,0.2,0.2,0.4,0.4,0.6
		c0.1,0.2,0.2,0.3,0.2,0.5c0,0,0,0.1,0,0.1C38.7,47.7,38.7,47.8,38.7,47.9z"/>
	<path d="M41.8,45.3c0.1,0,0.1-0.1,0.2-0.1c0.3,0,0.6-0.1,0.9-0.2c0.2,0,0.4-0.1,0.6-0.1C43.3,45,43.2,45,43,45
		c-0.1,0-0.2,0-0.4,0.1C42.4,45.3,42.1,45.3,41.8,45.3z"/>
	<path d="M56.4,28.3c0,0-0.1,0-0.1,0c0,0-0.1,0-0.1,0c0,0-0.1-0.1-0.2-0.1c-0.1-0.1-0.3-0.1-0.4,0c0,0-0.1,0.1-0.2,0.1
		c0-0.1,0.2-0.2,0.3-0.3c0,0,0.1,0,0.2,0C56,28.1,56.3,28.2,56.4,28.3z"/>
	<path d="M55.3,28.3c0,0,0.1,0,0.2-0.1c0.1-0.1,0.3-0.1,0.4,0c0,0,0.1,0.1,0.2,0.1c-0.3-0.1-0.6,0-0.9,0.2c-0.1,0.1-0.2,0.2-0.4,0.3
		c0,0,0,0,0-0.1l0,0c0.1-0.1,0.2-0.2,0.3-0.3C55.3,28.3,55.3,28.3,55.3,28.3z"/>
	<path d="M52.4,35c0-0.1,0.1-0.2,0.2-0.3l0,0c0.1,0,0.2,0,0.4-0.1c0.1,0,0.2-0.1,0.3-0.1l0,0c-0.1,0-0.2,0-0.3,0.2
		c0,0-0.1,0-0.2,0.1C52.7,34.9,52.6,35.1,52.4,35z"/>
	<path d="M18.3,48.2c0.3,0.3,0.4,0.6,0.4,1c0,0,0,0,0-0.1c-0.1-0.3-0.1-0.5-0.3-0.7C18.3,48.3,18.3,48.2,18.3,48.2z"/>
	<path d="M36.7,29.4c0,0.3-0.2,0.4-0.3,0.5c0,0,0-0.1,0-0.1C36.5,29.6,36.6,29.5,36.7,29.4z"/>
	<path d="M54.9,28.6C54.9,28.7,54.9,28.7,54.9,28.6c0,0.2,0,0.2-0.1,0.3c0,0-0.1,0-0.2,0.1l0,0C54.7,28.9,54.8,28.7,54.9,28.6z"/>
	<path d="M18.7,49.2c0.1,0.1,0.2,0.2,0.2,0.4C18.7,49.4,18.7,49.3,18.7,49.2z"/>
	<path d="M55.2,28.3c-0.1,0.1-0.2,0.2-0.3,0.3C54.9,28.4,55.1,28.4,55.2,28.3z"/>
	<path d="M30.7,41.4c-0.1,0-0.3,0-0.4-0.1C30.4,41.4,30.6,41.4,30.7,41.4z"/>
	<path d="M14.8,35c0.1,0,0.2,0,0.3,0.1C15,35.1,14.9,35.1,14.8,35z"/>
	<path d="M15.3,35.2C15.4,35.2,15.4,35.2,15.3,35.2c0,0-0.1,0-0.2,0C15.2,35.2,15.3,35.2,15.3,35.2z"/>
	<path d="M54.4,29.2c0,0,0.1-0.1,0.2-0.1l0,0C54.6,29.1,54.5,29.2,54.4,29.2L54.4,29.2z"/>
	<path d="M38.7,47.9c0-0.1,0-0.3-0.1-0.4c0,0,0-0.1,0-0.1c0-0.2-0.1-0.4-0.2-0.5c-0.1-0.2-0.2-0.4-0.4-0.6l0,0
		c0-0.3-0.2-0.6-0.1-0.9c-0.1-0.2-0.4-0.2-0.6-0.3c-0.1,0-0.2-0.1-0.2-0.3c0-0.2-0.1-0.2-0.3-0.2c-0.1,0-0.2,0.1-0.4,0.1
		c-0.1,0-0.2,0-0.3,0c-0.1-0.1-0.2-0.1-0.3-0.1c-0.1,0-0.2,0-0.2-0.1c0-0.1,0-0.2-0.1-0.2c-0.1,0-0.1,0-0.2,0.2
		c-0.1,0.2-0.3,0.3-0.6,0.2c-0.1,0-0.1-0.1-0.2-0.2c-0.1-0.1-0.2-0.1-0.3,0c0,0,0,0.1-0.1,0.1c-0.1,0.1-0.3,0.2-0.5,0.2
		c-0.2,0-0.4,0-0.7,0c-0.1,0-0.2,0-0.2,0c-0.1,0.1-0.2,0.1-0.4,0c-0.1-0.1-0.2,0-0.3,0c0,0-0.1,0.1-0.2,0.1
		c-0.3,0.1-0.5,0.3-0.6,0.6l0,0c-0.1,0.1-0.2,0.2-0.3,0.4c0,0.1,0,0.3-0.1,0.5c0,0,0,0.1,0,0.2c0,0.2-0.1,0.4-0.2,0.6
		c0,0.1-0.1,0.2-0.1,0.3c0,0.1-0.1,0.2-0.1,0.4c-0.1,0.3-0.3,0.6-0.4,0.9c-0.1,0.2-0.1,0.5-0.2,0.7c0,0,0,0.1,0,0.2
		c-0.1,0-0.1,0.2-0.1,0.3l0,0c0,0.1-0.1,0.3-0.2,0.5c0,0.1,0,0.2,0,0.3c0.1,0.2,0,0.4,0,0.6s-0.1,0.4-0.1,0.6c0,0.1,0,0.2-0.1,0.3
		c0,0.1,0,0.1,0,0.2c0.2,0,0.1-0.3,0.4-0.2c0,0,0,0.1,0,0.1c0,0.2-0.1,0.5-0.1,0.7c0,0.1,0,0.1,0,0.2c0,0.3-0.1,0.6-0.2,0.9
		c0,0.1,0,0.2,0,0.2c0,0.1-0.1,0.3-0.2,0.5c-0.1,0.5-0.3,0.9-0.5,1.3c0,0.1-0.1,0.2-0.2,0.2c-0.1,0-0.2,0.1-0.3,0.1
		c-0.1,0-0.2,0.2-0.3,0.3c0,0.1,0,0.2-0.1,0.2c0,0-0.1,0-0.2,0c0,0,0,0-0.1,0c0,0,0,0.1,0,0.1s0,0.1,0,0.1c-0.3,0-0.5,0.1-0.6,0.4
		c0,0.1-0.1,0.1-0.1,0.3c0,0.1,0,0.2-0.1,0.3c-0.2,0.2-0.3,0.5-0.5,0.7c-0.1,0.1-0.2,0.2-0.3,0.4c-0.1,0.1-0.2,0.1-0.2,0.2
		c-0.1,0.1-0.3,0.2-0.5,0.3l0,0c-0.3,0-0.6,0-0.8,0c-0.3,0-0.6-0.1-0.7-0.5c0-0.1-0.1-0.2,0-0.3c0.1-0.1,0.1-0.2,0-0.3
		c0,0-0.1,0-0.1,0c-0.1,0-0.2,0-0.4-0.1c0,0-0.1-0.1-0.2-0.1c-0.1-0.1-0.2-0.2-0.2-0.4s0-0.3-0.1-0.4c-0.2-0.2-0.3-0.4-0.4-0.6
		c0,0,0,0-0.1,0c-0.1-0.3-0.1-0.6-0.1-0.8c0-0.1,0-0.2-0.1-0.4c-0.2-0.3-0.4-0.7-0.5-1c0-0.1-0.1-0.2-0.1-0.4c0-0.5-0.3-0.8-0.5-1.2
		c0-0.1-0.1-0.2-0.1-0.2c0-0.1-0.1-0.3-0.2-0.4c-0.1-0.2-0.2-0.4-0.2-0.7c0-0.2-0.1-0.3-0.2-0.5c0-0.1-0.1-0.1-0.1-0.2
		c0-0.3-0.1-0.5-0.2-0.8c-0.1-0.3-0.1-0.6-0.2-0.8c0,0,0,0,0-0.1c0-0.2,0-0.4-0.1-0.6c0-0.1-0.1-0.2,0-0.4c0-0.1,0-0.2-0.1-0.3
		c-0.2-0.2-0.3-0.4-0.5-0.7c0,0,0,0,0,0c-0.3-0.4-0.4-0.8-0.5-1.3c0,0,0-0.1,0-0.2c0-0.1,0-0.2-0.1-0.3c0-0.1-0.1-0.3-0.1-0.4
		c0-0.1-0.1-0.1-0.3-0.1c-0.4,0-0.7-0.1-1.1-0.1c0,0-0.1,0-0.2-0.1c0,0,0-0.1,0-0.1c0,0,0-0.1,0.1-0.1c0,0,0.1,0,0.1,0
		c0.1,0.1,0.2,0,0.3,0c0.1-0.1,0.2-0.1,0.3-0.2c0.3,0.2,0.3,0.2,0.4,0c0-0.2-0.2-0.1-0.4-0.1c-0.3,0-0.7,0-1,0c-0.2,0-0.4,0-0.6,0
		c-0.1,0-0.2,0-0.3-0.1c-0.1,0-0.2-0.1-0.3-0.1c-0.2,0-0.4,0-0.5-0.1c-0.1,0-0.2-0.1-0.2-0.2s-0.1-0.2-0.2-0.2c0,0-0.1,0-0.2,0
		c-0.1,0-0.2-0.1-0.3-0.2c-0.1-0.2-0.1-0.4,0-0.6c0.1-0.1,0.1-0.3,0-0.4c-0.1-0.2-0.1-0.2,0-0.3c0.1-0.1,0.2-0.2,0.3-0.3
		s0.1-0.1,0.3-0.1c0.1,0.1,0.3,0.2,0.5,0.2c0.1,0,0.3,0,0.4,0c0.2,0,0.4,0,0.6,0c0,0,0.1,0,0.2,0c0.4,0,0.7,0,1.1,0
		c0.1,0,0.2,0,0.3,0c0.2,0,0.4,0.1,0.6,0.1c0.2,0,0.5,0,0.7,0c0,0,0.1,0,0.2,0c0.2,0,0.4,0,0.6,0c0.2,0,0.5,0,0.7,0
		c0.3,0,0.5-0.1,0.7-0.2c0,0,0.1,0,0.2,0c0.1,0,0.1,0,0.2-0.1c-0.2,0-0.4-0.1-0.6-0.1s-0.2,0-0.3-0.2c0-0.2,0-0.3-0.2-0.5
		c0.2,0,0.5-0.1,0.7-0.1c0.3,0,0.6,0,0.9,0c0.1,0,0.3,0,0.4,0c0.2,0,0.4,0.1,0.6,0.1c0.1,0,0.2,0,0.3,0.1c0.1,0,0.2,0.1,0.4,0.1
		c0,0,0.1,0,0.1,0.1c0,0.3,0.3,0.5,0.4,0.7c0.1,0.1,0.2,0.3,0.4,0.5c0.1,0.1,0.1,0.2,0,0.2c-0.2,0.1-0.2,0.2-0.2,0.4
		c0,0.2,0,0.4-0.2,0.6c-0.1,0.1-0.1,0.2-0.3,0.2c-0.1,0-0.1,0.1-0.2,0.1c-0.1,0.1-0.3,0.2-0.4,0.1c-0.2,0-0.5,0-0.7,0
		c-0.3,0-0.5,0-0.8,0.1c-0.2,0-0.4,0-0.6,0c0,0-0.1,0-0.1,0c-0.2,0-0.2,0.2-0.1,0.3c0.2,0.2,0.4,0.5,0.5,0.8
		c0.1,0.4,0.2,0.8,0.2,1.3c0,0.4,0.1,0.7,0.2,1c0.1,0.3,0.3,0.7,0.4,1c0,0.1,0.1,0.1,0.2,0.2c0.1,0,0.3,0.2,0.3,0.4s0.1,0.4,0.1,0.6
		c0,0,0,0.1,0,0.1c0.2,0.2,0.3,0.4,0.4,0.7c0,0,0,0.1,0,0.1c0.1,0.1,0.1,0.3,0.1,0.4c0,0.3,0.1,0.6,0.2,0.8c0.1,0.1,0.2,0.3,0.4,0.4
		c0.1,0.1,0.2,0.2,0.2,0.4c0,0.1,0,0.2,0.1,0.2c0.1,0.1,0.3,0.2,0.5,0.3c0.1-0.1,0.1-0.1,0.2-0.3c0-0.2,0.1-0.4,0.2-0.6
		c0.1-0.2,0.2-0.5,0.3-0.7c0.1-0.4,0.3-0.8,0.4-1.2c0.1-0.2,0.1-0.5,0.2-0.7c0,0,0-0.1,0-0.1c0.1-0.1,0.1-0.3,0.1-0.5s0-0.3,0-0.5
		c0-0.1,0-0.2,0.1-0.3c0,0,0-0.1,0.1-0.1c0-0.1,0.1-0.3,0.2-0.5c0.1-0.3,0.2-0.6,0.1-0.8c0.1-0.1,0.2-0.3,0.3-0.5
		c0-0.1,0.1-0.2,0.1-0.3c0.1-0.2,0.1-0.4,0.1-0.6c0-0.2,0-0.4,0.1-0.6c0-0.1,0.1-0.2,0.1-0.4c0,0,0-0.1,0-0.1c0-0.1,0-0.2,0.1-0.3
		c0-0.1,0-0.2-0.2-0.2c-0.2,0-0.5,0-0.7,0c-0.3,0-0.6-0.1-0.8-0.3c0,0-0.1-0.1-0.2-0.2s-0.1-0.1-0.2-0.1c-0.1-0.1-0.1-0.1,0-0.2
		c0.2-0.1,0.2-0.3,0.2-0.6c0,0,0-0.1,0-0.2c0-0.2,0-0.3-0.2-0.4c-0.1,0-0.1-0.1,0-0.2c0,0,0.1-0.1,0.1-0.2c0-0.1,0.1-0.2,0.2-0.3
		c0.1-0.1,0.3-0.2,0.5-0.3c0.2-0.1,0.4-0.2,0.7-0.2c0.1,0,0.3,0,0.5,0c0.3,0,0.6-0.1,0.8-0.1c0.1,0,0.2-0.1,0.3-0.1
		c0,0,0.1-0.1,0.1-0.1c0.3,0,0.6-0.1,0.8,0c0.1,0,0.2,0,0.3,0c0.3,0,0.6,0,0.8,0.1s0.6,0.1,0.8,0.3c0,0.1,0.1,0.1,0.3,0.1
		c0.3-0.1,0.7,0,0.9,0.1c0.1,0.1,0.4,0.1,0.5,0.2c0.1,0,0.2,0.1,0.3,0.1c0.2,0.1,0.4,0.2,0.6,0.4c0,0,0.1,0,0.2,0c0.1,0,0.3,0,0.5,0
		c0.2,0,0.4,0,0.6,0c0.2-0.1,0.3,0,0.4,0.1c0,0,0,0.1,0.1,0.1c0.2-0.1,0.4-0.1,0.5-0.3c0-0.1,0.1-0.1,0.3-0.1c0.2,0,0.5,0,0.7,0
		c0.1,0,0.2,0,0.4,0c0,0,0.1,0,0.2,0c0.3,0.1,0.3,0.1,0.5-0.1c0.1-0.1,0.2-0.1,0.3-0.1c0,0,0.1,0,0.1,0c0.2-0.1,0.4,0,0.5,0
		c0.3,0,0.6,0,0.8-0.2c0.1,0,0.2,0,0.3,0c0.1,0,0.2,0,0.3,0c0.1,0,0.1,0,0.2,0c0.3,0,0.5,0,0.8-0.1c0,0,0.1,0,0.2,0
		c0.4,0,0.7,0,1.1,0.2c0.2,0.1,0.4,0.2,0.6,0.2c0.2,0.1,0.2,0.1,0.2,0.4c0.1,0.1,0.3,0.2,0.5,0.2c0.3,0.1,0.3,0.1,0.3,0.4
		c0,0,0.1,0.1,0.1,0.2c0.1,0,0.2,0,0.2,0c0.1,0,0.2,0.1,0.1,0.2c-0.1,0.2-0.3,0.4-0.5,0.6c-0.1,0.1-0.2,0.2-0.4,0.3
		c-0.2,0.1-0.3,0.2-0.6,0.3c-0.1,0-0.2,0-0.3,0.1c-0.2,0.1-0.4,0.2-0.7,0c0,0-0.1,0-0.1,0c-0.1,0-0.3,0.1-0.5,0.1
		c-0.2,0-0.2,0.1-0.2,0.3c0,0.2,0.1,0.3,0.1,0.5c0.1,0.3,0.1,0.7,0.2,1c0,0.1,0,0.3,0.1,0.4c0,0.1,0.1,0.3,0.1,0.5
		c0.1,0.5,0.2,0.9,0.3,1.4c0.1,0.3,0.2,0.7,0.3,1c0,0.2,0.1,0.4,0.1,0.6c0,0.3,0.1,0.5,0.3,0.7c0.1,0.1,0.1,0.2,0.2,0.3
		c0.1,0.2,0.1,0.5,0.2,0.7c0,0.1,0.1,0.1,0.1,0.2c0.1,0.1,0.1,0.2,0.2,0.3c0,0,0,0.1,0.1,0.2c0.2,0.4,0.3,0.7,0.4,1.1
		c0,0.2,0,0.4,0.1,0.6c0.1,0.3,0.2,0.6,0.2,0.9c0,0.2,0.1,0.5,0.1,0.7c0,0.1,0,0.2,0.1,0.2c0.1,0.1,0.1,0.1,0.2,0
		c0-0.1,0.1-0.2,0.1-0.3c0.1-0.3,0.2-0.7,0.3-1c0.1-0.2,0.2-0.5,0.3-0.7c0.1-0.4,0.3-0.7,0.4-1.1c0.1-0.2,0.1-0.5,0.2-0.7
		c0,0,0,0,0-0.1c0.2-0.5,0.4-0.9,0.6-1.3c0-0.1,0.1-0.3,0.2-0.4c0.1-0.4,0.3-0.8,0.4-1.3c0.1-0.4,0.3-0.8,0.4-1.2
		c0.1-0.3,0.2-0.5,0.3-0.8c0-0.1,0.1-0.1,0.2-0.1c0.2,0.1,0.2,0.1,0.3,0c0,0,0,0,0.1-0.1c0,0,0,0,0,0c0,0-0.1-0.1-0.1-0.1
		c0,0-0.1-0.1,0-0.2c0-0.1,0-0.2,0-0.2c0-0.1,0-0.2,0-0.3c0.1-0.1,0-0.2,0-0.3c-0.1-0.2,0-0.6,0.3-0.6c0.1,0,0.3-0.1,0.4-0.2
		c0.2-0.1,0.1-0.3,0-0.4c-0.2-0.1-0.5-0.1-0.7-0.1c-0.2,0-0.5,0-0.7-0.1c-0.1,0-0.2,0-0.3,0c-0.1,0-0.2,0-0.3-0.1
		c-0.1-0.1-0.3-0.1-0.4-0.1c-0.5,0-1-0.4-0.9-0.9c0-0.1,0-0.2,0-0.3l0,0c0-0.4,0.3-0.7,0.7-0.7c0.3,0,0.5-0.1,0.7-0.3
		c0.2-0.1,0.4-0.2,0.6-0.1c0.1,0,0.2,0,0.2,0c0.1,0,0.2-0.1,0.4,0c0,0,0.1,0,0.2,0c0.4,0,0.9,0,1.3,0c0.3,0,0.6,0,0.8,0
		c0.5,0,0.9,0,1.3,0.1c0.1,0,0.2,0.1,0.2,0.2c0.1,0.2,0.4,0.2,0.6,0.3c0,0,0.1,0,0.2,0c0,0,0.1,0,0.2,0c0.2,0,0.4,0.1,0.7,0.2
		c0,0,0,0,0.1,0.1c0.1,0.1,0.2,0.2,0.3,0.3c0.1,0.1,0.1,0.3,0.2,0.4c0.1,0.1,0.1,0.2,0.1,0.3c0,0.1,0,0.2,0,0.3c0,0.1,0,0.3-0.1,0.3
		c0,0,0,0.1-0.1,0.1c-0.1,0.1-0.1,0.1-0.2,0.2c-0.1,0-0.2,0.1-0.3,0.2c0,0-0.1,0.1-0.2,0.1c0,0-0.1,0-0.2,0c-0.3,0-0.6,0-0.9,0
		c0,0-0.1,0-0.1,0c-0.2,0.1-0.5,0.1-0.7,0.2c-0.1,0-0.2,0.2-0.3,0.4c-0.1,0.2-0.2,0.5-0.4,0.7c-0.1,0.2-0.1,0.1,0,0.3
		c0.1,0.1,0,0.2,0,0.2c0,0.1-0.1,0.2-0.2,0.3c0,0-0.1,0.1-0.1,0.2c0,0.4-0.2,0.7-0.3,1s-0.1,0.6,0,0.9c0,0,0,0.1,0,0.1
		c-0.1,0.4,0,0.8-0.2,1.2c0,0.1,0,0.2,0,0.3c0,0.2,0,0.3-0.1,0.5c-0.1,0.2-0.2,0.5-0.2,0.7c0,0,0,0.1,0,0.1
		c-0.1,0.2-0.2,0.4-0.3,0.7c-0.1,0.4-0.3,0.7-0.6,1.1c-0.1,0.1-0.2,0.3-0.3,0.4c-0.2,0.2-0.3,0.5-0.7,0.6c0,0-0.1,0-0.1,0.1
		c-0.1,0.2-0.3,0.5-0.4,0.7c0,0.1-0.1,0.2-0.2,0.2c0,0-0.1,0.1-0.1,0.1c-0.1,0.4-0.3,0.7-0.5,1.1c0,0.1-0.1,0.3-0.2,0.4
		c-0.1,0.4-0.3,0.7-0.5,1.1c-0.1,0.3-0.3,0.6-0.4,0.9c0,0.1-0.1,0.2-0.1,0.3c0,0.1-0.1,0.1-0.1,0.2c-0.3,0.6-0.6,1.1-0.9,1.6
		c-0.2,0.3-0.4,0.6-0.6,0.8c-0.5,0.6-0.9,1.1-1.4,1.6c-0.1,0.1-0.1,0.1-0.2,0.2c0,0,0,0-0.1,0c-0.1,0.2-0.3,0.4-0.5,0.6
		c0,0-0.1,0.1-0.1,0.2c0,0.1-0.1,0.2-0.2,0.2c-0.1,0-0.3,0-0.4,0c-0.3,0-0.5,0-0.8,0.1c-0.3,0-0.6,0.1-0.9,0c-0.3,0-0.6,0-0.8,0.1
		c-0.1,0-0.2,0-0.2,0c-0.1,0-0.3,0-0.4,0.1c0,0-0.1,0-0.2,0c-0.2,0-0.3-0.1-0.5-0.2c-0.3-0.2-0.7-0.4-1-0.5
		c-0.2-0.1-0.4-0.2-0.5-0.3c0,0-0.1-0.1-0.2-0.1c-0.1-0.2-0.3-0.2-0.4-0.1c0,0,0,0-0.1,0c-0.3-0.3-0.7-0.4-1-0.6
		c-0.1,0-0.2-0.1-0.2-0.3c0-0.3-0.1-0.5-0.3-0.7c-0.3-0.2-0.4-0.5-0.3-0.9c0-0.1,0-0.2,0-0.3c0-0.1,0.1-0.2,0.1-0.3
		c0.2-0.2,0.3-0.6,0.5-0.8c0.2-0.2,0.4-0.5,0.7-0.7c0.2-0.1,0.4-0.2,0.7-0.3c0,0,0.1,0,0.2,0c0.2,0,0.4,0,0.6,0.1c0,0,0.1,0,0.1,0
		c0.1,0,0.2,0,0.4,0.1c0.1,0.1,0.2,0.2,0.3,0.3c0,0,0.1,0.1,0.2,0.1c0.3,0.1,0.5,0.4,0.6,0.7c0,0.1,0.1,0.3,0,0.5c0,0,0,0.1,0,0.1
		c0,0.2,0,0.4-0.2,0.5c-0.2,0.1-0.4,0.2-0.6,0.3c0,0-0.1,0.1-0.1,0.1c0,0.1,0,0.1,0,0.2c0.1,0,0.2,0.1,0.2,0.3
		c0,0.1,0.1,0.2,0.2,0.2s0.2,0,0.2,0c0.1,0,0.3,0,0.4-0.1s0.2-0.1,0.3-0.1c0.1,0,0.2-0.1,0.3-0.2c0,0,0.1,0,0.1,0c0,0,0,0,0,0.1
		c0,0,0,0,0,0.1c-0.4,0-0.3,0.3-0.4,0.5c0,0.1,0,0.1,0.1,0.2c0.3-0.2,0.4-0.5,0.8-0.6c0,0.1,0,0.2,0,0.3c0,0.2,0.1,0.3,0.2,0.3
		c0.2,0,0.2,0,0.4-0.2c0.1-0.2,0.1-0.1,0.3-0.1c0.1,0,0.1,0,0.2,0.1c0.1-0.3,0.1-0.7,0.4-0.8c0.2,0.1,0.4,0.2,0.7,0.2
		c0.1,0,0.2,0,0.2,0.2c0,0.1,0,0.2,0.1,0.3c0.1,0.2,0.3,0.3,0.6,0.2c0-0.1,0-0.2-0.1-0.3c-0.2-0.5-0.2-1,0.1-1.5
		c0.2-0.3,0.3-0.6,0.5-0.8c0,0,0-0.1,0.1-0.1c0.1-0.1,0.2-0.4,0.2-0.6c0-0.2,0.1-0.4,0.2-0.7c0-0.1,0.1-0.1,0.2,0c0,0,0,0,0.1,0
		c0,0,0.1,0,0.1,0c0,0,0-0.1,0-0.1s-0.1-0.1-0.1-0.2c-0.1-0.1-0.3-0.2-0.4-0.4c0-0.2,0-0.5-0.1-0.7c0,0,0-0.1,0-0.2
		c-0.1-0.2-0.2-0.5-0.3-0.7c0-0.1-0.1-0.2-0.2-0.3c-0.1-0.2-0.2-0.5-0.2-0.7c0-0.2,0.2-0.4,0.3-0.6c0,0,0.1-0.1,0.1-0.2c0,0,0,0,0,0
		c-0.2,0-0.4,0-0.6-0.2c-0.1,0-0.2,0-0.3,0c-0.3,0-0.5-0.1-0.5-0.4c0-0.2-0.1-0.3-0.2-0.5c0-0.1,0-0.1,0-0.2c0-0.1,0-0.3,0-0.4
		c-0.1-0.2-0.1-0.3-0.1-0.6c0-0.2,0-0.5-0.1-0.7c0,0,0,0,0-0.1c0-0.4-0.3-0.7-0.4-1c0,0,0,0,0-0.1c-0.1-0.1-0.2-0.3-0.2-0.5
		c0-0.1,0-0.2-0.1-0.3c0,0-0.1-0.1,0-0.2c0-0.3-0.1-0.5-0.2-0.7c-0.1-0.3-0.3-0.6-0.4-0.9c0,0,0-0.1,0-0.1c-0.2-0.3-0.3-0.6-0.4-0.9
		C38.8,48,38.8,47.9,38.7,47.9z"/>
	<path d="M21.1,46.8c0.2,0.2,0.3,0.5,0.4,0.7c0,0,0,0.1,0,0.1c0,0.2,0,0.4,0.1,0.7c0.1,0.2,0.1,0.5,0,0.7c0,0,0,0,0,0
		c-0.1-0.1-0.1-0.3-0.3-0.4c0,0.2,0,0.3,0.2,0.5c0.1,0.1,0.1,0.2,0.2,0.3c0.1,0.2,0.3,0.4,0.6,0.4c0.1,0.2,0.2,0.4,0.3,0.7
		c0,0,0,0.1,0,0.1c0.1,0.2,0.1,0.5,0.1,0.7c0,0.1,0,0.2,0.1,0.2c0.1,0.1,0.2,0.2,0.1,0.4c-0.1,0.5,0.2,0.8,0.5,1.2
		c0.2,0.2,0.4,0.5,0.6,0.7c0.1,0.1,0.1,0.2,0.2,0.3c0.1-0.2,0.2-0.3,0.3-0.5c0.2-0.5,0.4-1,0.6-1.4c0.1-0.2,0.2-0.4,0.3-0.6
		c0.1-0.2,0.2-0.5,0.2-0.8c0-0.3,0-0.7,0.2-1h0c0,0.2,0,0.3,0,0.5c0,0.1,0,0.3-0.1,0.5c0,0,0,0.1,0,0.1c0,0.2-0.1,0.5-0.2,0.7
		c-0.1,0.4-0.3,0.8-0.4,1.2c-0.1,0.2-0.2,0.5-0.3,0.7c-0.1,0.2-0.1,0.4-0.2,0.6c0,0.1,0,0.2-0.2,0.3c-0.1-0.1-0.3-0.2-0.5-0.3
		c0,0-0.1-0.1-0.1-0.2c0-0.1-0.1-0.3-0.2-0.4c-0.1-0.1-0.2-0.3-0.4-0.4c-0.2-0.2-0.2-0.5-0.2-0.8c0-0.1,0-0.3-0.1-0.4
		c0,0,0-0.1,0-0.1c-0.1-0.2-0.1-0.5-0.4-0.7c0,0,0-0.1,0-0.1c0-0.2-0.1-0.4-0.1-0.6c0-0.2-0.1-0.3-0.3-0.4c-0.1,0-0.2-0.1-0.2-0.2
		c-0.1-0.3-0.3-0.7-0.4-1c0-0.3,0-0.6,0-0.8c0-0.1,0-0.2,0-0.3c0-0.1,0-0.3,0-0.5C21.1,46.9,21.1,46.8,21.1,46.8z"/>
	<path d="M25.6,49.7L25.6,49.7L25.6,49.7c-0.2-0.2-0.2-0.4-0.1-0.6c0.2-0.4,0.4-0.8,0.6-1.3c0,0,0,0,0,0.1c0.1,0.3,0,0.6-0.1,0.8
		c0,0.1-0.1,0.3-0.2,0.5c0,0,0,0.1-0.1,0.1C25.7,49.5,25.6,49.6,25.6,49.7z"/>
	<path d="M42.6,41.7c0.2,0,0.2,0.1,0.3,0.2C42.8,41.9,42.7,41.8,42.6,41.7z"/>
	<path d="M41.3,41.7c0.1-0.1,0.3,0,0.5,0C41.7,41.8,41.5,41.7,41.3,41.7z"/>
	<path d="M20.9,46.5c0,0.1,0.1,0.2,0.1,0.3C20.9,46.7,20.9,46.6,20.9,46.5z"/>
	<path d="M54.8,28.9c0-0.1,0-0.1,0.1-0.2c0.1-0.1,0.2-0.2,0.4-0.3c0.3-0.2,0.6-0.2,0.9-0.2c0,0,0.1,0,0.1,0c0.1,0.1,0.2,0.1,0.4,0.2
		c0.1,0.1,0.3,0.3,0.3,0.5c0,0.2,0.1,0.3,0.4,0.3c0.1,0,0.1,0.1,0.1,0.2c-0.1,0.6-0.3,1.1-0.6,1.6c-0.1,0.1-0.2,0.2-0.3,0.4
		c0,0,0,0.1-0.1,0.2c-0.1,0.2-0.3,0.4-0.4,0.7c-0.1,0.2-0.3,0.4-0.5,0.5c-0.2,0.1-0.4,0.3-0.6,0.4c-0.4,0.2-0.7,0.5-1.1,0.7
		c0,0,0,0-0.1,0.1c0,0-0.1,0-0.1,0c-0.2,0.2-0.5,0.3-0.7,0.4c-0.1,0-0.3,0.1-0.4,0.2l0,0c0,0-0.1,0-0.1,0c-0.2,0.3-0.6,0.3-0.8,0.4
		c-0.3,0-0.6,0-0.8,0.1c-0.4,0.1-0.8,0.1-1.2,0.2c-0.4,0.1-0.9,0.1-1.3,0.1c-0.1,0-0.1,0-0.2-0.1c-0.3-0.2-0.7-0.3-1-0.6
		c0,0-0.1-0.1-0.1-0.2c-0.1-0.1-0.2-0.2-0.4-0.2c-0.1,0-0.2,0-0.3-0.1c-0.3-0.2-0.6-0.4-0.9-0.6c-0.2-0.1-0.4-0.2-0.6-0.2
		c-0.1,0-0.1,0-0.2-0.1c-0.1,0-0.2-0.1-0.2-0.3c0-0.1,0-0.1-0.1-0.2c-0.2-0.2-0.3-0.5-0.5-0.7l0,0c-0.1-0.2-0.2-0.4-0.3-0.6
		c-0.2-0.4-0.4-0.8-0.6-1.2c0-0.1-0.1-0.2-0.1-0.3c-0.1-0.3-0.3-0.6-0.4-0.9c0-0.1,0-0.2,0-0.3c0-0.3,0-0.6,0-0.8
		c0-0.2-0.1-0.5,0-0.7c0-0.1,0-0.1,0-0.2c-0.1-0.1-0.1-0.2,0-0.3c0,0,0,0,0.1,0c0.1,0,0.1-0.1,0-0.2c-0.1-0.1-0.2-0.2-0.3-0.3
		C42,26.2,42,26.1,42,26c0-0.4,0-0.7,0-1.1c0-0.2,0-0.3,0.2-0.5c0.1-0.1,0-0.2,0.1-0.4c0-0.1,0-0.2,0-0.2c0.1-0.2,0-0.4-0.1-0.6
		c-0.1-0.1-0.1-0.2-0.1-0.4c0,0,0-0.1,0-0.1c-0.1,0-0.1,0-0.1,0.1c0,0-0.1,0.1-0.1,0.2c-0.1,0-0.1-0.1-0.1-0.2c0-0.1,0-0.2,0.1-0.3
		c0-0.1,0.1-0.2,0.2-0.3c0.1-0.2,0.3-0.5,0.5-0.7c0.2-0.3,0.4-0.7,0.6-1c0.4-0.5,0.8-1,1.4-1.3c0.1-0.1,0.3-0.2,0.4-0.3
		c0.2-0.1,0.4-0.3,0.6-0.5c0,0,0.1-0.1,0.1-0.1c0-0.1,0-0.2-0.1-0.2c-0.1,0-0.1,0-0.2,0c0-0.1,0-0.2,0.1-0.2
		c0.4-0.1,0.8-0.2,1.2-0.4c0.2,0,0.5-0.1,0.7-0.1c0.2,0,0.3,0,0.5,0c0.1,0,0.2,0,0.4,0c0,0,0.1,0,0.2,0c0,0,0.1,0,0.1,0
		c0.3,0,0.7,0,1-0.1c0,0,0.1,0,0.2-0.1c0.2-0.1,0.4-0.2,0.7-0.1c0.4,0,0.8,0.1,1.2,0.1c0.3,0,0.6,0.1,0.8,0.3
		c0.2,0.2,0.4,0.3,0.7,0.3c0.1,0,0.2,0,0.2,0c0.1,0,0.2,0,0.2,0c0,0.1,0.1,0.1,0.1,0.2c0,0.2,0.1,0.3,0.3,0.4
		c0.2,0.2,0.4,0.3,0.7,0.5c0,0,0,0,0.1,0.1c0.1,0.1,0.2,0.2,0.4,0.3c0.1,0,0.2,0.1,0.1,0.3c0,0.2,0,0.4,0.2,0.5c0,0,0.1,0,0.2,0
		c0.1-0.1,0.3-0.2,0.5-0.2c0,0,0.2,0,0.2,0c0.2,0.1,0.4,0.2,0.5,0.5c0,0.1,0.1,0.1,0.2,0.1c0.2,0,0.2,0,0.2,0.2c0,0.1,0,0.2,0.1,0.2
		c0.2,0,0.2,0.2,0.2,0.3c0,0.1,0,0.2,0,0.3c0,0.1,0,0.2,0,0.3c0,0.1,0,0.2,0,0.3c0,0.2,0,0.2-0.1,0.3s-0.1,0-0.1,0.2
		c0,0.3,0.1,0.6,0.1,0.9c0,0,0,0.1-0.1,0.2c-0.1,0.1-0.2,0.3-0.1,0.5c0.1,0.1,0.1,0.3,0.2,0.5c0,0,0,0.1-0.1,0.2
		c0.2,0.2,0.2,0.2,0.5,0.2c0,0.2,0,0.4-0.1,0.5c-0.1,0.1-0.2,0.2-0.4,0.3c-0.1,0-0.1,0.1-0.2,0.2c0.1,0.1,0.2,0.2,0.3,0.3
		c-0.1,0.1-0.2,0.1-0.4,0.2c-0.3,0-0.5,0-0.8,0.1c0,0,0,0-0.1,0c-0.2,0.1-0.4,0.1-0.6,0.1c-0.1,0-0.3,0-0.4,0c-0.2,0-0.5,0-0.7,0
		c-0.6,0-1.1,0-1.6,0c-0.3,0-0.6,0-0.8,0h0c-0.1,0.1-0.3,0.1-0.5,0.1c-0.1,0-0.1,0-0.2,0.1c0,0.1-0.2,0.1-0.3,0.1
		c-0.2,0-0.4,0-0.6,0c-0.1,0-0.1,0-0.2,0c-0.2,0-0.5,0-0.7,0c0,0-0.1,0-0.1,0c-0.1,0-0.2,0-0.3,0.1c0,0.1-0.1,0.1-0.2,0.1
		c-0.2,0-0.5,0-0.7,0c-0.4,0-0.7,0-1.1,0c-0.3,0-0.6,0-0.8-0.3c0,0.1-0.1,0.2-0.1,0.2c0,0.4-0.1,0.7-0.1,1.1c0,0.3,0,0.6,0,0.8
		c0,0.1,0,0.2,0,0.4c0,0.3,0.1,0.5,0.2,0.7c0.1,0.1,0.2,0.2,0.1,0.4c0,0.1,0,0.2,0.1,0.3c0.1,0.1,0.1,0.2,0.2,0.3
		c0,0.2,0.2,0.4,0.4,0.5c0.2,0.1,0.4,0.2,0.6,0.3c0.1,0,0.2,0.1,0.3,0c0.1-0.1,0-0.2,0-0.3s0-0.1,0-0.2c0.3,0.1,0.5,0.3,0.7,0.4
		c0,0.1,0.2,0.1,0.3,0.1c0.2,0,0.4,0.1,0.6,0c0.3-0.1,0.5,0,0.7,0.1c0,0-0.1,0.1-0.2,0.2c-0.1,0.1,0,0.2,0.1,0.2c0,0,0.1,0,0.2,0
		c0.3,0,0.4,0,0.6,0.2c0.1,0.1,0.1,0.1,0.3,0.1c0.2,0,0.5,0,0.7-0.1c0,0,0.1,0,0.2,0c0.2-0.1,0.4-0.2,0.5-0.3
		c0.4-0.4,0.8-0.9,1.3-1.3c0,0,0.1-0.1,0.1-0.2c0.1-0.3,0.2-0.6,0.4-0.8c0.1-0.1,0.1-0.2,0-0.3c0,0,0-0.1-0.1-0.1
		c0.1,0,0.1-0.1,0.2-0.2C54.6,29.2,54.8,29.1,54.8,28.9z M49.5,24.2c0,0,0.1,0,0.2,0c0.1,0,0.3,0,0.5,0c0.1,0,0.2,0,0.3,0.2
		c0,0.1,0.1,0.2,0.2,0.2c0.1,0.1,0.2,0.1,0.4,0c0.1,0,0.2,0,0.3-0.1c0.3-0.1,0.6-0.1,0.8-0.2c0.3,0,0.5-0.1,0.8-0.1
		c0.2,0,0.5,0,0.7,0s0.5,0,0.7-0.1c0.3,0,0.4-0.2,0.3-0.5c0,0,0,0,0-0.1c0-0.2,0-0.5,0-0.7c0,0,0-0.1-0.1-0.1c0-0.2,0-0.3-0.1-0.5
		c0-0.1-0.1-0.2-0.1-0.3c0-0.1,0-0.2-0.1-0.3c-0.1-0.2-0.2-0.4-0.3-0.6c0,0-0.1-0.1-0.1-0.1c-0.2-0.1-0.3-0.2-0.4-0.4
		c0,0-0.1-0.1-0.1-0.1c-0.2-0.1-0.4-0.2-0.5-0.4c-0.1-0.1-0.3-0.1-0.5-0.2c-0.1,0-0.2,0-0.2,0.1c0,0.1,0.1,0.2,0.2,0.2
		c0.1,0,0.2,0.1,0.3,0.2c0,0.1,0.1,0.1,0.2,0.2c0.1,0,0.1,0.1,0.1,0.2c0,0.2,0,0.4,0,0.6c0,0,0,0.1-0.1,0.2c0,0-0.2,0-0.2,0
		c0,0,0-0.1-0.1-0.1c0-0.1-0.1-0.3-0.2-0.4c-0.1-0.2-0.1-0.3-0.4-0.2c0,0,0,0-0.1,0c0,0,0,0,0-0.1c0-0.2,0-0.2-0.3-0.2
		c-0.1,0-0.2,0-0.2-0.1c-0.2-0.3-0.5-0.4-0.8-0.4c-0.2,0-0.5,0-0.6,0.2c0,0-0.1,0.1-0.2,0.1c-0.1,0-0.3,0-0.5,0c-0.4,0-0.7,0-1.1,0
		c0,0-0.1,0-0.2,0.1c0.1,0,0.2,0.1,0.3,0.1c-0.1,0.1-0.2,0.1-0.3,0.1c-0.1,0-0.3,0-0.4,0.1c-0.2,0.1-0.5,0.3-0.7,0.4
		c-0.5,0.3-1,0.5-1.3,1c0,0-0.1,0-0.1,0.1c-0.1,0.1-0.1,0.2-0.2,0.3c-0.1,0.2-0.1,0.5-0.2,0.7c0,0.1,0,0.2,0.1,0.3
		c0,0,0.1,0.1,0.1,0.1c0,0.1,0.1,0.2,0.2,0.3c0.1,0.2,0.4,0.2,0.6,0c0.2-0.1,0.2-0.1,0.3,0c0.2,0.2,0.5,0.2,0.7,0
		c0.1-0.1,0.3-0.1,0.5-0.1c0.1,0,0.3,0,0.5,0c0.1,0,0.2,0,0.4,0c0,0,0.1,0,0.2,0c0.1-0.1,0.3,0,0.4,0c0.1,0,0.3,0,0.4,0
		C49.5,24.2,49.5,24.2,49.5,24.2z"/>
	<path d="M54.8,28.9c0,0.2-0.2,0.2-0.4,0.4c0,0-0.1,0.1-0.2,0.2c0,0,0,0.1,0.1,0.1c0.1,0.1,0.1,0.2,0,0.3c-0.1,0.2-0.3,0.5-0.4,0.8
		c0,0.1-0.1,0.2-0.1,0.2c-0.4,0.4-0.8,0.9-1.3,1.3c-0.1,0.1-0.3,0.2-0.5,0.3c0,0-0.1,0-0.2,0c-0.2,0-0.5,0-0.7,0.1
		c-0.2,0-0.3,0-0.3-0.1c-0.1-0.3-0.2-0.3-0.6-0.2c0,0-0.1,0-0.2,0c-0.1,0-0.2-0.1-0.1-0.2c0,0,0.1-0.1,0.2-0.2
		c-0.2-0.1-0.5-0.2-0.7-0.1c-0.2,0.1-0.4,0-0.6,0c-0.1,0-0.2,0-0.3-0.1h0c0.4,0.1,0.9,0.1,1.3,0c0.1,0,0.2,0,0.4-0.1c0,0,0,0,0.1,0
		c0.2-0.1,0.4-0.1,0.6-0.1c0.1,0,0.2,0,0.3,0c0,0,0.1,0,0.1,0c0,0,0,0.1-0.1,0.1c0,0-0.1,0.1-0.2,0.1c0,0-0.1,0.1-0.1,0.2
		c0,0,0.1,0.1,0.1,0.1c0.1,0,0.2,0.1,0.3,0c0.1,0,0.2,0,0.3,0.1c0.2,0.2,0.3,0.2,0.5,0c0.1-0.1,0.2-0.2,0.4-0.3l0,0
		c0.3-0.4,0.7-0.6,0.9-1c0.2-0.2,0.3-0.5,0.4-0.7c0-0.1,0-0.2,0-0.3c0-0.3,0.1-0.6,0.4-0.7c0,0,0,0,0.1-0.1c0,0,0.1-0.1,0.2-0.1
		C54.7,29,54.8,29,54.8,28.9z"/>
	<path d="M19.8,28c0,0.1-0.1,0.3-0.1,0.4c0,0.3-0.1,0.6-0.1,0.8c0,0.1,0,0.3,0.1,0.4c0.1,0.3,0.1,0.5,0,0.8c0,0.1-0.1,0.2,0,0.3
		c0.1,0,0.1-0.1,0.1-0.2c0-0.1,0.1-0.2,0.2-0.3s0.2,0,0.2,0.1c0,0.1,0,0.2,0,0.3c0,0,0,0.1,0,0.2c0.1,0,0.2-0.1,0.3-0.1
		c0.2,0,0.2,0.1,0.2,0.4c0,0,0,0,0.1,0c0.1,0,0.1,0.1,0.1,0.2c0,0,0,0.1,0,0.2c0,0.1,0,0.2,0.1,0.3c0.1,0.1,0.3,0.2,0.5,0.3
		c0,0,0.1,0,0.1,0.1c0.2,0.2,0.5,0.4,0.7,0.6c0,0.1,0,0.2,0,0.4c0.2,0.3,0.2,0.6,0,0.8c0,0,0,0,0,0.1c-0.1,0.2-0.1,0.2-0.4,0.1
		c-0.1,0-0.1,0-0.2,0c-0.3,0.2-0.7,0.2-1.1,0.3c-0.1,0-0.2,0-0.3,0c-0.1,0-0.2-0.1-0.2-0.2c0,0-0.1-0.1-0.1-0.1c0,0-0.1,0.1-0.1,0.1
		c0,0.1,0,0.2,0,0.3c0,0.2,0,0.3-0.2,0.3s-0.3,0.1-0.5,0.2s-0.3,0.2-0.5,0.3c0,0-0.1,0-0.1,0c-0.1-0.1-0.2-0.1-0.4-0.1
		c0,0-0.1-0.1-0.1-0.1c-0.1-0.2-0.2-0.2-0.4-0.2c-0.2,0.1-0.4,0.1-0.7,0c-0.1,0-0.3,0-0.4,0.1c-0.1,0.1-0.2,0.2-0.4,0.3
		c-0.1,0-0.2,0-0.4,0c-0.1,0-0.2-0.1-0.3-0.1c-0.3-0.1-0.6-0.3-0.8-0.4c-0.3-0.1-0.6-0.3-0.9-0.5c-0.1-0.1-0.3-0.2-0.4-0.3
		c-0.1-0.1-0.1-0.1-0.1-0.3c0-0.1,0-0.3-0.1-0.4c0-0.2,0-0.4,0.2-0.5c0.3-0.1,0.6-0.2,0.9-0.2c0.1,0,0.2,0,0.3,0
		c0.2-0.1,0.4,0,0.6-0.1c0.2,0,0.3,0,0.5,0c0.1,0,0.2-0.1,0.3-0.2c0.1-0.2,0.2-0.4,0.1-0.6c0,0,0,0,0-0.1c0,0,0.1,0.1,0.2,0.2
		c0.1,0,0.2,0,0.2-0.1c0-0.1,0-0.3,0-0.4c-0.1-0.3,0-0.7,0-0.9c0,0,0-0.1,0-0.1c-0.1-0.2,0-0.4,0-0.7c0,0,0-0.1,0-0.2
		c-0.1-0.3-0.1-0.6-0.1-0.8c0-0.2,0-0.4,0-0.7c0-0.2,0-0.4,0-0.6c0-0.2,0-0.3,0-0.5c0-0.1,0-0.3,0-0.4c0,0,0-0.1,0-0.1
		c0-0.2-0.1-0.4-0.1-0.6c0,0,0,0,0-0.1c0-0.4,0-0.8,0-1.3c0-0.1,0-0.1-0.1-0.2c-0.1,0-0.1,0-0.2,0.3c-0.1,0-0.1-0.1-0.1-0.2
		c0-0.3,0.1-0.7,0.1-1c0-0.2,0-0.4,0-0.6c0-0.1,0-0.2,0-0.3c0.1-0.3,0.1-0.7,0.1-1.1c0-0.2,0-0.5,0-0.7c0-0.3,0.1-0.7,0-1
		c-0.1-0.1,0-0.4,0-0.6c0-0.1,0-0.1,0-0.2c0-0.3,0-0.6,0.3-0.7c0.1-0.1,0.1-0.2,0.1-0.3c0-0.1,0-0.3,0-0.5c0,0,0-0.1,0-0.1
		c0.1-0.4,0-0.8,0-1.2c0-0.1,0-0.2-0.1-0.3c0-0.1-0.1-0.2,0-0.3c0-0.1,0-0.1-0.1-0.2c-0.3-0.1-0.6-0.4-0.9-0.5
		c-0.4-0.1-0.7-0.3-1.1-0.6c-0.3-0.1-0.6-0.2-0.9-0.2c-0.2,0-0.3-0.1-0.3-0.3c0-0.2-0.1-0.4-0.2-0.6s0-0.4,0.1-0.6
		c0.1-0.1,0.1-0.3,0.3-0.4c0.1,0,0.1-0.1,0.2-0.1c0.1,0,0.2,0,0.4-0.1c0.2,0,0.3-0.1,0.5,0c0.2,0,0.4-0.2,0.3-0.4
		c-0.1-0.2-0.1-0.3,0.1-0.4c0.2-0.1,0.4-0.1,0.5-0.2c0.1,0,0.2,0,0.3,0c0.1,0,0.3,0.1,0.4,0c0,0,0.1,0,0.1,0
		c0.3,0.2,0.6,0.1,0.8,0.2c0.1,0,0.3,0,0.4,0.1c0.2,0,0.4,0.1,0.6,0c0,0,0.1,0,0.2,0.1c0.1,0,0.1,0.1,0.2,0.2
		c0.1,0.1,0.1,0.2,0.2,0.2c0.2,0,0.3,0.2,0.4,0.4c0.1,0.1,0.2,0.3,0.3,0.4l0,0c0.3,0,0.4,0.4,0.7,0.6c0.3,0.3,0.5,0.6,0.8,0.9
		c0.1,0.1,0.1,0.2,0.1,0.3c0,0.2,0,0.4,0,0.7c0,0.2,0,0.4,0,0.6c0,0.1-0.1,0.3-0.1,0.5c0,0,0,0.1-0.1,0.1c-0.1,0.1-0.2,0.1-0.3,0.2
		c0-0.1-0.1-0.1-0.2-0.3c0,0.1-0.1,0.1-0.1,0.2c0,0.2,0,0.3,0,0.5c0,0.1,0,0.2,0,0.3c0,0.3-0.1,0.5-0.1,0.8
		c-0.1,0.3-0.1,0.6,0.1,0.8c0.1,0.1,0.1,0.2,0.1,0.4c0,0,0,0,0,0c0.2,0.3,0,0.6,0,0.8c0,0.1,0,0.2,0.1,0.2c0.2,0.2,0.3,0.4,0.2,0.7
		c0,0,0,0.1,0,0.2c0,0.1,0,0.3,0,0.5c0,0,0,0.1,0,0.2c0.1,0.2,0.1,0.3,0.1,0.5c0,0.1,0,0.1,0,0.2c0,0.3,0.1,0.5,0.1,0.8
		c0,0.2,0,0.3,0.1,0.5c0.1,0.3,0.1,0.6,0,0.8c0,0,0,0.1-0.1,0.2c0-0.1-0.1-0.1-0.1-0.1c0.1,0,0.1,0,0.1,0c0,0-0.1-0.1-0.2-0.1
		c0,0-0.1,0.1-0.1,0.2c0,0.3,0,0.6,0,0.8l0,0c0,0.1,0,0.3-0.1,0.4c0,0,0,0.1-0.1,0.2C20,26.1,20,26.2,20,26.4c0,0.1,0,0.3,0,0.5
		c-0.1,0.2-0.1,0.4-0.1,0.6c0,0,0,0.1,0,0.1C19.8,27.6,19.8,27.8,19.8,28L19.8,28z"/>
	<path d="M36,31.2c0.2-0.2,0.3-0.4,0.3-0.7c0-0.3,0.1-0.7,0.4-0.9c0.1-0.1,0.1-0.1,0.1-0.3c0-0.2,0.1-0.4,0.2-0.6
		c0,0,0.1-0.1,0.1-0.2c0.1-0.2,0.3-0.3,0.5-0.4c0,0,0.1,0,0.1,0c0.2,0,0.4,0,0.5,0.1c0,0,0.1,0,0.2,0.1c0.1,0.1,0.2,0.2,0.3,0.3
		c0.2,0.1,0.3,0.2,0.3,0.4c0,0.4,0.1,0.7,0,1.1c-0.1,0.4-0.2,0.8-0.4,1.2c0,0,0,0.1,0,0.2c0,0.1,0,0.2-0.1,0.3
		c-0.3,0.2-0.5,0.5-0.8,0.7c-0.1,0.1-0.2,0.1-0.3,0.2c-0.3,0.3-0.7,0.6-1.1,0.8c-0.1,0-0.2,0.2-0.3,0.3c-0.2,0.1-0.4,0.2-0.7,0.4
		c-0.1,0-0.2,0-0.2,0.1c-0.2,0.3-0.6,0.3-0.8,0.3c-0.2,0-0.3,0.1-0.3,0.3c0,0.1-0.1,0.2-0.2,0.3c-0.2,0.1-0.4,0.2-0.6,0.4
		c0,0-0.1,0.1-0.2,0.1c-0.2,0-0.3,0-0.5,0.1c0,0-0.1,0-0.1,0c-0.2,0-0.4,0-0.6,0.2c0,0-0.2,0.1-0.3,0.1c-0.1,0-0.3,0-0.5,0
		c-0.2,0-0.4,0-0.5-0.1c0,0-0.1,0-0.1,0c-0.3,0-0.6-0.1-0.9-0.2c-0.3-0.1-0.7-0.2-1-0.3c-0.4-0.1-0.7-0.2-1.1-0.4
		c-0.1-0.1-0.3-0.1-0.4-0.2c0,0-0.1-0.1-0.2-0.1c-0.3-0.2-0.5-0.5-0.7-0.7c0-0.1-0.1-0.1,0-0.3c0.1-0.4-0.1-0.7-0.3-1.1
		c-0.1-0.1-0.2-0.3-0.3-0.4c0-0.1-0.1-0.2-0.1-0.3c0-0.4,0-0.7,0-0.9c0-0.1,0-0.2-0.1-0.2c-0.1-0.2-0.3-0.4-0.4-0.6
		s-0.1-0.4-0.2-0.5c0,0,0-0.1-0.1-0.2c0-0.1,0-0.2,0-0.3c-0.1-0.3-0.2-0.7-0.2-1c0-0.2-0.1-0.3-0.2-0.5C24.1,27.5,24,27.3,24,27
		c0,0,0-0.1,0-0.2c0-0.4,0.1-0.7,0.1-1.1c0,0,0-0.1,0-0.2s0-0.2,0-0.2c0-0.2,0.1-0.4,0.1-0.7c0-0.1,0-0.2,0.1-0.3
		c0.2-0.3,0.3-0.7,0.4-1c0.1-0.3,0.2-0.7,0.3-1c0.1-0.2,0.2-0.3,0.2-0.5c0-0.2,0.1-0.3,0.2-0.5c0.1-0.2,0.2-0.4,0.2-0.6
		c0.1-0.3,0.2-0.6,0.3-0.8c0-0.1,0.2-0.2,0.3-0.3c0,0,0.1-0.1,0.1-0.1c0.4-0.4,0.9-0.7,1.4-1.1c0.3-0.2,0.6-0.3,0.8-0.5
		c0.3-0.2,0.5-0.4,0.8-0.6c0.1-0.1,0.3-0.2,0.5-0.2c0.5-0.1,0.9-0.1,1.3-0.1c0.3,0,0.7,0,1-0.1c0,0,0.1,0,0.1,0c0.2,0,0.3,0,0.5,0
		c0,0,0.1,0,0.2,0c0.2,0.1,0.4,0.2,0.6,0.3c0.1,0.1,0.3,0.2,0.5,0.2c0.1,0,0.3,0.1,0.4,0.1c0.2,0.1,0.5,0.2,0.7,0.1
		c0.1,0,0.3,0,0.4,0c0.2,0,0.4,0.2,0.6,0.3c0.1,0.1,0.2,0.1,0.4,0.2c0.1,0,0.1,0.1,0.2,0.2c0.3,0.3,0.5,0.5,0.8,0.8
		c0.1,0.1,0.2,0.2,0.3,0.3c0.3,0.3,0.5,0.6,0.7,0.9c0,0.1,0,0.1,0.1,0.2c0,0.1,0.1,0.3,0.2,0.4c0,0.2,0.1,0.3,0.1,0.6
		c0,0.1,0,0.3,0,0.4c0,0.1,0,0.3,0.1,0.4c0.1,0.1,0.1,0.3,0.2,0.4c0,0,0,0.1,0,0.1c0,0.2,0,0.4,0.1,0.6c0,0,0,0.1,0,0.1
		c0,0.2,0.1,0.4,0.2,0.6c0,0.1,0,0.2,0.1,0.4c0,0.1,0,0.2,0.1,0.2c0-0.1,0.1-0.3,0.2-0.4c0.1,0.1,0.1,0.2,0.1,0.3
		c0,0.4-0.2,0.7-0.6,0.8c-0.1,0-0.2,0.2-0.3,0.2c-0.1,0.1-0.3,0.1-0.4,0.2c-0.4,0.1-0.7,0.1-1.1,0.1c-0.2,0-0.4,0-0.6,0
		c-0.3,0-0.7-0.1-1-0.1c-0.7,0.1-1.3,0-2,0c-0.1,0-0.3,0-0.5,0c-0.4,0-0.8,0-1.3,0c0,0-0.1,0-0.2,0c-0.1,0.1-0.3,0.1-0.5,0.1
		c-0.3,0-0.7,0-1,0.1c-0.1,0-0.2,0-0.3,0s-0.3,0-0.5,0c-0.1,0-0.2,0-0.2,0c-0.1,0-0.1,0-0.2,0c-0.2,0-0.5,0-0.7,0
		c-0.1,0-0.2,0-0.3,0c-0.1,0.2-0.4,0.2-0.6,0.2c-0.2,0.1-0.3,0.2-0.2,0.4c0.1,0.1,0.1,0.3,0.3,0.4c0.1,0.1,0.1,0.3,0.1,0.5
		c0,0.2,0,0.5-0.2,0.6c0,0-0.1,0-0.2,0c-0.1,0.2-0.1,0.5,0,0.7c0.1,0.2,0.3,0.4,0.4,0.5c0,0,0.1,0.1,0.1,0.1c0,0.1,0,0.2,0.1,0.4
		c0.1,0.1,0.1,0.3,0.1,0.4c0,0.1,0,0.1,0.1,0.2c0.1,0.1,0.2,0.2,0.3,0.4c0.1,0.2,0.2,0.4,0.4,0.5c0.2,0.2,0.4,0.3,0.6,0.1
		c0.2-0.1,0.5,0,0.7,0c0.1,0,0.2,0,0.2,0c0.4,0,0.5,0,0.6,0.4c0.1,0,0.2,0,0.3,0c0.1,0,0.2,0,0.3,0c0.3,0.2,0.7,0.2,1,0.3
		c0.1,0,0.2,0,0.3,0c0,0.1,0,0.1,0,0.2c0,0.1,0,0.1,0.1,0.1c0,0,0.1,0,0.1,0c0,0,0-0.1,0-0.1c0,0-0.1-0.1-0.1-0.2
		c0.1-0.2,0.3-0.2,0.5-0.2c0.1,0,0.2,0,0.2-0.1c0,0,0.1-0.1,0.2-0.1c0.2-0.1,0.3-0.1,0.4,0c0.1,0.1,0.2,0.2,0.4,0.1c0,0,0,0.1,0,0.1
		c0,0.1,0.1,0.2,0.2,0.2s0.2-0.1,0.1-0.2c0,0-0.1-0.1-0.1-0.2c-0.2,0-0.2-0.1-0.4-0.2c-0.1-0.1-0.1-0.3,0-0.3
		c0.2-0.1,0.3-0.2,0.4-0.4c0,0,0.1-0.1,0.2-0.1C35.9,31.4,36,31.3,36,31.2z M31.3,20L31.3,20c-0.1,0-0.1,0-0.2,0
		c-0.1,0-0.3,0-0.4,0.2c-0.1,0.3-0.3,0.5-0.6,0.6c-0.3,0.2-0.6,0.4-0.9,0.5C29,21.4,29,21.5,29,21.7c0,0.1,0,0.1,0,0.2
		c-0.1,0.1-0.3,0.2-0.4,0.3c-0.1,0-0.1,0.1-0.2,0.2c-0.1,0.1-0.2,0.3-0.1,0.5c0,0,0,0.1,0,0.2c0,0.3,0.1,0.5,0.4,0.6
		c0.2,0,0.5,0,0.7,0.1s0.4,0,0.6,0c0.2,0,0.4,0,0.5,0c0,0,0.1,0.1,0.1,0.1c0.1,0,0.1,0.1,0.2,0.2c0.1,0.1,0.2,0.1,0.3,0
		c0.1,0,0.3-0.1,0.4-0.1c0,0,0.1,0,0.2-0.1c0.2,0,0.4,0,0.7,0c0.1,0,0.3,0,0.4-0.2c0,0,0.1-0.1,0.1-0.1c0.1,0,0.3,0,0.5,0
		c0.3,0,0.4,0,0.5-0.3c0-0.1,0-0.1,0-0.2c0-0.1,0.1-0.1,0.2-0.1c0.1,0,0.2,0,0.2,0c0.3,0.1,0.7,0.2,0.9,0.3c0.2,0,0.3,0.1,0.4,0.3
		c0,0.1,0.1,0.1,0.2,0.1c0.2,0,0.4,0,0.6-0.1c0.3,0,0.4-0.2,0.4-0.5c0-0.1,0-0.2,0-0.3c0-0.1,0-0.2-0.1-0.3c0,0-0.1,0-0.1-0.1
		c-0.1-0.1-0.2-0.1-0.3-0.2c-0.4-0.1-0.7-0.3-0.8-0.7c0-0.1-0.1-0.2-0.2-0.3c-0.2-0.3-0.5-0.5-0.7-0.8c0,0,0,0-0.1-0.1
		c-0.1-0.1-0.3-0.2-0.5-0.2c-0.1,0-0.1-0.1-0.2-0.1c-0.3,0-0.6-0.1-0.8-0.3c-0.1,0-0.2-0.1-0.3,0c-0.3,0-0.6,0-0.9,0
		C31.5,20,31.4,20,31.3,20z"/>
	<path d="M38.7,20.9c0-0.1,0-0.1-0.1-0.2C38.7,20.8,38.7,20.9,38.7,20.9z"/>
	<path d="M29.4,31.3c0-0.1,0.1-0.1,0.2-0.2c0,0,0.1-0.1,0.2-0.1c0.1,0,0.2,0,0.3,0c0.1,0,0.2,0,0.4,0c0,0,0.2,0,0.2,0s0.1,0,0.1,0
		c0,0,0.1,0,0.2,0.1c0,0.1,0,0.1-0.1,0.2c-0.1,0-0.3,0.1-0.4,0.1s-0.3,0.1-0.5,0.2c-0.2,0.1-0.2,0-0.4-0.1
		C29.6,31.5,29.5,31.4,29.4,31.3z"/>
	<ellipse cx="29.4" cy="30.9" rx="0.1" ry="0"/>
	<path d="M29.9,30.7C29.8,30.8,29.8,30.8,29.9,30.7h-0.1H29.9C29.8,30.7,29.8,30.7,29.9,30.7z"/>
	<path d="M31.3,45.5c0.1-0.3,0.3-0.5,0.6-0.6c0,0,0.1-0.1,0.2-0.1c0.1-0.1,0.2-0.1,0.3,0c0.1,0.1,0.2,0.1,0.4,0c0,0,0.1,0,0.2,0
		c0.2,0,0.4,0,0.7,0c0.2,0,0.4-0.1,0.5-0.2c0,0,0-0.1,0.1-0.1c0.1-0.1,0.2-0.1,0.3,0c0.1,0,0.1,0.1,0.2,0.2c0.2,0.1,0.5,0,0.6-0.2
		c0-0.1,0-0.1,0.2-0.2c0.1,0,0.1,0.1,0.1,0.2c0,0.1,0.1,0.2,0.2,0.1c0.1,0,0.2,0,0.3,0.1c0.1,0.1,0.2,0.1,0.3,0
		c0.1,0,0.2-0.1,0.4-0.1c0.2,0,0.3,0,0.3,0.2c0,0.1,0.1,0.2,0.2,0.3c0.2,0.1,0.5,0.1,0.6,0.3c-0.1,0.3,0.1,0.6,0.1,0.9
		c-0.1,0-0.1-0.2-0.2-0.3c0-0.2-0.1-0.1-0.3-0.2c-0.2,0-0.3,0-0.5,0c-0.1,0-0.3,0-0.5,0s-0.2-0.1-0.4-0.2c-0.1-0.1-0.3-0.2-0.6-0.2
		c-0.2,0-0.4,0-0.5-0.1c0.2-0.1,0.4-0.1,0.5,0c0,0,0.1,0,0.2,0.1c0.1,0,0.3,0,0.5,0c0,0,0.1,0,0.1,0c-0.1-0.1-0.1-0.2-0.2-0.3
		c0,0-0.1-0.1-0.2-0.1c-0.1,0-0.2-0.1-0.3-0.1c-0.1,0-0.2-0.1-0.3-0.1c-0.3,0-0.6,0-0.8,0c-0.1,0-0.2,0-0.2-0.1
		c-0.1-0.1-0.2-0.1-0.4,0c-0.1,0.1-0.2,0.2-0.3,0.2c-0.1,0-0.2,0-0.3,0c-0.3,0-0.6,0-0.8,0c-0.1,0-0.2,0-0.3,0c-0.2,0-0.3,0-0.5,0.1
		c0,0.1-0.1,0.2-0.3,0.1c0,0-0.1,0-0.1,0C31.4,45.4,31.3,45.5,31.3,45.5C31.3,45.5,31.3,45.5,31.3,45.5L31.3,45.5z"/>
	<path d="M35.8,45.8c0.1,0,0.2,0,0.3,0c0,0.1-0.1,0.2-0.2,0.1C35.8,46,35.7,45.9,35.8,45.8z"/>
	<path d="M29.5,49.9c0-0.1,0-0.2,0.1-0.3C29.6,49.7,29.6,49.8,29.5,49.9z"/>
	<path d="M19.8,28c0-0.2,0-0.4,0-0.6c0,0,0-0.1,0-0.1c0-0.2,0-0.4,0.1-0.6c0-0.1,0-0.3,0-0.5c0-0.2,0-0.3,0.2-0.4
		c0,0,0.1-0.1,0.1-0.2c0-0.1,0-0.3,0.1-0.4c0,0.3,0,0.6-0.1,0.9c0,0.1,0,0.2,0,0.2c0,0.2,0,0.4-0.2,0.5s-0.2,0.2-0.1,0.4
		c0,0,0,0.1,0,0.1C19.9,27.5,19.8,27.7,19.8,28C19.8,28,19.8,28,19.8,28z"/>
	<path d="M52.6,34.7c0.1-0.1,0.3-0.2,0.4-0.2c0.2-0.1,0.5-0.2,0.7-0.4c0,0,0,0,0.1,0c-0.1,0.1-0.2,0.2-0.3,0.3
		c-0.1,0-0.1,0.1-0.2,0.2c-0.1,0-0.2,0-0.3,0.1C52.9,34.6,52.7,34.7,52.6,34.7z"/>
	<path d="M46.1,24.2c-0.1,0.2-0.4,0.2-0.6,0c0-0.1-0.1-0.2-0.2-0.3c0,0-0.1-0.1-0.1-0.1c-0.1-0.1-0.2-0.1-0.1-0.3
		c0-0.2,0.1-0.5,0.2-0.7c0-0.1,0.1-0.2,0.2-0.3c0,0,0.1,0,0.1-0.1c0.4-0.4,0.8-0.7,1.3-1c0.2-0.1,0.4-0.3,0.7-0.4
		c0.1,0,0.3-0.1,0.4-0.1c0.1,0,0.2,0,0.3-0.1c-0.1,0-0.2-0.1-0.3-0.1c0-0.1,0.1-0.1,0.2-0.1c0.4,0,0.7,0,1.1,0c0.1,0,0.3,0,0.5,0
		c0,0,0.1,0,0.2-0.1c0.2-0.2,0.4-0.2,0.6-0.2c0.3,0,0.7,0.1,0.8,0.4c0,0,0.1,0.1,0.2,0.1c0.2,0,0.2,0,0.3,0.2c0,0,0,0,0,0.1
		c0,0,0,0,0.1,0c0.2-0.1,0.3,0,0.4,0.2c0,0.1,0.1,0.3,0.2,0.4c0,0,0,0.1,0.1,0.1c0.1,0,0.2,0.1,0.2,0c0,0,0.1-0.1,0.1-0.2
		c0-0.2-0.1-0.4,0-0.6c0-0.1,0-0.2-0.1-0.2c-0.1,0-0.1-0.1-0.2-0.2c-0.1-0.1-0.2-0.2-0.3-0.2s-0.2-0.1-0.2-0.2
		c0-0.1,0.1-0.1,0.2-0.1c0.2,0,0.3,0,0.5,0.2c0.1,0.1,0.3,0.3,0.5,0.4c0,0,0.1,0.1,0.1,0.1c0.1,0.1,0.2,0.3,0.4,0.4
		c0,0,0.1,0.1,0.1,0.1c0.1,0.2,0.2,0.4,0.3,0.6c0,0.1,0.1,0.2,0.1,0.3c0,0,0,0-0.1-0.1c-0.1-0.1-0.2-0.3-0.3-0.4
		c-0.1-0.1-0.3-0.2-0.3-0.4c0,0-0.1,0-0.1,0c0,0-0.1,0-0.1,0c-0.3,0.1-0.3,0.1-0.2,0.4c0.1,0.2,0.1,0.5,0,0.7c-0.1,0.1-0.3,0-0.4,0
		c0,0-0.1-0.1-0.2-0.2c0,0-0.1,0-0.1-0.1c-0.2-0.3-0.4-0.6-0.7-0.7c-0.3-0.1-0.5-0.3-0.7-0.4c-0.2-0.1-0.3-0.1-0.5,0.1
		c0,0-0.1,0.1-0.1,0.1c-0.2,0-0.4,0.1-0.6,0c-0.2,0-0.4,0-0.6,0.1c-0.1,0-0.2,0.1-0.3,0c0,0-0.1,0-0.2-0.1c-0.1,0-0.2,0-0.2,0
		c-0.1,0-0.2,0-0.3,0c-0.1,0-0.3,0-0.4,0.1c-0.2,0.2-0.4,0.4-0.7,0.6c-0.1,0.1-0.2,0.2-0.3,0.3c-0.1,0.2-0.2,0.4-0.4,0.4
		c0,0-0.1,0-0.1,0.1c-0.2,0.1-0.2,0.3-0.3,0.5c0,0,0,0.1,0,0.2c0,0.1,0,0.3,0,0.4s-0.1,0.3-0.2,0.5c0,0.1,0,0.3,0.2,0.3
		C46,24.2,46.1,24.2,46.1,24.2z M53.2,20.9c0-0.1,0.1-0.1,0-0.2c0,0,0-0.1-0.1-0.1c0,0-0.1,0-0.1,0.1C53.1,20.8,53.2,20.9,53.2,20.9
		z"/>
	<path d="M52.6,21.9c0.1,0,0.1,0.1,0.2,0.2c0.1,0.1,0.2,0.1,0.4,0c0-0.2,0-0.5,0-0.7S53,21.1,53.3,21c0,0,0.1,0,0.1,0
		c0,0,0.1,0,0.1,0c0,0.2,0.1,0.3,0.3,0.4c0.1,0.1,0.2,0.3,0.3,0.4c0,0,0,0,0.1,0.1c0,0.1,0.1,0.2,0.1,0.3c0,0.2,0,0.3,0.1,0.5
		c0,0,0,0,0,0.1c0,0-0.1,0-0.1-0.1c0-0.4-0.2-0.7-0.4-1c-0.1-0.1-0.1-0.2-0.3-0.3c-0.1-0.1-0.3-0.1-0.5-0.2c0,0,0,0.1,0,0.1
		c0.1,0.3,0.1,0.6,0.2,0.9c0,0.2,0.1,0.4,0.1,0.6c0,0.2,0.1,0.4,0.1,0.6c0,0,0,0.1,0.1,0.2c0.1,0,0.2,0.1,0.1,0.3
		c0,0.1,0.1,0.3,0.2,0.3c0.1,0,0.2-0.1,0.2-0.3s0-0.2,0.1-0.3c0,0.1,0,0.1,0,0.2c0,0.1,0,0.2-0.1,0.3c-0.1,0.1-0.3,0.1-0.5,0
		c-0.1,0-0.2,0-0.3,0c0,0.1-0.1,0.1-0.2,0.1c-0.4,0-0.8,0-1.3,0c0,0-0.1,0-0.1,0c-0.1,0.1-0.3,0-0.5,0c-0.1,0-0.2,0-0.4,0
		c-0.3,0-0.6,0-0.8-0.1c0.2,0,0.5,0,0.7-0.1c0.1,0,0.2,0,0.3,0c0.2,0.1,0.5,0.1,0.7,0.1c0.1,0,0.2,0,0.3,0c0.3,0,0.7,0,0.9,0
		c0.2,0,0.3-0.1,0.2-0.3c0-0.1-0.1-0.3-0.2-0.4c-0.1-0.3-0.1-0.5-0.2-0.8c0-0.1-0.1-0.2-0.2-0.3C52.9,22.2,52.7,22.1,52.6,21.9z"/>
	<path d="M46.1,24.2c-0.1,0-0.2,0-0.2,0c-0.2,0-0.2-0.1-0.2-0.3c0-0.1,0.1-0.3,0.2-0.5c0.1-0.1,0-0.3,0-0.4c0-0.1,0-0.1,0-0.2
		c0.1-0.2,0.1-0.4,0.3-0.5c0,0,0.1-0.1,0.1-0.1c0.2,0,0.3-0.2,0.4-0.4c0.1-0.1,0.2-0.2,0.3-0.3c0.2-0.2,0.4-0.4,0.7-0.6
		c0.1-0.1,0.2-0.1,0.4-0.1c0.1,0,0.2,0,0.3,0c0,0,0.1,0,0.2,0c-0.1,0-0.2,0.1-0.4,0.2c0,0,0,0-0.1,0c-0.2-0.1-0.2-0.1-0.3,0
		c0,0-0.1,0.1-0.2,0.2c-0.3,0.1-0.5,0.4-0.7,0.7c-0.1,0.1-0.1,0.3-0.2,0.4c-0.1,0.1-0.2,0.3-0.3,0.5c0,0.1-0.1,0.3-0.2,0.4
		c-0.1,0.2-0.1,0.4-0.4,0.5c0,0-0.1,0.1-0.1,0.2c0,0,0.1,0.1,0.1,0.1c0.1,0,0.2,0,0.2-0.1c0-0.1,0.1-0.2,0.1-0.2
		c0,0,0.1-0.1,0.2-0.2c0,0.1,0.1,0.2,0.1,0.2c0,0.1,0.1,0.2,0.3,0.2c0.1,0,0.3,0,0.4,0c0.3,0,0.6,0,0.9,0s0.7,0,1,0.1
		c0.1,0,0.2,0,0.3,0v0c-0.1,0-0.3,0-0.4,0c-0.1,0-0.3-0.1-0.4,0c0,0-0.1,0-0.2,0c-0.1,0-0.2,0-0.4,0c-0.1,0-0.3,0-0.5,0
		c-0.1,0-0.3,0-0.5,0.1c-0.2,0.1-0.5,0.1-0.7,0C46.3,24,46.3,24,46.1,24.2z"/>
	<path d="M54.5,22.9C54.5,22.9,54.5,22.9,54.5,22.9C54.6,22.9,54.6,22.9,54.5,22.9c0.1,0.3,0.1,0.5,0.1,0.7c0,0,0,0,0,0.1
		c0,0.3,0,0.5-0.3,0.5c-0.2,0-0.5,0.1-0.7,0.1c-0.2,0-0.5,0-0.7,0c-0.3,0-0.6,0.1-0.8,0.1c-0.3,0-0.6,0.1-0.8,0.2
		c-0.1,0-0.2,0-0.3,0.1c-0.1,0.1-0.3,0-0.4,0s-0.1-0.1-0.2-0.2c0-0.1-0.1-0.2-0.3-0.2c-0.1,0-0.3,0-0.5,0c0,0-0.1,0-0.2,0
		c0.3,0,0.6,0,0.9,0l0,0l0,0c0.2,0.2,0.5,0.1,0.8,0.1c0.1,0,0.2,0,0.4,0c0.2,0,0.3,0,0.5,0c0,0,0.1,0,0.1,0c0.4,0,0.8,0,1.3,0
		c0.1,0,0.2,0,0.2-0.1c0.1-0.1,0.1-0.1,0.3,0c0.2,0.1,0.4,0,0.5,0c0.1-0.1,0.1-0.2,0.1-0.3c0,0,0-0.1,0-0.2
		C54.6,23.3,54.5,23.1,54.5,22.9z"/>
	<path d="M50.5,24.2c-0.3,0-0.6,0-0.9,0c0,0,0,0-0.1,0v0c0.3,0,0.5,0,0.8,0C50.3,24.2,50.4,24.2,50.5,24.2z"/>
	<path d="M31.3,20c0.1,0,0.3,0,0.4,0c0.3,0,0.6,0.1,0.9,0c0.1,0,0.2,0,0.3,0c0.3,0.1,0.6,0.2,0.8,0.3c0.1,0,0.2,0.1,0.2,0.1
		c0.1,0.1,0.3,0.1,0.5,0.2c0,0,0,0,0.1,0.1c0.2,0.3,0.4,0.6,0.7,0.8c0.1,0.1,0.1,0.2,0.2,0.3c0.1,0.4,0.5,0.6,0.8,0.7
		c0.1,0,0.2,0,0.3,0.2c0,0,0.1,0,0.1,0.1c0.1,0,0.1,0.1,0.1,0.3c0,0.1,0,0.2,0,0.3c0,0.3,0,0.4-0.4,0.5c-0.2,0-0.4,0-0.6,0.1
		c-0.1,0-0.2,0-0.2-0.1c0-0.2-0.2-0.3-0.4-0.3c-0.3-0.1-0.7-0.2-0.9-0.3c-0.1,0-0.2,0-0.2,0c-0.1,0-0.1,0-0.2,0.1c0,0.1,0,0.1,0,0.2
		c-0.1,0.2-0.3,0.3-0.5,0.3c-0.1,0-0.3,0-0.5,0c0,0-0.1,0-0.1,0.1c-0.1,0.1-0.2,0.2-0.4,0.2c-0.2,0-0.4,0-0.7,0c0,0-0.1,0-0.2,0.1
		c-0.1,0-0.3,0.1-0.4,0.1c-0.1,0-0.2,0-0.3,0c0,0-0.1-0.1-0.2-0.2c0,0-0.1-0.1-0.1-0.1c-0.2,0-0.4-0.1-0.5,0c-0.2,0-0.4,0-0.6,0
		c-0.2,0-0.5,0-0.7-0.1c-0.3,0-0.4-0.3-0.4-0.6c0-0.1,0-0.2,0-0.2c-0.1-0.2,0-0.4,0.1-0.5c0,0,0.1-0.1,0.2-0.2
		c0.1-0.1,0.3-0.2,0.4-0.3c0,0,0.1-0.1,0-0.2c0-0.2,0-0.3,0.2-0.4c0.3-0.2,0.6-0.3,0.9-0.5c0.2-0.1,0.5-0.3,0.6-0.6
		c0-0.1,0.2-0.2,0.4-0.2C31.1,20,31.2,20,31.3,20L31.3,20z M33.7,20.7c0-0.1,0-0.2-0.1-0.2c-0.1,0-0.2,0-0.3,0
		c-0.1-0.1-0.3-0.1-0.5,0c-0.1,0-0.2,0.1-0.4,0c-0.1,0-0.2,0-0.3,0c-0.1,0-0.3,0-0.4-0.1c-0.2-0.2-0.3-0.1-0.6,0
		c-0.1,0.1-0.3,0.1-0.4,0.2c-0.1,0.1-0.2,0.1-0.3,0.3c-0.4,0.5-0.8,0.8-1.2,1.2c-0.1,0.1-0.3,0.3-0.4,0.5c0,0.1-0.1,0.2-0.2,0.2
		c0,0,0,0-0.1,0c0,0,0,0.1,0,0.1c0.1,0.2,0.1,0.2,0,0.4c0,0.1-0.1,0.1-0.1,0.2c-0.1,0.2,0,0.2,0.1,0.3c0,0,0.1,0,0.2,0
		c0.4,0,0.8,0,1.3,0c0.2,0,0.3,0,0.5,0.1c0.2,0.1,0.4,0.2,0.7,0.1l0,0c0,0-0.1-0.1-0.1-0.2c0.1,0,0.1-0.1,0.2-0.1
		c0.1,0,0.2-0.1,0.4-0.1c0.1,0,0.2-0.1,0.3-0.1c0.2,0,0.5,0,0.7,0c0.3,0,0.6,0,0.7-0.2c0,0,0.1-0.1,0.2-0.1c0.4,0,0.7,0,1.1,0
		c0.2,0,0.4,0,0.5,0.2c0,0.1,0.1,0.1,0.2,0c-0.1-0.2-0.2-0.4-0.3-0.6c0-0.1,0-0.2-0.1-0.3c0-0.1-0.1-0.3-0.2-0.4
		c-0.1-0.1-0.2-0.2-0.3-0.4c-0.1-0.2-0.4-0.4-0.6-0.6c-0.1-0.1-0.4-0.1-0.6-0.2c0,0-0.1,0-0.1-0.1C33.5,20.6,33.6,20.6,33.7,20.7z"
		/>
	<path d="M53.2,20.9c0-0.1-0.1-0.1-0.1-0.2c0,0,0-0.1,0.1-0.1s0.1,0,0.1,0.1C53.3,20.8,53.3,20.9,53.2,20.9z"/>
</g>
</svg>
