<?xml version="1.0" encoding="utf-8"?>
<!-- Generator: Adobe Illustrator 24.1.0, SVG Export Plug-In . SVG Version: 6.00 Build 0)  -->
<svg version="1.1" id="Layer_1" xmlns="http://www.w3.org/2000/svg" xmlns:xlink="http://www.w3.org/1999/xlink" x="0px" y="0px"
	 viewBox="0 0 190 66.9" style="enable-background:new 0 0 190 66.9;" xml:space="preserve">
<style type="text/css">
	.st0{fill:#020202;}
	.st1{fill:#030303;}
	.st2{fill:#040404;}
	.st3{fill:#0F0F0F;}
	.st4{fill:#0A0A0A;}
	.st5{fill:#222222;}
	.st6{fill:#101010;}
	.st7{fill:#898989;}
	.st8{fill:#D1D1D1;}
	.st9{fill:#090909;}
	.st10{fill:#8D8D8D;}
	.st11{fill:#323232;}
	.st12{fill:#3E3E3E;}
	.st13{fill:#7F7F7F;}
	.st14{fill:#AAAAAA;}
	.st15{fill:#A9A9A9;}
	.st16{fill:#5C5C5C;}
	.st17{fill:#2C2C2C;}
	.st18{fill:#050505;}
	.st19{fill:#161616;}
	.st20{fill:#1B1B1B;}
	.st21{fill:#B2B2B2;}
	.st22{fill:#EDEDED;}
	.st23{fill:#F9F9F9;}
	.st24{fill:#080808;}
	.st25{fill:#F3F3F3;}
</style>
<g>
	<path class="st0" d="M91,41.3c0.6-0.6,1.2-1.1,1.7-1.7c1.4-1.7,2.8-2,4.5-0.5c1.4,1.3,2,2.4,0.9,4.5c-3.2,6.2-13,12.1-18.8,11
		c-6.6-1.3-13.7-10-14.5-17.3c-0.4-3.2,0.6-6.8-2.3-9.5c0.2,0.2,0.3,0.5,0.5,0.7c-0.2-0.2-0.3-0.5-0.5-0.7c2.4-2.9,3.4-6.7,6.1-9.5
		c6-6.2,16-7.1,23-1.8c1.6,1.2,2.8,3.1,5.1,3.2c1.6,1.7,2.8,10.4,1.5,12.5c-1.5,2.5-3.9,3.1-6.7,2.3c-4.5-0.2-8.8,1.2-13.2,1.9
		c-1.9,0.3-4.4,0.3-4.1,3.4c0.2,2.5,0,5.3,3.8,5.4c1,0,2,1,3.2,0.7C85.5,46.6,88.8,45.1,91,41.3z"/>
	<path class="st0" d="M166.3,18c-0.3,1.9-1.6,2.8-3.4,3c-1.2,0.4-2.6,0.5-3.7,1.2c-0.7,0.3-1.3,0.7-2,1c-4.7-1.1-9.1-3.7-14.2-2.8
		c-2.2,0.4-4.6,0-5.5,2.7c-1.6,6.9-2.9,14-4.9,20.7c-1.1,3.7-4.8,5.9-7.4,8.6c-1.9,2-4.1,1.5-5.8-1.2c-2.2-3.4-3.3-7.3-4.9-11
		c-2.5-5.7-4.2-11.7-6.2-17.6c-1.2-1.7-3.1-1.1-4.7-1.4c-4.6-0.8-4.8-1.3-3.8-6.3c3-1.1,5.6,0.8,8.5,0.8c4.3-1.8,8.7-3.9,13.4-1
		c1.9,1.8,2.1,3.8,1.1,6.1c-4.1,5.8-4.1,6.7,0.1,11.8c0.8-3.3,2.3-6.1,1.6-9.4c-0.3-2.8-2.3-5.4-0.6-8.3c3.5-2.8,7.3-3.6,11.6-2.1
		c7.6,4.8,15.8,1.6,23.8,1.8C162.1,15.1,164.8,15,166.3,18z"/>
	<path class="st0" d="M62.5,27.9c-0.2,4.9-2.7,7.3-7.5,6.9c-3.8-0.3-7.7-0.6-11.4,0.5c-0.4,0.6-1.1,0.5-1.7,0.6
		c-2.1,0.4-5.3-1.6-5.5,2.9c-0.2,4.1,0.9,5.6,5.5,6.6c0.9,0.2,1.8,0.3,2.6,0.9c2.5,2.1,4.8,3.3,5.9-1.2c0.3-0.4,0.5-0.7,0.8-1
		c0.1-0.3,0.1-0.6,0.2-0.9c0.9-2.8,3-3.9,5.7-4.1c1.2-0.1,2.3,0.2,2.3,1.7c-0.1,2.7,0,5.4-2.9,7c-1.8,1-3.6,2-5,3.4
		C45.8,56.8,39.6,56.9,33,53c-4.1-2.9-4.2-7.6-5.5-11.8c-3.7-7.7-0.4-18.5,6-24.1C38.9,12.4,44,11.9,50,15c5.6,2.8,9.6,6.8,10,13.5
		c0.1,1,0.2,2.1,1.5,1.9C62.6,30.1,62.4,28.8,62.5,27.9L62.5,27.9z"/>
	<path class="st1" d="M17.5,16.2c1.7,5.7,3.8,11.2,0.9,17.3c-2.2,4.6-1.8,8.9,2.5,12.9c3.7,3.5,3.1,4.7-1.4,6.4
		c-2.7,2.7-5.8,1.2-8.8,0.9c-3.4,0.7-6.2-0.8-8.6-2.8c-0.9-0.8-2-1.8-1.4-3.3c0.7-1.7,2-0.9,3.2-0.7c2.8,0.5,4.2-0.7,4.1-3.6
		c-1.5-3.9-0.7-7.8-0.1-11.8C8.5,25.4,8,19.3,9.5,13.3c0.4-1.5,0.7-2.7-1.8-2.6C4.3,10.8,3.2,7,0.5,5.6c-1-0.5-0.1-2,0.9-2.7
		C8.5-2,13.9-0.9,19,6.5c0.2,0.3,0.3,0.5,0.5,0.8C20.7,10.7,19.1,13.4,17.5,16.2z"/>
	<path class="st2" d="M156.7,20.9c0.6,0,1.3,0,1.9,0c2.7,3,2.7,7,3.9,10.6c0,3.8,3.1,6.3,3.8,9.8c3.1-0.2,3.6-3,4.9-5
		c0.9-2.7,1.6-5.6,2.9-8c1.3-2.3,3.1-4.3,3.5-6.9c-2.6-1-6.5,1.4-7.6-3c-0.8-3.1,2.9-1.8,3.6-3.4c4.1-0.6,8.1-0.8,12.2,0.6
		c1.7,0.6,3.1,1.3,3.3,3c0.2,2.4-2.2,1-3.1,1.8c-0.5,0.4-0.8,1-1.2,1.5c-3.9,1-4.2,4.9-4.5,7.6c-0.7,6.2-1.8,11.7-6.4,16.5
		c-2.2,2.3-2.8,6.1-4.3,9.1c-1.3,2.7-2.5,5.6-5.7,6.6c-3.7-0.3-3.8-0.8-1.3-4.9c0.7-1.8,1.3-3.7,0.9-5.7c-1.5-2.2-1-4.8-1.5-7.2
		c-0.9-1.3-2.3-2.2-3.3-3.5c-1.1-5.3-4.5-9.8-4.9-15.3C151.9,21.6,154.8,21.6,156.7,20.9z"/>
	<path class="st3" d="M162.9,63.6c-1.5,3.6-4.6,3-7.6,2.8c-5.4,1.5-8.7-2.4-12.6-4.8c-1.9-4.2,1-7.2,3.9-8.3
		c1.9-0.7,5.8,1.1,5.4,5.3c0.3,3.1,2.9,3.4,4.7,2.7C159.7,60.1,161.4,61.1,162.9,63.6z"/>
	<path class="st4" d="M166.3,18c-6.4-2.1-12.8-2.8-19.3-1.1c-4.8,1.2-8.3-0.7-11.6-3.7c8.5,2.3,17,1.7,25.5,0.4
		C164.2,13.1,166.2,14.6,166.3,18z"/>
	<path class="st5" d="M99.7,15.2c-0.1,3.4,1.4,5.2,5,5.3c1.5,0,3.7-0.2,3.5,2.5c-2.9,0.7-6.2-2.6-8.1-0.5c-1.6,1.8-0.6,5.4-0.5,8.2
		c0.2,3.9-2.3,5-8,3.9c6,0,6.2-4.2,6.1-8.6c-0.1-2.1-0.1-4.1-1-6.1C97.7,18.3,98.7,16.8,99.7,15.2z"/>
	<path class="st4" d="M156.7,20.9c-1.5,1-2.9,2-3,4c-3.8-3.7-12.2-4.6-16.2-1.7c-0.2-2.4,1.4-2.8,3.2-3.2
		C146.2,18.8,151.5,17.7,156.7,20.9z"/>
	<path class="st6" d="M162.9,63.6c-2.2-1.7-4.4-2-7.1-1c-1.8,0.7-3.9,0.2-5.2-1.4c-0.8-1,0.5-1.9,1.4-2.6c4.3,3.5,7.4,0.8,10.6-1.9
		c-0.3,1.8-1.4,3.9,1.3,4.9C163.6,62.4,163.7,63.2,162.9,63.6z"/>
	<path class="st7" d="M41.7,46.9c-2.1,0.1-4.1,0.1-5.1-2.5c-1-2.7-1.8-5.6-0.3-7.9c1.6-2.4,4.7-1.1,7.2-1.2c-0.9,0.3-1.8,1-2.6,0.9
		c-2.7-0.2-3.7,0.9-3.9,3.5c-0.2,2.7,1.3,3.3,3.5,3.4c0.8,0.1,1.5,0.5,2.3,0.7C43.5,45.3,42.6,46.1,41.7,46.9z"/>
	<path class="st8" d="M7.8,31.6c1.7,3.9,1.9,7.8,0.1,11.8c-2.5,0.1-3.2-1.1-3-3.4C5.1,36.8,6.3,34.2,7.8,31.6z"/>
	<path class="st9" d="M184.7,21.9c0-0.2,0-0.3,0.1-0.5c2.8-4.3,2.1-5.5-3.6-6.2c-2.5-0.3-5-0.2-7.6-0.3c4-0.9,8-0.9,12.1,0
		c2.2,0.5,4,1,4.3,3.5c0.3,3-2.4,2.3-4,2.9C185.6,21.6,185.1,21.8,184.7,21.9z"/>
	<path class="st10" d="M91,41.3c-1.3,5.5-2.4,6.1-9.8,4.7c2.1-1.6,6.2-0.2,6.5-4.5C87.7,41.3,89.9,41.3,91,41.3z"/>
	<path class="st11" d="M120.8,15.3c-2.1-0.8-3.9-1.9-6.2,0.2c-1.7,1.6-4.3,0.8-6.5,0.6c3.6-5.1,8.3-2.7,12.7-1.9
		C121.3,14.5,121.2,14.9,120.8,15.3z"/>
	<path class="st12" d="M120.8,15.3c0-0.4,0.1-0.8,0.1-1.2c1,0.4,2,0.8,2.9,1.2c-0.3,3.4,3.9,4.4,3.9,7.6c-2.8,0.8-5.4,1.1-6.9-2.1
		C121.8,18.9,122,17.1,120.8,15.3z"/>
	<path class="st13" d="M171.2,36.4c0.2,2-1.1,3.5-1.8,5.3c-0.4,1-0.1,2.6-1.5,2.6c-1.7,0-1.5-1.7-1.7-2.9
		C167.6,39.5,168.4,37,171.2,36.4z"/>
	<path class="st14" d="M41.7,46.9c0.4-1,0.7-1.9,1.1-2.9c2.5,1.5,5,0.9,7.6,0.2c0.3,0.5,0.4,0.9,0.1,1.4c-1.5,2.8-3.5,4.5-6.7,2.2
		C43.1,47.6,42.4,47.2,41.7,46.9z"/>
	<path class="st15" d="M10.6,53.7c2.9-0.3,5.9-0.6,8.8-0.9c0.4,3.4-2.2,3-4,2.7C13.8,55.4,12.2,54.4,10.6,53.7z"/>
	<path class="st16" d="M27.4,41.2c2.4,3.7,2.8,8.3,5.5,11.8C26.9,50.9,28.3,45.5,27.4,41.2z"/>
	<path class="st4" d="M162.5,31.6c-2.2-3.2-2.4-7.1-3.9-10.6c1.4,0,2.9,0.1,4.3,0.1c-1.7,0.7-3,1.4-1.6,3.7
		C162.5,26.8,162.6,29.2,162.5,31.6z"/>
	<path class="st17" d="M17.5,16.2c-0.7-3.2,2-5.7,1.9-8.8C21.6,11.7,21,14.5,17.5,16.2z"/>
	<path class="st18" d="M158.6,40.3c1.9,1,5.8-1.9,5.8,2.9c-1.7,2.1-3.4,1.3-5.1,0.1C158.2,42.5,158.6,41.3,158.6,40.3z"/>
	<path class="st19" d="M142.6,61.6c4.3,1.5,7.7,5,12.6,4.8C150.5,67.8,145.3,65.8,142.6,61.6z"/>
	<path class="st20" d="M159.3,43.3c1.7,0,3.4,0,5.1-0.1c-1.3,2.5-1.5,5.1-1,7.8C161.5,48.7,161.6,45.4,159.3,43.3z"/>
	<path class="st21" d="M50.4,45c0-0.3,0-0.6,0-0.8c0.3-0.1,0.5-0.1,0.8-0.1c0.1,0.3,0.2,0.6,0.1,0.9C51,45.4,50.7,45.4,50.4,45z"/>
	<path class="st22" d="M84.3,29.8c-2.6-0.2-5.1-0.5-7.7-0.6c-2.7-0.1-2.9-1.2-1.7-3.4c2.6-4.6,11.5-5.2,15.2-0.2
		c1.4,1.9,0.6,3.6-1.9,4c-1.3,0.2-2.6,0-3.8,0C84.3,29.7,84.3,29.8,84.3,29.8z"/>
	<path class="st23" d="M120.9,20.8c2.5,0.2,5.1-0.2,6.9,2.1c-0.3,4-3.3,13.7-5.4,17.2c-3.8-5.6-5.1-11.9-7.2-18
		C117.2,21.6,119,21.2,120.9,20.8z"/>
	<path class="st18" d="M45.4,21c3.4,0.2,6.7,0.2,8.4,4.2c1.3,3,0.5,4.7-2.6,5.1c-5.4,0.6-10.8,0.9-16.1-0.5c-1.4-0.4-1.8-1-1.6-2.4
		C34.3,21.7,40.5,18.4,45.4,21c-0.6,1.8-2.6,2.2-3.6,3.7C44.4,24.5,44.4,24.5,45.4,21z"/>
	<path class="st24" d="M50.4,45c0.3,0,0.6,0,0.9,0c0.4,1.7,0.8,3.4-1.3,4.5c-2.1,1-4.3,1.2-6.4,0.4c-1-0.4-0.3-1.3,0.2-2
		C46.6,48.5,48.4,46.5,50.4,45z"/>
	<path class="st25" d="M45.4,21c1.2,0.8,2.5,1.5,3.5,2.4c0.9,0.9,1.7,2.1,1.3,3.4c-0.6,1.7-1.9,0.1-2.9,0.3c-3,0.7-5.9,2-9.2,1.5
		c-2.6-0.4-2.5-1.6-1.4-3.2C38.9,22.6,41.5,20.4,45.4,21C45.5,21,45.4,21,45.4,21z"/>
</g>
</svg>
