<?xml version="1.0" encoding="utf-8"?>
<!-- Generator: Adobe Illustrator 24.1.0, SVG Export Plug-In . SVG Version: 6.00 Build 0)  -->
<svg version="1.1" id="Layer_1" xmlns="http://www.w3.org/2000/svg" xmlns:xlink="http://www.w3.org/1999/xlink" x="0px" y="0px"
	 viewBox="0 0 40 40" style="enable-background:new 0 0 40 40;" xml:space="preserve">
<style type="text/css">
	.st0{fill:#1ED760;}
</style>
<path class="st0" d="M20,0C9,0,0,9,0,20c0,11,9,20,20,20c11,0,20-9,20-20C40,9,31,0,20,0C20,0,20,0,20,0z M29.2,28.9
	c-0.4,0.6-1.1,0.8-1.7,0.4c-4.7-2.9-10.6-3.5-17.6-1.9c-0.7,0.2-1.3-0.3-1.5-0.9c-0.2-0.7,0.3-1.3,0.9-1.5c7.6-1.7,14.1-1,19.4,2.2
	C29.3,27.5,29.5,28.3,29.2,28.9z M31.6,23.4c-0.5,0.7-1.4,1-2.1,0.5c-5.4-3.3-13.6-4.3-19.9-2.3c-0.8,0.2-1.7-0.2-1.9-1
	c-0.2-0.8,0.2-1.7,1-1.9c7.3-2.2,16.3-1.1,22.5,2.7C31.8,21.7,32.1,22.7,31.6,23.4L31.6,23.4z M31.8,17.7
	c-6.4-3.8-17.1-4.2-23.2-2.3c-1,0.3-2-0.3-2.3-1.2c-0.3-1,0.3-2,1.2-2.3c7.1-2.1,18.8-1.7,26.2,2.7c0.9,0.5,1.2,1.7,0.7,2.6
	C33.9,18,32.7,18.3,31.8,17.7L31.8,17.7z"/>
</svg>
